<svg xmlns="http://www.w3.org/2000/svg" width="50.29" height="57.15" viewBox="-54.727 695.091 50.286 57.148" enable-background="new -54.727 695.091 50.286 57.148"><path d="m-54.727 738.22c2.606-4.31 3.495-9.238 4.998-13.942 3.066-9.597 6.084-19.21 9.241-29.19 6.625.924 12.42 3.516 18.431 5.289.294.513.704.793 1.321.662.274.228.585.301.932.22.151.56.48.778 1.044.545.655.151 1.31.302 1.966.453.782 1.254 1.978.642 3.03.673 2.949 1.33 6.22 1.919 9.322 3.895-2.08 6.43-4.442 12.684-6.103 19.12-2.294 8.886-5.937 17.291-8.401 25.914-1.391.713-2.401.268-3.535-.093-10.07-3.202-20.16-6.329-30.26-9.442-.615-.189-1.322-.074-1.985-.101 0-1.333 0-2.666 0-4m48.24-30.632c-11.05-3.502-21.815-6.914-32.668-10.353-4.631 14.583-9.115 28.704-13.699 43.14 10.876 3.861 21.568 7.105 32.602 10.312 4.609-14.43 9.119-28.552 13.765-43.1" fill="#4a5941"/><g fill="#f0f0f0"><path d="m-13.764 702.93c-1.053-.03-2.249.581-3.03-.673 1.026.154 2.266-.655 3.03.673"/><path d="m-20.737 701.04c-.616.131-1.027-.149-1.321-.662.635-.166 1.112-.02 1.321.662"/><path d="m-18.76 701.81c-.565.233-.894.014-1.044-.545.481-.075.849.07 1.044.545"/><path d="m-6.483 707.59c-4.645 14.546-9.156 28.668-13.764 43.1-11.03-3.206-21.726-6.451-32.602-10.312 4.584-14.435 9.07-28.556 13.699-43.14 10.852 3.438 21.616 6.851 32.667 10.352m-14.983 9.353c-1.879-1.204-3.82-2.15-6.359-1.601 1.635 1.903 3.797 1.819 5.715 2.344 5.364 2.243 5.364 2.243 8.242 1.766-2.488-1.578-4.965-2.261-7.598-2.509m-15.209 6.688c6.211 2.274 12.313 4.904 18.997 5.638-6.209-2.284-12.235-5.161-18.997-5.638m-8.787 7.842c2.536 2.133 5.785 2.523 8.721 3.566 6.433 2.284 6.48 2.15 9.352 1.469-6.261-1.997-11.901-4.372-18.07-5.04m17.4 1.772c-5.827-3.041-13.922-5.424-16.439-5.01 2.976 1.917 11.397 4.61 16.439 5.01m13.586-10.198c-6.539-3.272-12.216-4.831-15.09-4.307 3.723 2.01 10.807 4.138 15.09 4.307m-17.03-1.497c4.772 2.061 9.447 4.234 14.67 4.455-4.663-2.338-9.48-4.14-14.67-4.455m3.843-9.867c-1.396-1.776-3.358-2-5.143-2.551-3.527-1.089-3.544-1.033-5.963-.127 3.717 1.764 7.225 2.951 11.11 2.678m-7.85 15.859c3.753 1.444 7.319 3.74 11.612 3.312-3.672-1.762-7.373-3.403-11.612-3.312m-.318 10.449c-3.334-1.925-6.862-3.224-10.756-3.331 3.283 2.093 6.793 3.448 10.756 3.331m6.87-23.01c-2.723-2.1-6.06-2.377-9.02-3.685-.365-.161-.917.102-2.094.271 3.839 2.238 7.278 3.495 11.11 3.414m-7.858 26.24c-3.902-2.242-7.266-2.908-10.693-3.378 2.898 2.132 6.05 3.45 10.693 3.378m-3.68-25.988c3.208 1.014 5.99 3.473 9.769 2.547-3.149-1.211-6.094-3.12-9.769-2.547m11.947 25.407c2.079 1.531 4.324 2.183 6.82 1.875-2.026-1.536-4.19-2.596-6.82-1.875m8.18-1.505c-2.264-1.436-4.01-2.468-6.556-1.63 1.999 1.343 3.778 2.254 6.556 1.63m-17.52-16.365c-1.496-.483-2.676-2.395-4.677-1.146 1.185 1.64 2.771 1.888 4.677 1.146m1.949-2.976c-1.532-.728-2.848-2.291-4.974-1.178 1.551 1.523 3.134 1.956 4.974 1.178m-8.06 4.95c1.439 1.783 2.769 1.711 4.543 1.213-1.3-1.065-2.284-2.073-4.543-1.213m12.425 17.76c-.894-.133-1.569-1.069-2.063.386.566.203 1.042.856 2.063-.386m-2.978-.958c-.92-.175-1.595-1.057-2.054.275.517.455 1.02.85 2.054-.275m2.64-1.602c.934.143 1.609 1.076 2.071-.284-.52-.419-1.015-.888-2.071.284m-2.964-.984c.897.128 1.571 1.075 2.07-.395-.573-.163-1.041-.871-2.07.395m6.127 4.713c-.634-.477-1.148-.952-1.964-.017.58.645 1.123.922 1.964.017m8.897-7.823c-.447-1.026-1.054-.94-1.759-.264.454.975 1.046.991 1.759.264m-2.882-1.13c-.746-.503-1.4-1.266-1.895.194.565.164 1.031.861 1.895-.194m-4.981-.997c.644.7 1.297 1.012 1.979.047-.645-.664-1.296-1.032-1.979-.047m-9.02-6.981c-.643-.682-1.294-1.012-1.977-.048.644.662 1.295 1.024 1.977.048m4.02-6.03c-.77-.534-1.427-1.273-1.882.087.515.419 1.012.874 1.882-.087"/></g><g fill="#4a5941"><path d="m-36.675 723.63c6.762.478 12.789 3.354 18.997 5.638-6.684-.735-12.786-3.365-18.997-5.638"/><path d="m-45.46 731.48c6.173.663 11.812 3.036 18.07 5.03-2.872.681-2.919.815-9.352-1.469-2.938-1.042-6.186-1.431-8.722-3.565"/><path d="m-28.06 733.25c-5.04-.4-13.463-3.092-16.439-5.01 2.516-.414 10.612 1.969 16.439 5.01"/><path d="m-14.476 723.05c-4.286-.17-11.37-2.296-15.09-4.307 2.877-.523 8.554 1.034 15.09 4.307"/><path d="m-31.508 721.55c5.191.314 10.01 2.118 14.67 4.455-5.223-.221-9.899-2.394-14.67-4.455"/><path d="m-27.665 711.68c-3.881.273-7.39-.915-11.11-2.678 2.419-.906 2.436-.962 5.963.127 1.785.551 3.747.775 5.143 2.551"/><path d="m-35.515 727.54c4.239-.09 7.94 1.552 11.612 3.312-4.292.428-7.859-1.869-11.612-3.312"/><path d="m-35.833 737.99c-3.963.117-7.473-1.239-10.756-3.331 3.894.109 7.422 1.406 10.756 3.331"/><path d="m-28.963 714.98c-3.836.082-7.275-1.175-11.11-3.415 1.177-.168 1.73-.432 2.094-.271 2.957 1.307 6.297 1.585 9.02 3.686"/><path d="m-36.821 741.22c-4.639.071-7.796-1.247-10.693-3.378 3.427.471 6.792 1.138 10.693 3.378"/><path d="m-40.501 715.23c3.675-.573 6.62 1.335 9.769 2.547-3.779.927-6.561-1.533-9.769-2.547"/><path d="m-28.554 740.64c2.63-.721 4.793.338 6.82 1.875-2.495.309-4.74-.344-6.82-1.875"/><path d="m-21.466 716.95c2.632.247 5.11.931 7.598 2.509-2.878.477-2.878.477-8.242-1.766.202-.258.416-.506.644-.743"/><path d="m-22.11 717.69c-1.918-.525-4.08-.441-5.715-2.344 2.539-.549 4.48.397 6.359 1.601-.229.237-.443.485-.644.743"/><path d="m-20.374 739.13c-2.778.623-4.557-.287-6.556-1.63 2.544-.837 4.292.194 6.556 1.63"/><path d="m-37.894 722.77c-1.907.741-3.492.494-4.677-1.146 2-1.248 3.181.664 4.677 1.146"/><path d="m-35.945 719.79c-1.84.777-3.423.345-4.974-1.178 2.126-1.112 3.442.45 4.974 1.178"/><path d="m-44 724.74c2.258-.86 3.242.15 4.543 1.213-1.773.496-3.104.568-4.543-1.213"/><path d="m-31.579 742.5c-1.022 1.241-1.497.589-2.063.386.494-1.454 1.169-.519 2.063-.386"/><path d="m-34.557 741.54c-1.034 1.126-1.537.731-2.054.275.459-1.333 1.134-.45 2.054-.275"/><path d="m-31.917 739.94c1.056-1.171 1.551-.702 2.071-.284-.462 1.36-1.136.427-2.071.284"/><path d="m-34.881 738.96c1.03-1.267 1.497-.558 2.07-.395-.5 1.47-1.174.525-2.07.395"/><path d="m-28.754 743.67c-.841.905-1.384.629-1.964-.017.816-.935 1.33-.459 1.964.017"/><path d="m-19.857 735.85c-.713.726-1.305.711-1.759-.264.705-.676 1.312-.761 1.759.264"/><path d="m-22.739 734.72c-.863 1.056-1.33.359-1.895.194.495-1.459 1.149-.698 1.895-.194"/><path d="m-27.72 733.72c.683-.988 1.334-.619 1.979.044-.682.967-1.335.654-1.979-.044"/><path d="m-36.737 726.74c-.683.977-1.333.615-1.977-.045.683-.965 1.334-.635 1.977.045"/><path d="m-32.721 720.71c-.87.962-1.367.506-1.882.087.455-1.36 1.112-.621 1.882-.087"/></g></svg>