<svg xmlns="http://www.w3.org/2000/svg" height="85.39" viewBox="244.869 682.049 40.855 85.389" enable-background="new 244.869 682.049 40.855 85.389"><path d="m276.02 742.5c.084 3.503.927 6.069 5.109 6.975 2.842.616 4.442 3.28 4.58 6.455.127 2.926-.915 4.859-3.651 6.396-9.644 5.415-19.566 6.909-29.931 2.608-8.62-3.577-9.792-10.864-2.307-16.363 4.188-3.076 3.444-5.098.405-8.03-6.344-6.131-5.936-10.202.466-15.918 4.822-4.305 8.542-9.51 8.524-16.563-.007-2.811-.676-5.066-2.673-7.113-4.485-4.6-4.426-11.05-.036-15.447 4.405-4.415 12.312-4.625 16.75-.445 3.917 3.69 4.366 12.715.823 16.544-4.927 5.324-3.516 16.955 2.756 20.647 1.197.704 1.822 1.793 2.941 2.432 9.01 5.142 3.918 15.509-3.852 17.897 1.074-1.539 2.038-3.165 3.234-4.596 4.157-4.974 4.253-6.693-.937-10.311-6.928-4.831-9.699-11.776-10.695-19.601-.324-2.541-1.165-2.804-3.302-2.887-2.698-.105-3.071 1.287-2.813 3.349.979 7.822-3.394 13.211-8.633 17.866-6.236 5.54-6.248 9.07.856 13.805 2.143 1.428 3.832 3.311 2.904 5.707-1.451 3.746.789 4.692 3.378 5.581 3.743 1.286 7.536 1.082 11.252-.13 2.153-.702 3.979-1.449 2.516-4.597-.554-1.191-2.516-5.131 2.336-4.256m-13.387 21.975c7.03.232 12.806-.801 17.82-4.559 2.496-1.871 2.512-4.097.744-6.487-1.652-2.233-3-2.603-5.558-.547-5.332 4.293-14.673 4.097-20.63.007-2.216-1.521-4.369-3.083-6.302-.181-1.847 2.772-1.775 5.602 1.439 7.699 4.089 2.669 8.38 4.585 12.487 4.068m2.484-62.723c5.464-.017 8.569-2.937 8.479-7.972-.085-4.686-3.969-8.491-8.628-8.452-4.626.039-8.537 3.973-8.541 8.594-.005 4.913 3.251 7.847 8.69 7.83" fill="#1b1a1a"/><g fill="#fdfbfb"><path d="m276.02 742.5c-4.852-.875-2.889 3.065-2.336 4.256 1.463 3.148-.363 3.895-2.516 4.597-3.716 1.212-7.509 1.416-11.252.13-2.589-.89-4.828-1.835-3.378-5.581.928-2.396-.761-4.279-2.904-5.707-7.104-4.735-7.092-8.264-.856-13.805 5.239-4.654 9.612-10.04 8.633-17.866-.258-2.062.115-3.454 2.813-3.349 2.137.083 2.978.346 3.302 2.887.996 7.825 3.767 14.77 10.695 19.601 5.19 3.619 5.093 5.337.937 10.311-1.196 1.431-2.159 3.056-3.234 4.596-.005.003.096-.07.096-.07"/><path d="m262.64 764.48c-4.107.516-8.398-1.4-12.488-4.068-3.214-2.097-3.286-4.927-1.439-7.699 1.934-2.902 4.086-1.341 6.302.181 5.957 4.09 15.298 4.285 20.63-.007 2.554-2.056 3.906-1.686 5.558.547 1.768 2.39 1.753 4.616-.744 6.487-5.01 3.759-10.786 4.791-17.819 4.559"/><path d="m265.12 701.76c-5.439.017-8.695-2.917-8.691-7.831.004-4.621 3.915-8.555 8.541-8.594 4.659-.039 8.544 3.766 8.628 8.452.091 5.04-3.02 7.956-8.478 7.973"/></g></svg>