<svg xmlns="http://www.w3.org/2000/svg" width="69.02" viewBox="75.868 684.835 69.024 60.699" enable-background="new 75.868 684.835 69.024 60.699"><path d="m81.61 706.61c.462-.18.925-.36 1.387-.539 1.515.795 2.658.21 3.636-.982 2.024-.693 4.049-1.385 6.073-2.078 1.714 1.048 3.345.93 4.893-.349.993-.231 1.985-.462 2.978-.693.011.549.021 1.097.032 1.646-1.655 1.278-3.275 2.252-5.623 2.162-1.568-.06-3.652-.782-4.927 1.104-.781-.238-1.568-.546-2.298.114-.043.039.02.279.029.278.792-.024 1.583-.062 2.375-.099 7.921 1.228 14.15 7.371 22.381 7.7.021.574.042 1.148.063 1.722-.715-.281-1.431-.562-2.146-.843-1.987-.524-3.981-1.068-4.987 1.555-.483 1.738.508 3.71-.843 5.311-.612-.367-1.224-.733-1.836-1.1-1.737-6.805-6.932-11.429-13.436-11.902-3.461-.252-6.931-.045-8.01 4.03-.986 3.72-.233 7.099 3.672 9 3.731 4.264 8.232 5.924 13.772 4.071 1.12.187 1.838-.543 2.61-1.148.091.726.182 1.453.272 2.179-6.724 6.04-22.839-1.237-22.904-12.448-.009-1.591.623-3.313-1.076-4.49.645-.072 1.289-.145 1.934-.217 1.25-.212 1.971-.926 2.092-2.208-.036-.592-.074-1.185-.112-1.778" fill="#1d1c20"/><path d="m113.67 727.63c.341-.657.682-1.315 1.023-1.972.802-.069 1.603-.138 2.405-.208.257.357.514.714.772 1.071-2.347 6.222-.806 10.47 5.162 14.237 5.366 3.387 10.682 2.989 14.855-1.112.635-.048 1.27-.097 1.905-.145-3.03 6.708-13.183 8.138-19.16 2.709-3.377-3.066-5.695-6.769-6.821-11.201.494-1.15.886-2.294-.139-3.379" fill="#4d4b4b"/><g fill="#1d1c20"><path d="m139.79 739.5c-.635.048-1.27.097-1.904.145 1.586-5.414-1.542-8.857-5.358-11.586-4.453-3.185-9.385-4.767-14.66-1.538-.257-.357-.514-.714-.77-1.07 1.032-1.172.571-2.527.471-3.838-.175-.621-.351-1.241-.526-1.862.58-.082 1.16-.165 1.739-.247 1.558.791 1.567 3.16 4.447 2.923 6.432-.528 11.439 2.672 15.24 7.807.798 1.079.996 3.051 3.146 2.378.594-.023 1.424-.297 1.727-.011.493.465.264 1.206-.409 1.594-.781.451-2.034.056-2.362 1.321-.033 1.373.165 2.79-.781 3.984"/><path d="m103.52 701.47c5.945-1.851 12.08-1.926 18.223-2.046.996-.02 2.963 1.081 2.623-1.499.457-.464.913-.928 1.37-1.392 1.604 1.66 2.568 4.04 5.163 4.582-.316 1.894-.632 3.788-.947 5.682-1.418-1.668-1.929-4.153-4.393-4.878-.405-.043-.81-.087-1.215-.13-5.565-.388-11.05.613-16.578.929-1.373-.559-3.191.396-4.246-1.248"/></g><g fill="#4d4b4b"><path d="m140.57 735.51c.329-1.265 1.581-.87 2.362-1.321.673-.388.903-1.129.409-1.594-.303-.286-1.134-.012-1.727.011-.876-5.446-4.431-9.839-5.909-15.05.457-.497.915-.994 1.372-1.491 2.806 4.302 4.364 9.208 6.669 13.745 1.937 3.807 1.733 5.937-3.176 5.698"/><path d="m125.74 696.53c-.457.464-.913.928-1.37 1.392-3.789-3.618-6.495-8.465-11.78-10.385-1.331-1.098-2.649-1.089-3.954.047-.883.157-1.967 1.132-2.553-.181-.361-.809.422-1.435 1.236-1.802 3-1.354 5.865-.809 8.539.781 4.184 2.489 7.539 5.841 9.882 10.148"/><path d="m129.95 706.8c.316-1.894.632-3.788.947-5.682 6.112 2.383 7.643 4.928 6.365 10.576-.552-.333-1.103-.666-1.654-.998.154-2.245-.528-4.208-2.152-5.758-.885-.845-1.718-.937-1.828.661-.555.36-1.111.72-1.666 1.08l-.012.121"/></g><path d="m135.61 710.69c.551.333 1.102.665 1.654.998-.694 1.433-.996 2.882-.183 4.378-.457.497-.915.994-1.372 1.491-.843-2.023-2.271-2.579-4.323-1.832-.577.21-1.374.3-1.707-.449-.285-.64-.071-1.582.591-1.586 3.199-.018 1.344-2.87 2.391-4.054 1.701-1.66 1.63 1.646 2.949 1.054" fill="#1d1c20"/><g fill="#4d4b4b"><path d="m106.08 687.38c-.426 2.72-.66 5.245.927 7.56.417.608.246 1.306-.4 1.673-.618.35-1.18.14-1.719-.396-2.102-2.092-1.756-6.477 1.192-8.837"/><path d="m79.63 710.59c-.645.072-1.289.145-1.934.217-.911-.472-2.178-1.467-1.733-2.103 1.289-1.843 3.491-2.099 5.645-2.1.038.593.076 1.185.113 1.779-1.254.209-2.516.408-2.091 2.207"/><path d="m118.79 719.5c-.58.082-1.159.165-1.739.247-1.481-1.051-2.962-2.102-4.443-3.154-.021-.574-.042-1.148-.063-1.722 2.57.884 4.811 2.211 6.245 4.629"/><path d="m101.67 727.75c-.091-.726-.182-1.453-.272-2.178.464-1.351.928-2.702 1.393-4.054.612.367 1.224.733 1.836 1.1-.011 2.272-.741 4.131-2.957 5.132"/><path d="m97.59 702.66c-1.548 1.279-3.179 1.397-4.893.349 1.553-1.219 3.193-1.21 4.893-.349"/><path d="m103.52 701.47c1.055 1.644 2.873.689 4.246 1.247-2.292 1.067-4.745.839-7.163.893-.011-.549-.021-1.097-.032-1.646.983-.165 1.966-.329 2.949-.494"/><path d="m105.47 717.3c1.01-2.623 2.999-2.079 4.987-1.555-1.663.518-3.325 1.037-4.987 1.555"/><path d="m86.63 705.09c-.979 1.192-2.121 1.777-3.636.982 1.085-.795 2.251-1.294 3.636-.982"/></g><g fill="#9589a3"><path d="m108.64 687.59c1.305-1.136 2.624-1.145 3.954-.047-1.319.015-2.637.031-3.954.047"/><path d="m102.79 721.52c-.464 1.352-.928 2.703-1.393 4.054-.772.603-1.49 1.333-2.61 1.147-8.63 3.212-8.76.748-13.772-4.071-3.905-1.905-4.659-5.284-3.672-9 1.08-4.073 4.55-4.279 8.01-4.03 6.504.473 11.699 5.097 13.436 11.902"/><path d="m81.72 708.39c-.12 1.281-.842 1.994-2.091 2.207"/></g><path d="m90.06 706.88l.105.294c-.791.037-1.583.075-2.375.099-.009 0-.072-.24-.029-.278.731-.661 1.518-.354 2.299-.115" fill="#4d4b4b"/><path d="m117.87 726.52c5.274-3.229 10.207-1.647 14.66 1.538 3.816 2.729 6.944 6.172 5.358 11.586-4.174 4.101-9.49 4.499-14.856 1.112-5.968-3.767-7.508-8.01-5.162-14.236" fill="#9589a3"/><path d="m125.56 701.92c-.405-.043-.81-.087-1.215-.13.405.043.81.087 1.215.13" fill="#4d4b4b"/><path d="m131.63 705.6c.456 1.302 2.875 2.13.969 4-2.183.191-1.892-1.835-2.633-2.931.554-.354 1.109-.714 1.664-1.074" fill="#1d1c20"/></svg>