<svg xmlns="http://www.w3.org/2000/svg" width="219.66" height="323.57" viewBox="50.687 15.734 219.664 323.573" enable-background="new 50.687 15.734 219.664 323.573"><path d="m50.688 129.01c.46-1.95.779-3.946 1.404-5.842 2.165-6.57 4.385-13.13 7.277-19.423.588-1.281 1.416-2.459 2.333-3.552-.195.811-.064 1.558.416 2.248.365.524.2.808-.295 1.255-1.135 1.026-1.912 2.295-2.037 3.919-.162 2.092-.692 4.122-2.045 5.765-.873 1.06-1.84 1.912-.897 3.432.167.269-.112.838-.23 1.256-.71 2.51-.972 5.071-.89 7.672.028.87.501 1.745.164 2.595-.43 1.082-.44 2.182-.397 3.298.021.539-.056 1.082-.318 1.504-.7 1.128-.682 2.347-.655 3.588.01.478.091 1-.073 1.424-.261.674-.008 1.094.47 1.443 1.025.748 1.448 1.837 1.48 2.999.047 1.682.66 3.187 1.162 4.735.752 2.317 1.336 4.651 1.302 7.124-.036 2.574-.545 5.05-1.273 7.496-.418 1.403-.649 2.787-.169 4.218.296.885.83.978 1.557.511.371-.238.602-.926 1.165-.561.477.31.434.926.376 1.441-.346 3.072-.671 6.148-1.086 9.211-.341 2.517-.644 5.03-.322 7.566.057.446.46.973-.198 1.24-.578.234-.697-.369-.96-.685-.799-.963-1.357-.924-1.991.178-.379.659-.658 1.383-.694 2.138-.035.725-.271 1.368-.724 1.858-.845.913-.9 1.901-.552 2.999.359 1.13.384 2.187-.624 3.045-.387.329-.24.812-.286 1.24-.152 1.442-.209 2.909-1.01 4.197-.231-.613-.187-1.254-.188-1.889-.003-3.825-.177-7.66.053-11.472.189-3.146.134-6.19-.956-9.171-.091-.248-.027-.552-.035-.829-.01-1.256-.02-2.512-.031-3.768.38-3.651.813-7.297 1.12-10.954.193-2.301.693-4.632.246-6.924-1.077-5.519-1.387-11.09-1.369-16.688-.02-1.363.28-2.744-.225-4.08.001-1.917.001-3.837.001-5.757" fill="#5d3b27"/><g fill="#9b6443"><path d="m97.21 43.3c1.535-2.904 3.511-5.456 6.03-7.586.447-.379.864-.777 1.055-1.407.302-.992 1.079-1.664 1.93-2.185 3.256-1.994 6.385-4.161 9.371-6.544 1.728-1.378 3.832-1.994 5.983-2.105 2.408-.125 4.258-1.385 6.251-2.453 3.367-1.805 6.722-3.683 10.446-4.662 2.043-.537 4.151-.524 6.267-.202 1.522.231 3.058.016 4.547-.421 1.12 0 2.24 0 3.36 0 1.974.668 4.049.832 6.083 1.183 6.214 1.073 11.812 3.408 16.456 7.778.172.162.299.315.552.395 3.292 1.034 5.867 3.322 8.135 5.648 2.01 2.068 3.753 4.603 5.01 7.329-.959-.107-1.214-.991-1.734-1.579-.681-.77-.979-1.885-2.071-2.283-.374-1.453-.959-2.843-2.278-3.623-.881-.521-1.67-1.159-2.543-1.679-.493-.293-.716-.99-1.429-.958-.184-.645-.55-1.02-1.276-.857-.065-.019-.13-.04-.194-.063-.17-.809-.707-1.131-1.491-1.123-.652-.166-1.388-.219-1.856-.733-.837-.919-1.969-1.43-2.881-2.235-.737-1.337-1.967-1.877-3.393-2.102-.628-.255-1.119-.811-1.85-.836-.775-1.156-1.915-1.42-3.207-1.316-1.505.162-2.856-.481-4.268-.808-.462-.771-1.071-.509-1.68-.238-1.301-.081-2.546-.63-3.821-.664-3.753-.1-7.515-.134-11.265.013-1.507.059-3.151-.114-4.523.786-.748.491-1.546.807-2.376 1.095-2.333.809-4.753 1.493-6.738 3-1.701 1.295-3.565 2.08-5.602 2.539-2.643.596-5.336 1.109-7.485 2.898-1.409 1.173-2.76 2.451-4.39 3.27-3.815 1.919-6.567 4.911-9.02 8.301-1.176 1.627-2.27 3.368-3.994 4.529-.039-.035-.075-.07-.111-.105"/><path d="m50.913 138.85l-.112-.003-.113.003c0-1.36 0-2.72 0-4.08.504 1.336.205 2.717.225 4.08"/><path d="m50.688 173.41c.076.016.152.018.228.006.01 1.256.02 2.512.031 3.768-.086.022-.173.044-.259.066 0-1.28 0-2.56 0-3.84"/></g><path d="m52.07 200.55c.797-1.288.855-2.755 1.01-4.197.045-.429-.101-.911.286-1.24 1.01-.858.983-1.915.624-3.045-.348-1.098-.293-2.086.552-2.999.453-.489.689-1.133.724-1.858.036-.755.316-1.48.694-2.138.634-1.102 1.191-1.141 1.991-.178.263.316.382.92.96.685.659-.267.255-.794.198-1.24-.322-2.539-.019-5.05.322-7.566.415-3.063.74-6.139 1.086-9.211.058-.515.101-1.131-.376-1.441-.563-.365-.793.323-1.165.561-.728.467-1.261.373-1.557-.511-.48-1.431-.249-2.815.169-4.218.728-2.444 1.237-4.922 1.273-7.496.034-2.473-.55-4.807-1.302-7.124-.502-1.548-1.115-3.053-1.162-4.735-.033-1.162-.456-2.251-1.48-2.999-.477-.348-.731-.769-.47-1.443.163-.421.083-.946.073-1.424-.026-1.242-.045-2.461.655-3.588.261-.421.339-.965.318-1.504-.043-1.116-.033-2.217.397-3.298.337-.849-.136-1.725-.164-2.595-.083-2.601.179-5.162.89-7.672.118-.418.397-.987.23-1.256-.943-1.52.024-2.372.897-3.432 1.352-1.643 1.883-3.673 2.045-5.765.125-1.624.902-2.893 2.037-3.919.495-.447.66-.731.295-1.255-.48-.69-.611-1.437-.416-2.248.759-1.448 2.03-2.565 2.66-4.097 1.873-1.041 2.664-2.789 3.106-4.763.313-.58.557-1.201 1.034-1.679.41-.079.439-.39.436-.719l-.005.005c.863-.011 1.14-.777 1.632-1.266.82.206 1.386.692 1.821 1.428 1.965 3.327 4.045 6.575 6.844 9.291.228.222.457.44.497.791.102.891.758 1.171 1.509 1.253.915.1 1.681.497 2.33 1.102 2.73 2.543 6.02 3.78 9.668 4.189 1.717.193 3.332.509 3.939 2.465.113.365.424.443.766.443.018.063.04.124.066.184-.109.826.03 1.662-.217 2.495-.157.531.088 1.134.49 1.536 1.029 1.031 1.205 2.292 1.015 3.628-.069.485.115.687.472.815.97.35 1.192 1.074 1.09 2-.114 1.034.02 1.966.948 2.664.332.25.458.664.334 1.181-.676 2.817.613 5.907 3.125 7.461 1.201.743 1.803 1.775 1.822 3.152.012.885.335 1.381 1.29 1.252.694-.093 1.322.238 1.461.803.391 1.585 1.5 1.487 2.772 1.677 1.492.223 2.119-.507 2.757-1.514.085-.134.154-.281.214-.429.395-.978 1.113-.964 1.848-.507.794.494 1.447 1.139 1.432 2.201-.005.332-.129.78.401.858.497.073.678-.246.828-.672.195-.554.257-1.183.761-1.596 1.279-1.047 2.752-.628 3.338.952.575 1.551.724 1.615 2.464 1.381.59-.079 1.25-.177 1.788.003 1.844.617 2.786-.561 3.607-1.789.629-.941 1.285-1.064 2.22-.627 1.188.555 2.052 1.498 2.966 2.392 1.169 1.143 2.377 2.152 4.114 2.456 1.278.224 2.406.964 2.672 2.422.113.621.471.746.925.589 1.699-.588 3.042.223 4.347 1.085.928.613 1.748 1.383 3.01.894.321-.124.709.001 1.037.186 1.112.626 2.315.765 3.575.775 1.398.011 2.504.722 3.383 1.774.42.503.329 1.032-.043 1.536-.356.483-.779.593-1.364.392-.464-.159-.873-.394-1.26-.665-.52-.366-1.078-.709-1.604-.169-.458.47-.228 1.085.11 1.544.613.834.69 1.763.639 2.733-.066 1.256-1.267 1.984-2.358 1.365-1.342-.762-2.407-1.775-2.861-3.35-.442-1.536-.94-1.635-2.156-.553-.499.444-.806.976-.787 1.675.018.679.018 1.36-.005 2.04-.025.717-.555.997-1.134.954-.505-.038-.843-.426-.701-1.031.227-.962-.277-.817-.85-.554-.182.083-.363.169-.538.265-.551.3-.954.239-1.268-.377-.304-.596-.31-1.072.319-1.41.349-.188.731-.315 1.096-.475.4-.175.491-.504.399-.892-.073-.306-.343-.581-.6-.442-1.068.576-2.562.294-3.197 1.786-.468 1.099-1.398 1.232-2.081.504-.738-.786-.39-2.644.617-3.01.976-.358 1.437-1.075 1.673-2.01.077-.305.072-.642.199-.921.507-1.108.335-1.441-.867-1.646-.748-.128-1.127.361-1.419.878-.989 1.745-1.337 3.743-2.138 5.568-.253.575-.036 1.345.548 1.568 1.343.514 1.525 1.744 2.02 2.805.437.941.834 1.907 1.358 2.799 1.056 1.796.634 3.51-1.187 4.563-.25.144-.466.326-.764.169-.387-.204-.245-.504-.176-.828s.239-.832-.243-.901c-.572-.082-.393.476-.406.787-.052 1.235-.281 2.314-1.773 2.564-.198.033-.409.267-.524.462-.766 1.288-1.932 2-3.353 2.302-.606.127-.808.498-.824 1-.08 2.485-.123 4.971 1.51 7.093.339.44.61.889.157 1.388-.457.505-1.041.757-1.726.573-.561-.151-.983-.525-1.31-.998-.2-.289-.335-.719-.79-.558-.377.133-.515.544-.475.893.177 1.549-.229 2.902-1.185 4.126-.182.233-.231.597-.269.909-.273 2.244-.685 4.477-.708 6.743-.009.827-.143 1.575-.562 2.285-.367.622-.672 1.337-1.555 1.282-.906-.056-1.126-.764-1.266-1.5-.048-.251-.133-.513-.397-.532-.357-.025-.444.322-.497.577-.193.935.002 1.823.421 2.667.338.68.688 1.358.718 2.138.039 1.022.665.856 1.221.539.363-.207.66-.585.9-.945.714-1.07 1.563-2.02 2.517-2.872.87-.778 2.063-.709 3.211.023.967.616.627 1.289.359 2.146-.553 1.77-.621 3.498.965 4.938.956.868.847 1.539-.197 2.367-.295.234-.614.423-.565.837.175 1.497-.321 2.826-.961 4.132-.475.97-.232 1.688.808 2.106 1.043.419 1.251 1.08.659 2.077-.399.672-.873 1.361-.756 2.228.031.229-.034.502.254.613.266.102.439-.085.638-.221.613-.419.783-1.068.954-1.728.243-.936.888-1.616 1.783-1.735.799-.106.896.865 1.29 1.373.047.061.076.143.093.22.07.315.235.501.584.454.382-.051.348-.351.406-.626.222-1.047.453-2.094.714-3.132.241-.959 1.261-1.785 1.925-1.603.938.258 1.23 1.088.818 2.324-.164.492-.335.982-.49 1.477-.137.437-.164.872.167 1.243.472.529.429 1.046.073 1.631-.451.739-.28 1.404.05 2.232 1.04 2.607 2.426 5.156.87 8.164-.961 1.857-.036 2.959 2.09 2.954.713-.002 1.421.056 2.138-.162.731-.222 1.451.039 1.977.568.623.626 1.152.779 1.81.063 1.123-1.224 1.307-2.059.587-2.872-.394-.445-.873-.942-.608-1.567.248-.584.854-.775 1.493-.828 2.751-.23 3.959-2.258 2.766-4.65-.432-.866-.498-1.591.499-2.115.755-.396.698-.956.283-1.597-.714-1.102-1.641-2.038-2.327-3.173-.902-1.491-.029-2.264 1.382-2.377 2.26-.182 2.262-.179 2.686-2.358.038-.195.034-.397.053-.596.083-.873.694-1.185 1.45-.712.267.167.464.442.723.626.254.179.639.22.651-.16.049-1.562 1.394-2.368 2.01-3.591.134-.265.205-.652.637-.609.383.038.501.366.628.656.411.945.539 1.904.193 2.911-.096.279-.184.679.178.856.376.184.532-.161.748-.405.735-.827.833-1.804.658-2.814-.319-1.841-.768-3.638-1.51-5.378-1.355-3.175-.719-5.412 2-7.606.223-.18.467-.312.495-.628.159-1.838 1.476-2.602 2.963-3.226.95-.399 2.084-.534 2.778-1.334 2.11-2.433 4.176-4.907 6.181-7.427.884-1.111 1.847-2.219 2.194-3.664.366-1.523.051-1.924-1.502-1.984-1.875-.072-2.553-.943-1.829-2.764 1.277-3.21-1.091-7.252-3.071-8.954-1.508-1.296-1.802-2.303-.735-4 .127-.202.264-.402.361-.619.652-1.467.182-2.42-1.442-2.598-2.575-.282-4.289-1.779-5.659-3.783-1.15-1.682-.736-3.02 1.242-3.531 2.576-.661 4.771-1.979 6.885-3.489 2.106-1.504 4.342-2.922 5.804-5.104 2.646-3.951 4.079-8.429 5.305-12.983.272-1.01-.173-2.246.513-3 .825-.912.931-1.632.273-2.581-.081-.117-.087-.311-.075-.466.177-2.358-.466-4.454-1.802-6.412-.714-1.046-.517-2.457.182-3.248.419-.475 6.097-2.429 6.724-2.312.078.014.153.062.23.063.794.01 1.612.202 2.371-.125 2.125-.913 4.236-1.856 6.35-2.795 3.838-1.705 4.978-5.325 6.262-8.841-.561-1.474-.032-2.927.002-4.393.042-1.814.876-3.581.324-5.419-.042-.139-.029-.39.059-.459 1.371-1.062.862-2.566.867-3.9.008-2.301.334-4.642-.47-6.882-.463-1.289-.55-2.629-.702-3.963-.058-.507.035-1.01.55-1.218.475-.192.818.189 1.138.481 1.585 1.448 3.046 3.045 4.982 4.067.379.2.459.593.569.997.176.648.379 1.412 1.059 1.663 1.991.738 3.163 2.393 4.375 3.927 2.094 2.65 3.829 5.561 6.194 8.03 1.793 1.869 3.075 4.141 3.971 6.611.787 2.168 1.21 4.492 2.485 6.455.993 1.529 1.275 3.229 1.564 4.957.23 1.372.453 2.77 1.12 4 .546 1.01.908 2.063.975 3.162.096 1.573.708 2.93 1.4 4.281s1.378 2.71 1.747 4.188c.154.616.405 1.122.869 1.525 1.849 1.602 3.144 3.55 4.03 5.847 1.169 3.045 2.696 5.941 3.64 9.09.322 1.073 1.149 2.045 2.3 2.55.176-.002.352-.003.527-.005.488.316.933.673 1.177 1.223-.142.497-.298.982-.278 1.518.105 2.87 1.172 5.293 3.44 7.08 1.894 1.49 3.448 3.318 5.177 4.969.587.561.788 1.472 1.615 1.829.278.384.556.768.833 1.151-.055.477.257.824.447 1.206.37.744 1.028 1.437 1.128 2.207.344 2.658 1.985 4.618 3.324 6.751.184.294.386.5.759.445 1.01.835 1.318 1.861 1.106 3.172-.149.919.021 1.865.228 2.812.534 2.449.709 4.931.102 7.41-.867.309-.841 1.043-.877 1.773-.03.617.243 1.327-.332 1.816-.727.618-.754 1.372-.497 2.174.168.524.159 1.024-.328 1.265-1.295.642-2.146 1.771-3.155 2.727-.477.451-1.182.584-1.528.235-.91-.916-1.737-.387-2.639-.135-2.239.625-4.451 1.671-6.813.336-.533-.301-1.156.094-1.191.646-.128 1.999-1.658 3.328-2.299 5.074-.172.468-.656.711-.896.009-.537-1.569-1.839-2.498-2.951-3.559-1.321-1.261-2.885-.986-3.881.378-.894 1.225-.729 2.648-1.019 3.988-.511 2.362-1.49 4.667-1.227 7.131.143 1.343.182 2.893 1.817 3.538.495.76.339 1.568.172 2.377-1.149.365-1.435 1.596-2.279 2.322-1.564 1.346-2.707 3.133-1.774 5.471.228.571.455 1.212.33 1.862-.097.503-.265 1.262-.857 1.088-1.678-.496-1.486.676-1.512 1.574-.079 2.646-.953 4.87-3.105 6.536-.623.483-1.327 1.051-1.611 1.738-.448 1.084-.398 2.417-1.894 2.76.03 1.627-1.465 1.65-2.392 2.264-.539.357-1.08.493-1.615-.065-.49-.512-1.01-.423-1.446.081-2.568 2.953-6.02 4.917-8.649 7.832-.972 1.079-1.402 1.848-.99 3.343.674 2.448.011 3.323-2.295 4.127-.112.039-.213.114-.326.151-.867.283-1.094.939-.823 1.704.451 1.274.104 2.407-.623 3.384-.874 1.175-1.18 2.498-1.355 3.878-.104.814-.476 1.325-1.258 1.55-.268.077-.534.161-.795.261-.801.305-.836 1.046-.794 1.692.048.742.733.415 1.151.45 1.188.1 2.372.187 3.457.748.107.794.206 1.588.118 2.391-.203.093-.212.28-.226.465-.212.181-.458.333-.63.546-1.346 1.663-3.085 2.307-5.195 2.119-.538-.048-1.124-.16-1.638.171-.798.515-1.477.383-2.13-.298-.523-.546-1.026-.515-1.172.314-.111.627-.466.753-1.01.765-.353.007-.703.137-1.057.148-1.196.037-2.395.092-3.589.043-.503-.021-1.013-.249-1.084-.918-.071-.673.317-.901.875-1.067.236-.07.577-.043.696-.37-2.404-1.911-4.057-1.894-6.315.058-.091.078-.168.177-.269.238-.515.313-.865.132-.954-.423-.055-.341-.02-.729.091-1.056.255-.751.002-1.142-.743-1.299-1.068-.226-1.988-.76-2.925-1.308-2.637-1.541-6.174.223-6.536 3.221-.119.984-.552 1.79-1.428 2.21-.788.378-.81.84-.517 1.533.375.887.392 1.766-.12 2.641-.747 1.275-1.831 1.403-2.697.25-.545-.726-1.239-1.203-2.132-1.02-1.415.289-2.755.514-3.751 1.975-.906 1.329-1.993 2.568-2.856 3.954-.386.619-.948 1.057-1.507 1.501-.197.157-.416.302-.648.148-.247-.164-.15-.417-.06-.647.653-1.678.607-3.434.596-5.19-.016-2.478-1.813-3.826-4.305-3.237-1.304.308-2.568.669-3.985.343-1.052-.242-2.318-.319-3.26.367-1.147.836-2.376.795-3.65.78-.48-.006-.969-.051-1.437.026-.908.149-1.55 1.428-.918 1.87 1.205.843 2.139 2.117 3.565 2.568.957.303 1.678.882 2.437 1.436.385.281.985.607.617 1.244-.37.64-.955 1-1.717.669-.622-.271-1.177-.664-1.674-1.136-.738-.7-1.643-.955-2.637-.909-.448.021-.964.111-.994.653-.028.502-.353 1.172.349 1.479.452.198.455.569.618.927.506 1.109.534 2.315.817 3.466.164.664-.177.954-.746.888-1.964-.228-4.01-.143-5.822-1.06-1.699-.861-3.501-1.249-5.314-1.024-1.494.185-2.964.233-4.372-.106-1.411-.34-2.357-.394-3.02 1.205-.307.745-1.221 1.213-1.065 2.256.074.492-.386.668-.796.723-1.162.157-2.047.861-2.952 1.499-1.204.849-2.493 1.189-3.816.49-1.077-.569-2.188.026-3.253-.328-.39-.129-.617.267-.698.658-.179.862-.859 1.151-1.592 1.195-2.195.131-4.362-.107-6.078-1.614-1.086-.953-2.242-1.295-3.609-1.201-.648-.52-.534-1.431-.944-1.997-.836-1.153-.454-2.366-.493-3.566 1.128-.162 1.719.654 2.421 1.301.993.916 1.809.809 2.092-.304.459-1.805 1.481-3.234 2.751-4.537 1.392-1.427 2.167-3.11 2.119-5.151-.016-.669-.221-.97-.902-.895-1.083.12-1.722-.417-2.093-1.394-.17-.446-.41-.867-.637-1.289-.672-1.249-1.329-2.497-3.079-2.412-.316.015-.766-.199-.951-.454-1.076-1.481-2.747-2.135-4.156-3.156-.979-.709-2.01-.861-3.126-.899-.49-.017-.835.071-.983.62-.148.546-.497.912-1.141.817-.604-.09-.876-.46-.959-1.048-.18-1.276-.911-2.332-1.969-2.869-1.925-.978-3.299-2.418-4.546-4.123-1.303-1.781-1.427-1.969-.245-3.763 1.254-1.902 1.885-4.136 3.252-5.98.337-.454.247-.996-.204-1.405-.522-.473-.855-.069-1.212.265-.7.657-1.524 1.085-2.495.918-1.785-.305-3.609-.005-5.362-.283-1.957-.31-3.703-.1-5.407.863-.631.357-1.465.231-1.729-.329-.778-1.653-2.247-2.682-3.333-4.046-.83-1.043-1.401-2.216-1.859-3.458-.154-.416-.397-.835-.905-.854-.503-.018-.584.474-.779.806-.368.625-.328 1.284-.206 1.972.132.745-.149 1.35-.985 1.206-.783-.135-1.53-.507-1.735-1.436-.3-1.356-1.018-2.5-1.852-3.578-1.164-1.504-2.038-3.119-2.275-5.05-.279-2.278-.388-4.602-1.53-6.688-.2-.366-.086-.764-.038-1.167.117-.992.615-1.889.637-2.905.039-1.83-.014-3.654.19-5.492.33-2.972.827-5.905 1.681-8.757.359-1.198.111-2.098-.56-2.992-.677-.902-1.393-.89-1.945.096-.883 1.577-1.53 3.249-1.51 5.101.025 2.306-.176 4.626.451 6.898.156.565-.11 1.06-.674 1.246-.53.175-1.037.088-1.288-.53-.194-.477-.54-.778-1.057-.866-.028-.323-.057-.645-.085-.968.381-.611.015-1.132-.2-1.672-.083-1.846-.751-3.642-.467-5.519.485-.663.585-1.424.677-2.222.235-2.047-.69-3.821-1.218-5.691.014-.96-.087-1.927.18-2.869m29.12-78.15c-.775-1.056-.739-2.519-.852-3.975-.045-.578-.715-.81-1.287-.909-.538-.093-.951.143-1.185.615-.265.533-.495 1.087-.704 1.645-.497 1.332-1.471 2.1-2.884 2.026-1.233-.065-2.039.476-2.698 1.425-1.102 1.587-1.687 3.427-2.539 5.136-.216.434-.277 1.046.259 1.27 1.264.527 1.724 1.415 1.573 2.736-.055.481.3.713.771.703.339-.007.65.064.871-.402.623-1.311 1.346-2.559 2.964-2.893.336-.069.655-.296.943-.505 2.134-1.551 3.174-3.96 4.667-6.01.102-.137.052-.385.101-.859m121.26 47.651c.895.154 1.509-.501 1.906-1.094.37-.553-.39-1.019-.726-1.481-.348-.48-.733-.933-1.087-1.408-.236-.318-.124-.911-.772-.9-.65.01-.879.468-1.071.955-.173.439-.337.889-.438 1.349-.358 1.636.444 2.586 2.188 2.579" fill="#1d1c19"/><path d="m250.38 139.54c-1.15-.504-1.978-1.476-2.3-2.55-.944-3.149-2.471-6.05-3.64-9.09-.882-2.297-2.178-4.245-4.03-5.847-.464-.403-.715-.909-.869-1.525-.369-1.477-1.055-2.837-1.747-4.188-.692-1.352-1.305-2.708-1.4-4.281-.067-1.099-.429-2.156-.975-3.162-.667-1.23-.89-2.628-1.12-4-.29-1.728-.572-3.428-1.564-4.957-1.275-1.963-1.698-4.287-2.485-6.455-.896-2.47-2.178-4.742-3.971-6.611-2.365-2.466-4.1-5.378-6.194-8.03-1.212-1.534-2.385-3.189-4.375-3.927-.68-.252-.882-1.016-1.059-1.663-.11-.404-.191-.798-.569-.997-1.936-1.021-3.397-2.619-4.982-4.067-.32-.292-.663-.673-1.138-.481-.515.208-.608.711-.55 1.218.152 1.335.24 2.675.702 3.963.804 2.24.478 4.582.47 6.882-.005 1.334.505 2.838-.867 3.9-.088.068-.101.319-.059.459.552 1.839-.281 3.605-.324 5.419-.034 1.466-.564 2.919-.002 4.393-1.283 3.516-2.424 7.136-6.262 8.841-2.113.939-4.225 1.882-6.35 2.795-.76.326-1.577.134-2.371.125-.077-.001-.152-.048-.23-.063-.627-.116-6.305 1.838-6.724 2.312-.698.791-.895 2.202-.182 3.248 1.335 1.958 1.979 4.055 1.802 6.412-.012.154-.006.348.075.466.658.95.552 1.67-.273 2.581-.686.758-.241 1.994-.513 3-1.226 4.554-2.66 9.03-5.305 12.983-1.461 2.182-3.697 3.6-5.804 5.104-2.113 1.51-4.308 2.828-6.885 3.489-1.978.507-2.392 1.848-1.242 3.531 1.37 2 3.084 3.501 5.659 3.783 1.624.178 2.094 1.132 1.442 2.598-.097.217-.234.417-.361.619-1.067 1.702-.773 2.708.735 4 1.98 1.702 4.348 5.743 3.071 8.954-.724 1.821-.045 2.692 1.829 2.764 1.553.06 1.868.461 1.502 1.984-.347 1.445-1.31 2.552-2.194 3.664-2 2.52-4.071 4.994-6.181 7.427-.694.8-1.828.935-2.778 1.334-1.487.624-2.804 1.388-2.963 3.226-.027.316-.272.448-.495.628-2.719 2.194-3.355 4.431-2 7.606.743 1.74 1.191 3.537 1.51 5.378.175 1.01.077 1.987-.658 2.814-.216.244-.372.589-.748.405-.362-.177-.274-.576-.178-.856.346-1.01.218-1.966-.193-2.911-.126-.29-.244-.618-.628-.656-.432-.043-.502.343-.637.609-.619 1.223-1.964 2.029-2.01 3.591-.012.38-.397.339-.651.16-.259-.183-.456-.459-.723-.626-.756-.473-1.367-.161-1.45.712-.019.199-.015.401-.053.596-.424 2.178-.426 2.176-2.686 2.358-1.411.114-2.284.886-1.382 2.377.687 1.135 1.613 2.071 2.327 3.173.415.641.472 1.201-.283 1.597-.997.524-.931 1.249-.499 2.115 1.193 2.392-.015 4.42-2.766 4.65-.639.054-1.245.244-1.493.828-.266.625.214 1.121.608 1.567.719.814.536 1.648-.587 2.872-.658.717-1.187.564-1.81-.063-.526-.529-1.246-.791-1.977-.568-.717.218-1.425.16-2.138.162-2.126.005-3.051-1.097-2.09-2.954 1.556-3.01.17-5.557-.87-8.164-.33-.828-.501-1.493-.05-2.232.357-.584.399-1.102-.073-1.631-.331-.371-.304-.806-.167-1.243.155-.495.326-.985.49-1.477.413-1.236.121-2.066-.818-2.324-.664-.183-1.684.643-1.925 1.603-.261 1.038-.492 2.085-.714 3.132-.058.276-.024.575-.406.626-.349.046-.514-.139-.584-.454-.017-.077-.046-.159-.093-.22-.393-.508-.49-1.479-1.29-1.373-.896.119-1.54.799-1.783 1.735-.171.66-.342 1.309-.954 1.728-.199.136-.372.324-.638.221-.288-.111-.223-.383-.254-.613-.117-.867.356-1.555.756-2.228.592-.997.384-1.658-.659-2.077-1.04-.418-1.283-1.136-.808-2.106.64-1.307 1.136-2.636.961-4.132-.048-.414.27-.603.565-.837 1.044-.828 1.152-1.499.197-2.367-1.586-1.44-1.518-3.168-.965-4.938.268-.857.608-1.529-.359-2.146-1.148-.732-2.341-.801-3.211-.023-.953.852-1.802 1.801-2.517 2.872-.24.359-.536.738-.9.945-.556.317-1.183.483-1.221-.539-.03-.78-.38-1.458-.718-2.138-.419-.845-.615-1.732-.421-2.667.053-.255.14-.602.497-.577.264.019.35.281.397.532.14.736.36 1.444 1.266 1.5.884.055 1.188-.659 1.555-1.282.419-.71.554-1.457.562-2.285.023-2.266.436-4.499.708-6.743.038-.312.087-.677.269-.909.956-1.224 1.363-2.577 1.185-4.126-.04-.349.098-.761.475-.893.455-.16.59.269.79.558.327.472.749.847 1.31.998.685.184 1.269-.068 1.726-.573.452-.499.182-.948-.157-1.388-1.633-2.121-1.59-4.607-1.51-7.093.016-.502.217-.873.824-1 1.421-.298 2.587-1.014 3.353-2.302.116-.194.327-.429.524-.462 1.492-.25 1.721-1.33 1.773-2.564.013-.311-.166-.869.406-.787.481.069.312.577.243.901s-.211.624.176.828c.298.157.514-.025.764-.169 1.821-1.053 2.243-2.767 1.187-4.563-.524-.891-.921-1.858-1.358-2.799-.493-1.061-.676-2.291-2.02-2.805-.584-.223-.8-.992-.548-1.568.801-1.825 1.149-3.824 2.138-5.568.293-.517.672-1 1.419-.878 1.202.205 1.374.537.867 1.646-.127.279-.122.616-.199.921-.236.934-.698 1.65-1.673 2.01-1.01.37-1.355 2.227-.617 3.01.683.728 1.613.595 2.081-.504.635-1.492 2.13-1.21 3.197-1.786.257-.138.527.136.6.442.092.388.001.717-.399.892-.365.16-.746.287-1.096.475-.629.338-.623.813-.319 1.41.314.616.717.678 1.268.377.175-.096.356-.182.538-.265.573-.262 1.077-.407.85.554-.142.605.196.993.701 1.031.579.043 1.11-.236 1.134-.954.023-.679.023-1.36.005-2.04-.019-.699.288-1.231.787-1.675 1.216-1.082 1.713-.983 2.156.553.454 1.575 1.518 2.588 2.861 3.35 1.091.619 2.293-.109 2.358-1.365.051-.97-.026-1.9-.639-2.733-.338-.459-.568-1.074-.11-1.544.526-.54 1.084-.196 1.604.169.387.272.796.506 1.26.665.585.201 1.01.091 1.364-.392.372-.504.463-1.033.043-1.536-.879-1.053-1.985-1.764-3.383-1.774-1.26-.01-2.464-.149-3.575-.775-.329-.185-.717-.311-1.037-.186-1.259.489-2.079-.281-3.01-.894-1.305-.862-2.648-1.673-4.347-1.085-.454.157-.812.032-.925-.589-.266-1.458-1.394-2.198-2.672-2.422-1.737-.304-2.944-1.313-4.114-2.456-.914-.893-1.778-1.836-2.966-2.392-.935-.437-1.591-.314-2.22.627-.821 1.227-1.763 2.406-3.607 1.789-.538-.18-1.198-.082-1.788-.003-1.739.233-1.889.17-2.464-1.381-.586-1.58-2.06-2-3.338-.952-.504.413-.566 1.042-.761 1.596-.15.426-.332.745-.828.672-.53-.078-.406-.526-.401-.858.015-1.062-.638-1.707-1.432-2.201-.735-.457-1.453-.471-1.848.507-.06.148-.129.295-.214.429-.637 1.01-1.265 1.737-2.757 1.514-1.272-.19-2.382-.091-2.772-1.677-.139-.566-.768-.897-1.461-.803-.955.128-1.278-.368-1.29-1.252-.019-1.377-.621-2.409-1.822-3.152-2.513-1.554-3.801-4.643-3.125-7.461.124-.517-.001-.931-.334-1.181-.928-.698-1.062-1.63-.948-2.664.103-.93-.12-1.655-1.09-2-.357-.129-.541-.331-.472-.815.19-1.336.014-2.597-1.015-3.628-.402-.403-.647-1-.49-1.536.247-.834.108-1.669.217-2.495.944.222 1.045 1.029 1.149 1.766.369 2.597 1.205 3.445 3.788 3.794.714.097 1.451.233 1.772 1.018.304.744.83.765 1.464.511.878-.352 1.756-.479 2.678-.127 1.034.395 1.984.249 2.946-.358.991-.626 1.963-.407 2.563.627.799 1.377 2.02 2.362 3.06 3.51.557.612 1.138.745 1.78.25.501-.386.951-.392 1.55-.22 2.136.613 4.295.83 6.458.069.674-.237 1.287-.123 1.913.271 1.185.746 1.733.63 2.688-.39.241-.257.478-.665.864-.561 1.32.356 2.757.247 3.929 1.209 1.166.957 2.421.884 3.64.002.322-.233.613-.524.963-.702.844-.432.622-.853.04-1.304-2.744-2.129-5.519-4.205-8.819-5.432-.794-.295-1.575-.701-2.101-1.34-.623-.758-1.447-1.051-2.255-1.481-.902-.48-2.229-.385-2.706-1.352-.974-1.976-2.469-3.502-3.858-5.142-.969-1.144-1.653-2.477-1.455-4.057.231-1.836-.605-3.337-1.418-4.854-.434-.81-1.109-.675-1.746-.351-.419.213-.78.55-1.141.861-1.232 1.065-1.598.981-2.485-.457-.746-1.211-1.258-2.578-2.423-3.519-.465-.376-.388-.922-.023-1.396 1.093-1.418 2.036-3 3.434-4.113 1.272-1.01 2.09-1.922 1.522-3.689-.271-.841.287-1.533 1.238-1.899.917-.353 1.358.151 1.823.701.566.67.052 1.3-.182 1.896-.896 2.281.642 5.516 2.956 6.212 1.26.379 2.503.816 3.742 1.262 1.317.474 2.644.942 4.063.802 1.193-.118 2.086.401 2.906 1.138 1.067.959 2.132 1.922 3.158 2.924.704.687 1.44.949 2.38.535 1.06-.467 2.01-.347 2.822.562.456.514 1.109.796 1.735.589 1.318-.436 2.739-.398 4.02-1.027 1.509-.742 2.436-2.166 3.795-3.069.821-.545 1.213-1.373 1.426-2.276.505-2.142.543-4.322.255-6.489-.081-.606-.111-1.269-.463-1.84-.346-.563-.841-.705-1.437-.618-.448.065-.859.191-.927.757-.258 2.14-1.728 2.939-3.628 3.253.021-1.351.533-2.37 1.859-2.904.807-.326 1.323-.971 1.736-1.733.726-1.339 1.654-2.449 3.342-2.538.468 1.474.766 3.049 2.329 3.863.684.356 1.376.45 1.998-.081.574-.491.939-1.067.554-1.888-.292-.624-.394-1.308-.179-1.983.234-.734.75-1.147 1.445-.641 1.319.959 2.982 1.387 4.085 2.663.566.655 1.272.595 1.979.391 2.023-.584 3.304-2.239 4.504-3.713.875-1.075 2.032-1.473 3.03-2.088 1.318-.813 2.797-1.441 4.163-2.231 1.208-.698 2.124-1.674 2-3.142-.155-1.867-1.584-3.387-3.248-3.876-2.281-.67-4.592.445-6.865-.177-.095-.026-.257.033-.33.108-.838.876-2.094 1.319-2.543 2.61-.285.818-.9 1.276-1.861 1.111-.333-.057-.788-.12-.941.314-.293.828-1.165 1.167-1.532 1.957-.277.597-.885.904-1.608.779-.075-.915.125-1.648 1.179-1.856.14-.028.348-.165.367-.277.14-.847.689-1.137 1.469-1.284.414-.078.471-.574.307-.904-.229-.461.027-1.215-.755-1.354-.458-.082-.849.15-.969.538-.261.84-1.016 1-1.646 1.242-1.396.536-2.632 1.318-3.809 2.207-2.763 2.088-5.336 4.4-7.927 6.695-2.604 2.306-5.096 4.678-7 7.634-.713 1.105-1.433 2.286-2.666 3-.628.365-.501 1.596.183 2.043.426.279.937.429 1.409.636-.185 1.216-1.121 1.598-2.091.871-.779-.585-.923-1.431-1.059-2.31-.252-1.627.697-2.82 1.441-4.076 2.39-4.03 4.517-8.268 8.775-10.815 1.062-.635 1.768-1.666 1.813-3.055.034-1.06.719-1.614 1.774-1.761 4.199-.582 7.894-2.219 10.996-5.169 1.045-.994 2.203-1.868 3.447-2.636 1.166-.719 2.61-1.037 3.414-2.318.234-.373.371-.708.204-1.11-.162-.389-.539-.269-.84-.279-.599-.021-1.202.019-1.798-.029-.484-.038-.859-.34-.85-.84.01-.523.462-.551.884-.581 1.28-.09 2.509-.365 3.666-.962.937-.484 1.753-.144 2.26.681.322.524.531 1.197.553 1.812.123 3.358 1.439 3.049 3.674 2.409.268-.077.524-.197.791-.279.278-.085.584-.1.794.114 1.209 1.233 2.765 1.211 4.324 1.282 1.663.076 3.331.14 4.884.914.725.362 1.045.739.779 1.583-.299.95-.062 1.743.792 2.419.872.691 1.648 1.52 2.383 2.362.879 1.01 1.705 2.069 2.26 3.305.555 1.237.232 1.859-1.071 2.139-1.65.353-3.213.942-4.679 1.777-1.036.591-1.272 1.298-.739 2.278.4.734.885 1.422 1.275 2.161.898 1.702 2.419 2.845 3.717 4.186.546.564.789 1.207.309 1.811-.635.799-1.292 1.695-2.395 1.884-2.382.408-4.347 1.703-6.391 2.855-.779.439-1.263 1.047-1.61 1.841-.325.744-.223 1.196.631 1.433.48.133 1.083.102 1.384.614.437.741 1.106.822 1.858.746 1.347-.136 2.689-.325 3.958-.806.471-.179.922-.493 1.292-.841.901-.847 1.791-1.713 2.609-2.639 1.308-1.479 2.236-3.167 2.472-5.168.057-.485.132-.993.455-1.336 1.197-1.269 1.665-2.887 2.163-4.472.869-2.766 1.657-5.54 3.767-7.713 1.096-1.129 1.69-2.591 1.992-4.114.43-2.171 1.01-2.712 3.161-2.63.148.209.299.222.452.005 1.606.289 2.948 1.202 4.045 2.261 1.21 1.169 2.382 2.387 3.626 3.529.019.298.019.61.431.646 2.446 1.853 4.938 3.659 6.607 6.324-.06.305-.029.562.341.636.897 1.024 1.794 2.049 2.691 3.073.035.27.096.518.443.525.756.807 1.494 1.627 1.953 2.653-.315.355-.056.419.236.468 1.188 1.076 2.025 2.378 2.507 3.907.374 1.732.755 3.461 1.75 4.974.796 1.579 1.759 3.08 2.228 4.81-.316.335-.272.577.185.711.022.162.045.323.067.485-.295.382-.389.727.172.955.32.535.677 1.053.774 1.691-.309.289-.115.395.17.469.028.162.055.325.083.487-.294.385-.389.731.181.952.178.803.355 1.607.533 2.41-.318.308-.109.406.187.47.378.764.683 1.552.786 2.405-.274.533-.084.912.396 1.195.121.399.395.758.309 1.21-.323.708.209.632.615.67.481.28.847.636.831 1.247-.29.45-.452.881.178 1.194.259.563.517 1.125.776 1.688-.309.27-.141.391.148.474.707 1.485 1.691 2.799 2.57 4.178-.052.297-.019.546.337.621.217 1.049 1.36 1.673 1.309 2.845-.019.287.086.479.396.512.5.545.714 1.204.773 1.926-.274.533-.084.912.396 1.195.182.564.364 1.127.546 1.691-.256.542-.084.928.432 1.188.149.223.318.438.294.73-.32.308-.11.406.186.47.603 1.235 1.206 2.47 1.808 3.706-.053.306-.004.551.359.613.216.147.342.346.355.611.003.262-.008.526-.018.79m-107.35-26.13c1.465.16 2.81-.138 3.923-1.113.77-.675 1.586-1.189 2.617-1.321 1.566-.201 2.841-.941 3.936-2.065.416-.427.982-.723 1.593-.759 1.099-.066 1.633-.641 1.81-1.694.075-.45.046-1.062.563-1.254 1.132-.419 1.519-1.602 2.542-2.222 2.199-1.333 2.875-4.26 5.289-5.486.117-.059.18-.263.228-.413.589-1.849 1.992-3.02 3.422-4.188.666-.545 1.51-.913 1.869-1.802.676-1.678 1.951-2.412 3.749-2.415 1.198-.002 2.448-.966 2.565-1.98.226-1.971.391-3.951.513-5.932.059-.963-.795-1.984-1.744-2.109-1-.132-1.996-.154-2.527 1.041-.645 1.452-1.647 2.573-3.111 3.316-3.329 1.687-5.257 5.02-8.271 7.133-1.997 1.402-3.41 3.57-5.383 5.088-.248.191-.526.417-.531.766-.008.603-.428.932-.812 1.267-.988.862-2.01 1.69-3 2.544-.591.507-.931 1.109-1.055 1.933-.201 1.333-.829 2.357-2.373 2.62-1.01.172-2.01.555-2.816 1.249-1.506 1.3-2.976 2.643-4.48 3.945-.975.845-1.393 1.817-.895 3.081.487 1.236 1.573.579 2.38.77m16.606 6.489c-.752.006-1.496-.076-2.188.403-1.028.711-1.769 1.549-1.905 2.86-.151 1.455-.791 2.842-.676 4.334.125 1.627.936 2.122 2.412 1.505 1.542-.644 3.097-1.262 4.602-1.984.858-.411 1.567-.994 1.872-2.037.884-3.03-.822-4.99-4.117-5.081m18.501-35.898c.074.437-.189 1 .269 1.414 1.279 1.151 3.89.729 4.744-.759.301-.526.454-1.088-.137-1.484-.71-.477-1.312-1.082-2.248-1.268-2.108-.418-2.623-.079-2.628 2.097m-35.35 16.448c.808.015 1.558.08 1.704-.845.078-.493-1.209-1.567-1.817-1.526-.926.063-.943.797-1.017 1.483-.113 1.055.62.895 1.13.888m33.701 70.814c-.838-.077-1.24.497-1.162 1.154.062.523-.194 1.351.582 1.575.434.126 1.704-1.226 1.663-1.721-.051-.613-.356-1.057-1.083-1.01" fill="#5d3b27"/><path d="m102.75 291.05c1.367-.094 2.523.248 3.609 1.201 1.717 1.507 3.884 1.745 6.078 1.614.733-.044 1.413-.333 1.592-1.195.081-.391.309-.787.698-.658 1.065.354 2.176-.241 3.253.328 1.323.698 2.612.358 3.816-.49.904-.637 1.789-1.342 2.952-1.499.411-.055.87-.231.796-.723-.156-1.042.758-1.511 1.065-2.256.658-1.599 1.604-1.545 3.02-1.205 1.408.339 2.878.291 4.372.106 1.813-.225 3.615.164 5.314 1.024 1.809.917 3.859.832 5.822 1.06.569.066.91-.224.746-.888-.284-1.151-.312-2.356-.817-3.466-.163-.358-.166-.729-.618-.927-.702-.307-.377-.977-.349-1.479.03-.542.546-.632.994-.653.994-.047 1.898.209 2.637.909.497.472 1.053.865 1.674 1.136.763.333 1.348-.029 1.717-.669.368-.638-.232-.963-.617-1.244-.759-.554-1.48-1.133-2.437-1.436-1.426-.451-2.36-1.725-3.565-2.568-.632-.442.01-1.721.918-1.87.468-.077.957-.031 1.437-.026 1.274.015 2.503.056 3.65-.78.942-.686 2.208-.609 3.26-.367 1.417.326 2.681-.035 3.985-.343 2.492-.589 4.289.758 4.305 3.237.011 1.756.057 3.513-.596 5.19-.09.23-.187.483.06.647.232.154.451.008.648-.148.559-.444 1.121-.882 1.507-1.501.863-1.386 1.95-2.624 2.856-3.954.995-1.461 2.335-1.686 3.751-1.975.893-.182 1.587.295 2.132 1.02.866 1.153 1.95 1.025 2.697-.25.512-.875.495-1.754.12-2.641-.293-.692-.271-1.154.517-1.533.876-.42 1.309-1.226 1.428-2.21.362-2.998 3.899-4.762 6.536-3.221.937.548 1.857 1.082 2.925 1.308.745.157.998.548.743 1.299-.111.327-.146.716-.091 1.056.089.555.439.736.954.423.101-.061.178-.16.269-.238 2.258-1.952 3.911-1.969 6.315-.058-.119.327-.46.3-.696.37-.558.167-.945.394-.875 1.067.07.669.58.897 1.084.918 1.194.05 2.393-.005 3.589-.043.354-.011.704-.141 1.057-.148.541-.011.896-.137 1.01-.765.146-.83.649-.86 1.172-.314.652.681 1.332.813 2.13.298.514-.332 1.1-.219 1.638-.171 2.11.188 3.849-.455 5.195-2.119.172-.213.419-.366.631-.546.141.002.281.004.422.006 1.061 2.505 2.359 4.855 4.278 6.831.463.477.772 1.111.828 1.817-1.355 1.991-1.337 2.077.17 3.89.665.8 1.09 1.648.395 2.707-.512.782-.332 1.673-.193 2.554.288 1.828.877 3.615.388 5.53-.508 1.988-.283 4.049-.238 6.077.017.768.066 1.771 1.436 1.343.771-.241 1.38.245 1.514.99.128.71-.499.975-1.082 1.184-1.441.516-1.439.522-.763 1.989.852 1.849-.187 4.189-2.111 4.924-.776.297-1.311.056-1.549-.593-.259-.708-.384-1.662.55-1.945 1.189-.36 1.102-1.052.829-1.931-1.287-4.152-2.292-8.353-2.227-12.742.006-.416-.135-.961-.463-1.047-1.735-.457-2.02-2.094-2.918-3.263-.962-1.255-.453-1.815.556-2.522.945-.661 1.222-1.961.624-2.879-.59-.906-1.089-1.842-1.524-2.829-.421-.955-1.173-1.361-2.257-1.474-1.988-.208-4.104 2.286-4.322 3.968-.088.678.101 1.183.733 1.618 1.501 1.034 2.077 2.844 1.744 4.314-.58 2.563-.113 5.109-.485 7.661-.543 3.722.647 7.41 1.01 11.12.074.758-.285 1.759.862 2.403.991.556 1.722.849 2.682.13.47-.352.954-.285 1.4.155.421.417.563.833.29 1.391-.262.536-.472 1.097-.7 1.65-.218.529-.07 1.043.413 1.229 1.63.627 2.053 1.795 1.701 3.385-1.178 1.798-2.977 2.445-4.99 2.753-2.108.322-4.175.714-6.02 1.963-1.684 1.139-3.537 1.129-5.496.485-1.566-.514-3.225-.802-4.918-.684-2.057.144-4.069-.202-5.978-.925-2.118-.803-3.365-2.464-3.984-4.616.702-.362.927-.864.677-1.667-.601-1.929-.309-2.496 1.672-3.217 1.908-.695 3.03-1.966 3.269-4.01.077-.641-.533-1.296-.089-1.858 1.468-1.859 1.01-4.02 1.086-6.109.045-1.183-.453-1.93-1.593-2.347-2.035-.745-2.147-1.01-1.688-3.063.334-1.499.017-2.038-1.456-2.445-.479-.132-1.126-.039-1.231-.717-.098-.635.458-.857.887-1.148.261-.177.547-.401.463-.771-.083-.365-.438-.476-.744-.505-.835-.078-1.658-.1-2.437.371-.5.302-.699.6-.436 1.157.509 1.081.308 2.173.032 3.272-.485 1.927-.415 2.02 1.473 2.124.159.009.333-.014.474.043.354.145.875.19.869.684-.006.446-.398.658-.83.711-.919.112-1.315.601-1.24 1.543.03.38-.099.785-.213 1.161-.716 2.356-.242 3.86 1.708 5.338.222.168.461.312.681.482.681.526.861 1.138.543 1.995-.649 1.75-1.893 3.02-3.225 4.225-.149.135-.451.102-.682.147-.712-1.1-.929-2.363-1.192-3.612-.115-.545-.229-1.091-.378-1.628-.233-.837-.637-1.427-1.676-1.269-.468.071-.944-.112-1.308-.468.294-.894.967-.831 1.644-.598.915.314 1.496.034 1.674-.902.158-.832-.035-1.452-1.05-1.642-1.696-.318-3.482-.228-5.069-1.087-.304-.165-.5.056-.552.403-.093.62.168 1.062.614 1.459.696.62 1.23 1.346 1.31 2.32-2.315.689-4.02-.351-5.517-1.958-.157-.358-.215-.871-.489-1.047-1.403-.901-2.86-1.721-4.305-2.556-.283-.163-.666-.273-.863.049-.211.344-.228.755.205 1.043.195.13.349.323.522.487.048.272.051.563.151.814 1.302 3.262-.024 6.999-3.179 8.459-1.253.58-1.348 1.325-1.067 2.456.79 3.178 1.724 6.318 2.807 9.399 1.084 3.086-.047 5.497-1.819 7.847-1.687 2.237-3.885 3.659-6.576 4.445-2.164.632-4.02 1.907-5.737 3.335-1.128.939-2.338 1.608-3.754 1.978-5.884 1.538-11.534 1.161-16.872-1.962-.591-.346-1.191-.666-1.383-1.398 1.628-1.961.952-4.295 1.026-6.501.011-.32-.07-.776-.401-.939-.304-.149-.606.119-.83.341-2.203 2.175-2.25 2.45-.713 5.136.268.469.248.791-.169 1.105-1.325-.159-2.656-.297-3.832-1.017-.166-1.378-.543-1.609-2.65-1.624.077-.737-.054-1.412-.524-2.02-.636-.818-.4-1.516.284-2.209.415-.421.924-.704 1.31-1.192 1.381-1.747 1.062-3.766 1.082-5.738.015-1.485-.433-2.746-1.862-3.451-.402-.198-.547-.554-.723-.91-.567-1.146-1.244-2.116-2.751-2.01-.633.044-1.114-.255-1.459-.845-.796-1.362-1.161-1.407-2.371-.416-.307.251-.64.603-1.044.425-.5-.22-.347-.752-.321-1.175.015-.231.13-.456.201-.684.465-1.498.073-2.048-1.535-2.086-1.236-.029-2.473-.01-3.71-.012-.589-2.02-1.201-4.127-1.111-6.171.081-1.849.023-3.648-.362-5.399-.315-1.431-.282-2.759-.002-4.156.158-.818-.025-1.659-.253-2.47m90.26 3.31c-1.031-.133-1.377.48-1.422 1.348-.042.797-.097 1.609.005 2.395.381 2.945 1.339 5.572 4.154 7.116 1.147.629 1.164 1.07.011 1.677-.742.391-.98.853-.709 1.635.182.525.323 1.066.452 1.607.159.666.525.935 1.208.733 1.115-.33 2.252-.482 3.417-.423.403.02.898.031.984-.465.402-2.322 1.525-4.614.745-7.01-.543-1.667-1.257-3.243-.528-5.02.036-.088-.07-.226-.075-.342-.067-1.645-.874-3.04-1.49-4.505-.226-.536-.506-.856-1.114-.906-.59-.049-.811.286-1.089.724-1.134 1.788-1.824 2.029-3.96 1.518-.192-.046-.392-.06-.589-.088m-54.07 11.294c-.271 0-.471.007-.67-.001-.519-.02-.945.011-.943.729.002.733.457.723.96.709.436-.012.864 0 1.298-.144.638-.212 1.306-.028 1.498.597.214.696-.446.937-1.01 1.056-1.237.263-2.454.644-3.737.659-.485.006-1.214.114-1.094.633.272 1.172.08 2.499.864 3.505.797 1.022 1.47 2.072 1.713 3.362.059.314.118.668.454.785 1 .35 3.129-1.488 2.998-2.572-.218-1.811.011-2.137 1.737-2.359.851-.11 1.177-.418.89-1.351-.372-1.209-.557-2.475-.856-3.708-.14-.58-.31-1.2-1.024-1.334-1.048-.197-2.047-.68-3.081-.566m-17.01 8.9c.146.575.294 1.149.437 1.724.509 2.038 1.961 3.619 2.689 5.554.203.539.715.424 1.136.286.557-.182.823-.611.805-1.19-.048-1.53-.053-1.572 1.573-1.579.81-.004 1.304-.399 1.266-1.089-.046-.84-.072-1.756-.714-2.458-.852-.933-1.355-2.039-1.608-3.271-.195-.946-.729-1.657-1.571-2.123-.576-.319-1.061-.278-1.376.392-.466.988-1.18 1.786-1.974 2.52-.356.33-.702.668-.663 1.234m-4.54-8.239c.063-2.398.096-4.189-.869-5.825-.363-.616-.769-.77-1.362-.367-.296.201-.633.372-.864.634-.546.62-1.735.48-1.886 1.49-.129.862.45 1.595.726 2.373.792 2.231.902 4.686 2.345 6.714.619.869 1.35.599 2.01.445.695-.163.801-.847.555-1.478-.579-1.483-.736-3.01-.651-3.986m35.896 4.617c1.743-.002 2.295-.824 1.484-2.304-.728-1.329-.92-2.652-.473-4.113.164-.537.362-1.336-.29-1.634-1.512-.692-3.047-1.383-4.74-1.537-.428-.039-.626.117-.569.639.308 2.827 1.453 5.346 2.832 7.772.368.649.859 1.286 1.756 1.177m47.4 6.823c0-.279.037-.564-.007-.836-.158-.993-.833-1.658-1.65-2.065-.73-.364-1.372.078-1.861.683-.269.333-.629.431-1.056.451-.455.022-1.138-.269-1.165.592-.03.944-.249 2.046.938 2.441.928.309 1.931.472 2.91.531 1.648.098 1.898-.195 1.891-1.797m-53.51 12.35c.028-.67-.299-.945-.944-.93-1.108.027-.936.85-.976 1.542-.028.476.026.927.669.84.83-.113 1.217-.643 1.251-1.452" fill="#6a412b"/><path d="m206.94 65.937c-2.152-.082-2.731.459-3.161 2.63-.302 1.523-.896 2.986-1.992 4.114-2.11 2.173-2.898 4.947-3.767 7.713-.498 1.585-.966 3.202-2.163 4.472-.323.343-.398.851-.455 1.336-.236 2-1.163 3.689-2.472 5.168-.819.925-1.708 1.792-2.609 2.639-.37.348-.821.662-1.292.841-1.269.481-2.611.67-3.958.806-.752.076-1.421-.006-1.858-.746-.302-.512-.905-.48-1.384-.614-.855-.237-.956-.689-.631-1.433.347-.794.831-1.402 1.61-1.841 2.044-1.151 4.01-2.447 6.391-2.855 1.104-.189 1.76-1.085 2.395-1.884.48-.604.237-1.247-.309-1.811-1.298-1.34-2.819-2.483-3.717-4.186-.39-.739-.875-1.427-1.275-2.161-.534-.98-.298-1.687.739-2.278 1.466-.836 3.03-1.424 4.679-1.777 1.303-.279 1.626-.902 1.071-2.139-.555-1.235-1.381-2.297-2.26-3.305-.735-.842-1.511-1.672-2.383-2.362-.854-.676-1.092-1.47-.792-2.419.266-.844-.054-1.221-.779-1.583-1.552-.774-3.221-.838-4.884-.914-1.559-.071-3.115-.049-4.324-1.282-.21-.214-.516-.199-.794-.114-.267.082-.523.202-.791.279-2.235.64-3.551.949-3.674-2.409-.023-.615-.231-1.289-.553-1.812-.507-.824-1.324-1.164-2.26-.681-1.157.597-2.385.872-3.666.962-.422.03-.874.058-.884.581-.009.501.366.802.85.84.596.047 1.199.008 1.798.029.302.01.679-.11.84.279.166.401.03.736-.204 1.11-.804 1.28-2.248 1.598-3.414 2.318-1.244.768-2.402 1.642-3.447 2.636-3.102 2.95-6.797 4.588-10.996 5.169-1.056.146-1.74.701-1.774 1.761-.045 1.389-.751 2.42-1.813 3.055-4.258 2.548-6.386 6.781-8.775 10.815-.744 1.256-1.693 2.45-1.441 4.076.136.879.28 1.726 1.059 2.31.97.728 1.907.346 2.091-.871.568-.186 1.024-.549 1.466-.933 1.748-.554 3.02-1.598 3.523-3.43.234-.358.513-.66.953-.759 1.9-.314 3.37-1.112 3.628-3.252.068-.566.479-.691.927-.757.596-.087 1.091.056 1.437.618.352.571.382 1.234.463 1.84.288 2.168.25 4.348-.255 6.489-.213.902-.604 1.73-1.426 2.276-1.36.903-2.286 2.327-3.795 3.069-1.277.628-2.699.591-4.02 1.027-.626.207-1.278-.075-1.735-.589-.808-.909-1.762-1.029-2.822-.562-.94.414-1.677.152-2.38-.535-1.026-1-2.091-1.965-3.158-2.924-.82-.737-1.714-1.255-2.906-1.138-1.419.14-2.746-.328-4.063-.802-1.238-.445-2.482-.883-3.742-1.262-2.314-.696-3.852-3.931-2.956-6.212.234-.596.748-1.226.182-1.896-.465-.551-.906-1.054-1.823-.701-.951.366-1.508 1.057-1.238 1.899.568 1.766-.251 2.678-1.522 3.689-1.398 1.111-2.341 2.696-3.434 4.113-.366.474-.443 1.02.023 1.396 1.165.941 1.676 2.309 2.423 3.519.887 1.438 1.253 1.523 2.485.457.361-.312.722-.649 1.141-.861.637-.324 1.312-.459 1.746.351.813 1.517 1.649 3.02 1.418 4.854-.199 1.58.485 2.913 1.455 4.057 1.389 1.64 2.883 3.166 3.858 5.142.477.968 1.804.872 2.706 1.352.808.43 1.631.724 2.255 1.481.526.639 1.307 1.045 2.101 1.34 3.3 1.227 6.075 3.303 8.819 5.432.582.451.804.872-.04 1.304-.349.179-.64.469-.963.702-1.218.882-2.474.955-3.64-.002-1.173-.963-2.61-.853-3.929-1.209-.386-.104-.624.305-.864.561-.956 1.019-1.503 1.135-2.688.39-.626-.394-1.24-.508-1.913-.271-2.163.761-4.322.544-6.458-.069-.599-.172-1.049-.166-1.55.22-.643.495-1.223.362-1.78-.25-1.045-1.148-2.26-2.133-3.06-3.51-.6-1.034-1.572-1.252-2.563-.627-.962.607-1.912.753-2.946.358-.921-.352-1.799-.225-2.678.127-.634.254-1.161.233-1.464-.511-.32-.785-1.058-.922-1.772-1.018-2.582-.349-3.419-1.197-3.788-3.794-.105-.737-.205-1.545-1.149-1.766-.025-.06-.047-.122-.065-.185-.096-1.08.371-2.135-.118-3.258-.879-2.02-1.166-4.108-.883-6.369.182-1.456-.258-3.123.408-4.418.705-1.37.218-2.529.066-3.764-.068-.549-.16-1.091-.15-1.647.935-.468.8-1.357.649-2.089-.19-.915-.184-1.805-.123-2.714.87-.944 1.734-1.844 1.654-3.319-.047-.874-.377-1.861.306-2.654 2.217-2.572 2.755-5.74 3.218-8.939.374-.729.988-1.263 1.51-1.873 1.665-.407 1.998-1.788 2.324-3.175l.013-.015c1.595-.578 3.199-1.132 4.781-1.743.885-.342 1.179-1.144 1.233-2.01.042-.67-.033-1.347-.057-2.02.62-3.278.995-3.595 4.118-3.481.237.823.961.981 1.637 1.233.815.304 1.496.603 1.101 1.804-.248.753-.362 1.617-.314 2.472.067 1.188-.412 2.238-.988 3.264-1.318 2.347-3.38 4.03-5.224 5.896-.744.755-1.164 1.602-1.209 2.643-.057 1.324-.737 2.26-1.862 2.863-.842.451-1.751.774-2.605 1.205-1.532.773-2.439 2.843-2.126 4.545.233 1.264.769 2.618-.287 3.757-.698.752-1.055 1.918-2.341 2.039-.207.019-.491.341-.555.574-.424 1.542-1.092 2.988-1.655 4.476-.186.49-.102 1.014.007 1.534.313 1.496 1.132 2.816 1.492 4.28.217.885.709 1.06 1.454 1.032 1.267-.047 1.904-1.051 2.706-1.798.767-.715.929-1.509.401-2.475-.688-1.259-.604-2.556.164-3.746.399-.617.613-1.287.891-1.946 1.745-4.143 2.755-8.637 5.778-12.175.413-.483.785-1 1.223-1.464 1.203-1.261 1.648-3 2.776-4.313 1.307-1.522 3.129-2.318 4.721-3.437.759-.533 1.261-1.15 1.346-2.118.108-1.228.63-2.174 1.887-2.659.946-.365 1.881-.592 2.897-.599 1.643-.011 3.164-.532 3.957-2.02.892-1.668 2.269-2.71 3.73-3.771.905-.657 1.927-1.313 2.187-2.564 1.306-1.029 2.284-2.384 3.501-3.511.898-.832 2.221-1.332 2.524-2.729.936-.092 1.855-.534 2.822-.102.134.06.443-.032.534-.155 1.058-1.433 2.737-1.083 4.154-1.395.623-.137 1.558-.014 1.932.65.322.572-.134 1.241-.445 1.783-.595 1.037-2.214 1.222-3.779.505-.377-.173-.782-.585-1.195-.162-.43.44-.27.977.004 1.441.179.304.448.556.674.833 1.01 1.228.99 1.812-.047 3.03-.361.424-.706.864-1.024 1.321-1.018 1.464-2.312 2.432-4.114 2.837-1.954.439-3.535 1.474-4.047 3.619-.063.265-.166.498-.413.696-2.331 1.862-4.603 3.801-6.981 5.599-1.19.9-2.186.942-2.774-.583-.172-.445-.486-.855-1.102-.663-.529.164-1.364 1.667-1.237 2.313.148.755.648 1.01 1.405.969.722-.035 1.404.239 1.606.987.208.772-.449 1.131-1 1.448-1.403.802-2.182 2.055-2.658 3.546-.279.874-.582 1.74-.862 2.614-.39 1.213-.079 2.063.9 2.502.912.409 1.684.111 2.258-1.15.616-1.352 1.683-1.964 3.01-2.262.443-.099.806-.306 1.194-.514 2.659-1.421 4.789-3.552 7.19-5.32.766-.564 1.511-1.274 1.513-2.331.002-1.097.67-1.823 1.377-2.396 3.07-2.485 6.02-5.101 8.806-7.894.168-.168.352-.411.554-.438 2.227-.298 3.03-2.33 4.431-3.618.259-.237.248-.567.138-.895-.741-2.204-.739-2.204.977-3.607 1.881-1.538 2.609-1.405 3.705.678.537 1.02 1.092 1.161 2.114.54.477-.29.944-.6 1.438-.858.711-.37 1.505-.429 2.199-.085 2.987 1.482 6.23 2.204 9.372 3.218 1.969.635 3.757 1.789 5.845 2.054 1.897.241 3.794.428 5.501 1.421.249.145.625.109.939.093.984-.048 1.681-.632 2.01-1.474.32-.828-.36-1.293-.996-1.691-.376-.235-.635-.585-.897-.947-.862-1.19-1.294-2.544-1.642-3.947-.363-1.463-1.225-2.02-2.696-1.765-1.641.283-3.268.659-4.916.882-1.851.25-3.74.13-5.316-.914-1.938-1.283-3.898-1.438-6.04-.812-2.292.669-4.569.357-6.837-.189-.656-.158-.882-.512-.853-1.192.044-1.036-.026-2.076-.048-3.115.093-.412.496-.482.768-.697 2.064-.613 4.2-.977 6.323-.855 1.891.109 3.792.24 5.686.395 2.708.221 5.349.601 7.808 1.87 2.861 1.477 2.885 1.455 5.173-.787.862-.844 1.795-1.277 3-.811.704.272 1.429.489 2.126.776.54.222 1.013.246 1.387-.259.342-.461.593-.945.296-1.545-.263-.532-.583-.944-1.255-.922-.477.015-.993.095-1.426-.051-.669-.225-1.748-.013-1.673-1.258 2.722.973 5.228-.176 7.784-.803 1.537-.377 3.052-.853 4.598-1.187 2.726-.589 4.929 1.723 4.472 4.469-.509 3.055-.819 6.163-2.02 9.04-.882 2.115-.753 4.097-.213 6.264.812 3.26 1.814 6.423 3.323 9.423-.002.116-.002.221-.002.326m-14.07-21.392c-.595 0-1.08-.044-1.553.011-.653.076-1.067.489-.894 1.149.203.775.537 1.543 1.487 1.688 1.14.174 2.116.711 3.02 1.377.948.699 1.989 1.157 3.129 1.405.55.12 1.013.348 1.478.699 1.911 1.445 2.799 1.068 3.8-1.072 1.383-2.954 1.392-6.097 1.607-9.219.049-.707-.315-1.606-1.084-1.667-.733-.059-.671.865-.741 1.406-.065.504-.118.984-.563 1.25-1.435.858-2.196 2.279-3.089 3.594-1.035 1.524-2.11 1.744-3.456.53-.96-.866-1.971-1.328-3.14-1.151" fill="#9b6443"/><path d="m53.17 219.49c.517.088.863.389 1.057.866.251.618.758.705 1.288.53.564-.187.83-.681.674-1.246-.627-2.272-.426-4.592-.451-6.898-.02-1.852.627-3.524 1.51-5.101.552-.986 1.268-.998 1.945-.096.671.894.919 1.794.56 2.992-.855 2.851-1.351 5.784-1.681 8.757-.204 1.839-.151 3.662-.19 5.492-.022 1.016-.52 1.913-.637 2.905-.048.403-.162.801.038 1.167 1.143 2.087 1.251 4.41 1.53 6.688.237 1.933 1.111 3.548 2.275 5.05.834 1.077 1.552 2.221 1.852 3.578.206.93.953 1.301 1.735 1.436.836.144 1.118-.46.985-1.206-.122-.689-.163-1.347.206-1.972.195-.332.276-.824.779-.806.508.018.751.438.905.854.459 1.242 1.029 2.416 1.859 3.458 1.086 1.364 2.555 2.393 3.333 4.046.264.56 1.098.686 1.729.329 1.704-.963 3.449-1.173 5.407-.863 1.752.278 3.577-.022 5.362.283.971.166 1.794-.261 2.495-.918.356-.334.689-.739 1.212-.265.451.409.541.951.204 1.405-1.367 1.843-1.998 4.077-3.252 5.98-1.182 1.793-1.057 1.982.245 3.763 1.246 1.705 2.621 3.145 4.546 4.123 1.058.537 1.789 1.593 1.969 2.869.083.588.355.958.959 1.048.643.096.993-.27 1.141-.817.149-.549.493-.637.983-.62 1.12.039 2.147.19 3.126.899 1.409 1.021 3.08 1.675 4.156 3.156.185.255.635.469.951.454 1.75-.085 2.408 1.163 3.079 2.412.227.422.468.843.637 1.289.371.977 1.01 1.514 2.093 1.394.681-.075.886.225.902.895.047 2.041-.728 3.723-2.119 5.151-1.27 1.303-2.292 2.731-2.751 4.537-.283 1.113-1.099 1.22-2.092.304-.702-.647-1.293-1.463-2.421-1.301-.653-1.874-2.01-3.045-3.674-4.065-3.39-2.083-6.175-4.907-8.958-7.719-1.327-1.341-2.483-2.892-4.289-3.687-.477-.21-.443-.709-.313-1.048.415-1.083-.208-1.73-.96-2.189-5.626-3.432-9.71-8.504-14.14-13.209-2.216-2.355-4.452-4.696-6.578-7.131-4.364-4.998-6.78-10.847-7.41-17.449-.205-2.151-.759-4.237-1.297-6.323-.265-1.045-.458-2.102-.516-3.182" fill="#5d3b27"/><path d="m212.74 316.33c.352-1.59-.07-2.758-1.701-3.385-.483-.186-.631-.7-.413-1.229.228-.552.438-1.114.7-1.65.273-.559.132-.974-.29-1.391-.445-.44-.93-.507-1.4-.155-.959.718-1.691.426-2.682-.13-1.147-.643-.788-1.645-.862-2.403-.36-3.71-1.549-7.399-1.01-11.12.372-2.552-.095-5.098.485-7.661.333-1.47-.243-3.28-1.744-4.314-.632-.435-.821-.94-.733-1.618.218-1.681 2.334-4.176 4.322-3.968 1.084.114 1.836.519 2.257 1.474.434.987.934 1.924 1.524 2.829.598.917.321 2.217-.624 2.879-1.01.706-1.518 1.267-.556 2.522.896 1.169 1.183 2.806 2.918 3.263.328.086.469.631.463 1.047-.065 4.389.94 8.59 2.227 12.742.272.879.36 1.57-.829 1.931-.934.283-.81 1.237-.55 1.945.238.649.772.889 1.549.593 1.923-.734 2.963-3.075 2.111-4.924-.676-1.467-.678-1.474.763-1.989.583-.209 1.21-.474 1.082-1.184-.134-.745-.743-1.231-1.514-.99-1.37.428-1.42-.575-1.436-1.343-.044-2.028-.269-4.088.238-6.077.489-1.915-.099-3.702-.388-5.53-.139-.881-.32-1.772.193-2.554.695-1.06.27-1.907-.395-2.707-1.507-1.813-1.525-1.899-.17-3.89 4.208 5.265 7.144 11.126 6.393 17.994-.582 5.318-1.94 10.576-5.396 14.955-1.232 1.561-2.265 3.254-3.357 4.908-.31.472-.631.914-1.178 1.131" fill="#9b6443"/><g fill="#5d3b27"><path d="m210.86 265.83c-1.086-.561-2.269-.649-3.457-.748-.418-.035-1.103.292-1.151-.45-.042-.645-.006-1.386.794-1.692.26-.099.527-.184.795-.261.783-.225 1.155-.736 1.258-1.55.175-1.379.481-2.702 1.355-3.878.727-.977 1.074-2.11.623-3.384-.271-.765-.044-1.421.823-1.704.113-.037.213-.112.326-.151 2.306-.805 2.969-1.679 2.295-4.127-.412-1.496.018-2.264.99-3.343 2.626-2.915 6.081-4.88 8.649-7.832.439-.504.955-.593 1.446-.081.534.558 1.076.422 1.615.065.927-.614 2.422-.637 2.392-2.264 1.495-.343 1.446-1.676 1.894-2.76.284-.687.988-1.256 1.611-1.738 2.152-1.666 3.03-3.89 3.105-6.536.027-.897-.165-2.07 1.512-1.574.591.175.76-.584.857-1.088.125-.651-.102-1.291-.33-1.862-.933-2.337.211-4.124 1.774-5.471.844-.727 1.13-1.957 2.279-2.322.841 2.531.182 4.968-.482 7.399-.878 3.214-1.23 6.58-2.934 9.553-2 3.492-4.441 6.65-6.937 9.798-2.441 3.079-5.999 4.849-8.537 7.771-3.457 3.979-7.475 7.463-10.453 11.866-1.021 1.51-1.424 3.269-2.01 4.951-.118.337-.033.833.136 1.165.424.83.221 1.539-.237 2.248"/><path d="m242.15 208.7c-1.635-.645-1.673-2.195-1.817-3.538-.263-2.464.716-4.769 1.227-7.131.29-1.339.125-2.763 1.019-3.988.996-1.364 2.56-1.639 3.881-.378 1.112 1.061 2.414 1.99 2.951 3.559.24.702.724.459.896-.009.641-1.746 2.171-3.075 2.299-5.074.035-.552.658-.947 1.191-.646 2.363 1.335 4.575.29 6.813-.336.902-.252 1.729-.781 2.639.135.346.348 1.051.216 1.528-.235 1.01-.955 1.86-2.084 3.155-2.727.487-.242.495-.741.328-1.265-.257-.802-.23-1.556.497-2.174.576-.489.302-1.199.332-1.816.036-.731.011-1.465.877-1.773-.215 2.091-.27 4.2-.696 6.268-.03.113-.06.226-.091.339-.05.207-.1.414-.15.621-.032.111-.064.222-.096.333-.457 1.5-1.186 2.826-2.164 4.078-.741.949-1.01 2.236-1.844 3.173-.717.806-1.484 1.554-2.422 2.107-2.736-.33-4.557 1.418-6.496 2.882-.12.09-.098.368-.141.559-.492.328-.976.683-1.624.46-.299-1.307-1.352-.855-2.129-.829-.888.03-.396.856-.569 1.309-1.195.68-2.344.793-3.523-.105-.557-.424-1.246-.295-1.764.153-.722.624-1.381.543-2.173.115-1.32-.714-1.719-.543-2.158.891-.521 1.694-.178 3.375.224 5.04"/></g><g fill="#9b6443"><path d="m104.47 309.25c1.237.002 2.474-.017 3.71.012 1.608.038 1.999.588 1.535 2.086-.071.228-.186.453-.201.684-.027.423-.18.956.321 1.175.404.178.737-.174 1.044-.425 1.21-.991 1.576-.946 2.371.416.345.59.826.889 1.459.845 1.507-.105 2.184.866 2.751 2.01.176.356.321.712.723.91 1.429.705 1.877 1.966 1.862 3.451-.02 1.971.3 3.991-1.082 5.738-.386.488-.895.771-1.31 1.192-.683.693-.92 1.391-.284 2.209.47.605.601 1.279.524 2.02-.806-.344-1.316-1.03-1.814-1.686-3.414-4.5-6.968-8.91-9.507-14-1.044-2.096-2.158-4.181-2.102-6.632"/><path d="m179.32 310.7c.231-.045.533-.011.682-.147 1.331-1.207 2.576-2.474 3.225-4.225.318-.857.137-1.468-.543-1.995-.22-.17-.459-.314-.681-.482-1.951-1.478-2.424-2.981-1.708-5.338.114-.376.244-.782.213-1.161-.075-.943.321-1.431 1.24-1.543.432-.053.824-.265.83-.711.007-.494-.515-.539-.869-.684-.14-.057-.315-.034-.474-.043-1.887-.108-1.958-.198-1.473-2.124.277-1.098.477-2.191-.032-3.272-.262-.558-.064-.855.436-1.157.778-.471 1.601-.449 2.437-.371.306.029.661.139.744.505.084.37-.202.594-.463.771-.429.291-.985.513-.887 1.148.105.678.752.584 1.231.717 1.472.407 1.79.946 1.456 2.445-.459 2.056-.347 2.318 1.688 3.063 1.141.417 1.639 1.163 1.593 2.347-.08 2.085.382 4.25-1.086 6.109-.444.562.166 1.217.089 1.858-.244 2.043-1.361 3.314-3.269 4.01-1.981.721-2.273 1.288-1.672 3.217.25.803.025 1.304-.677 1.667-.94-.831-1.303-1.954-1.592-3.12-.123-.502-.29-.99-.438-1.483"/></g><path d="m189 38.42c-.075 1.245 1 1.033 1.673 1.258.433.146.948.066 1.426.051.673-.021.992.39 1.255.922.297.6.045 1.084-.296 1.545-.374.504-.848.481-1.387.259-.697-.287-1.423-.504-2.126-.776-1.206-.467-2.139-.034-3 .811-2.288 2.242-2.312 2.264-5.173.787-2.459-1.269-5.1-1.648-7.808-1.87-1.894-.155-3.795-.286-5.686-.395-2.123-.122-4.259.242-6.322.855.421-1.113 1.344-1.512 2.418-1.636 2.65-.305 5.288-.278 7.958-.051 3.102.264 6.148.63 9.05 1.819.462.189.991.319 1.32-.133.794-1.087 1.776-1.321 3.03-.947.703.21 1.259-.187 1.578-.798.297-.568.085-1.073-.387-1.488-1.145-1.01-1.19-2.566-1.872-3.809-.109-.199-.009-.473.237-.616 1.092.398 1.39 1.513 2.071 2.283.52.588.775 1.472 1.734 1.579.103.118.206.234.31.35" fill="#5d3b27"/><path d="m262.03 156.15c-.827-.356-1.028-1.268-1.615-1.829-1.729-1.652-3.283-3.479-5.177-4.969-2.268-1.784-3.334-4.207-3.44-7.08-.02-.537.136-1.022.278-1.518.646.437 1.069.98 1.213 1.8.597 3.385 2.793 5.811 5.068 8.157 1.554 1.601 3.209 3.109 3.673 5.436" fill="#6a412b"/><path d="m173.34 303.68c-.08-.975-.614-1.7-1.31-2.32-.446-.397-.706-.839-.614-1.459.052-.347.248-.568.552-.403 1.587.86 3.373.769 5.069 1.087 1.015.19 1.208.81 1.05 1.642-.178.936-.759 1.216-1.674.902-.677-.232-1.35-.295-1.644.598-.476-.016-.953-.032-1.429-.047" fill="#282621"/><path d="m124.37 334.21c.417-.314.438-.636.169-1.105-1.537-2.686-1.49-2.961.713-5.136.225-.222.527-.49.83-.341.332.163.412.619.401.939-.074 2.206.601 4.54-1.026 6.501-.362-.286-.725-.572-1.087-.858" fill="#9b6443"/><path d="m268.52 167.91c-.373.055-.575-.151-.759-.445-1.339-2.134-2.98-4.093-3.324-6.751-.1-.771-.757-1.463-1.128-2.207-.19-.382-.502-.73-.447-1.206 1.571 1.06 2.549 2.609 3.327 4.265.96 2.041 2.052 4.048 2.331 6.344" fill="#6a412b"/><g fill="#9b6443"><path d="m162.89 299.7c-.173-.164-.327-.357-.522-.487-.433-.288-.416-.698-.205-1.043.197-.322.581-.212.863-.049 1.446.835 2.902 1.655 4.305 2.556.274.176.332.689.489 1.047-1.197.163-2.175-.31-3.08-1.032-.553-.44-1.051-1-1.85-.992"/><path d="m255.86 201.67c.044-.191.022-.469.141-.559 1.939-1.464 3.76-3.211 6.496-2.882-1.974 1.607-4.199 2.729-6.637 3.441"/></g><path d="m51.878 203.42c.528 1.869 1.453 3.644 1.218 5.691-.092.798-.192 1.559-.677 2.222-.521-2.615-.683-5.254-.541-7.913" fill="#5d3b27"/><g fill="#9b6443"><path d="m117.89 331.57c2.107.015 2.484.246 2.65 1.624-1.148-.109-2.257-.281-2.65-1.624"/><path d="m251.54 202.61c.173-.453-.319-1.279.569-1.309.777-.026 1.829-.478 2.129.829-.9.16-1.799.32-2.698.48"/></g><g fill="#6a412b"><path d="m232.02 94.94c-.995-1.513-1.376-3.243-1.75-4.974.88 1.553 1.246 3.287 1.75 4.974"/><path d="m239.72 116.3c-.63-.313-.469-.744-.178-1.194.255.369.237.778.178 1.194"/></g><path d="m52.887 216.85c.216.539.581 1.061.2 1.672-.227-.539-.447-1.077-.2-1.672" fill="#5d3b27"/><g fill="#6a412b"><path d="m247.4 132.62c-.517-.26-.688-.646-.432-1.188.267.351.395.753.432 1.188"/><path d="m237.79 111.98c-.48-.283-.671-.662-.396-1.195.283.348.344.77.396 1.195"/><path d="m246.43 129.74c-.481-.283-.671-.662-.396-1.195.283.348.344.77.396 1.195"/><path d="m235.88 105.5c-.57-.22-.475-.567-.181-.952.199.291.249.61.181.952"/><path d="m234.68 101.9c-.56-.228-.467-.573-.172-.955.195.294.188.624.172.955"/><path d="m238.71 113.86c-.407-.038-.939.038-.615-.67.205.223.41.447.615.67"/><path d="m250.38 139.54c.01-.264.021-.528.031-.792.256.205.442.455.496.787-.175.002-.351.004-.527.005"/><path d="m234.44 100.46c-.456-.134-.5-.376-.185-.711.169.209.231.446.185.711"/><path d="m225.58 82.937c-.347-.007-.408-.255-.443-.525.289.055.412.251.443.525"/><path d="m215.5 72.38c-.412-.037-.412-.348-.431-.646.316.101.389.363.431.646"/><path d="m247.88 133.82c-.296-.064-.506-.162-.186-.47.152.121.236.269.186.47"/><path d="m250.05 138.14c-.363-.062-.412-.307-.359-.613.213.15.335.353.359.613"/><path d="m245.26 126.62c-.31-.033-.415-.224-.396-.512.22.103.383.249.396.512"/><path d="m206.94 65.937c0-.105-.001-.21-.001-.315.151.107.302.213.452.32-.152.217-.302.205-.451-.005"/><path d="m243.55 123.26c-.356-.075-.389-.325-.337-.621.242.136.367.337.337.621"/><path d="m222.44 79.34c-.37-.074-.4-.331-.341-.636.247.141.342.363.341.636"/><path d="m227.77 86.06c-.292-.048-.551-.113-.236-.468.079.156.158.312.236.468"/><path d="m240.64 118.46c-.29-.083-.457-.204-.148-.474.049.159.099.316.148.474"/></g><path d="m211.17 268.69c-.14-.002-.281-.004-.422-.006.014-.185.024-.372.226-.465.155.12.242.268.196.471" fill="#5d3b27"/><g fill="#6a412b"><path d="m235.62 104.06c-.285-.073-.479-.18-.17-.469.138.127.214.277.17.469"/><path d="m236.6 108.38c-.295-.064-.505-.162-.187-.47.155.12.238.268.187.47"/></g><g fill="#9b6443"><path d="m268.93 188.87c.032-.111.064-.222.096-.333.066.139.032.249-.096.333"/><path d="m269.18 187.91c.03-.113.06-.226.091-.339.066.139.035.252-.091.339"/><path d="m70.56 87.68c-.492.489-.768 1.256-1.631 1.266.088-.263.099-.607.276-.776 1.973-1.88 1.304-4.059.735-6.224-.685-2.608-1.21-5.209-.061-7.833.966-2.204 2.14-4.254 4.096-5.75 1.077-.824 2.37-1.12 3.643-1.407 2.778-.626 5.536-1.354 8.363-1.752 1.021-.144 2.049.055 3.088-.204 1.145-.284 1.828-.92 1.824-2.028-.015-4.768 2.242-8.919 3.533-13.33.447-1.526 1.146-2.972 1.5-4.535.173-.765.605-1.382 1.281-1.808.036.035.072.071.109.106-.274 1.25-.548 2.499-.822 3.749-.938.599-.948 1.52-.858 2.476-.169.269-.372.523-.501.811-2.143 4.761-3.805 9.634-3.403 14.975-1.22.325-1.184 1.309-.824 2.098.665 1.455 1.207 2.951 1.815 4.424.332.805.824 1.538 1.558 2.085.855.637.748 1.233-.121 1.829-3.158 2.166-6.084.584-9.05-.499-.093-.034-.141-.188-.214-.283-1.29-1.701-2.983-1.785-4.825-1.172-1.393.463-2.749.708-4.159-.004-.442-.223-1.077-.223-1.43.273-.442.622-1.049.757-1.739.868-1.406.228-2.287 1.138-2.369 2.457-.092 1.476-.125 2.993.49 4.359.916 2.033.716 3.935-.308 5.829"/><path d="m67.47 91.34c-.442 1.975-1.233 3.722-3.106 4.763.741-1.779 1.529-3.528 3.106-4.763"/><path d="m68.938 88.94c.003.33-.027.64-.436.719-.069-.37.048-.627.436-.719"/></g><path d="m96.5 47.15c.274-1.25.548-2.499.822-3.749 1.724-1.161 2.818-2.902 3.994-4.529 2.45-3.391 5.202-6.382 9.02-8.301 1.63-.82 2.981-2.097 4.39-3.27 2.15-1.789 4.842-2.302 7.485-2.898 2.036-.459 3.901-1.244 5.602-2.539 1.984-1.511 4.405-2.194 6.738-3 .83-.288 1.628-.605 2.376-1.095 1.372-.9 3.02-.727 4.523-.786 3.75-.147 7.512-.113 11.265-.013 1.275.034 2.52.582 3.821.664.451.85 1 .976 1.68.238 1.412.327 2.764.97 4.269.808.698 1.342 1.886 1.491 3.207 1.316.731.025 1.222.581 1.85.835.71 1.38 1.911 1.969 3.393 2.103.912.805 2.044 1.317 2.881 2.235.469.515 1.204.567 1.857.733.228.732.596 1.277 1.491 1.124.064.023.129.044.194.063.17.666.529 1.05 1.276.858.713-.033.937.665 1.429.958.873.52 1.662 1.158 2.543 1.679 1.319.78 1.903 2.17 2.278 3.623-.246.142-.346.417-.237.615.682 1.242.727 2.8 1.872 3.809.471.415.683.92.387 1.488-.319.61-.875 1.01-1.578.798-1.253-.374-2.235-.14-3.03.947-.33.452-.859.322-1.32.133-2.901-1.189-5.946-1.555-9.05-1.819-2.669-.227-5.308-.254-7.958.051-1.074.124-1.997.523-2.418 1.636-.272.215-.675.285-.768.697-.991.017-1.418.494-1.396 1.509.017.74.26 1.399.434 2.092.384 1.534-.668 2.468-2.191 2.058-1.041-.28-1.654-1.017-2.323-1.774-.975-1.103-1.742-2.524-3.598-2.408-2.605.162-4.961 1.018-7.202 2.295-.505.287-.479.671-.404 1.12-.303 1.397-1.625 1.898-2.524 2.729-1.217 1.127-2.195 2.482-3.501 3.51-.507-.089-1.074-.37-1.511-.233-1.713.535-2.857-.001-3.619-1.577-.145-.301-.382-.69-.826-.499-.394.17-.612.534-.545.976.113.747.341 1.46.633 2.165.604 1.459.135 2.52-1.318 3.19-.365.168-.711.381-1.1.031-.343-.309-.383-.624-.243-1.068.177-.563.255-1.161.335-1.749.088-.646-.029-1.262-.779-1.394-.745-.132-.918.549-1.084 1.043-.381 1.136-.766 2.263-1.334 3.324-.919 1.716-2.848 2.35-4.576 1.496-.196-.097-.351-.2-.363-.418-.05-.923-.065-1.981.582-2.588.797-.748.347-1.043-.184-1.427-.744-.54-1.602-.748-2.5-.554-.93.201-1.84.493-2.758.745-3.123-.114-3.498.203-4.117 3.481-.642.031-1.128.455-1.581.794-1.797 1.348-4.12 2.268-4.378 4.977l-.013.016c-1.863.737-2.304 1.338-2.325 3.174-.521.609-1.136 1.144-1.509 1.873-1.506.468-1.695 1.793-1.852 3.041-.173 1.376-.562 2.633-1.362 3.763-.597.844-1.42.863-1.979-.007-.275-.428-.455-.931-.606-1.422-.326-1.059-.549-2.148-1.176-3.1-.372-.565-.194-1.156.151-1.686.194-.298.433-.567.644-.855.581-.794.425-1.357-.497-1.754-1.527-.657-3.037-1.354-4.554-2.035-.402-5.341 1.26-10.213 3.403-14.975.129-.287.333-.541.501-.811 1.189-.514.87-1.549.862-2.477" fill="#282621"/><path d="m170.93 22.934c-1.482-.134-2.683-.723-3.393-2.103 1.426.226 2.657.766 3.393 2.103" fill="#5d3b27"/><g fill="#6a412b"><path d="m165.69 19.996c-1.321.175-2.509.026-3.207-1.316 1.292-.104 2.433.16 3.207 1.316"/><path d="m158.21 17.872c-.676.738-1.23.612-1.68-.238.609-.271 1.218-.533 1.68.238"/><path d="m177.16 27.03c-.895.153-1.264-.392-1.491-1.124.785-.007 1.322.315 1.491 1.124"/><path d="m178.63 27.947c-.747.192-1.107-.192-1.276-.858.726-.162 1.092.213 1.276.858"/></g><g fill="#5d3b27"><path d="m91.73 65.42c1.517.68 3.03 1.378 4.554 2.035.922.397 1.078.96.497 1.754-.211.288-.45.557-.644.855-.345.53-.523 1.12-.151 1.686.627.953.85 2.041 1.176 3.1.151.491.332.993.606 1.422.558.87 1.381.851 1.979.007.8-1.129 1.189-2.387 1.362-3.763.157-1.248.345-2.572 1.852-3.041-.463 3.199-1 6.366-3.218 8.938-.684.793-.353 1.781-.306 2.654.079 1.475-.784 2.374-1.655 3.319-.854.062-1.573-.279-2.177-.825-1.061-.959-2.262-1.564-3.665-1.888-1.319-.304-2.63-.714-3.191-2.214-.125-.333-.51-.626-.844-.814-2.162-1.222-4.455-2.12-6.896-2.603-1.187-.235-2.26.523-2.22 1.732.08 2.412.236 4.831 1.178 7.11.389.941.34 1.826-.222 2.727-.782 1.253-2.104 1.925-3.056 2.997-.572.644-.666 1.041-.017 1.677.762.748 1.445 1.587 2.089 2.442 1.202 1.594 2.523 2.01 4.348 1.294.183-.072.39-.078.578-.138 1.347-.425 2.76-.17 4.135-.438 1.718-.335 1.735-.247 1.737 1.459.002 2.079.908 2.913 2.939 2.573 1.574-.263 2.1-.921 1.029-2.195-.86-1.022-.85-2.195-.214-3.341.637-1.148 1.342-2.258 1.974-3.408.439-.799 1.065-1.258 1.969-1.343-.01.555.082 1.098.15 1.647.152 1.236.64 2.394-.066 3.764-.666 1.295-.226 2.961-.408 4.418-.283 2.26.004 4.351.883 6.369.489 1.122.022 2.178.118 3.258-.341.001-.652-.077-.766-.442-.607-1.956-2.223-2.273-3.939-2.465-3.647-.409-6.938-1.645-9.668-4.189-.649-.605-1.414-1-2.33-1.102-.751-.082-1.407-.362-1.509-1.253-.04-.351-.269-.57-.497-.791-2.799-2.715-4.879-5.963-6.844-9.291-.435-.736-1-1.222-1.821-1.428 1.023-1.894 1.223-3.796.307-5.829-.615-1.366-.582-2.882-.49-4.359.082-1.319.964-2.23 2.369-2.457.69-.112 1.297-.246 1.739-.868.353-.497.988-.496 1.43-.273 1.41.711 2.766.467 4.159.004 1.842-.613 3.535-.528 4.825 1.172.072.095.12.249.214.283 2.962 1.083 5.888 2.666 9.05.499.869-.596.976-1.192.121-1.829-.734-.547-1.225-1.28-1.558-2.085-.609-1.473-1.15-2.97-1.815-4.424-.36-.791-.396-1.774.824-2.099"/><path d="m81.2 122.4c-.049.473.001.722-.101.861-1.493 2.053-2.533 4.462-4.667 6.01-.287.209-.607.436-.943.505-1.618.334-2.341 1.582-2.964 2.893-.222.466-.532.395-.871.402-.471.01-.826-.222-.771-.703.151-1.321-.309-2.209-1.573-2.736-.537-.224-.476-.836-.259-1.27.852-1.709 1.437-3.55 2.539-5.136.659-.949 1.465-1.49 2.698-1.425 1.413.074 2.387-.693 2.884-2.026.208-.558.439-1.112.704-1.645.234-.472.647-.708 1.185-.615.572.099 1.242.331 1.287.909.113 1.454.077 2.917.852 3.973"/></g><g fill="#9b6443"><path d="m143.02 113.41c-.806-.19-1.893.466-2.38-.769-.499-1.264-.081-2.236.895-3.081 1.504-1.303 2.973-2.645 4.48-3.945.804-.694 1.806-1.077 2.816-1.249 1.545-.263 2.173-1.287 2.373-2.62.124-.823.464-1.425 1.055-1.933.995-.855 2.01-1.682 3-2.544.384-.335.804-.664.812-1.267.005-.349.283-.575.531-.766 1.973-1.518 3.386-3.686 5.383-5.088 3.01-2.117 4.941-5.446 8.271-7.133 1.465-.742 2.466-1.864 3.111-3.316.531-1.196 1.522-1.173 2.527-1.041.949.125 1.804 1.146 1.744 2.109-.122 1.981-.286 3.961-.513 5.932-.116 1.014-1.367 1.978-2.565 1.98-1.798.003-3.073.737-3.749 2.415-.359.889-1.203 1.257-1.869 1.802-1.429 1.17-2.833 2.338-3.422 4.188-.048.15-.111.353-.228.413-2.414 1.226-3.09 4.152-5.289 5.486-1.023.62-1.41 1.803-2.542 2.222-.518.192-.488.804-.563 1.254-.176 1.053-.711 1.628-1.81 1.694-.611.037-1.177.332-1.593.759-1.095 1.125-2.37 1.865-3.936 2.065-1.031.132-1.847.646-2.617 1.321-1.114.974-2.458 1.271-3.923 1.112"/><path d="m159.38 72.08c.724.126 1.331-.181 1.608-.779.367-.79 1.239-1.129 1.532-1.957.154-.434.608-.371.941-.314.96.165 1.576-.293 1.861-1.111.449-1.29 1.705-1.734 2.543-2.61.072-.076.234-.134.33-.108 2.273.621 4.584-.494 6.865.177 1.664.489 3.093 2.01 3.248 3.876.122 1.468-.795 2.444-2 3.142-1.366.79-2.845 1.418-4.163 2.231-.997.615-2.153 1.014-3.03 2.088-1.2 1.473-2.482 3.129-4.504 3.713-.707.204-1.413.263-1.979-.391-1.103-1.276-2.766-1.705-4.085-2.663-.696-.506-1.211-.093-1.445.641-.216.676-.114 1.36.179 1.983.385.821.02 1.398-.554 1.888-.622.531-1.314.438-1.998.081-1.563-.815-1.861-2.39-2.329-3.863.481-1.359 1.654-1.699 2.881-1.961 1.196-.091 1.373-.359.935-1.415.045-.569.383-.971.823-1.256.762-.492 1.56-.931 2.343-1.392"/></g><path d="m155.27 76.14c-1.227.262-2.401.602-2.881 1.961-1.689.089-2.617 1.199-3.342 2.538-.413.762-.929 1.407-1.736 1.733-1.326.535-1.838 1.553-1.859 2.904-.441.098-.719.401-.953.759-2.353.085-3.334 1.04-3.523 3.429-.442.385-.897.747-1.466.933-.472-.208-.983-.357-1.409-.636-.684-.447-.811-1.679-.183-2.043 1.233-.715 1.952-1.897 2.666-3 1.909-2.956 4.401-5.327 7-7.634 2.591-2.295 5.164-4.607 7.927-6.695 1.177-.889 2.413-1.672 3.809-2.207.63-.242 1.385-.402 1.646-1.242.12-.388.511-.62.969-.538.782.139.526.894.755 1.354.164.33.107.826-.307.904-.78.147-1.329.437-1.469 1.284-.019.113-.227.25-.367.277-1.055.208-1.254.941-1.179 1.856-.783.461-1.581.899-2.343 1.392-.441.285-.778.688-.823 1.257-.766.173-.648.929-.937 1.416" fill="#282621"/><path d="m159.63 119.9c3.295.092 5 2.05 4.117 5.082-.304 1.043-1.014 1.626-1.872 2.037-1.505.722-3.06 1.34-4.602 1.984-1.476.617-2.287.122-2.412-1.505-.115-1.492.525-2.879.676-4.334.136-1.311.877-2.149 1.905-2.86.692-.478 1.436-.396 2.188-.404" fill="#9b6443"/><path d="m178.13 84c.005-2.176.52-2.515 2.628-2.097.936.186 1.538.79 2.248 1.268.59.397.438.959.137 1.484-.853 1.488-3.465 1.91-4.744.759-.458-.411-.195-.977-.269-1.414" fill="#282621"/><path d="m142.78 100.45c-.51.007-1.243.167-1.13-.888.074-.686.09-1.42 1.017-1.483.607-.041 1.895 1.032 1.817 1.526-.146.925-.896.86-1.704.845" fill="#9b6443"/><path d="m176.48 171.26c.727-.048 1.033.395 1.083 1.01.041.495-1.229 1.847-1.663 1.721-.776-.224-.52-1.052-.582-1.575-.078-.657.324-1.231 1.162-1.154" fill="#282621"/><g fill="#9b6443"><path d="m193 294.36c.196.029.396.042.589.088 2.136.511 2.826.269 3.96-1.518.278-.438.499-.773 1.089-.724.607.05.888.37 1.114.906.617 1.464 1.423 2.859 1.49 4.505.005.116.111.254.075.342-.728 1.775-.015 3.35.528 5.02.78 2.393-.343 4.684-.745 7.01-.086.497-.581.486-.984.465-1.165-.059-2.303.093-3.417.423-.683.202-1.049-.067-1.208-.733-.129-.541-.27-1.082-.452-1.607-.271-.781-.033-1.244.709-1.635 1.153-.607 1.137-1.048-.011-1.677-2.816-1.544-3.773-4.171-4.154-7.116-.102-.786-.046-1.598-.005-2.395.045-.868.392-1.481 1.422-1.348"/><path d="m138.93 305.66c1.033-.115 2.032.368 3.081.566.714.134.883.754 1.024 1.334.299 1.233.484 2.499.856 3.708.287.933-.039 1.242-.89 1.351-1.726.222-1.955.548-1.737 2.359.13 1.084-1.996 2.922-2.998 2.572-.335-.117-.395-.471-.454-.785-.242-1.289-.916-2.34-1.713-3.362-.784-1.01-.592-2.333-.864-3.505-.12-.518.609-.627 1.094-.633 1.283-.015 2.5-.397 3.737-.659.562-.119 1.221-.361 1.01-1.056-.192-.625-.86-.809-1.498-.597-.434.144-.862.133-1.298.144-.503.013-.958.024-.96-.709-.002-.718.424-.75.943-.729.2.008.4.001.67.001"/><path d="m121.92 314.56c-.039-.566.306-.905.663-1.234.795-.734 1.508-1.532 1.974-2.52.316-.67.801-.711 1.376-.392.842.467 1.376 1.177 1.571 2.123.253 1.231.756 2.338 1.608 3.271.641.702.668 1.618.714 2.458.038.691-.456 1.086-1.266 1.089-1.627.007-1.621.049-1.573 1.579.018.58-.248 1.01-.805 1.19-.421.138-.933.253-1.136-.286-.728-1.935-2.18-3.517-2.689-5.554-.143-.575-.291-1.149-.437-1.724"/></g><path d="m117.38 306.32c-.085.972.072 2.503.65 3.985.247.632.141 1.315-.555 1.478-.656.154-1.387.424-2.01-.445-1.443-2.028-1.553-4.483-2.345-6.714-.276-.777-.855-1.511-.726-2.373.151-1.01 1.34-.87 1.886-1.49.231-.262.568-.433.864-.634.593-.403.999-.249 1.362.367.967 1.638.933 3.428.87 5.826" fill="#282621"/><g fill="#9b6443"><path d="m153.28 310.93c-.897.109-1.388-.528-1.756-1.177-1.379-2.426-2.524-4.945-2.832-7.772-.057-.523.141-.678.569-.639 1.693.154 3.228.845 4.74 1.537.652.298.454 1.097.29 1.634-.447 1.462-.255 2.785.473 4.113.811 1.479.259 2.301-1.484 2.304"/><path d="m200.68 317.76c.007 1.602-.243 1.895-1.891 1.795-.98-.059-1.982-.222-2.91-.531-1.187-.395-.969-1.497-.938-2.441.028-.861.71-.57 1.165-.592.427-.02.787-.117 1.056-.451.489-.605 1.131-1.046 1.861-.683.817.408 1.492 1.073 1.65 2.065.043.274.007.559.007.838"/><path d="m147.17 330.11c-.033.809-.42 1.34-1.251 1.452-.643.087-.697-.364-.669-.84.04-.692-.132-1.515.976-1.542.644-.016.972.259.944.93"/></g><path d="m144.1 47.45c-.075-.448-.1-.832.404-1.12 2.242-1.277 4.598-2.132 7.202-2.295 1.855-.116 2.623 1.305 3.598 2.408.669.757 1.282 1.494 2.323 1.774 1.524.41 2.576-.524 2.191-2.058-.174-.694-.418-1.352-.434-2.092-.023-1.015.405-1.492 1.396-1.509.021 1.038.091 2.078.047 3.114-.029.681.197 1.034.853 1.192 2.268.546 4.544.859 6.837.189 2.144-.626 4.105-.471 6.04.812 1.576 1.043 3.466 1.163 5.316.914 1.648-.222 3.275-.599 4.916-.882 1.471-.254 2.333.303 2.696 1.765.348 1.403.78 2.757 1.642 3.947.262.362.521.712.897.947.636.398 1.316.862.996 1.691-.325.841-1.022 1.425-2.01 1.474-.314.015-.691.051-.939-.093-1.706-.993-3.604-1.18-5.501-1.421-2.088-.265-3.876-1.419-5.845-2.054-3.142-1.014-6.385-1.736-9.372-3.218-.694-.344-1.488-.286-2.199.085-.494.257-.961.568-1.438.858-1.022.621-1.577.48-2.114-.54-1.096-2.083-1.824-2.216-3.705-.678-1.717 1.403-1.718 1.404-.977 3.607.11.327.121.657-.138.895-1.406 1.288-2.204 3.319-4.431 3.618-.201.027-.386.27-.554.438-2.79 2.794-5.737 5.409-8.806 7.894-.708.573-1.376 1.299-1.377 2.396-.001 1.057-.746 1.766-1.513 2.331-2.4 1.768-4.531 3.899-7.19 5.32-.388.207-.751.415-1.194.514-1.333.299-2.4.91-3.01 2.262-.574 1.261-1.346 1.559-2.258 1.15-.98-.439-1.29-1.289-.9-2.502.281-.873.584-1.74.862-2.614.476-1.491 1.255-2.744 2.658-3.546.554-.317 1.211-.676 1-1.448-.202-.748-.884-1.021-1.606-.987-.757.036-1.256-.215-1.405-.969-.127-.647.708-2.149 1.237-2.313.616-.191.93.218 1.102.663.589 1.525 1.584 1.483 2.774.583 2.379-1.798 4.65-3.737 6.981-5.599.247-.198.35-.431.413-.696.512-2.145 2.093-3.18 4.047-3.619 1.803-.405 3.097-1.373 4.114-2.837.318-.457.663-.897 1.024-1.321 1.037-1.216 1.053-1.801.047-3.03-.227-.277-.495-.529-.674-.833-.274-.464-.434-1-.004-1.441.413-.422.818-.01 1.195.162 1.565.716 3.184.532 3.779-.505.311-.542.767-1.211.445-1.783-.374-.664-1.309-.787-1.932-.65-1.417.312-3.097-.038-4.154 1.395-.091.123-.4.214-.534.155-.966-.436-1.885.006-2.822.098" fill="#6a412b"/><path d="m97.26 89.19c-.904.085-1.53.545-1.969 1.343-.632 1.15-1.337 2.26-1.974 3.408-.636 1.146-.646 2.319.214 3.341 1.071 1.274.545 1.932-1.029 2.195-2.031.34-2.937-.493-2.939-2.573-.002-1.705-.019-1.794-1.737-1.459-1.375.268-2.788.013-4.135.438-.188.059-.396.066-.578.138-1.825.716-3.146.3-4.348-1.294-.644-.855-1.327-1.694-2.089-2.442-.648-.636-.554-1.033.017-1.677.952-1.072 2.274-1.745 3.056-2.997.562-.901.611-1.786.222-2.727-.942-2.279-1.098-4.698-1.178-7.11-.04-1.209 1.033-1.967 2.22-1.732 2.441.483 4.734 1.382 6.896 2.603.334.189.719.481.844.814.561 1.499 1.872 1.909 3.191 2.214 1.403.324 2.604.929 3.665 1.888.604.546 1.323.887 2.177.825-.06.909-.066 1.799.124 2.714.15.733.285 1.621-.65 2.09" fill="#282621"/><g fill="#6a412b"><path d="m116.89 55.16c.919-.252 1.829-.544 2.758-.745.897-.194 1.756.014 2.5.554.53.385.981.68.184 1.427-.647.607-.631 1.665-.582 2.588.012.219.166.321.363.418 1.728.855 3.657.221 4.576-1.496.568-1.061.953-2.188 1.334-3.324.166-.494.338-1.176 1.084-1.043.75.133.867.749.779 1.394-.08.588-.158 1.186-.335 1.749-.14.444-.1.759.243 1.068.389.35.735.137 1.1-.031 1.452-.67 1.921-1.731 1.318-3.19-.292-.706-.52-1.418-.633-2.165-.067-.442.151-.807.545-.976.444-.191.68.198.826.499.762 1.576 1.905 2.113 3.619 1.577.437-.136 1 .144 1.511.233-.259 1.251-1.282 1.907-2.186 2.565-1.461 1.061-2.838 2.103-3.73 3.771-.793 1.483-2.314 2-3.957 2.02-1.015.007-1.951.234-2.897.599-1.257.485-1.779 1.432-1.887 2.659-.085.968-.588 1.585-1.346 2.118-1.592 1.118-3.413 1.915-4.721 3.437-1.127 1.312-1.572 3.052-2.776 4.313-.438.459-.809.981-1.223 1.464-3.02 3.537-4.03 8.03-5.778 12.175-.278.659-.492 1.328-.891 1.946-.768 1.19-.852 2.487-.164 3.746.528.966.366 1.759-.401 2.475-.801.747-1.439 1.751-2.706 1.798-.745.028-1.237-.147-1.454-1.032-.36-1.464-1.179-2.784-1.492-4.28-.109-.52-.193-1.044-.007-1.534.563-1.487 1.231-2.934 1.655-4.476.064-.233.348-.555.555-.574 1.287-.121 1.643-1.287 2.341-2.039 1.056-1.138.52-2.492.287-3.757-.313-1.703.594-3.772 2.126-4.545.854-.431 1.763-.754 2.605-1.205 1.125-.602 1.805-1.538 1.862-2.863.045-1.042.465-1.888 1.209-2.643 1.844-1.871 3.906-3.549 5.224-5.896.576-1.026 1.055-2.076.988-3.264-.048-.856.067-1.72.314-2.472.395-1.201-.287-1.5-1.101-1.804-.678-.254-1.402-.412-1.639-1.234"/><path d="m192.87 44.545c1.168-.177 2.18.285 3.14 1.151 1.346 1.214 2.422.994 3.456-.53.892-1.315 1.654-2.736 3.089-3.594.445-.266.499-.746.563-1.25.069-.541.007-1.465.741-1.406.769.061 1.133.961 1.084 1.667-.215 3.122-.224 6.266-1.607 9.219-1 2.14-1.89 2.517-3.8 1.072-.465-.351-.928-.58-1.478-.699-1.141-.248-2.181-.707-3.129-1.405-.903-.665-1.879-1.202-3.02-1.377-.951-.145-1.284-.913-1.487-1.688-.173-.66.241-1.073.894-1.149.473-.055.958-.011 1.553-.011"/><path d="m106.81 64.41c.258-2.71 2.581-3.629 4.378-4.977.453-.34.939-.764 1.581-.794.023.674.098 1.351.056 2.02-.054.864-.348 1.666-1.233 2.01-1.583.611-3.187 1.164-4.782 1.742"/></g><path d="m140.98 89.47c.189-2.39 1.17-3.345 3.523-3.429-.504 1.831-1.775 2.875-3.523 3.429" fill="#5d3b27"/><g fill="#6a412b"><path d="m104.48 67.6c.021-1.837.462-2.438 2.325-3.174-.327 1.386-.661 2.767-2.325 3.174"/><path d="m96.5 47.15c.008.927.327 1.963-.859 2.476-.089-.955-.079-1.876.859-2.476"/><path d="m155.27 76.14c.289-.487.171-1.243.935-1.415.438 1.055.261 1.323-.935 1.415"/></g></svg>