<svg xmlns="http://www.w3.org/2000/svg" width="177.49" viewBox="-203.784 901.029 177.491 246.32" enable-background="new -203.784 901.029 177.491 246.32"><path d="m-108.48 918.52c5.831 3.725 7.221 9.951 8.895 15.974.514 1.848.277 3.943 2.113 5.241.099 3.922-3.1 6.943-2.969 10.873l-.04.038c-2.625.05-1.865 2.687-2.975 3.894-2.167.282-2.094 1.516-1.535 3.208 1.129 3.414 2.393 6.825 3.058 10.339 4.463 10.727-6.346 12.215-4.523 14.415 4.236 5.111 2.409 9.154-1.696 13.03.203-4.02.822-8.08-1.38-11.822.465-3.457-3.07-7.753 2.612-10.127-2.076-1.284-5.555-.804-4.472-4.414.979-3.261 3.52.314 5.192-1.221-2.81-1.728-5.929-2.579-8.01.047-6.099 7.686-11.242 15.97-12.236 26.1-.102 1.034-.572 2.559.935 2.991 1.19.341 2.466-.415 2.866-1.479 1.125-2.988 3.383-3.279 6.03-2.978-3.784 4.912-4.106 10.921-5.165 16.666-.47 2.55-.411 5.197-.621 8.206-3.153-1.522-3.723-4.937-6.239-6.404-.856-1.935-.026-4.715-2.84-5.669-.157-1.287.366-2.722-.827-3.783-.517-5.754-2.661-11.406-.091-17.328.674-1.552-1.546-3.623-.721-6.202.975-3.052 1.749-5.377 5.818-4.736-3.886-4.744-2.573-6.91 4.57-8.656 1.753-.391 3.489-.897 5.262-1.148 2.903-.41 3.102-1.914 1.895-4.133-.808-1.728-2.831-1.48-4.071-2.504-.223-1.169-.562-2.419-1.615-2.983-3.852-2.061-5.479-5.514-6.313-9.531.582-2.473 2.885-5.208-1.062-6.993 2.743-2.063 3.71-4.564 2.224-7.887-.371-.831-.095-1.951-.116-2.938.47-.233.94-.466 1.41-.698 0 0 .22.296.214.298-.524 3.18 2.362 3.69 4.03 5.154 2.047 3.992 6.561 5.899 8.464 10.01-1.042 2.848-.245 5.21 1.908 7.213-.436.405-.871.81-1.307 1.215.198.128.395.257.593.385.24-.531.481-1.063.721-1.594 4.853-3.822 5.95-8.859 4.591-14.603-.308-1.301-1.069-2.723-.205-3.803 1.95-2.44 1.426-4.945-.35-6.667-2.562-2.485-2.541 2.653-4.783 2.196-.608-3.054 2.718-4.5 2.766-7.196" fill="#83bc4b"/><path d="m-70.26 965.84c1.215.361.32 3.291 2.355 2.3 4.591-2.236 6.814.917 9.02 3.785.852 1.106 1.676.745 2.466.684 1.884-.146 4.03-.362 4.755 1.617.725 1.991-2.76 1.31-2.818 3.255 2.952.838 7.144-1.678 8.719 2.622.686 1.872-2.225 1.354-3.123 2.42-.845.061-1.78.347-1.906 1.167-.188 1.229.956.888 1.655.973.473.057 1.19-.148 1.391.097.793.967-.398.657-.706.934-1.726 2.505-4.826 1.761-7.088 2.998-1-.113-2-.226-3.01-.338-.46-4.751-3.645-3.324-6.528-2.816 2.426 8.893 2.786 17.692-1.353 26.24-1.423-.84-2.075-1.803-1.455-3.645.612-1.817 1.041-3.863-.606-5.548-.026-.991-.051-1.981-.077-2.972.002-.341.004-.683.007-1.024-.017-1.158.288-3.202-.099-3.342-5.493-1.994-1.642-7.279-3.782-10.384-.352-.511-.198-1.388-.572-1.864-1.184-1.507-2.813-2.359-4.75-2.246-1.953.114-1.549 1.796-1.774 3.03-.327-.109-.654-.218-.981-.327-1.509-2.411-3.724-4.101-5.921-5.811 1.366-1.698.07-3.362-.063-5.04l-1.304-.358c.346-.318 2-.287 2.348-.605 1.926-.08 2.543 1.603 3.142 2.788 1.727 3.413 4.777 4.12 8.097 4.812-.702-7.124-4.859-10.477-11.342-11.484-.283-.369-.567-.737-.85-1.106 3.723-3.865 9.721-4.165 16.15-.807" fill="#66a83c"/><path d="m-156.36 1134.59c5.489.017 10.979.054 16.468.045 3.9-.006 7.132 1.984 10.473 3.55 2.263 1.062 2.02 2.376-.24 3.346-6.318 2.714-25.71 5.533-37.879 5.819-10.401-.402-31.622-2.854-36.24-7.743 11.753-5.109 24.23-6.546 37.12-5.05.095.661.189 1.322.283 1.983-.671.535-1.342 1.07-2.01 1.605-3.875-1.516-6.375 1.725-10.717 2.447 3.136 1.12 5.104 2.377 7.096 2.415 3.734.071 7.866 2.32 11.162-1.368 6.95-.537 7.434-1.297 4.49-7.05" fill="#f8f7c4"/><g fill="#83bc4b"><path d="m-86.44 977.64c2.197 1.709 4.412 3.4 5.921 5.811-1.09 3.252-.716 6.3 1.265 9.126-.142.653-.284 1.305-.426 1.958-.507-.315-1.015-.631-1.523-.946-.598.989-.111 1.855.309 2.729-.177 1.388-.353 2.777-.53 4.165-3.471 4.129-3.961 9.3-4.997 14.281-.011.27-.004.539.02.808-2.559 2.419-5.745 2.117-8.872 2.02-1.111-.036-2.421.242-2.964-1.188-.528-1.393-.171-3.115.848-3.635 5.04-2.571 3.778-7.095 3.858-11.239-.212-1.57 1-3.869-.458-4.579-2.069-1.01-2.554 1.91-3.972 2.806-3.076 1.942-4.363 6.147-8.512 6.739 2.26-6.371 5.549-12.365 7.116-18.986 1.094-4.626 1.988-9.3 2.971-13.952 3.298 1.403 5.881 4.548 9.946 4.086m2.667 18.735c-.076 1.119-.142 1.685-.147 2.253-.006.731.499.825.899.442.283-.271.418-.862.359-1.273-.05-.347-.474-.64-1.111-1.422"/><path d="m-70.26 965.84c-6.425-3.358-12.423-3.058-16.15.807-.864-1.728-1.583-3.637-3.247-4.722-2.816-1.835-2.562-3.908-.842-6.263 3.042-1.311 6.212-2.37 8.841-4.492 1.335.468 2.645 1.208 4.1.374 3.447-.217 6.725 3.199 10.4.241 1.044-.84 2.539.013 2.65 1.793-.073.151-.146.302-.219.453.083-.141.166-.282.249-.424 3.855-2.465 3.482-4.124-.955-5.01 5.693-2.699 14.03-1.633 19.253.369 3.559 1.364 4.429 6.418 9.119 5.107-.128 2.026-3.278 1.206-2.318 3.435-1.375.027-2.75.054-4.125.08l.019.018c-.254-3.466-3.29-3.592-5.434-3.708-1.971-.107-2.514 2.02-2.264 4.367 1.959-1.195 3.651-3.952 5.681-.709-1.432 4.318-4.907 5.599-8.958 6.02-3.827-.064-7.658-.044-11.479-.224-2.073-.098-3.549.49-4.323 2.484"/></g><g fill="#92c555"><path d="m-127.58 944.42c.834 4.02 2.461 7.47 6.313 9.531 1.053.563 6.159 4.515 6.383 5.683-1.593-.148-3.525-.21-4.9 1.426-.831-.698-6.185-4.953-7.02-5.651.036-.184.11-.352.22-.503-.095-.54-.147-1.164-.879-.444-5.073-.62-9.936-2.641-15.16-2.261-10.832-1.707-20.491 1.922-29.925 6.571-.606-4.891 1.675-9.288 5.99-10.708 1.565-.515 2.134-1.292 2.385-2.653.81-4.388 3.211-5.22 7.079-3.384 1.286.61 2.827.684 4.258 1 .681-5.498.671-5.479 5.866-2.861.509.256 1.646.327 1.801.069 3.895-6.489 4.814.492 7.224 1.514 1.835-.066-1.789-4.864 2.413-3.13 3.415.88 6.789 1.819 7.946 5.797m-1.288 4.53c.014-.902-.577-1.274-1.24-1.175-1.422.214-2.251 1.445-2.769 2.519-.446.925.686 1.227 1.54 1.2 1.66-.052 2.059-1.337 2.469-2.544"/><path d="m-66.42 1011.78c4.139-8.549 3.779-17.348 1.353-26.24 2.883-.508 6.068-1.935 6.528 2.816 3.932 8.809 4.092 17.437-.996 25.94-3.202 5.351-7.519 9.589-12.464 13.261-1.108.823-2.308 1.335-3.636.34-1.25-.937-.599-1.986-.341-3.117 1.5-6.561 1.895-13.249 1.034-19.878-.298-2.299 1.102-4 .791-6.408-.316-2.442-1.188-4.11-2.394-5.917-.01-3.265-1.771-5.937-2.985-8.795.225-1.23-.179-2.912 1.774-3.03 1.938-.113 3.566.739 4.75 2.246.374.476.22 1.353.572 1.864 2.14 3.105-1.71 8.39 3.782 10.384.387.14.082 2.184.1 3.342-.124.098-.368.231-.352.288.074.257.223.493.344.736.026.991.051 1.981.077 2.972-1.4.163-2.301.89-1.734 2.32 1.22 3.077.96 5.74-1.423 8.205-.953.986-.929 2.462-.85 3.807.093 1.586-.482 3.798 1.69 4.125 1.766.266 1.903-1.946 2.644-3.138 1.161-1.865 1.933-3.865 1.736-6.127"/></g><g fill="#66a83c"><path d="m-126.53 926.61c.021.987-.255 2.107.116 2.938 1.485 3.323.518 5.823-2.225 7.885-.89-.346-1.78-.69-2.67-1.035-10.749-6.215-21.748-7.132-32.948-1.338-1.811.937-3.485.721-5.278.517.954-.828-3.331-3.127.87-3.072.728.01 1.196.112 1.251-1.291.198-5.04 5.136-7.685 9.901-5.623.052.113.085.243.163.333.048.055.167.048.254.069-.137-.136-.274-.273-.411-.409-.35-.997-.699-1.995-1.049-2.992 3.228-1.792 6.391-2.347 10.252-1.54 2.269.474 5.324 1.412 7.792-.456 4.847.773 5.44 5.754 8.69 9.4-.236-5.877 2.397-4.936 5.292-3.386"/><path d="m-96.38 973.55c-.983 4.652-1.877 9.326-2.972 13.952-1.566 6.621-4.856 12.615-7.116 18.986-1.572.489-2.283-.337-2.067-1.717.482-3.076-.656-6.203.385-9.24 4.105-3.88 5.932-7.923 1.696-13.03-1.823-2.2 2.782-2.621 1.926-4.875l.049-.057c4.03-2.294 3.193-6.073 2.547-9.482-.665-3.515-1.929-6.925-3.058-10.339-.559-1.692-.632-2.927 1.535-3.208 2.381-.236 2.627-2.105 2.976-3.895l.04-.038c1.921.031 3.252-1.416 4.939-1.972.375.219 1.077.637 1.08.63 3.02-4.975 5.962-1.831 8.908.065-2.755 2.053-5.853 3.665-8.142 6.318-3.396 1.54-4.695 3.834-2.992 7.496.459.987.253 2.284.353 3.438-.005.341-.011.682-.016 1.023-.024 1.984-.047 3.966-.071 5.949"/></g><path d="m-111.37 951.1c-2.153-2-2.081-6.882-1.04-9.729 1.557-7.221-3.045-12.01-6.762-17.16-4.444-7.933-11.292-13.45-19.666-19.19 2.818.47 4.569-2.696 6.305.686 2.077 2.61 4.853 4.081 8.02 4.918 1.495 1.743 4.463 1.79 5.339 4.02 2.579 6.562 3.988 1.742 5.71-.467.591-2.377 1.776-1.317 2.748-.39 1.326 1.264 2.326 2.756 2.239 4.724-.048 2.696-3.374 4.142-2.764 7.197 2.242.457 2.221-4.681 4.783-2.196 1.776 1.722 2.3 4.227.35 6.667-.864 1.081-.103 2.502.205 3.803 1.359 5.744.262 10.781-4.591 14.603l-.874 2.51" fill="#92c555"/><path d="m-116.62 992.63c-2.643-.301-4.901-.01-6.03 2.978-.4 1.064-1.676 1.82-2.866 1.479-1.507-.432-1.036-1.957-.935-2.991.994-10.127 6.136-18.411 12.236-26.1 2.084-2.626 5.203-1.775 8.01-.047-1.672 1.534-4.213-2.041-5.192 1.221-1.084 3.61 2.396 3.131 4.472 4.414-5.682 2.374-2.148 6.67-2.612 10.127-2.026-.439-4.01-.984-3.878 2.346.106 2.691-2.113 4.388-3.211 6.57" fill="#66a83c"/><path d="m-85.51 949.33c-2.946-1.897-5.886-5.04-8.908-.065-.004.006-.705-.411-1.08-.631-.579-1.129-.814-2.551.26-3.189 3.517-2.088 3.092-6.645 5.972-9.07.671-.566 1.036-1.358.245-2.098-2.583-2.417.121-2.16 1.324-2.668.434 2.069 1.567 2.373 3.186 1.2 1.407-1.02 2.759-2.116 4.136-3.179.599-.212 1.198-.424 1.797-.637.711-.466 1.422-.932 2.133-1.398 1.526.22 3.596-.657 3.941 1.95 0 0-.039.031-.038.031-.32.293-.64.586-.96.879-2.532 3.505-10.789 10.07-8.867 10.195 1.018.065 7.84-3.046 8.701-1.261.774 1.605-.766 2.293-1.767 3.073-2.457 1.916-4.941 3.798-7.413 5.695-.886.393-1.774.785-2.662 1.177" fill="#83bc4b"/><g fill="#92c555"><path d="m-142.67 965.83c-5.08 4.136-8.993 8.999-12.213 14.883-3.529 6.449-6.382 13.04-8.518 19.977-1.275 4.139-2.231 1.08-3.365.081.402-.691 1.188-1.405 1.147-2.069-.576-9.391 3.494-17.12 7.92-25.01 1.511-2.691 6.15-2.892 5.192-7.089.338-.336.675-.672 1.013-1.01 1.877-.082 2.861-1.08 3.01-2.934 1.717 1.461 6.938-3.506 5.811 3.169"/><path d="m-93.53 1001.52c-.08 4.144 1.183 8.669-3.858 11.239-1.019.52-1.376 2.242-.848 3.635.542 1.43 1.852 1.152 2.964 1.188 3.127.101 6.313.404 8.872-2.02.774 3.02-1.422 6.517-4.616 6.351-2.44-.127-3.123.784-3.526 2.696l.035.008c-3.823.859-7.83.727-11.423 2.853-2.352 1.392-5.098 1.222-8.414-.672 10.08-6.133 16.961-14.53 20.814-25.282"/></g><path d="m-152.5 966.61c.958 4.197-3.681 4.397-5.192 7.089-4.426 7.887-8.496 15.619-7.92 25.01.041.664-.746 1.378-1.147 2.069-3.38-6.599-4.736-13.651-4.755-21.01-.003-1.22.217-2.299 1.112-3.174.649-.077 1.407-.145 1.463-.948.058-.833-.691-.95-1.339-1.056-.203-.652.166-.903.718-1.025.962.111 2.507-.134 2.634.869.526 4.132 2.618 1.605 4.237 1.16 1.051-.037 1.875-.362 2.179-1.514 1.101-4.164 4.812-5.542 8.01-7.465" fill="#83bc4b"/><path d="m-87.7 931.61c-1.202.508-3.907.251-1.324 2.668.791.74.426 1.533-.245 2.098-2.88 2.428-2.454 6.986-5.972 9.07-1.074.638-.839 2.06-.26 3.189-1.687.557-3.02 2-4.939 1.973-.131-3.931 3.068-6.952 2.969-10.873 4.356-8.203 6.357-17.305 9.843-25.841.614-1.503.724-3.228 2.066-4.384.967 6.895-2.748 13.353-1.888 20.238-.083.619-.167 1.238-.25 1.858" fill="#92c555"/><path d="m-152.5 966.61c-3.198 1.923-6.909 3.301-8.01 7.465-.304 1.152-1.128 1.477-2.177 1.514 1.376-7.15 6.106-12.08 11.141-16.798 3.04-1.043 5.65-3.237 9.03-3.375.322.103.644.206.967.308-.727 2.135-3.297 2.356-5.01 4.384 6.393 1.359 11.295.24 15.07-4.587.653.066 1.305.131 1.958.197-.096 2.425 1.2 4.453 2.118 6.473-1.386.956-3.529-1.905-4.063 1.213-4.356-2.078-7.278 2.448-11.188 2.432 1.126-6.674-4.096-1.707-5.812-3.168-1.962-.006-2.941.999-3.01 2.934-.339.336-.677.672-1.014 1.01" fill="#66a83c"/><g fill="#92c555"><path d="m-157.51 925.59c-4.765-2.062-9.703.583-9.901 5.623-.055 1.404-.523 1.301-1.251 1.291-4.201-.055.084 2.244-.87 3.072-.426.675-.852 1.349-1.278 2.025-4.723 1.422-4.736 4.983-4.03 8.871-.516 1.218-1.033 2.437-1.615 3.811-1.186-5.04.526-9.926-.341-14.791-.254-1.424.377-2.935 1.356-4.168 1.254-1.58 3.334-2.857 1.994-5.444-.138-.267.334-1.235.583-1.259 3.818-.37 4.825-6.344 9.563-4.782-.165 3.937 3.065 2.01 4.749 2.754.35.997.699 1.995 1.049 2.992l-.008.005"/><path d="m-151.55 958.79c-5.03 4.723-9.765 9.647-11.141 16.798-1.621.445-3.713 2.972-4.239-1.16-.128-1-1.673-.758-2.634-.869.935-8.511 8.344-14.585 18.01-14.769"/><path d="m-54.46 963.58c4.051-.424 7.526-1.704 8.958-6.02.672.017 1.345.033 2.02.05l-.019-.018c2.051 1.144 2.619 3.507 4.186 5.147 3.353 3.509 8.395 5.672 9.619 11.04-7.712-4.714-15.904-8.261-24.761-10.194"/></g><path d="m-158.56 922.59c-1.684-.743-4.913 1.183-4.749-2.754.37.062.738.128 1.108.201.569.116 1.137.225 1.704.334.031-.905-.676-.699-1.187-.788-1.384-2.323-1.196-4.155 1.946-3.915 6.093.465 12.256.422 18.229 2.01.331.972.661 1.945.992 2.917-2.468 1.869-5.523.93-7.792.456-3.86-.807-7.02-.252-10.251 1.54" fill="#83bc4b"/><path d="m-40.484 993.6c4.105 5.496 4.357 11.02.224 17.11-2.291-4.296-4.353-8.163-6.415-12.03.193-.204.386-.408.579-.611-.27-.006-.539-.013-.809-.019 0 0-.076-.152-.069-.154.919-3.319 2.935-4.969 6.49-4.292" fill="#92c555"/><path d="m-40.484 993.6c-3.556-.677-5.571.973-6.489 4.292-2.86-3.067-5.714-6.135-8.566-9.202 2.263-1.237 5.363-.493 7.088-2.998 2.049 2.364 4.423 2.23 6.951.9 2.873 1.969 3.437 4.272 1.016 7.01" fill="#83bc4b"/><path d="m-29.695 973.77c-1.224-5.365-6.266-7.528-9.619-11.04-1.567-1.64-2.135-4-4.186-5.147 1.375-.027 2.75-.054 4.124-.08 4.425.228 6.994 2.57 8.436 6.737 1.158 3.348 3.03 6.446 4.323 9.755.532 1.359.69 3.372-1.802 1.402-.067-.832-.326-1.516-1.281-1.664l.005.034" fill="#66a83c"/><path d="m-140.51 920.59c-.331-.973-.661-1.945-.992-2.917 4.126 1.61 8.65 2.142 12.449 4.654 1.509.998 3.305 1.641 3.933 3.585-.468.228-.938.46-1.408.693-2.896-1.55-5.528-2.491-5.292 3.386-3.251-3.647-3.843-8.628-8.69-9.401" fill="#92c555"/><g fill="#83bc4b"><path d="m-113.47 914.18c-1.722 2.209-3.132 7.03-5.71.467-.877-2.231-3.844-2.278-5.339-4.02.876-.518 1.037-1.327.919-2.251 0 0-.039.152-.038.151.373-.257.746-.514 1.118-.771 3.932.853 7.328 2.46 9.05 6.425"/><path d="m-131.48 963.4c.533-3.118 2.677-.257 4.063-1.213-.918-2.02-2.214-4.048-2.118-6.473.911-.101 1.822-.202 2.733-.303.831.698 1.928.702 2.759 1.4 1.592.096 2.632 1.506 3.779 2.565-2.717.269-3.456 2.489-4.422 4.485-2.265-.154-4.53-.308-6.794-.461"/><path d="m-87.45 929.75c-.86-6.885 2.855-13.343 1.888-20.238l-.005.012c1.601.118 2.118 1.202 2.304 2.582-.082 5.304-1.272 10.429-2.385 15.579-.259 1.201-.879 1.659-1.802 2.065"/></g><path d="m-65.43 948.6c4.437.885 4.81 2.544.955 5.01l-.03-.029c-.111-1.779-1.606-2.633-2.65-1.793-3.676 2.958-6.954-.457-10.4-.241 3.385-3.683 8.346-.882 12.13-2.946" fill="#66a83c"/><path d="m-86.42 1014.76c1.036-4.981 1.526-10.152 4.997-14.281 2.089 1.501 3.405 2.996-.191 4.197-.603.201-.943.589-.678.979 2.651 3.905.94 5.661-2.998 6.651-.468.117-.026 1.918-1.13 2.454" fill="#92c555"/><path d="m-124.68 963.86c.966-1.996 1.705-4.216 4.422-4.484 1.561.022 3.121.043 4.682.064 1.207 2.22 1.01 3.724-1.895 4.133-1.772.25-3.509.756-5.262 1.148-.762-.029-1.585.076-1.947-.861" fill="#66a83c"/><g fill="#92c555"><path d="m-164.84 1109.57c.901.166 2.709-.139 2.489.768-.924 3.808.833 8.57-3.665 11.191.717-3.956-.039-8.05 1.176-11.959"/><path d="m-165.62 1126.61c3.398-.231 4.968.906 2.138 3.796-1.79 1.828.86 5.474-2.896 6.138-.093-.662-.187-1.323-.282-1.984.66-2.609-.298-5.43 1.04-7.95"/><path d="m-41.5 986.59c-2.528 1.329-4.902 1.463-6.951-.9.309-.276 1.5.034.707-.933-.201-.245-.918-.04-1.391-.097-.699-.085-1.843.257-1.655-.973.126-.82 1.061-1.106 1.906-1.167 1.904 2.367 6.552-.243 7.384 4.07"/></g><path d="m-143.43 1046.82c4.847-11.942 8.842-24.23 14.791-35.719-.855-1.935-.026-4.715-2.84-5.669-.568 1.035-1.326 1.26-2.304.534-.22.024-.347.147-.379.367.133.795.132.795-.001 0-6.566 10.191-10.884 21.492-15.03 32.725-6.742 18.25-11.836 37.03-14.02 56.47-.954 7.06-.098 4.136-.148 6.204 1.904 1.832 1.329 3.03-.968 3.788-.329 1.331-1.093 2.611-.503 4.058.902.166 2.709-.139 2.489.768-.924 3.808.833 8.57-3.665 11.191-.271 1.72-.372 3.429.389 5.073 3.397-.232 4.967.906 2.138 3.796-1.789 1.828.86 5.474-2.896 6.138-.67.534-1.341 1.069-2.01 1.604.496 5.527 4.983 2.435 7.544 3.493 6.947-.537 7.431-1.296 4.487-7.05.272-2.599.845-5.207.765-7.793-.398-12.726.372-25.356 2.632-37.89 0-.002-.001-.005-.002-.007.794-1.677.288-3.409.213-5.123h.001c.248-1.723.025-.634.744-5.167 2.093-.307 1.186-1.74 1.08-2.876h.001c2.324-9.68 3.7-19.569 7.495-28.918" fill="#9d6e3e"/><path d="m-123.6 908.38c.118.923-.043 1.733-.919 2.251-3.165-.836-5.941-2.307-8.02-4.917 3.532-.966 6.259.768 8.937 2.666" fill="#66a83c"/><g fill="#92c555"><path d="m-83.26 912.1c-.186-1.38-.704-2.464-2.304-2.582.339-3.153 1.959-5.781 3.563-8.491-1.088 3.65 1.01 7.591-1.259 11.07"/><path d="m-72.51 929.54c-.346-2.607-2.415-1.729-3.941-1.95 2.233-2.37 5.209-2.381 8.557-2.851-.792 2.746-2.389 4.066-4.616 4.801"/></g><path d="m-174.84 946.47c-.706-3.888-.693-7.449 4.03-8.871.73 3.898-2.83 5.849-4.03 8.871" fill="#66a83c"/><g fill="#92c555"><path d="m-120.7 926.83c2.646 1.623-.129 3.02-.183 4.533-1.665-1.465-4.551-1.975-4.03-5.155 1.238 1.345 2.973-.697 4.21.622"/><path d="m-163.37 1099.83c2.161 3.066 1.204 5.375-1.093 6.132-.11-1.374-.358-5.158 1.093-6.132"/><path d="m-131.48 1005.43c-.568 1.035-1.326 1.26-2.304.535.492-1.442.985-2.88 1.477-4.318 1.193 1.06.67 2.496.827 3.783"/><path d="m-80.89 996.32c-.42-.874-.907-1.74-.309-2.729.508.315 1.015.631 1.523.946.04.898-.446 1.436-1.214 1.783"/><path d="m-170.28 974.58c.647.106 1.396.224 1.339 1.056-.055.803-.814.871-1.463.948.042-.668.083-1.336.124-2"/><path d="m-161.68 919.58c.511.089 1.218-.116 1.187.788-.567-.109-1.135-.217-1.704-.334.06-.285.233-.434.517-.454"/><path d="m-29.701 973.74c.955.148 1.215.832 1.281 1.664-.873-.21-1.259-.797-1.281-1.664"/><path d="m-78.58 928.99c-.599.212-1.198.424-1.797.637.466-.59 1.015-.942 1.797-.637"/></g><path d="m-122.52 907.76c-.373.257-.745.514-1.118.771.14-.594.47-.913 1.118-.771" fill="#66a83c"/><g fill="#92c555"><path d="m-94.54 1024.62l.15.12-.11-.11z"/><path d="m-73.51 930.45c.32-.293.64-.586.96-.879-.32.293-.64.586-.96.879"/><path d="m-100.48 950.64c-.349 1.79-.595 3.659-2.976 3.895 1.111-1.208.351-3.844 2.976-3.895"/><path d="m-93.66 955.65c1.053.004 2.105.009 3.158.013-1.72 2.355-1.974 4.428.842 6.263 1.664 1.085 2.383 2.993 3.247 4.722.284.369.567.737.851 1.105.034 1.294.068 2.589.103 3.885-.346.318-.692.636-1.038.954-.356-.243-.712-.486-1.069-.729-.08.127-.16.254-.24.381.434.119.868.237 1.302.356.132 1.679 1.428 3.343.063 5.04-4.064.462-6.648-2.682-9.946-4.086.025-1.983.048-3.966.071-5.948.101-.101.302-.221.287-.302-.046-.249-.174-.482-.27-.722-.099-1.155.106-2.451-.353-3.438-1.702-3.661-.404-5.955 2.992-7.495"/></g><g fill="#83bc4b"><path d="m-85.45 971.63c-.034-1.295-.068-2.59-.103-3.885 6.482 1.01 10.639 4.361 11.341 11.485-3.319-.692-6.369-1.4-8.097-4.812-.598-1.184-1.215-2.868-3.141-2.788"/><path d="m-66.42 1011.78c.197 2.261-.575 4.262-1.734 6.127-.741 1.192-.878 3.405-2.644 3.138-2.172-.328-1.596-2.539-1.69-4.125-.079-1.345-.103-2.821.85-3.807 2.383-2.466 2.643-5.128 1.423-8.205-.567-1.43.333-2.157 1.734-2.32 1.647 1.685 1.218 3.731.606 5.548-.62 1.841.032 2.805 1.455 3.644"/><path d="m-68.56 999.61c-.122-.243-.27-.479-.344-.736-.017-.057.228-.19.352-.288-.004.341-.006.682-.008 1.024"/></g><g fill="#92c555"><path d="m-168.39 1138.14c.497 5.528 4.983 2.435 7.544 3.493-3.3 3.688-7.432 1.439-11.166 1.368-1.991-.038-3.959-1.295-7.096-2.415 4.342-.721 6.843-3.962 10.718-2.446"/><path d="m-83.77 996.38c.638.782 1.062 1.075 1.111 1.422.059.411-.076 1-.359 1.273-.4.383-.905.289-.899-.442.005-.567.07-1.134.147-2.253"/></g><g fill="#66a83c"><path d="m-43.482 957.61c-.672-.016-1.344-.033-2.02-.05-2.03-3.243-3.722-.486-5.681.708-.25-2.347.293-4.474 2.264-4.367 2.144.117 5.181.243 5.434 3.709"/><path d="m-64.48 953.61c-.083.141-.166.282-.249.424.073-.151.146-.302.219-.453 0-.001.03.029.03.029"/></g><g fill="#83bc4b"><path d="m-128.87 948.95c-.41 1.207-.808 2.492-2.469 2.545-.854.027-1.986-.276-1.54-1.2.518-1.074 1.346-2.305 2.769-2.519.663-.101 1.254.272 1.24 1.174"/><path d="m-126.58 954.91c-.298-.138-.591-.286-.879-.444.732-.719.784-.096.879.444"/></g><path d="m-157.51 925.58c.137.136.274.273.411.409-.087-.021-.206-.014-.254-.069-.079-.09-.111-.22-.163-.333-.001 0 .006-.007.006-.007" fill="#92c555"/><g fill="#83bc4b"><path d="m-96.29 966.58c.096.239.224.473.27.722.015.08-.186.2-.287.302.006-.342.012-.683.017-1.024"/><path d="m-151.49 965.6c.072-1.935 1.05-2.94 3.01-2.934-.151 1.853-1.136 2.852-3.01 2.934"/><path d="m-141.55 955.72c3.362.323 6.678-1.701 10.06-.203-3.775 4.827-8.677 5.946-15.07 4.587 1.71-2.028 4.279-2.249 5.01-4.384"/></g></svg>