<svg xmlns="http://www.w3.org/2000/svg" width="215.06" height="289.75" viewBox="410.935 25.369 215.055 289.746" enable-background="new 410.935 25.369 215.055 289.746"><path d="m519.17 25.369c4.4 0 8.8 0 13.2 0 .262.803 1.025.426 1.534.606 2.483.877 4.878 1.963 7.287 3.01 4.459 1.94 8.963 3.786 13.1 6.408 4.517 2.864 8.221 6.399 10.37 11.43 1.207 2.825 2.668 5.542 4.01 8.307.503.805 1.062 1.606 1.109 2.587.075 1.585.156 3.176.085 4.758-.046 1.027.338 1.678 1.26 1.863 1.301.261 1.744 1.104 1.881 2.264.112 1.886-1.07 3.353-1.656 5.01-.181.512-.702.921-1.3.937-.626.017-.822-.551-1.037-1.02-.537-1.168-1.228-2.226-2.139-3.141-.748-.751-1.582-1.033-2.59-.577-.565.03-.711-.586-1.152-.747-.207-1.265-1.151-1.45-2.159-1.356-1.462.136-2.918.357-4.368.595-.681.112-1.355.182-2.02.02-1.474-.359-2.947-.681-4.48-.643-.635.016-1.262-.186-1.452-.84-.309-1.063-.965-1.895-1.561-2.786-.868-1.299-.747-1.724.489-2.666 1.084-.827 1.941-1.801 1.827-3.3-.033-.434.183-.742.451-1.064 1.068-1.29 1-2.378-.172-3.575-.392-.4-.79-.794-1.181-1.194-.313-.319-.438-.754-.208-1.096.292-.431.627.029.935.126 1.018.321 1.599 1.227 2.385 1.937.393-1.745-.133-2.66-2.01-3.41-.988-.393-1.814-.889-1.972-2.02-.165-1.176-.95-1.55-1.97-1.704-1.142-.173-1.779.407-2.236 1.379-.39.829-.871 1.615-1.317 2.417-.114.205-.204.474-.491.464-.375-.012-.37-.369-.459-.615-.08-.222-.108-.463-.153-.697-.242-1.25-.751-1.672-1.989-1.472-.538.087-1.01.035-1.514-.112-1.896-.549-3.486.208-4.316 2.02-.378.825-1.05 1.046-1.885.857-1.282-.29-2.579-.536-3.833-.918-1.043-.317-1.762-.092-2.351.82-.309.478-.649 1.106-1.418.74-.707-.337-.839-1.022-.643-1.642.471-1.485-.404-2.351-1.34-3.181-.498-.442-1.232-.571-1.489.166-.366 1.051-.489 2.179.463 3.106.281.273.8.507.414 1.075-.382.562-.854.614-1.451.366-.789-.327-1.419-.88-2.099-1.366-.177-.127-.417-.307-.648-.108-.179.155-.078.372-.009.557.271.729-.027 1.309-.444 1.887-1.149 1.593-3.06 2.533-3.616 4.688-.227.878-.579 1.506.146 2.221.536.529 1 1.111 1.654 1.541 1.523 1.01 1.709 1.851.941 3.555-.147.327-.283.664-.376 1.01-.881 3.272 1.061 5.581 4.393 5.224.354-.038.7-.152 1.052-.217 1.403-.261 1.818-1.129 1.146-2.418-.221-.423-.512-.816-.682-1.257-.503-1.307-.14-2.222 1.088-2.887.997-.54 1.667-.144 1.775.997.077.809-.387 1.35-.815 1.924-.211.283-.592.673.109.725 1.439.106 2.811.549 4.229.746.299.042.726-.152.862.211.155.413-.289.625-.538.841-1.573 1.368-3.322 2.357-5.489 2.304-.74-.018-1.425.135-2.089.434-2.117.954-4.05 2.239-6.06 3.386-.526.3-1.054.677-1.213 1.271-.266.992-.958 1.356-1.844 1.662-.84.29-1.744.53-2.203 1.493-.882 1.847-1.456 3.956-3.739 4.718-.214.071-.389.406-.486.655-.666 1.721-1.286 3.448-.397 5.295.353.733.27 1.449-.097 2.186-.299.599-.585 1.261-.189 1.942.802 1.379.833 2.886.747 4.41-.039.69.227 1.197.871 1.409 1.693.557 2.656 1.996 3.866 3.135.552.519.647 1.073-.04 1.602-.911.701-1.133 1.674-1.103 2.771.024.849.07 1.673-.075 2.558-.298 1.819.174 3.838-1.89 4.968-.092.051-.127.2-.199.295-3.799 4.992-4.213 10.878-4.245 16.79-.018 3.41.514 6.82.622 10.236.055 1.735-.217 3.491-.463 5.22-.204 1.436 1.077 1.949 1.682 2.841.308.454 1.1-.378 1.722-.454.075-.009.143-.069.218-.098.821-.316 1.52.049 1.652.919.09.593.054 1.195-.19 1.767-.24.562-.315 1.155-.257 1.761.115 1.2 1.027 1.643 2.043.988.199-.128.363-.312.544-.467.207-.177.396-.443.718-.244.278.171.323.468.244.744-.133.466-.277.937-.18 1.413.225 1.104.366 2.199.069 3.314-.142.535.228.595.622.605 1.055.026 1.676.65 2.096 1.536.21.443.428.83.969.968 1.211.308 1.814 1.109 1.743 2.366-.038.68.257 1.02.915.868.886-.204 1.812-.199 2.661-.631.501-.255.891-.39.438-1.013-.31-.425-.064-.753.276-1.022.359-.284.648-.114.958.131 1.161.917 1.164 1.252.111 2.381-.524.562-1.407.956-1.26 1.915.235 1.533-.685 2.353-1.77 3.106-1.147.796-2.456 1.486-3.165 2.702-1.574 2.697-3.935 4.698-5.943 7-2.956 3.395-5.717 6.946-8.594 10.402-2.966 3.563-5.04 7.744-7.989 11.311-.652.788-.611 2.143.135 2.453 1.619.674 1.657 2.056 1.9 3.436.126.713-.049 1.647.7 2.072 1.168.663 1.987 1.721 3.067 2.476.519.363.989.785 1.543 1.119 1.13.68 1.214 2.103.271 3.333-1.678 2.188-1.528 3.107.78 4.476.521.309.858.719 1.015 1.274.194.689.35 1.389.502 2.089.062.283.18.729.402.652 1.204-.418 2 .424 2.961.808.396.159.784-.089 1.05-.422.273-.342.567-.681.769-1.065.498-.946 1.212-1.129 2.086-.605.939.564 1.78.557 2.647-.152.33-.27.763-.454 1.179-.574 2.03-.588 3.876-1.46 5.318-3.078.333-.374.816-.737 1.289-.84 1.401-.305 1.763-1.314 1.98-2.514.383-2.112 1.01-2.449 2.932-1.63 1.36.58 2.059.188 2.101-1.262.019-.646.302-1.121.779-1.397 1.212-.701 1.763-1.876 2.371-3.03.727-.135 1.527-.793 2.143.098.444.642.759.481 1.189.056 1.599-1.579 2.938-3.322 3.463-5.563.169-.72.456-1.349 1.047-1.814.937-.737 1.069-1.591.441-2.611-.341-.553-.354-1.212-.409-1.846.082-.527-.401-.746-.608-1.115-.283-.503-.606-1.169-.11-1.541 1.108-.83 1.56-1.859 1.498-3.194-.008-.176.094-.444.231-.525.768-.457.741-1.272.917-1.978.214-.862.563-1.645.998-2.419.67-1.194 1.555-2.215 2.424-3.248 2.227-2.647 4.181-5.551 7.04-7.606.776-.557.788-1.102.168-1.775-1.277-1.385-2.365-2.902-3.128-4.636-.21-.478-.429-.978-.879-1.264-1.264-.801-2.02-1.999-2.718-3.268-.785-1.423-1.507-2.906-2.952-3.829-1.447-.926-2.374-2.337-3.379-3.671-.304-.403-.489-.813-.156-1.312.367-.552.894-.444 1.401-.37.229.033.434.219.664.263 2.255.437 4.259 2.1 6.763 1.373.312-.091.705.064 1.053.142.706.158 1.281.15 1.393-.778.063-.523.408-.842.904-1.015 1.545-.541 3.107-1.05 4.737-1.214 1.038-.104 1.904-.479 2.427-1.322.982-1.583 3.037-2.036 3.844-3.774.043-.093.186-.147.291-.203 1.395-.735 2.726-1.509 2.822-3.355.013-.242.27-.482.439-.703 2.622-3.427 4.568-7.206 5.832-11.327.841-2.742 1.61-5.505 1.399-8.426.239-1 .21-2.01-.243-2.929-.852-1.721-.482-3.504-.303-5.25.087-.846.108-1.665-.361-2.286-.632-.836-.732-1.718-.72-2.676.431-.544.456-1.128.271-1.785-.346-1.23-.752-2.451-1.465-3.5-.785-1.155-1.736-2.198-3.334-2.17-.048-.932-.47-1.664-1.149-2.292-.403-.374-.88-.709-1.052-1.28.673-1.566.985-3.277 1.905-4.744.173-.276.336-.578.72-.514.375.062.479.36.523.703.061.48-.205 1.15.486 1.322.606.151.99-.374 1.421-.725 1.689-1.37 3.55-2.397 5.726-2.763.297 1.133 1.277 1.18 2.171 1.364.104.048.208.096.312.144.024.252.148.38.413.333.1.054.2.109.3.163.028.249.17.35.414.32.346.283.692.567 1.038.85.348.697.866 1.224 1.57 1.564 1.239 1.307 2.479 2.615 3.718 3.922.023.38.237.581.602.638.361.425.722.85 1.083 1.275-.017.258.106.391.363.401.278.348.556.695.835 1.043.361.833 1.04 1.363 1.762 1.852.221.336.443.672.664 1.01.693 1.644 1.369 3.297 2.411 4.764.414.875.828 1.751 1.242 2.626-.057.412.076.742.424.978.266.628.531 1.256.797 1.885-.098.226-.051.402.18.512.43 1.265.86 2.529 1.29 3.794-.12.22-.087.4.139.528.191.625.382 1.251.573 1.876-.129.208-.098.386.1.532.061.181.122.362.183.543-.168.188-.116.321.104.412.117.383.233.766.35 1.149-.124.215-.098.396.123.531.117.383.234.766.35 1.149-.124.218-.089.397.13.531.049.185.098.369.147.554-.201.74.083 1.326.587 1.84.176.393.352.786.528 1.18-.096.236-.033.404.21.496.255.631.51 1.262.764 1.894-.098.226-.051.402.18.512.182.468.365.936.547 1.403-.101.225-.06.403.173.517.177.471.355.942.532 1.413-.108.226-.05.396.173.511.42 1.112.84 2.223 1.26 3.335-.1.231-.037.399.194.502.095.233.191.465.286.698-.098.233-.038.401.201.498.171.397.342.793.513 1.19.012.584.228 1.073.678 1.453.234.494.469.987.703 1.481.174.711.441 1.371 1.01 1.869.225.415.45.831.675 1.246.014.4.136.736.535.91.141.256.282.512.423.768-.054.236.035.384.27.443.239.403.478.806.717 1.21-.065.249.022.406.278.459.138.256.277.512.415.767-.047.245.049.391.297.434.141.256.282.511.423.766-.047.244.049.391.297.434.141.255.282.511.423.766-.052.239.04.386.278.441.146.255.291.511.437.766.015.404.161.727.55.904.139.257.278.514.417.771.012.401.147.73.535.91.717 1.442 1.435 2.884 2.152 4.326-.047.409.083.739.431.973.178.393.357.787.535 1.18-.093.233-.029.399.208.493.248.557.497 1.115.745 1.672-.089.231-.024.396.208.491.256.554.512 1.107.768 1.661.001.587.24 1.066.663 1.462.174.395.347.791.521 1.186-.091.229-.024.394.201.494.098.232.195.464.293.695-.1.231-.037.399.194.502.095.233.19.465.286.698-.103.227-.041.394.18.505.263.711.526 1.422.789 2.133.093.956.38 1.848.894 2.663.275.865.551 1.731.827 2.596-.109.476.033.886.333 1.253.128.382.257.763.385 1.145-.122.219-.091.399.136.528.121.504.243 1.01.364 1.512-.185.168-.118.301.057.42.066.26.131.519.197.779-.174.178-.115.311.079.419.049.181.098.361.147.542-.184.168-.117.301.058.42.064.26.128.519.192.779-.179.18-.11.312.082.419.054.26.108.521.162.781-.175.177-.117.311.079.419.051.262.102.524.153.786-.209.251-.166.466.092.651.045.263.09.526.135.789-.183.321-.17.62.098.892.252 1.599.299 3.197.002 4.796-.505.623-.762 1.362-1.033 2.104-.693 1.9-1.261 3.835-2.408 5.568-1.022 1.543-2.795 2.198-3.885 3.659-.3.402-1.649.903-1.883-.122-.26-1.145-.893-1.267-1.756-1.589-1.082-.404-1.394-.098-1.627.921-.307 1.345-.956 1.775-2.257 1.416-2.569-.71-5.24-.929-7.789-1.736-1.907-.604-3.246.155-3.769 2.085-.344 1.271-.782 2.502-1.271 3.72-.304.226-.607.362-.738.839-.548 1.984-1.321 3.899-1.797 5.911-.286 1.21-.996 2.236-1.725 3.235-1.418 1.944-3.04 3.746-4.19 5.878-1.422 2.638-3.365 4.669-6.285 5.631-.17.056-.291.26-.435.395-2.604.833-2.604.833-2.559 3.517.001.04.004.08.006.12-.527.374-1.017.812-1.677.951-1.493-.616-1.958-.324-2.173 1.372-.02.157-.012.318-.017.477-.381.144-.762.288-1.143.433-.113-.816-.533-1.359-1.401-1.317-1 .048-2 .189-2.511 1.26-.103.216-.249.446-.098.673.165.247.416.146.647.074.307-.096.641-.209.841.162.172.32-.009.617-.15.903-.878 1.776-1.871 2.23-3.897 1.823-.697-.14-1.407-.295-2.056.2-1.726 1.317-2 2.292-1.226 4.322.097.254.129.534.192.801-1.292.706-2.58 1.419-3.877 2.116-2.696 1.449-5.296 3.078-8.234 4.061-1.113.372-2.181.929-3.089 1.769-1.507 1.394-2.176 3.188-2.676 5.09-.424.064-.282.779-.819.713-.233-.215-.453-.447-.702-.641-1.175-.915-2.513-1.639-3.198-3.085-.466-.984-1.255-1.509-2.413-1.3-.614.111-1.133-.185-1.491-.611-.838-.997-1.903-1.492-3.139-1.815-.988-.258-2.041-.601-2.222-1.879-.208-1.471-1.098-2.223-2.516-2.478-.665-.119-1.308-.361-1.973-.482-1.671-.304-3.342-.576-4.507 1.161-.277.413-.714.561-1.239.603-2.077.168-3.414 2.121-3.108 4.229.145.997.572 2.179-.63 2.941-.239.008-.478.016-.718.024-.569-.866-1.513-1.723-1.49-2.68.052-2.122-2.275-2.624-2.643-4.379-.031-.15-.386-.269-.61-.335-.404-.119-.733-.348-.969-.67-.844-1.154-1.881-1.01-2.951-.439-1.121.595-2.293.854-3.561.826-1.707-.038-1.707-.008-1.667 1.667.04 1.654-.215 1.918-1.936 1.92-1.569.002-3.212.455-3.83 1.786-1.01 2.175-2.843 2.01-4.592 2.284-1.037.161-2.061-.106-3.068-.343-.39-.092-.741-.136-.905.289-.165.428-.175.889.272 1.176.401.258.865.422 1.257.691.521.359.863.992.254 1.368-.887.549-1.668 1.211-2.451 1.868-1.236 1.038-2.783 1.058-4.218 1.449-.321.034-.565.108-.242.472.079 1.104.183 2.18-1.279 2.562-1.264.33-1.68-.396-2.119-1.354-.365-.797-.931-1.021-1.654-.205-.83.936-1.642.939-2.481.193-.241-.215-.34-.75-.808-.539-.395.178-.262.622-.31.968-.395 2.849-.697 3.154-3.125 3.184-.068-.038-.136-.076-.204-.114l-.062-.007-.018.06c-.369-1.614-.264-3.249-.121-4.869.09-1.013-.217-1.728-.935-2.425-1.876-1.823-4.246-2.205-6.681-2.487-1.498-.173-2.998-.383-4.26-1.331.017-.637.016-1.276.054-1.912.176-2.91-1.371-4.699-3.836-5.868-.754-.357-1.533-.561-2.034.44-.191.383-.361.926-.872.858-.559-.074-.59-.664-.71-1.122-.642-2.449-.864-2.368-3.367-2.905-1.898-.407-3.877-1.114-5.01-3.01-.577-.964-1.379-1.41-2.507-1.019-.711.246-1.416.511-2.123.767-.244-.059-.38-.221-.442-.456.088-.342.147-.694.269-1.023.479-1.294.117-1.849-1.29-1.902-.553-.021-1.108.013-1.662.022-.072-.06-.144-.12-.216-.18-.24-1.225-.33-2.43.114-3.651.213-.587-.025-1.104-.776-.866-1.01.318-1.105-.398-1.18-1.01-.128-1.041.618-2.065 1.705-2.236 1.97-.31 3.903-.799 5.727-1.541 1.416-.576 3.079-.914 3.932-2.459.135-.244.368-.279.624-.192.351.12.705.133 1.06.022 3.06-.951 6.03-1.978 8.187-4.637.446-.549 1.044-2.483 2.619-1.103.065.057.31-.042.442-.119.512-.301 1.195-.599 1.015-1.304-.193-.757-.528-1.657-1.409-1.773-.59-.078-1.158.394-1.408 1.075-.569 1.55-1.709 2.598-3.3 2.813-2.116.286-4.103.965-6.103 1.61-1.332.43-2.489.421-3.506-.645-.222-.233-.463-.467-.809-.141-.82.773-1.058 3.14-.374 3.978.287.351.661.698.172 1.11-.408.344-.832.166-1.169-.185-.524-.546-1.074-1.06-1.542-1.669-.68-.884-1.65-.79-2.195.164-.306.536-.683 1.01-1.197 1.314-1.35.807-2.486 1.852-3.604 2.946-1.203 1.176-2.62 1.818-4.353 1.185-.937-.342-1.884-.956-2.819-.942-2.092.032-3.098-1.375-4.365-2.615-1.41-1.379-2.235-2.94-2.531-4.88-.171-1.121-.298-2.399-1.357-3.096-.963-.633-1.584-1.383-1.747-2.529-.053-.375-.34-.636-.704-.754-.832-.269-1.158-.85-1.247-1.7-.128-1.223-.355-2.435-.553-3.65-.486-2.993-.907-5.985-.378-9.02.111-.638.073-1.251-.582-1.694-1.434-.969-1.428-1.03-.121-2.322.496-.49.728-1 .145-1.539-.958-.88-.952-1.907-.694-3.077.635-2.881.217-5.811.301-8.719.007-.225-.094-.477-.212-.677-.949-1.62-.77-3.19.18-4.733.397-.645.797-1.289 1.194-1.934.48-.779.823-1.643.382-2.496-1.105-2.137-.371-3.802 1.103-5.416 1-1.097 1.942-2.3 1.093-3.956-.151-.295-.221-.692.036-.906 1.711-1.421 1.186-4.099 3.067-5.423.118-.083.139-.376.123-.564-.07-.828.219-1.576.493-2.325.465-1.267.622-2.879 1.507-3.707 1.394-1.304 2.052-3.02 3.233-4.407.564-.66.314-1.21-.447-1.484-.749-.269-1.528-.451-2.295-.672.55-1.095 1.099-2.19 1.649-3.285.147-.056.312-.087.439-.173 1.621-1.103 2.515-2.846 3.768-4.275.811-.925 1.106-1.947 1.047-3.181-.105-2.17.542-4.166 1.697-6.01.531-.846.97-1.743 1.284-2.698.623-1.895 1.153-3.841 2.838-5.16.165-.129.191-.429.297-.643.849-1.719.943-3.705 1.92-5.387.3-.516-.053-.894-.547-1.135-.433-.211-.92-.413-.689-1.059.708-1.974 1-4.117 2.539-5.746.616-.653.933-1.484.464-2.423-.372-.744-.097-1.406.394-1.979 1.114-1.3 2.286-2.552 3.371-3.875 1.248-1.521 2.755-2.893 2.537-5.2-.098-1.036.73-1.589 1.649-1.238 1.1.42 1.734-.077 2.336-.865 1.342-1.759 1.611-3.87 1.95-5.952.113-.692-.184-1.019-.896-.632-.666.362-1.316.753-1.988 1.103-.698.365-1.378.867-2.227.321-.363-.234-.844-.322-.993.198-.192.675.418.504.767.551.336.045.635.115.737.49.058.214-.034.385-.185.534-1.17 1.158-2.87.713-3.332-.875-.123-.421-.232-.846-.347-1.269.973-2.52 2.563-4.661 4.373-6.599 1.951-2.09 4.131-3.963 6.141-6 1.128-1.144 2.471-1.83 3.949-2.335 1.112 1.294 2.261 2.617 2.827 4.217 1.4 3.954 4.546 6.739 6.614 10.236.113.191.332.357.54.447 1.115.482 1.79 1.499 2.454 2.366 1.624 2.122 3.944 3.04 6.289 3.214 2.437.18 5.02-.249 7.135-1.875.354-.272.764-.609 1.136-.11.569.766.927.237 1.329-.143.404-.382.784-.915 1.39-.311.391.389.755.464 1.075-.035.387-.604-.029-.785-.513-1.041-1.539-.813-1.754-2.16-.633-3.543.146-.18.323-.397.34-.609.057-.721.283-1.296.936-1.7.337-.209.473-.752.115-.903-.973-.412-.69-1.205-.789-1.921-.124-.902-.235-1.832-.997-2.492-.285-.247-.551-.599-.402-.94.567-1.295.09-2.572.026-3.856.086-.083.173-.165.259-.248.775-.5.863-1.318.875-2.106.024-1.577-.539-3.044-.986-4.529-.497-1.653-1.813-2.933-2.111-4.671-.126-.734-.054-1.528-1.082-1.767-.338-.078-.598-.596-.505-1.01.241-1.063-.341-1.846-.826-2.653-.994-1.653-2.442-2.936-3.677-4.392-1.274-1.502-1.47-2.545-.502-3.855.496-.671 1.082-1.275 1.62-1.915 1.736-2.065 3.366-4.171 3.302-7.087-.015-.683.288-1.314.657-1.9 1.701-2.699 3.37-5.419 5.107-8.094.622-.958 1.241-1.97 2.407-2.42 1.058-.408 1.6-1.151 1.422-2.324.601-.098 1.096-.341 1.557-.781.536-.512 1.188-.909 1.811-1.324 2.389-1.589 5.298-2.23 7.569-3.978 1.231-.948 2.548-1.386 3.98-1.612 1.144-.18 2.211-.579 3.314-.874 2.179-.582 4.126-1.806 6.358-2.255.436-.089 1.189.395 1.324-.516m-61.26 96.34c-1.347.446-2.46.72-3.624.65-.306-.018-.497.218-.645.471-.186.318-.437.571-.778.722-.249.11-.516.313-.761.035-.189-.214-.032-.446.052-.668.397-1.062 1.314-1.692 2.053-2.467 1.162-1.219 1.15-1.505-.189-2.51-1.157-.869-1.207-1.628-.032-2.465.73-.52 1.037-1.197.826-1.954-.415-1.484-.159-2.582 1.319-3.262.313-.144.48-.442.277-.798-.188-.329-.516-.379-.838-.282-.303.091-.594.237-.873.389-2.472 1.343-4.581 3.17-6.643 5.05-.647.59-1.236 1.248-1.803 1.916-.221.261-.437.675-.165.989.316.365.553-.103.801-.228.799-.403 1.237-.217 1.24.71.002.595-.005 1.182-.131 1.783-.248 1.185-.845 2.24-1.147 3.4-.11.425-.336.837.335 1.041 1.404.428 1.488.625.811 1.954-.522 1.025-1.189 1.986-1.268 3.184-.023.351-.154.765.197.998.317.21.712.158 1.013-.087.605-.492 1.307-.598 2.036-.511 1.366.163 2.02-.714 2.599-1.713.158-.272.227-.611.427-.841.373-.43.84-.441 1.267-.057.351.316.892.763.379 1.177-1.235.999-1.187 2.677-2.199 3.794-.58.639-.127 2.16.629 2.676.679.463 1.156.017 1.553-.418 2.066-2.265 3.742-4.867 6.02-6.948.273-.249.578-.576.179-.898-.505-.408-.359-.964-.382-1.555-.987.419-1.868.798-2.861.706-.584-.054-1.307.1-1.487-.671-.167-.716-.074-1.45.613-1.935.418-.297.842-.582 1.198-1.377m25.09 57.25c.696.045 1.405-.032 1.928-.486 1.058-.916 2.042-1.926 2.421-3.334.278-1.035.903-1.854 1.52-2.684.242-.326.619-.686.989-.54.511.202.304.788.221 1.167-.117.535-.455 1.019-.605 1.551-.101.358-.249.863.175 1.088.454.241.725-.222.962-.512 1.433-1.757 2.868-3.506 4.427-5.16 1.17-1.241 1.921-2.696.789-4.418-.223-.339-.212-.736.05-1.01 1.179-1.217.502-2.331-.133-3.463-.614-1.094-1.532-1.264-2.244-.249-.587.838-1.341 1.136-2.234 1.425-1.237.4-2.556.824-3.287 1.984-.535.848-1.086 1.648-1.768 2.386-.998 1.08-2.085 2.17-2.271 3.71-.305 2.52-1.667 4.596-2.777 6.757-.5.973-.264 1.266.552 1.581.415.16.839.239 1.285.204m-17.09 2.462c-.056-.464.05-.79-.293-.924-.227-.089-.389.067-.474.253-.996 2.168-2.54 4.084-3.042 6.475-.129.615-.024 1.275-.08 1.91-.038.431-.313.758-.754.815-.459.06-.573-.318-.697-.671-.278-.791-.619-1.562-.173-2.415.159-.305.398-.758.052-.987-.385-.255-.749.131-1.017.408-1.084 1.118-1.591 2.448-1.463 4.02.101 1.236-.178 2.348-1.036 3.323-.606.688-1.037 1.523-1.102 2.474-.023.338-.155.768.221.989.43.252.73-.077 1.047-.333.879-.712 1.227-1.754 1.721-2.704.345-.664.746-1.117 1.601-.806 1.081.393 1.643-.078 1.846-1.163.428-2.284 1.256-4.44 2.122-6.586.565-1.402 1.058-2.831 1.521-4.081m6 5.968c-.043.919.168 1.439.391 1.951.176.404.556.554.883.319 1.086-.779 2.425-1.346 2.938-2.693.552-1.449.958-2.955 1.41-4.442.08-.262.102-.549.104-.824.002-.259.101-.629-.281-.686-.281-.042-.536.152-.671.42-.29.574-.485 1.172-.477 1.831.007.515.03 1.026-.137 1.54-.217.668-.513 1.191-1.319 1.107-.764-.08-1.276-.514-1.378-1.272-.074-.545-.1-1.139.039-1.662.716-2.699 1.424-5.407 3.625-7.397.406-.367.942-.911.298-1.525-.63-.601-1.176-.162-1.467.365-1.027 1.861-1.979 3.764-2.947 5.657-.125.245-.201.524-.258.795-.478 2.26-.154 4.612-.753 6.516m126.52-20.893c-.773-.015-1.119.21-1.19.64-.093.56.37.664.713.806 2.23.928 3.931 2.475 5.435 4.338 1.038 1.286 1.828 2.837 3.382 3.647.617.321 1.422.964 1.925.423.393-.423-.208-1.229-.654-1.754-.473-.559-.762-1.09-.101-1.765.535-.548.079-.882-.435-1.01-2.197-.533-3.971-1.821-5.23-3.563-1.094-1.515-2.743-1.097-3.845-1.765m-7.26 49.45c-.041.696-.055 1.567.693 2.234.302.27.575.435.913.076 1.114-1.182 1.911-2.514 1.962-4.192.015-.487-.256-.691-.718-.773-2.027-.36-2.85.343-2.85 2.655m-152.36-45.907c1.318-.492 2.712-.36 4.074-.518.528-.061.997-.717 1.47-1.128.156-.135.191-.398.023-.533-.133-.106-.38-.159-.548-.118-1.787.432-3.506 1.035-5.02 2.297m-3.168 9.63c.624.017 1.563-.372 2.264-.859.339-.236.714-.413.419-.925-.257-.447-.678-.427-1.045-.285-.628.243-1.232.556-1.827.875-.329.177-.928.243-.836.699.094.468.7.391 1.025.495m115.69-117.03c-.074-.635-.084-1.35-.968-1.488-.398-.062-.76.075-.676.556.129.744.341 1.534 1.188 1.725.531.12.395-.44.456-.793" fill="#201e1b"/><path d="m410.94 197.93c.513-2.103.959-4.226 1.551-6.307 2.544-8.945 5.433-17.778 8.677-26.494.651-1.749.999-3.61 1.951-5.248.098-.168.139-.379.38-.413.766.22 1.546.403 2.295.672.762.274 1.01.823.447 1.484-1.181 1.384-1.84 3.103-3.233 4.407-.885.828-1.043 2.44-1.507 3.707-.274.748-.563 1.496-.493 2.325.016.188-.005.481-.123.564-1.881 1.323-1.357 4-3.067 5.423-.258.214-.188.611-.036.906.849 1.656-.091 2.859-1.093 3.956-1.474 1.614-2.209 3.279-1.103 5.416.441.853.098 1.716-.382 2.496-.397.645-.797 1.289-1.194 1.934-.951 1.543-1.13 3.112-.18 4.733.117.2.218.452.212.677-.084 2.908.334 5.838-.301 8.719-.258 1.17-.264 2.197.694 3.077.584.536.351 1.049-.145 1.539-1.308 1.292-1.313 1.353.121 2.322.655.443.693 1.056.582 1.694-.529 3.038-.108 6.03.378 9.02.197 1.215.425 2.428.553 3.65.089.85.415 1.431 1.247 1.7.364.118.651.379.704.754.163 1.146.784 1.895 1.747 2.529 1.059.697 1.186 1.974 1.357 3.096.296 1.94 1.121 3.501 2.531 4.88 1.267 1.239 2.273 2.647 4.365 2.615.935-.014 1.882.599 2.819.942 1.733.633 3.151-.009 4.353-1.185 1.118-1.093 2.255-2.138 3.604-2.946.514-.308.891-.778 1.197-1.314.545-.954 1.515-1.048 2.195-.164.468.609 1.018 1.123 1.542 1.669.337.351.761.529 1.169.185.489-.413.115-.759-.172-1.11-.685-.838-.446-3.205.374-3.978.346-.326.587-.092.809.141 1.017 1.066 2.174 1.075 3.506.645 2-.646 3.987-1.325 6.103-1.61 1.59-.215 2.73-1.263 3.3-2.813.25-.681.818-1.152 1.408-1.075.881.116 1.216 1.016 1.409 1.773.18.705-.502 1-1.015 1.304-.131.077-.377.176-.442.119-1.575-1.38-2.173.554-2.619 1.103-2.161 2.659-5.127 3.686-8.187 4.637-.355.111-.709.098-1.06-.022-.256-.088-.489-.052-.624.192-.852 1.546-2.516 1.883-3.932 2.459-1.824.742-3.757 1.231-5.727 1.541-1.087.171-1.832 1.195-1.705 2.236.075.613.172 1.33 1.18 1.01.751-.237.989.279.776.866-.444 1.221-.354 2.426-.114 3.651-1.574-1.069-2.665-2.536-3.23-4.322-.401-1.267-1.115-1.87-2.43-1.811-5.675.254-9.668-2.281-12.336-7.238-1.663-3.089-3.785-5.926-5.063-9.231-.447-1.157-.841-2.312-.955-3.565-.06-.665-.221-1.364-.52-1.955-1.038-2.053-1.375-4.224-1.353-6.493.042-4.472.146-8.95-.906-13.349-.053-.221.002-.494-.286-.605-.003-1.844-.003-3.684-.003-5.524" fill="#4c3625"/><path d="m575.66 79.27c-.101.627-.183 1.26-.638 1.759-1.519.657-1.974 1.566-1.767 3.521-.223.427-.445.853-.668 1.28-1.297.238-.801 1.32-.981 2.084-.155.507-.31 1.014-.465 1.521-.635.692-.398 1.235.29 1.701.255.258.509.516.764.774.047.297.232.412.518.394.48.248.852.617 1.174 1.043-.026.068-.042.138-.049.211-2.176.367-4.04 1.393-5.726 2.763-.431.35-.815.876-1.421.725-.691-.172-.424-.842-.486-1.322-.044-.343-.148-.642-.523-.703-.385-.063-.547.239-.72.514-.921 1.467-1.233 3.178-1.905 4.744-1.965-.232-1.965-.232-2.913 1.729-.863 1.785-3.571 3.034-5.482 2.503-.583-.162-1.15-.48-1.478-.963-.326-.48.385-.696.521-1.088.065-.188.187-.359.233-.55.282-1.158 1-1.826 2.144-2.177.967-.297 1.851-.88 2.351-1.764.862-1.522 2.069-2.6 3.632-3.325.424-.197.768-.491.678-1.01-.091-.52-.276-1.025-.876-1.175-1.091-.273-2.22-.243-3.068.492-1.582 1.37-3.415 2-5.429 2.265-1.869.242-3.741.409-4.807 2.361-.364.665-1 .692-1.607.108-1.644-1.582-3.294-3.187-4.362-5.209-.499-.945-1.247-1.348-2.052-1.812-.835-.481-1.453-.223-1.62.672-.255 1.369-1.185 2.134-2.251 2.786-.525.321-1.077.667-1.339 1.17-1.339 2.566-4.251 3.648-5.683 6.111-.077.132-.219.236-.35.325-.636.433-1.244.12-1.816-.136-.503-.225-.41-.72-.334-1.16.372-2.164.246-2.306-1.902-2.086-.275.028-.546.111-.815.184-2.654.713-4.955.064-6.968-1.77-.913-.832-1.989-.74-3.036-.356-.728.267-1.377.52-2.158.101-.398-.214-.98-.245-1.33.19-.367.456-.028.901.156 1.34.167.397.531.584.821.852.56.517 1.084 1.01 1.051 1.907-.023.64.404 1.158 1.062 1.288 1.168.23 2.346.466 3.529.541.739.047 1.284.246 1.779.784.671.729 1.032 1.602 1.353 2.509.094.266.246.559.066.801-.263.354-.601.058-.869-.03-1.365-.451-2.718-.932-4.184-.913-.42.005-.883.023-.834.59.103 1.187-.643 1.537-1.572 1.911-1.171.471-2.433.911-3.053 2.172-.298.606-.696 1.065-1.345 1.281-.229.076-.492.139-.473.448.02.326.247.505.554.529 1.238.096 2.33.759 3.605.813 1.293.055 1.756.768 1.79 2.063.024.942-.267 1.81-.528 2.687-.593 1.991-1.231 3.985-.812 6.095.084.422-.103 1.067.472 1.262.612.208.929-.356 1.272-.717.739-.778 1.572-1.278 2.673-1.441 1.01-.149 1.835-.73 2.432-1.602.813-1.186 1.958-1.959 3.224-2.604.596-.303.968-.156 1.33.315.354.461.354.963-.097 1.271-1.32.899-1.865 2.327-2.603 3.624-.807 1.419-1.846 2.714-2.348 4.298-.163.514-.505 1.074.129 1.512.662.457 1.024-.087 1.408-.476.532-.54 1.095-1.061 1.556-1.658 1.093-1.417 1.605-1.39 2.456.207.558 1.048 1.483 1.245 2.432.505 1.184-.924.57-2.224.645-3.361.055-.826-.795-.883-1.328-1.177-.252-.139-.738.015-.716-.454.019-.408.467-.389.744-.485.94-.325 1.94-.501 2.785-1.062.934-.621 1.824-1.319 3.01-.507.182.124.58.114.722-.219.135-.317-.085-.544-.307-.711-.382-.288-.817-.508-1.183-.813-.733-.61-.643-1.108.277-1.406.965-.313 1.807-.826 2.644-1.377 1.334-.879 2.305-2.364 3.801-2.86 3.173-1.051 5.855-3.112 9.02-4.137.212-.069.519-.224.552-.385.073-.357-.31-.426-.556-.492-.81-.218-1.459-.638-1.392-1.54.063-.848.83-1.089 1.527-1.312.266-.085.526-.2.799-.255 1.344-.275 2.335.79 1.915 2.082-.231.712-.21 1.384-.045 2.113.369 1.626-.528 3.171-2.024 3.397-1.097.165-1.862.711-2.38 1.608-.981 1.701-1.956 3.412-3.537 4.63-1.851 1.425-3.388 3.16-4.858 4.933-1.26 1.52-2.792 2.724-4.161 4.11-.277.28-.605.52-.7.947-.475 2.13-1.682 3.847-3.068 5.473-.994 1.166-1.731 2.487-2.166 3.963-.089.302-.163.663.137.888.264.198.533-.018.782-.131.255-.116.51-.234.75-.377 2.645-1.572 5.318-3.092 8.244-4.094.655-.224.605-.606.441-1.121-.218-.687.039-1.022.783-1.125 1.793-.249 2.552-1.382 2.095-3.134-.206-.787-.405-1.443.724-1.624.217-.035.411-.356.572-.577 1.332-1.832 2.983-3.316 4.9-4.509.351-.218.669-.392.674-.886.013-1.427.867-2.229 2.082-2.79 1.569-.725 2.968-1.708 4.186-2.941.764-.773 1.718-1.186 2.773-1.269 1-.079 1.637-.528 1.965-1.464.39-1.111 1.247-1.588 2.345-1.409 2.01.328 3.956.952 5.782 1.878.624.316 1.202.779.984 1.59-.213.795-.827 1.055-1.649 1.084-1.444.05-2.713-.627-4.083-.846-1.216-.195-2.455-.351-3.646.158-.255.109-2.332 4.112-2.344 4.422-.002.04-.004.08 0 .12.214 2.046-.932 3.278-2.534 4.241-.771.463-1.523 1.05-1.726 1.915-.383 1.629-1.426 2.7-2.626 3.717-.482.409-.887.916-1.288 1.41-1.806 2.225-3.574 4.481-5.411 6.681-.508.608-1.048 1.077-.601 1.968.434.866 1.218.769 1.873.635 1.234-.251 2.464-.186 3.698-.196 2.306-.018 3.479-1.356 3.087-3.555-.063-.352-.199-.699-.209-1.052-.018-.599.125-1.194.889-1.138.864.063 1.312-.387 1.702-1.054.691-1.179 1.668-1.988 3-2.414 1.04-.331 1.497-1.307 1.268-2.399-.098-.468-.266-.921-.362-1.388-.119-.574-.123-1.236.45-1.499 1.229-.562 1.939-2.266 3.727-1.658.399.136.902-.256.912-.754.011-.554-.516-.326-.824-.366-.387-.05-.872.082-1.063-.368-.426-1 .329-1.666.832-2.344.444-.598 1.194-.651 1.71-.194.92.814 1.954 1.569 2.503 2.712.488 1.015 1.253 1.712 2.139 2.362.856.628 1.461.462 1.976-.374.568-.922 1.333-1.575 2.397-1.846.212 2.921-.557 5.684-1.399 8.426-1.264 4.122-3.211 7.9-5.832 11.327-.169.221-.426.461-.439.703-.096 1.846-1.427 2.62-2.822 3.355-.105.055-.248.11-.291.203-.807 1.737-2.862 2.191-3.844 3.774-.523.843-1.389 1.218-2.427 1.322-1.63.163-3.192.673-4.737 1.214-.496.173-.841.492-.904 1.015-.112.928-.687.935-1.393.778-.347-.078-.741-.232-1.053-.142-2.504.728-4.508-.936-6.763-1.373-.23-.045-.435-.23-.664-.263-.507-.073-1.034-.181-1.401.37-.332.499-.147.909.156 1.312 1.01 1.335 1.932 2.746 3.379 3.671 1.445.924 2.167 2.407 2.952 3.829.7 1.269 1.454 2.468 2.718 3.268.451.286.669.785.879 1.264.763 1.734 1.851 3.251 3.128 4.636.621.673.608 1.219-.168 1.775-2.862 2.055-4.816 4.959-7.04 7.606-.869 1.033-1.754 2.054-2.424 3.248-.435.775-.784 1.557-.998 2.419-.176.706-.149 1.521-.917 1.978-.137.081-.239.349-.231.525.061 1.335-.39 2.364-1.498 3.194-.496.372-.173 1.037.11 1.541.207.369.69.588.608 1.115-1.741.382-1.777.457-1.785 2.291-.004.795-.189 1.534-.655 2.247-1.134 1.734-2.358 3.372-3.873 4.804-.677.64-1.324 1.371-1.562 2.338-.608 1.15-1.158 2.326-2.371 3.03-.477.276-.76.75-.779 1.397-.043 1.45-.741 1.841-2.101 1.262-1.923-.819-2.549-.482-2.932 1.63-.218 1.2-.579 2.209-1.98 2.514-.472.103-.955.466-1.289.84-1.442 1.618-3.288 2.49-5.318 3.078-.416.12-.849.304-1.179.574-.867.709-1.707.716-2.647.152-.874-.524-1.588-.341-2.086.605-.202.384-.496.722-.769 1.065-.266.333-.654.581-1.05.422-.956-.384-1.756-1.226-2.961-.808-.221.077-.34-.37-.402-.652-.153-.7-.308-1.4-.502-2.089-.157-.554-.494-.965-1.015-1.274-2.308-1.37-2.458-2.288-.78-4.476.943-1.23.859-2.653-.271-3.333-.554-.334-1.024-.756-1.543-1.119-1.08-.755-1.9-1.813-3.067-2.476-.749-.425-.574-1.36-.7-2.072-.244-1.38-.281-2.762-1.9-3.436-.746-.311-.787-1.665-.135-2.453 2.952-3.567 5.02-7.748 7.989-11.311 2.877-3.457 5.638-7.01 8.594-10.402 2.01-2.306 4.369-4.307 5.943-7 .709-1.215 2.02-1.905 3.165-2.702 1.085-.753 2-1.572 1.77-3.106-.147-.959.736-1.353 1.26-1.915 1.053-1.129 1.05-1.464-.111-2.381-.311-.245-.6-.415-.958-.131-.339.269-.585.597-.276 1.022.453.622.063.758-.438 1.013-.848.432-1.775.427-2.661.631-.657.152-.953-.188-.915-.868.071-1.257-.532-2.058-1.743-2.366-.541-.137-.759-.525-.969-.968-.42-.886-1.042-1.51-2.096-1.536-.394-.01-.765-.069-.622-.605.296-1.115.156-2.21-.069-3.314-.097-.476.047-.947.18-1.413.079-.276.033-.572-.244-.744-.322-.199-.511.067-.718.244-.182.156-.345.339-.544.467-1.016.656-1.929.213-2.043-.988-.058-.606.017-1.199.257-1.761.244-.572.28-1.174.19-1.767-.132-.87-.831-1.235-1.652-.919-.074.029-.142.089-.218.098-.623.076-1.414.908-1.722.454-.605-.892-1.886-1.405-1.682-2.841.246-1.729.517-3.485.463-5.22-.108-3.416-.64-6.825-.622-10.236.032-5.912.446-11.799 4.245-16.79.072-.095.107-.244.199-.295 2.064-1.13 1.592-3.15 1.89-4.968.145-.885.099-1.709.075-2.558-.031-1.097.191-2.07 1.103-2.771.687-.529.592-1.083.04-1.602-1.21-1.138-2.173-2.578-3.866-3.135-.643-.211-.909-.719-.871-1.409.085-1.524.054-3.03-.747-4.41-.396-.681-.11-1.343.189-1.942.367-.736.45-1.453.097-2.186-.889-1.847-.269-3.574.397-5.295.097-.25.272-.584.486-.655 2.283-.762 2.857-2.871 3.739-4.718.46-.963 1.363-1.203 2.203-1.493.886-.306 1.578-.67 1.844-1.662.159-.594.687-.971 1.213-1.271 2.01-1.147 3.942-2.432 6.06-3.386.664-.299 1.349-.453 2.089-.434 2.167.053 3.916-.936 5.489-2.304.249-.216.693-.428.538-.841-.136-.363-.563-.169-.862-.211-1.418-.197-2.79-.64-4.229-.746-.701-.052-.32-.442-.109-.725.428-.575.891-1.115.815-1.924-.108-1.141-.779-1.536-1.775-.997-1.229.665-1.591 1.581-1.088 2.887.17.441.461.834.682 1.257.672 1.289.256 2.157-1.146 2.418-.352.065-.698.179-1.052.217-3.332.357-5.274-1.952-4.393-5.224.093-.345.228-.682.376-1.01.768-1.704.582-2.55-.941-3.555-.651-.43-1.117-1.012-1.654-1.541-.725-.715-.373-1.343-.146-2.221.556-2.155 2.467-3.095 3.616-4.688.417-.578.715-1.158.444-1.887-.069-.186-.17-.403.009-.557.23-.199.47-.019.648.108.68.486 1.309 1.039 2.099 1.366.597.247 1.069.196 1.451-.366.386-.568-.133-.802-.414-1.075-.953-.926-.829-2.055-.463-3.106.257-.738.991-.609 1.489-.166.936.831 1.811 1.696 1.34 3.181-.196.619-.064 1.305.643 1.642.769.366 1.11-.262 1.418-.74.59-.912 1.309-1.137 2.351-.82 1.255.382 2.551.628 3.833.918.835.189 1.507-.033 1.885-.857.83-1.811 2.42-2.568 4.316-2.02.505.146.975.198 1.514.112 1.238-.199 1.748.223 1.989 1.472.045.234.073.475.153.697.088.245.083.602.459.615.287.01.377-.26.491-.464.446-.802.927-1.588 1.317-2.417.457-.972 1.094-1.552 2.236-1.379 1.02.154 1.805.528 1.97 1.704.159 1.127.985 1.624 1.972 2.02 1.882.749 2.408 1.664 2.01 3.41-.786-.71-1.366-1.616-2.385-1.937-.307-.097-.643-.557-.935-.126-.23.341-.105.776.208 1.096.392.4.789.794 1.181 1.194 1.176 1.198 1.24 2.285.172 3.575-.267.323-.483.631-.451 1.064.114 1.5-.743 2.473-1.827 3.3-1.236.943-1.357 1.368-.489 2.666.596.891 1.251 1.723 1.561 2.786.19.654.817.856 1.452.84 1.533-.038 3 .284 4.48.643.663.162 1.337.092 2.02-.02 1.45-.239 2.906-.459 4.368-.595 1.01-.094 1.952.091 2.159 1.356-1.073-.059-2.252 1.081-3.223-.284-.043-.061-.316-.022-.438.048-1.919 1.085-4.16.556-6.162 1.232-.351.119-.703-.031-.988-.301-.639-.608-1.255-.475-1.732.175-.47.641-1.027.937-1.829.898-.492-.024-.976.145-1.02.775-.068.963-.687 1.169-1.5 1.121-1.111-.065-2.238.164-3.335-.192-.278-.09-.563-.013-.806.138-1.327.825-2.651.571-4.02.086-1.676-.591-3.231-.413-4.471 1.015-.704.81-1.445.819-2.324.237-.698-.462-1.488-.724-2.35-.817-2.535-.272-4.837.715-7.218 1.267-1.21.281-1.92 1.488-2.985 1.882-1.351.5-2.326 1.546-3.48 2.249-1.486.904-2.976 1.941-4.473 2.907-.886.572-1.95.937-1.783 2.341.033.279-.324.616-.527.908-.16.23-.403.443-.206.739.182.274.521.245.77.176 1.1-.305 2.22-.227 3.334-.209.578.009 1.01-.246 1.386-.603 1.779-1.679 1.773-1.684 3.254.234.267.346.484.767.825 1.013.655.471 1.33.564 1.778-.325.108-.214.21-.432.32-.645 1.114-2.159 1.846-2.52 4.192-1.992 2.117.476 4.233.569 6.116-.631 1.187-.757 2.218-1.534 3.677-.715.223.125.619-.03.928-.092 2.658-.535 4.642 1.014 4.718 3.748.02.737.269 1.151 1.01 1.183.797.035 1.556.305 2.371.269 1.448-.064 1.758-.477 1.209-1.873-.228-.579-.504-1.237-.077-1.704 1.041-1.139 1.921-2.625 3.489-3.01 2.485-.612 4.662-1.853 6.934-2.918.974-.456 1.965-.903 2.99-1.217 1.229-.376 2.243.44 2.242 1.737-.001.55-.174 1.098-.222 1.651-.101 1.154.384 1.666 1.365 1.18 2.01-.999 3.972-.85 6.03-.255 1.098.318 1.641-.195 1.715-1.335.091-1.411-.266-2.766-.466-4.143-.201-1.382-.783-2.515-1.978-3.256-.801-.497-1.461-1.097-1.881-1.946 1.01-.456 1.842-.174 2.59.577.911.915 1.603 1.972 2.139 3.141.216.469.411 1.037 1.037 1.02.598-.016 1.119-.426 1.3-.937.585-1.658 1.768-3.124 1.655-5.01.95.067 1.666-.298 2.206-1.095.505-.746 1.26-1.168 2.094-1.487.896-.342 1.486-.038 1.764.815.241.739.37 1.515.548 2.274-.024.16-.047.321-.071.481-.598.449-1.138.911-.408 1.682.128.45-.169.799-.285 1.19-.655.006-.9.368-.887.986.007.349.104.769-.191 1.013-.982.814-.812 1.874-.701 2.932-.12.825-.393 1.592-.857 2.288-.716.343-.703.942-.567 1.584m-48.04 5.431c.34.541-.099.644-.59.733-1.133.205-2.265.415-3.394.636-1.427.279-2.74 1.6-2.746 2.748-.004.868 1.837 2.978 2.821 2.985.965.006 1.54.462 2.144 1.077 1.029 1.046 2.162.924 2.94-.29.164-.256.323-.466.63-.477 1.287-.047 2.318-.797 3.46-1.241.786-.306 1.286-.892 1.649-1.649.628-1.309.282-2.197-1.152-2.372-1.764-.214-2.743-1.086-3.036-2.828-.1-.595-.328-1.259-1.169-.974-.747.254-1.779.286-1.557 1.652m30.697 57.04c.104.38-.182 1.285.813 1.449.81.133 1.547-.244 1.516-1.116-.077-2.197 1.05-4.064 1.507-6.11.236-1.059 1.53-1.778 2.626-1.574.429.08.842.242 1.27.33.934.192 1.393-.274.969-1.099-1.042-2.03-2.242-3.959-4.355-5.084-.873-.465-1.424-.232-1.679.728-.337 1.269-.668 2.54-.955 3.82-.625 2.786-1.672 5.485-1.712 8.656m-2.676-56.25c0-1.409-.339-1.692-1.621-2.064-1.383-.401-2.603-.046-3.817.47-1.694.72-3.582.732-5.258 1.459-1.405.609-1.646 1.631-.856 3.02.47.827 1.161.865 2.434-.067.918-.672 1.744-.645 2.642-.066.334.215.666.44 1.018.621 2.705 1.388 5.46-.32 5.458-3.375m-23.464 66.816c-.531.216-1.384-.381-1.65.448-.234.728.615.912 1.036 1.294.147.134.3.264.462.379 1.534 1.089 2.362 1.092 3.9-.027.301-.219.596-.339.964-.411 2.272-.447 3.996-1.632 4.872-3.843.397-1 .148-1.295-.857-1.093-.462.093-.921.359-1.32-.121-.419-.503-.17-1.034.072-1.457.316-.553.466-1.094.37-1.708-.068-.435-.328-.724-.756-.832-.447-.113-.652.181-.822.523-.813 1.639-2.104 2.978-2.772 4.733-.561 1.477-1.707 2.417-3.499 2.115" fill="#643f29"/><path d="m550.59 284.82c1.296.597 1.179 1.924 1.547 2.999-.117.421-.235.841-.35 1.262-.831 3.038-1.745 6.05-3.63 8.633-.943 1.294-1.754 2.565-.847 4.209-.432 1.128-1.615 1.199-2.467 1.721-2.167 1.328-4.197 2.839-6.123 4.484-.777.663-1.642.855-2.551.735-2.679-.354-5.225.068-7.729 1.021-1.761.67-3.55 1-5.488.661-1.475-.259-2.881.419-4.24 1-2.331 1.01-4.481 2.416-6.96 3.096-1.365.374-2.718.64-4.075-.014-.114-.246-.257-.357-.482-.109-.413-.001-.826-.002-1.24-.002-.269-.257-.508-.234-.717.076-2.661.646-5.3.872-7.863-.399-.61-.303-1.168-.669-1.491-1.301-.105-1.214.766-1.09 1.426-.893.991.296 1.902.105 2.814-.178.709-.22 1.236-.696.999-1.517-.209-.726-.167-1.396.015-2.112.187-.737-.117-1.2-.938-1.053-1.955.349-2.437.143-2.738 2.11-.1.654-.433 1.157-1.214.966-.635-.155-1.255-.406-1.284-1.206-.047-1.311 1.01-2.965 2.252-3.374 1.063-.349.9-.745.259-1.383-1.087-1.081-1.94-2.33-2.406-3.807-.756-2.396-2.455-4.299-3.283-6.723-.819-2.398-3.342-3.629-5.358-5.086-.952-.688-1.282-.418-1.326.802-.074 2.083.541 3.997 1.398 5.869 2.125 4.639 4.836 8.991 6.684 13.767.283.73.349 1.366.072 2.066-.863.14-1.7.162-2.389-.51-.054-.272-.228-.383-.495-.369-.231-.187-.462-.373-.693-.56-.284-1.155-.667-2.193-2.208-1.835-.468-.176-.835-.459-1.012-.946.686-.726 1.679-.643 2.524-.951.303-.11.63-.12.66-.551.032-.451-.133-.762-.546-.964-.573-.28-1.164-.268-1.75-.111-.402.108-.762.047-.943-.294-.213-.402.145-.651.42-.883 1.084-.914 1.167-1.294.313-2.458-1.659-2.262-2.857-4.789-4.107-7.27-.606-1.201-1.353-1.337-2.395-1.085-.689.167-1.374.384-1.976.816-.525.376-1.139.57-1.798.571-2.043-2.074-3.068-4.621-3.216-7.475-.1-1.936.068-3.887.117-5.83l.018-.06.062.007c.055.061.123.099.205.114 2.428-.029 2.729-.335 3.125-3.184.048-.346-.085-.79.31-.968.468-.211.566.325.808.539.839.746 1.651.743 2.481-.193.723-.816 1.29-.591 1.654.205.439.959.855 1.685 2.119 1.354 1.462-.382 1.358-1.458 1.279-2.562.081-.157.161-.315.242-.472 1.436-.391 2.983-.411 4.218-1.449.783-.657 1.564-1.319 2.451-1.868.609-.377.267-1.01-.254-1.368-.392-.27-.855-.433-1.257-.691-.447-.287-.437-.748-.272-1.176.164-.425.515-.381.905-.289 1.01.238 2.031.504 3.068.343 1.749-.271 3.582-.11 4.592-2.284.618-1.331 2.261-1.784 3.83-1.786 1.721-.002 1.976-.266 1.936-1.92-.04-1.675-.04-1.704 1.667-1.667 1.268.028 2.44-.231 3.561-.826 1.071-.568 2.108-.714 2.951.439.235.322.564.551.969.67.224.066.579.184.61.335.368 1.755 2.695 2.257 2.643 4.379-.023.957.921 1.815 1.49 2.68.261.673.491.372.717-.023 1.202-.762.774-1.944.63-2.941-.306-2.107 1.031-4.06 3.108-4.229.525-.042.961-.19 1.239-.603 1.165-1.736 2.835-1.464 4.507-1.161.665.121 1.308.363 1.973.482 1.418.254 2.308 1.01 2.516 2.478.181 1.278 1.234 1.62 2.222 1.879 1.236.323 2.302.818 3.139 1.815.358.426.876.722 1.491.611 1.158-.209 1.947.316 2.413 1.3.684 1.446 2.023 2.17 3.198 3.085.249.194.469.427.702.642.116.325.369.46.691.499.873 1.086.613 2.363.44 3.542-.118.802-.05 1.492.275 2.173.372.781.592 1.602.8 2.432-.618.91-1.15.76-1.881.023-1.313-1.326-2.732-.883-3.207.91-.082.308-.164.617-.228.929-1.348 6.576-4.227 12.422-8.36 17.685-.382.486-.991.913-.989 1.594.003 1.116-.368 1.998-1.194 2.754-.415.38-.702.92-.273 1.498.42.567.973.661 1.588.335.602-.319 1.21-.354 1.853-.134.847.289 1.429-.002 1.883-.781.751-1.291 1.87-2.165 3.31-2.598.448-.135.772-.354.932-.829.39-1.156 1.153-2.075 1.921-3 .888-1.07 2.034-2.05 2.318-3.439.286-1.398.149-2.895 1.652-3.726.055-.031.091-.138.096-.212.145-2.114 1.522-3.977 1.249-6.177-.062-.495.173-.756.686-.734m-23.936-18c-.36 0-.72-.006-1.08.002-.413.009-.853.078-1.022.487-.187.453-.173.949.203 1.346.629.665 1.179 1.398.707 2.338-.514 1.023-1.33 1.676-2.582 1.594-.95-.062-1.183.387-.918 1.279.291.979.975 1.736 1.358 2.66.503 1.213.696 2.398-.206 3.495-.717.872-1.61 1.512-2.648 2.01-1.613.771-1.824 2.785-3.192 3.812-.118.089-.048.394-.134.566-.371.745-1.331.953-1.752.336-.604-.886-1.207-1.797-1.629-2.775-.544-1.26-.895-2.488-1.85-3.66-1.517-1.86-3.436-3.322-4.838-5.27-.302-.42-.859-.768-1.462-.278-1.301 1.056-1.633 2.981-.781 4.513.094.168.185.376.174.559-.139 2.242 1.124 3.836 2.468 5.395.208.241.551.499.355.818-.783 1.276-.273 2.605.212 3.649 1.348 2.904 1.716 6.04 2.546 9.06.168.613.353 1.233.421 1.861.194 1.789 1.072 2.262 2.611 1.353.433-.256.829-.769 1.384-.453.553.316.288.938.337 1.433.035.357.007.722.067 1.073.046.271.178.647.472.626 1.334-.094 2.803.369 3.885-.874.354-.406.555-.778.07-1.231-.657-.615-.954-1.466-1.346-2.238-.446-.878-.472-1.846.373-2.515.742-.588 1.51-.226 2.195.272.128.093.269.174.413.241.878.401 1.455.19 1.683-.804.209-.912.076-1.832.101-2.747.014-.517.096-1.063.614-1.187 1.52-.365 1.96-1.435 2.119-2.812.047-.408.302-.852.588-1.162.825-.894.516-1.369-.495-1.718-.802-.277-1.364-.834-1.578-1.673-.129-.507.007-.961.48-1.248.457-.277.743.051 1.032.332.315.307.62.624.942.924.185.172.428.314.58-.01.423-.902 1.204-1.85 1.131-2.721-.105-1.249.597-1.97 1.01-2.917.8-1.838 2.532-3.161 2.783-5.325.084-.725.873-1.235 1.65-1.42.475-.112.692-.309.674-.8-.018-.489.031-1.029-.597-1.149-1.471-.279-2.157-1.404-2.838-2.544-1.06-1.778-2.646-2.57-4.689-2.505m14.862 15.759c.181-1.043-.421-2.291-.489-3.6-.121-2.323-1.118-4-3.315-4.955-1.367-.591-2.534-.237-2.498 1.202.041 1.642-.536 3.266-.142 4.871.229.933-.102 1.492-.673 2.122-.876.967-1.529 2.047-1.135 3.46.133.477-.157.845-.434 1.19-.247.308-.627.533-.688.959-.278 1.938-1.671 3.119-2.953 4.372-.633.618-1.304 1.182-1.147 2.224.057.379-.221.744-.574.834-.779.199-.967.805-1.051 1.437-.248 1.857-.9 3.533-1.969 5.077-.985 1.424-1.184 3.01-.749 4.691.097.377.228.652.603.815 2.72 1.175 4.135.178 3.877-2.765-.031-.355.001-.66.282-.851.344-.234.588.05.827.262.442.392.879.98 1.532.683.737-.335.877-1.085.838-1.846-.039-.772.028-1.528.463-2.189.68-1.033 1.342-2.083 2.096-3.061 1.73-2.246 3.535-4.434 4.25-7.277.091-.362.403-.678.647-.989 1.465-1.872 2.431-3.928 2.402-6.666m-48 .22c-.136 1.155.043 2.322 1.056 3.183 2.042 1.737 2.854 4.02 3.01 6.609.048.792-.149 1.62.233 2.363 1.791 3.482 2.935 7.246 4.688 10.744.399.797.896 1.196 1.807.721.629-.327 1.188-.165 1.169.603-.027 1.093.288 2.209-.298 3.286-.391.719-.013 1.196.794 1.114 1.025-.104 2.057-.251 3.055-.501 1.207-.302 1.501-1.074.877-2.158-.518-.901-1.161-1.72-1.948-2.406-.528-.46-.512-.765.085-1.179 1.534-1.063 1.526-1.094.434-2.676-.429-.621-.881-1.232-1.377-1.8-.525-.602-.858-1.311-.843-2.062.023-1.16-.485-2.065-1.05-2.992-1.105-1.813-2.085-3.707-2.298-5.843-.1-1-.502-1.681-1.137-2.395-1.593-1.791-3.29-3.477-4.965-5.186-.64-.653-1.184-1.401-1.837-2.039-.573-.561-1.08-.73-1.267.386-.122.714-.226 1.414-.188 2.228m24.708-7.01c-.048.88.154 1.676 1.171 1.747.864.061 1.198-.68 1.103-1.37-.104-.751.014-1.852-1.199-1.887-.989-.028-1.111.724-1.075 1.51" fill="#6a422c"/><path d="m571.42 124.44c-1.064.272-1.829.925-2.397 1.846-.515.836-1.12 1-1.976.374-.886-.65-1.651-1.347-2.139-2.362-.549-1.143-1.583-1.898-2.503-2.712-.516-.456-1.266-.403-1.71.194-.503.678-1.258 1.34-.832 2.344.191.45.676.318 1.063.368.308.04.835-.188.824.366-.009.498-.513.889-.912.754-1.789-.608-2.499 1.096-3.727 1.658-.573.262-.568.925-.45 1.499.097.468.264.921.362 1.388.229 1.092-.228 2.068-1.268 2.399-1.336.425-2.314 1.235-3 2.414-.391.667-.839 1.117-1.702 1.054-.764-.056-.906.539-.889 1.138.01.352.146.699.209 1.052.392 2.199-.781 3.537-3.087 3.555-1.233.01-2.463-.055-3.698.196-.655.133-1.439.23-1.873-.635-.447-.892.094-1.36.601-1.968 1.836-2.2 3.605-4.456 5.411-6.681.401-.494.806-1 1.288-1.41 1.201-1.018 2.243-2.089 2.626-3.717.204-.865.956-1.452 1.726-1.915 1.602-.963 2.748-2.195 2.534-4.241-.004-.04-.002-.08 0-.12.012-.31 2.089-4.313 2.344-4.422 1.191-.509 2.43-.352 3.646-.158 1.37.219 2.639.897 4.083.846.822-.029 1.436-.289 1.649-1.084.217-.811-.36-1.274-.984-1.59-1.827-.926-3.767-1.55-5.782-1.878-1.098-.179-1.955.298-2.345 1.409-.329.936-.96 1.385-1.965 1.464-1.055.083-2.01.495-2.773 1.269-1.218 1.233-2.617 2.217-4.186 2.941-1.215.561-2.069 1.362-2.082 2.79-.004.494-.323.668-.674.886-1.917 1.192-3.568 2.677-4.9 4.509-.161.221-.355.542-.572.577-1.128.181-.929.837-.724 1.624.457 1.752-.302 2.885-2.095 3.134-.743.103-1 .438-.783 1.125.164.516.214.897-.441 1.121-2.926 1-5.598 2.522-8.244 4.094-.24.143-.495.261-.75.377-.249.113-.518.329-.782.131-.299-.225-.226-.586-.137-.888.435-1.475 1.172-2.797 2.166-3.963 1.386-1.625 2.593-3.343 3.068-5.473.095-.427.424-.667.7-.947 1.369-1.386 2.901-2.59 4.161-4.11 1.47-1.773 3.01-3.508 4.858-4.933 1.581-1.217 2.557-2.929 3.537-4.63.518-.897 1.283-1.443 2.38-1.608 1.496-.225 2.393-1.771 2.024-3.397-.165-.728-.186-1.4.045-2.113.42-1.292-.571-2.356-1.915-2.082-.272.056-.532.17-.799.255-.698.224-1.464.464-1.527 1.312-.067.901.582 1.322 1.392 1.54.246.066.629.135.556.492-.033.162-.34.317-.552.385-3.166 1.025-5.849 3.086-9.02 4.137-1.496.495-2.467 1.981-3.801 2.86-.837.551-1.679 1.065-2.644 1.377-.92.298-1.01.796-.277 1.406.366.305.801.525 1.183.813.222.167.442.394.307.711-.142.333-.539.343-.722.219-1.19-.813-2.079-.115-3.01.507-.844.561-1.844.738-2.785 1.062-.277.096-.725.077-.744.485-.022.469.463.315.716.454.534.295 1.383.352 1.328 1.177-.075 1.137.539 2.437-.645 3.361-.949.741-1.873.544-2.432-.505-.851-1.597-1.363-1.624-2.456-.207-.461.598-1.023 1.119-1.556 1.658-.384.389-.746.933-1.408.476-.635-.439-.292-.999-.129-1.512.502-1.584 1.541-2.879 2.348-4.298.737-1.297 1.283-2.725 2.603-3.624.452-.308.452-.811.097-1.271-.362-.471-.734-.618-1.33-.315-1.266.645-2.411 1.418-3.224 2.604-.597.872-1.427 1.453-2.432 1.602-1.102.163-1.934.663-2.673 1.441-.343.361-.66.924-1.272.717-.574-.195-.388-.84-.472-1.262-.419-2.11.219-4.104.812-6.095.261-.877.552-1.745.528-2.687-.034-1.295-.497-2.01-1.79-2.063-1.275-.054-2.367-.718-3.605-.813-.308-.024-.534-.203-.554-.529-.019-.309.244-.372.473-.448.649-.216 1.047-.675 1.345-1.281.62-1.26 1.882-1.701 3.053-2.172.93-.374 1.676-.725 1.572-1.911-.049-.567.414-.584.834-.59 1.466-.019 2.82.462 4.184.913.268.088.606.384.869.03.18-.242.028-.535-.066-.801-.32-.907-.682-1.78-1.353-2.509-.495-.538-1.041-.738-1.779-.784-1.184-.075-2.361-.311-3.529-.541-.658-.129-1.086-.648-1.062-1.288.033-.895-.491-1.389-1.051-1.907-.29-.268-.654-.455-.821-.852-.184-.439-.523-.884-.156-1.34.35-.435.932-.404 1.33-.19.781.419 1.43.166 2.158-.101 1.048-.384 2.124-.476 3.036.356 2.01 1.834 4.313 2.483 6.968 1.77.269-.072.54-.155.815-.184 2.148-.22 2.273-.078 1.902 2.086-.076.44-.168.935.334 1.16.571.256 1.18.568 1.816.136.131-.089.273-.193.35-.325 1.432-2.462 4.344-3.545 5.683-6.111.262-.503.814-.848 1.339-1.17 1.066-.652 1.996-1.417 2.251-2.786.167-.895.784-1.154 1.62-.672.805.464 1.553.867 2.052 1.812 1.068 2.02 2.719 3.627 4.362 5.209.606.584 1.244.557 1.607-.108 1.067-1.952 2.938-2.119 4.807-2.361 2.01-.261 3.847-.895 5.429-2.265.848-.734 1.977-.764 3.068-.492.599.15.785.655.876 1.175.09.516-.254.81-.678 1.01-1.563.725-2.77 1.803-3.632 3.325-.5.884-1.384 1.468-2.351 1.764-1.144.351-1.863 1.019-2.144 2.177-.046.191-.168.362-.233.55-.135.393-.847.608-.521 1.088.328.484.895.801 1.478.963 1.911.531 4.619-.718 5.482-2.503.948-1.961.948-1.961 2.913-1.729.172.572.649.907 1.052 1.281.678.629 1.101 1.36 1.148 2.292-.267.033-.447.175-.493.441-.192 1.117-.588 2.09-1.449 2.913-.525.502-.132.998.458 1.303 1.165.603 2.302 1.259 3.477 1.842.809.401 1.556.999 2.536.957-.012.958.089 1.84.72 2.676.47.622.448 1.44.361 2.286-.179 1.746-.549 3.529.303 5.25.457.916.486 1.926.248 2.93m-41.856-11.972c.465.017.834-.212 1.214-.443.748-.455 1.466-1.016 2.278-1.295 1.79-.615 3.107-1.917 4.586-2.971 1.033-.736.852-1.547-.363-1.97-1.322-.46-2.391.161-3.362.981-1.657 1.4-2.728 3.455-4.872 4.32-.335.135-.501.507-.351.915.152.412.484.489.87.463" fill="#9a6341"/><path d="m458.43 84.67c1.136-.946.978-2 .53-3.289-.704-2.025-1.176-4.135-.93-6.324.688-.239.625-.833.668-1.387.229-2.943 1.05-4.202 3.164-4.751 1.696-.44 3.4-.854 5.114-1.219 1.446-.308 2.709-.02 3.844 1.073 1.298 1.249 2.128 2.759 2.989 4.295 1.01 1.8 2.116 3.668 4.193 4.349 1.806.592 3.109 1.59 3.895 3.268.36.769.866 1.297 1.644 1.64.87.384 1.542 1 1.769 1.98.376 1.613.369 1.615 1.995 1.368.064 1.284.541 2.561-.026 3.856-.149.341.116.693.402.94.762.659.873 1.59.997 2.492.098.716-.185 1.509.789 1.921.358.151.222.695-.115.903-.653.404-.879.979-.936 1.7-.017.211-.194.428-.34.609-1.121 1.383-.906 2.73.633 3.543.484.255.9.436.513 1.041-.32.499-.684.424-1.075.035-.606-.604-.986-.071-1.39.311-.402.38-.76.909-1.329.143-.371-.5-.781-.163-1.136.11-2.114 1.626-4.698 2.055-7.135 1.875-2.345-.173-4.665-1.092-6.289-3.214-.664-.867-1.339-1.884-2.454-2.366-.208-.09-.427-.256-.54-.447-2.068-3.497-5.215-6.282-6.614-10.236-.569-1.601-1.718-2.924-2.83-4.219m4.05-6.827c.151.354-.119.841.379.953.371.084.384-.328.489-.565.648-1.464 2.265-1.67 3.364-2.553.652-.524 1.302.353 1.979.484.424.082.879.115 1.304.058.856-.115 1.536-1.369 1.186-2.102-.944-1.98-3.9-2.566-5.547-1.082-.592.533-1.103 1.158-1.708 1.675-.985.844-1.127 2.029-1.446 3.132" fill="#6a422c"/><path d="m564.29 67.812c.42.849 1.08 1.449 1.881 1.946 1.195.741 1.777 1.874 1.978 3.256.2 1.377.558 2.733.466 4.143-.074 1.139-.617 1.652-1.715 1.335-2.057-.595-4.01-.744-6.03.255-.981.486-1.466-.026-1.365-1.18.049-.553.221-1.101.222-1.651.002-1.297-1.013-2.112-2.242-1.737-1.025.313-2.02.76-2.99 1.217-2.272 1.065-4.449 2.305-6.934 2.918-1.568.386-2.447 1.872-3.489 3.01-.427.467-.151 1.125.077 1.704.55 1.396.239 1.809-1.209 1.873-.815.036-1.575-.234-2.371-.269-.741-.032-.99-.446-1.01-1.183-.076-2.734-2.059-4.284-4.718-3.748-.309.062-.705.217-.928.092-1.459-.819-2.49-.042-3.677.715-1.883 1.2-3.999 1.107-6.116.631-2.346-.528-3.078-.166-4.192 1.992-.11.213-.212.431-.32.645-.448.889-1.123.796-1.778.325-.341-.246-.558-.667-.825-1.013-1.481-1.918-1.475-1.913-3.254-.234-.378.357-.808.612-1.386.603-1.114-.018-2.234-.096-3.334.209-.249.069-.588.097-.77-.176-.197-.296.046-.509.206-.739.203-.292.56-.629.527-.908-.167-1.404.897-1.769 1.783-2.341 1.496-.965 2.987-2 4.473-2.907 1.154-.703 2.129-1.749 3.48-2.249 1.065-.394 1.775-1.601 2.985-1.882 2.381-.553 4.683-1.54 7.218-1.267.862.093 1.652.355 2.35.817.879.582 1.62.573 2.324-.237 1.241-1.429 2.796-1.607 4.471-1.015 1.372.484 2.696.738 4.02-.086.244-.151.528-.228.806-.138 1.097.356 2.224.126 3.335.192.813.048 1.432-.158 1.5-1.121.044-.63.528-.799 1.02-.775.802.039 1.359-.258 1.829-.898.477-.65 1.092-.783 1.732-.175.284.271.636.42.988.301 2-.676 4.243-.147 6.162-1.232.123-.069.395-.108.438-.048.971 1.365 2.15.225 3.223.284.445.158.591.774 1.156.744" fill="#9a6341"/><path d="m425.14 156.18c.378-1.962 1.143-3.799 1.861-5.648 2.055-5.288 3.101-10.858 4.566-16.31 1.993-7.415 3.591-14.936 6.18-22.19 1.509-4.226 3.344-8.271 5.82-12.02.104-.157.265-.275.4-.411.115.423.225.848.347 1.269.462 1.588 2.162 2.033 3.332.875.151-.149.243-.32.185-.534-.101-.375-.4-.445-.737-.49-.348-.046-.959.124-.767-.551.148-.52.629-.432.993-.198.849.546 1.529.044 2.227-.321.672-.351 1.322-.742 1.988-1.103.712-.387 1.01-.06.896.632-.339 2.082-.608 4.193-1.95 5.952-.601.788-1.236 1.285-2.336.865-.919-.351-1.747.202-1.649 1.238.217 2.307-1.29 3.679-2.537 5.2-1.085 1.323-2.257 2.575-3.371 3.875-.491.573-.766 1.235-.394 1.979.47.939.153 1.77-.464 2.423-1.536 1.629-1.832 3.772-2.539 5.746-.232.646.256.848.689 1.059.494.24.847.618.547 1.135-.977 1.682-1.071 3.668-1.92 5.387-.105.213-.131.514-.297.643-1.686 1.319-2.215 3.265-2.838 5.16-.314.956-.754 1.852-1.284 2.698-1.155 1.841-1.802 3.837-1.697 6.01.059 1.234-.235 2.256-1.047 3.181-1.252 1.428-2.147 3.172-3.768 4.275-.124.086-.289.117-.436.173" fill="#4c3625"/><path d="m487.31 85.68c-1.626.246-1.619.245-1.995-1.368-.227-.975-.899-1.596-1.769-1.98-.778-.343-1.283-.871-1.644-1.64-.786-1.677-2.088-2.676-3.895-3.268-2.078-.681-3.183-2.548-4.193-4.349-.862-1.535-1.692-3.046-2.989-4.295-1.135-1.092-2.398-1.38-3.844-1.073-1.713.365-3.418.779-5.114 1.219-2.114.549-2.935 1.808-3.164 4.751-.043.554.019 1.148-.668 1.387-.489-3.442.362-6.555 2.423-9.313 2.6-3.48 6.107-5.155 10.466-5.114 1.449.014 2.905-.504 4.346.075-.059.561.084 1.031.608 1.319.505.277.792.759 1.171 1.163 1.664 1.771 2.825 3.94 4.573 5.647 1.126 1.1 1.645 2.483 1.571 4.098-.064 1.401.386 2.707 1.308 3.744.622.699.667 1.373.492 2.194-.249 1.166-.039 2.322.903 3.034 1.223.925 1.497 2.168 1.673 3.521-.086.082-.173.165-.259.248" fill="#9a6341"/><g fill="#4c3625"><path d="m457.92 121.71c-.356.795-.78 1.08-1.202 1.377-.687.484-.78 1.218-.613 1.935.179.771.903.617 1.487.671.993.092 1.875-.287 2.861-.706.023.592-.123 1.147.382 1.555.399.323.095.649-.179.898-2.28 2.081-3.956 4.684-6.02 6.948-.396.435-.874.881-1.553.418-.756-.516-1.209-2.037-.629-2.676 1.013-1.116.964-2.795 2.199-3.794.513-.415-.028-.861-.379-1.177-.426-.384-.893-.372-1.267.057-.2.23-.269.568-.427.841-.58.999-1.233 1.876-2.599 1.713-.729-.087-1.431.019-2.036.511-.301.245-.696.297-1.013.087-.351-.232-.22-.647-.197-.998.079-1.198.746-2.159 1.268-3.184.677-1.329.594-1.526-.811-1.954-.671-.205-.445-.617-.335-1.041.302-1.159.899-2.215 1.147-3.4.126-.601.133-1.187.131-1.783-.003-.927-.441-1.113-1.24-.71-.248.125-.485.593-.801.228-.272-.315-.057-.729.165-.989.567-.668 1.156-1.327 1.803-1.916 2.063-1.88 4.171-3.707 6.643-5.05.28-.152.57-.298.873-.389.323-.097.65-.047.838.282.203.356.037.654-.277.798-1.479.68-1.734 1.778-1.319 3.262.212.756-.095 1.433-.826 1.954-1.175.837-1.125 1.596.032 2.465 1.339 1.01 1.35 1.291.189 2.51-.738.775-1.656 1.405-2.053 2.467-.083.223-.241.454-.052.668.246.278.512.075.761-.035.341-.151.592-.404.778-.722.148-.253.339-.49.645-.471 1.167.07 2.282-.204 3.628-.65"/><path d="m483.01 178.96c-.446.036-.871-.043-1.288-.204-.816-.314-1.052-.608-.552-1.581 1.111-2.161 2.472-4.237 2.777-6.757.187-1.54 1.273-2.63 2.271-3.71.681-.737 1.233-1.538 1.768-2.386.731-1.159 2.05-1.584 3.287-1.984.893-.288 1.647-.587 2.234-1.425.711-1.015 1.63-.845 2.244.249.635 1.132 1.312 2.246.133 3.463-.262.27-.273.667-.05 1.01 1.132 1.722.381 3.177-.789 4.418-1.559 1.654-2.993 3.404-4.427 5.16-.236.29-.508.753-.962.512-.424-.225-.276-.73-.175-1.088.151-.532.489-1.016.605-1.551.083-.379.29-.965-.221-1.167-.37-.146-.747.214-.989.54-.617.83-1.242 1.649-1.52 2.684-.379 1.408-1.363 2.419-2.421 3.334-.521.455-1.23.532-1.925.486"/></g><path d="m579.62 67.11c-.178-.759-.307-1.535-.548-2.274-.278-.854-.868-1.158-1.764-.815-.834.319-1.589.741-2.094 1.487-.539.796-1.256 1.162-2.206 1.095-.137-1.16-.579-2-1.881-2.264-.922-.185-1.306-.836-1.26-1.863.071-1.582-.01-3.173-.085-4.758-.046-.981-.606-1.781-1.109-2.587.977.318 1.877-.194 2.804-.313 2.486-.316 4.914-.272 7.301.539 1.903.646 2.754 1.971 2.506 3.945-.333 2.649-1.039 5.22-1.664 7.808" fill="#9a6341"/><path d="m610.38 220.71c-1.187.22-2.356.275-3.54-.105-1-.321-1.987.057-2.928.344-1.983.605-3.913.738-5.804-.279.489-1.218.927-2.449 1.271-3.72.523-1.931 1.862-2.69 3.769-2.085 2.548.808 5.22 1.027 7.789 1.736 1.301.359 1.95-.071 2.257-1.416.233-1.019.545-1.325 1.627-.921.864.323 1.496.445 1.756 1.589.233 1.025 1.583.524 1.883.122 1.089-1.461 2.863-2.116 3.885-3.659 1.147-1.732 1.715-3.667 2.408-5.568.271-.742.528-1.481 1.033-2.104.013 2.471-.013 4.945-1.266 7.179-.909 1.621-1.894 3.2-2.863 4.786-.375.614-.969.904-1.674.982-.062-.425-.379-.465-.71-.452-1.402.058-2.61 1.34-4.133.659-.018-.008-.066.039-.095.065-.604.548-1.408.551-2.124.651-1.372.195-2.29.773-2.541 2.196" fill="#643f29"/><path d="m487.56 85.43c-.175-1.353-.449-2.596-1.673-3.521-.941-.712-1.151-1.868-.903-3.034.175-.82.13-1.495-.492-2.194-.922-1.037-1.371-2.343-1.308-3.744.073-1.616-.445-2.999-1.571-4.098-1.748-1.707-2.909-3.876-4.573-5.647-.379-.403-.665-.885-1.171-1.163-.524-.287-.668-.758-.608-1.319 1.584-.196 2.399-1.197 2.878-2.635 1.514-4.546 3.47-8.882 6.147-12.878 1.938-2.892 4.315-5.373 6.963-7.604.565-.476 1.202-.905 2.01-.886.177 1.173-.365 1.916-1.422 2.324-1.166.45-1.785 1.462-2.407 2.42-1.737 2.676-3.406 5.395-5.107 8.094-.369.585-.672 1.216-.657 1.9.064 2.916-1.566 5.02-3.302 7.087-.538.64-1.124 1.244-1.62 1.915-.969 1.31-.772 2.353.502 3.855 1.235 1.456 2.683 2.739 3.677 4.392.485.807 1.067 1.59.826 2.653-.093.411.168.928.505 1.01 1.028.239.956 1.033 1.082 1.767.298 1.738 1.615 3.02 2.111 4.671.447 1.486 1.01 2.952.986 4.529-.011.791-.098 1.609-.873 2.109" fill="#6a422c"/><g fill="#4c3625"><path d="m461.76 269.32c-3.297-1.287-6.649-2.412-10.03-3.442-.709-.216-1.176-.639-1.279-1.407-.077-.574-.433-.747-.995-.797-1.995-.176-1.99-.198-1.985-2.198.002-.754-.521-.608-.903-.431-1.023.475-1.463.172-1.533-.933-.064-1-.804-1.615-1.511-2.2-.832-.689-1.581-1.446-2.166-2.357.708-.256 1.412-.521 2.123-.767 1.128-.39 1.93.055 2.507 1.019 1.133 1.892 3.113 2.599 5.01 3.01 2.503.537 2.726.455 3.367 2.905.12.458.151 1.048.71 1.122.511.068.681-.475.872-.858.501-1 1.28-.798 2.034-.44 2.466 1.169 4.01 2.958 3.836 5.868-.038.634-.036 1.273-.053 1.91"/><path d="m465.91 181.43c-.463 1.249-.955 2.679-1.521 4.079-.867 2.146-1.695 4.303-2.122 6.586-.203 1.085-.766 1.556-1.846 1.163-.855-.311-1.256.142-1.601.806-.494.95-.842 1.992-1.721 2.704-.317.257-.618.586-1.047.333-.376-.221-.244-.65-.221-.989.065-.951.496-1.786 1.102-2.474.859-.975 1.137-2.087 1.036-3.323-.128-1.574.379-2.905 1.463-4.02.268-.277.632-.662 1.017-.408.346.229.107.682-.052.987-.446.854-.105 1.624.173 2.415.124.353.238.731.697.671.441-.057.716-.384.754-.815.057-.635-.049-1.295.08-1.91.502-2.391 2.046-4.307 3.042-6.475.085-.186.247-.342.474-.253.343.136.237.463.293.926"/><path d="m575.38 249.43c-.544.58-.3 1.289-.263 1.936.044.765-.227 1.306-.843 1.71-2.799 1.836-5.565 3.727-8.554 5.254-.062-.268-.094-.547-.192-.801-.775-2.03-.499-3 1.226-4.322.649-.495 1.359-.34 2.056-.2 2.027.407 3.02-.047 3.897-1.823.141-.286.322-.582.15-.903-.2-.372-.534-.258-.841-.162-.232.072-.482.173-.647-.074-.151-.226-.005-.457.098-.673.51-1.07 1.508-1.211 2.511-1.26.868-.041 1.289.501 1.402 1.318"/><path d="m471.92 187.39c.6-1.904.274-4.255.753-6.516.058-.272.133-.55.258-.795.968-1.893 1.92-3.796 2.947-5.657.291-.527.837-.966 1.467-.365.643.614.108 1.158-.298 1.525-2.201 1.99-2.909 4.698-3.625 7.397-.139.523-.112 1.117-.039 1.662.102.757.614 1.192 1.378 1.272.807.084 1.102-.438 1.319-1.107.167-.514.143-1.025.137-1.54-.008-.659.187-1.257.477-1.831.135-.268.39-.462.671-.42.382.057.284.426.281.686-.002.276-.025.562-.104.824-.453 1.486-.858 2.992-1.41 4.442-.513 1.347-1.853 1.914-2.938 2.693-.327.235-.708.084-.883-.319-.223-.512-.434-1.032-.391-1.951"/><path d="m598.44 166.5c1.101.668 2.751.249 3.845 1.763 1.259 1.742 3.03 3.03 5.23 3.563.514.125.971.459.435 1.01-.66.675-.372 1.207.101 1.765.445.526 1.047 1.332.654 1.754-.503.541-1.308-.102-1.925-.423-1.555-.81-2.344-2.361-3.382-3.647-1.504-1.863-3.205-3.41-5.435-4.338-.343-.143-.806-.246-.713-.806.071-.428.417-.652 1.19-.638"/></g><path d="m569.79 111.3c-.98.042-1.727-.556-2.536-.957-1.175-.582-2.313-1.238-3.477-1.842-.59-.306-.983-.801-.458-1.303.861-.823 1.258-1.796 1.449-2.913.046-.266.226-.408.493-.441 1.598-.028 2.55 1.014 3.334 2.17.713 1.049 1.119 2.27 1.465 3.5.186.658.16 1.243-.27 1.786" fill="#6a422c"/><g fill="#4c3625"><path d="m591.18 215.95c.001-2.312.823-3.01 2.85-2.655.462.082.733.286.718.773-.051 1.678-.848 3.01-1.962 4.192-.337.358-.61.193-.913-.076-.748-.667-.733-1.538-.693-2.234"/><path d="m582.94 242.56c-.147 1.706-.768 3.08-2.553 3.637-.002-.04-.006-.08-.006-.12-.045-2.684-.045-2.684 2.559-3.517"/><path d="m438.82 170.04c1.511-1.262 3.231-1.865 5.02-2.298.168-.041.415.012.548.118.168.135.133.398-.023.533-.473.411-.942 1.067-1.47 1.128-1.36.159-2.755.028-4.074.519"/><path d="m440.91 255.1c-1.273-.618-1.929-1.806-2.683-2.903.554-.009 1.109-.042 1.662-.022 1.407.052 1.768.607 1.29 1.902-.122.329-.182.681-.269 1.023"/><path d="m435.65 179.67c-.325-.105-.931-.027-1.025-.494-.092-.456.508-.522.836-.699.595-.32 1.199-.632 1.827-.875.368-.142.789-.162 1.045.285.294.512-.081.689-.419.925-.7.486-1.64.875-2.264.858"/><path d="m578.71 247.14c-.069.138-.2.277-.198.413.027 1.449-.816 1.669-1.992 1.436.005-.159-.003-.32.017-.477.215-1.696.68-1.988 2.173-1.372"/><path d="m551.34 62.64c-.063.353.074.913-.456.793-.848-.191-1.06-.981-1.188-1.725-.083-.481.279-.618.676-.556.885.138.895.853.968 1.488"/></g><g fill="#9a6341"><path d="m589.09 108.43c1.072 1.453 1.752 3.105 2.412 4.765-1.044-1.468-1.719-3.121-2.412-4.765"/><path d="m573.84 93.55c.007-.072.023-.143.049-.211.858.323 1.628.764 2.123 1.575-.896-.183-1.875-.231-2.172-1.364"/><path d="m586.66 105.57c.678.532 1.386 1.036 1.762 1.853-.721-.49-1.4-1.02-1.762-1.853"/><path d="m578.49 96.73c.669.376 1.187.904 1.57 1.564-.705-.341-1.222-.867-1.57-1.564"/><path d="m621.32 182.05c.476.828.765 1.72.894 2.664-.514-.817-.8-1.708-.894-2.664"/><path d="m605.16 149.72c.527.521.809 1.174 1.01 1.869-.568-.498-.835-1.159-1.01-1.869"/><path d="m597.63 130.79c.196.614.392 1.228.588 1.841-.505-.515-.79-1.101-.588-1.841"/><path d="m603.78 146.78c.375.416.595.904.678 1.454-.449-.381-.665-.87-.678-1.454"/><path d="m618.19 174.38c.363.424.619.896.664 1.463-.424-.396-.663-.875-.664-1.463"/></g><path d="m547.71 272.57c-.322-.039-.575-.174-.691-.499.537.066.395-.649.819-.713-.043.405-.085.809-.128 1.212" fill="#4c3625"/><g fill="#9a6341"><path d="m623.04 187.31c.245.382.406.787.334 1.254-.302-.369-.443-.778-.334-1.254"/><path d="m592.74 115.82c.295.26.445.583.425.979-.349-.237-.482-.567-.425-.979"/><path d="m625.69 198.95c.196.28.188.582.098.892-.268-.271-.281-.571-.098-.892"/><path d="m615.29 167.91c.307.253.449.578.431.974-.348-.235-.478-.565-.431-.974"/><path d="m606.85 152.83c.346.205.486.533.535.911-.397-.174-.519-.511-.535-.911"/><path d="m612.61 162.67c.348.205.494.528.536.911-.388-.181-.523-.51-.536-.911"/><path d="m611.64 161c.348.202.507.518.55.904-.389-.177-.535-.5-.55-.904"/><path d="m583.78 102.21c.312.109.541.295.602.639-.366-.059-.58-.26-.602-.639"/><path d="m625.46 197.51c.126.204.173.42.092.652-.258-.185-.302-.401-.092-.652"/></g><g fill="#4c3625"><path d="m519.89 268.71c-.227.395-.456.696-.717.023.238-.008.476-.015.717-.023"/><path d="m486.06 275.22c-.081.157-.161.314-.242.472-.322-.364-.08-.438.242-.472"/></g><g fill="#9a6341"><path d="m625.23 196.31c.129.121.174.257.079.419-.196-.109-.253-.242-.079-.419"/><path d="m576.33 95.06c.243-.019.353.127.414.334-.267.047-.39-.082-.414-.334"/><path d="m577.04 95.56c.23-.012.378.083.414.32-.243.03-.385-.071-.414-.32"/><path d="m585.47 104.13c.228.038.365.158.363.402-.258-.012-.38-.144-.363-.402"/><path d="m593.96 118.69c.192.125.24.3.181.513-.231-.111-.278-.287-.181-.513"/><path d="m595.43 122.99c.158.147.22.32.14.529-.228-.13-.26-.309-.14-.529"/><path d="m596.14 125.39c.168.152.169.336.1.533-.199-.148-.229-.325-.1-.533"/><path d="m596.43 126.47c.133.113.19.245.104.413-.219-.091-.271-.224-.104-.413"/><path d="m596.88 128.03c.149.153.209.326.123.532-.221-.136-.247-.316-.123-.532"/><path d="m597.35 129.71c.156.15.215.324.13.532-.218-.135-.253-.314-.13-.532"/><path d="m598.75 133.81c.195.113.265.279.21.497-.242-.093-.306-.261-.21-.497"/><path d="m599.72 136.21c.192.125.24.3.181.513-.231-.111-.278-.287-.181-.513"/><path d="m600.45 138.12c.185.13.233.306.174.517-.234-.113-.274-.291-.174-.517"/><path d="m601.15 140.05c.195.124.238.3.173.511-.223-.115-.281-.285-.173-.511"/><path d="m602.59 143.9c.198.117.251.289.195.503-.232-.103-.294-.272-.195-.503"/><path d="m624.98 195.11c.133.119.177.256.082.42-.192-.108-.261-.24-.082-.42"/><path d="m624.73 193.91c.133.125.138.267.058.421-.175-.12-.241-.253-.058-.421"/><path d="m624.51 192.95c.131.12.177.257.079.42-.194-.108-.252-.242-.079-.42"/><path d="m624.25 191.75c.132.125.138.268.057.421-.174-.119-.242-.253-.057-.421"/><path d="m623.75 189.71c.154.149.218.32.137.529-.228-.13-.259-.309-.137-.529"/><path d="m620.35 179.41c.201.119.237.296.18.506-.221-.111-.282-.279-.18-.506"/><path d="m619.87 178.22c.198.117.251.289.195.503-.232-.103-.295-.272-.195-.503"/><path d="m619.37 177.03c.213.106.252.283.201.495-.224-.102-.292-.266-.201-.495"/><path d="m617.21 172.23c.214.103.26.277.208.492-.232-.096-.297-.262-.208-.492"/><path d="m616.26 170.06c.202.109.26.278.209.494-.238-.095-.302-.262-.209-.494"/><path d="m610.93 159.79c.228.063.312.216.279.442-.239-.057-.331-.204-.279-.442"/><path d="m610.21 158.59c.225.059.323.205.298.434-.249-.043-.345-.19-.298-.434"/><path d="m609.49 157.39c.224.06.323.205.297.435-.248-.044-.345-.19-.297-.435"/><path d="m608.79 156.16c.217.078.306.235.279.46-.258-.055-.345-.212-.279-.46"/><path d="m607.8 154.51c.235.06.305.22.271.444-.235-.06-.324-.209-.271-.444"/><path d="m603.07 145.09c.196.114.261.282.201.499-.239-.097-.299-.266-.201-.499"/></g><path d="m474.04 280.5c-.081-.014-.15-.052-.205-.114.069.038.137.076.205.114" fill="#4c3625"/><g fill="#9a6341"><path d="m550.59 284.82c-.513-.023-.749.238-.687.732.273 2.2-1.105 4.063-1.249 6.177-.005.074-.041.182-.096.212-1.503.832-1.366 2.328-1.652 3.726-.284 1.389-1.43 2.369-2.318 3.439-.768.925-1.531 1.845-1.921 3-.16.475-.485.694-.932.829-1.44.433-2.559 1.308-3.31 2.598-.453.779-1.036 1.07-1.883.781-.643-.219-1.251-.184-1.853.134-.616.326-1.168.232-1.588-.335-.428-.578-.142-1.118.273-1.498.825-.756 1.197-1.638 1.194-2.754-.002-.681.607-1.108.989-1.594 4.133-5.262 7.01-11.11 8.36-17.685.064-.312.147-.621.228-.929.476-1.793 1.894-2.236 3.207-.91.73.737 1.262.887 1.881-.023.62.731.803 1.632.883 2.536.049.574.189 1.082.474 1.563"/><path d="m493.25 311.14c.277-.7.211-1.336-.072-2.066-1.848-4.776-4.559-9.128-6.684-13.767-.857-1.872-1.473-3.786-1.398-5.869.044-1.22.374-1.49 1.326-.802 2.02 1.457 4.539 2.689 5.358 5.086.828 2.424 2.526 4.327 3.283 6.723.466 1.477 1.32 2.726 2.406 3.807.641.638.804 1.035-.259 1.383-1.246.409-2.3 2.063-2.252 3.374.029.8.649 1.05 1.284 1.206.782.191 1.114-.312 1.214-.966.302-1.967.783-1.761 2.738-2.11.821-.147 1.126.316.938 1.053-.182.716-.224 1.386-.015 2.112.237.821-.29 1.298-.999 1.517-.912.282-1.823.474-2.814.178-.66-.197-1.531-.321-1.426.893-.706-.838-1.829-1.055-2.628-1.752"/><path d="m476.86 293.74c.66 0 1.274-.195 1.798-.571.602-.431 1.287-.649 1.976-.816 1.041-.252 1.789-.116 2.395 1.085 1.251 2.48 2.449 5.01 4.107 7.27.854 1.165.771 1.544-.313 2.458-.275.232-.633.481-.42.883.181.341.541.401.943.294.586-.157 1.178-.169 1.75.111.412.202.578.512.546.964-.031.431-.357.44-.66.551-.845.307-1.838.225-2.524.951-1.701-1.458-3.173-3.132-4.297-5.057-1.083-1.855-2.411-3.382-4.437-4.188-.636-.253-.799-.684-.794-1.306.007-.877-.043-1.753-.07-2.629"/><path d="m547.31 301.92c-.907-1.644-.095-2.915.847-4.209 1.884-2.587 2.799-5.595 3.63-8.633.115-.421.233-.841.35-1.262.618.6.841 1.319.681 2.167-.044.232-.073.483-.032.712.282 1.588.16 3-1.324 4.046-.399.281-.5.909-.43 1.44.393 2.981-1.703 4.332-3.722 5.739"/><path d="m610.38 220.71c.252-1.423 1.169-2 2.541-2.193.716-.1 1.52-.103 2.124-.651.029-.026.076-.073.095-.065 1.523.681 2.731-.602 4.133-.659.331-.014.648.027.71.452-.917 1.322-2.332 1.811-3.773 2.256-1.243.384-2.498.733-3.724 1.167-.787.277-1.465.219-2.106-.307"/><path d="m577.08 75.39c-.111-1.058-.28-2.118.701-2.932.295-.244.198-.664.191-1.013-.013-.617.233-.98.887-.986-.103 1.821-.941 3.376-1.779 4.931"/><path d="m573.26 84.55c-.208-1.955.248-2.864 1.767-3.521-.165 1.386-.837 2.518-1.767 3.521"/><path d="m487.47 307.87c1.542-.358 1.924.68 2.208 1.835-1.247.005-1.693-.956-2.208-1.835"/><path d="m571.61 87.91c.18-.764-.316-1.846.981-2.084.066.879-.661 1.385-.981 2.084"/><path d="m579.14 69.27c-.73-.771-.19-1.233.408-1.682.037.603-.028 1.181-.408 1.682"/><path d="m575.66 79.27c-.137-.642-.15-1.24.559-1.584.071.619-.171 1.127-.559 1.584"/><path d="m571.43 91.13c-.688-.466-.925-1.01-.29-1.701.047.576.058 1.157.29 1.701"/><path d="m505.24 314.59c.209-.31.449-.332.717-.076-.238.026-.478.051-.717.076"/><path d="m507.19 314.52c.225-.248.369-.137.482.109-.161-.038-.321-.073-.482-.109"/><path d="m490.37 310.26c.267-.014.441.097.495.369-.26.004-.413-.135-.495-.369"/><path d="m572.72 92.3c-.287.018-.472-.096-.518-.394.243.039.442.136.518.394"/></g><path d="m527.63 84.7c-.221-1.366.812-1.398 1.558-1.651.841-.285 1.068.379 1.169.974.293 1.742 1.273 2.613 3.036 2.828 1.434.174 1.779 1.062 1.152 2.372-.363.757-.863 1.343-1.649 1.649-1.142.444-2.174 1.194-3.46 1.241-.306.011-.466.221-.63.477-.778 1.214-1.911 1.336-2.94.29-.604-.615-1.179-1.071-2.144-1.077-.983-.007-2.825-2.117-2.821-2.985.006-1.148 1.319-2.47 2.746-2.748 1.13-.221 2.262-.431 3.394-.636.49-.09.928-.193.589-.734" fill="#201e1b"/><path d="m558.32 141.73c.04-3.172 1.088-5.87 1.713-8.655.287-1.281.618-2.552.955-3.82.255-.96.806-1.193 1.679-.728 2.113 1.124 3.313 3.054 4.355 5.084.424.825-.036 1.291-.969 1.099-.428-.088-.841-.25-1.27-.33-1.096-.204-2.39.515-2.626 1.574-.456 2.046-1.584 3.913-1.507 6.11.031.873-.707 1.249-1.516 1.116-.996-.164-.71-1.07-.814-1.45" fill="#9a6341"/><path d="m555.65 85.49c.001 3.056-2.753 4.763-5.457 3.376-.353-.181-.684-.406-1.018-.621-.897-.579-1.723-.606-2.642.066-1.273.932-1.964.893-2.434.067-.79-1.391-.549-2.413.856-3.02 1.676-.727 3.564-.739 5.258-1.459 1.215-.516 2.435-.872 3.817-.47 1.281.37 1.62.653 1.62 2.063" fill="#201e1b"/><g fill="#9a6341"><path d="m532.18 152.3c1.793.302 2.938-.638 3.499-2.113.667-1.755 1.958-3.094 2.772-4.733.17-.342.375-.636.822-.523.428.108.688.396.756.832.096.614-.054 1.155-.37 1.708-.242.423-.491.953-.072 1.457.4.48.859.214 1.32.121 1-.202 1.254.09.857 1.093-.876 2.211-2.6 3.396-4.872 3.843-.368.072-.663.192-.964.411-1.538 1.119-2.366 1.116-3.9.027-.162-.115-.315-.245-.462-.379-.421-.382-1.269-.567-1.036-1.294.265-.83 1.119-.234 1.65-.45"/><path d="m526.65 266.81c2.044-.065 3.628.727 4.69 2.505.681 1.14 1.367 2.265 2.838 2.544.629.119.579.66.597 1.149.018.491-.199.688-.674.8-.777.184-1.566.695-1.65 1.42-.251 2.164-1.984 3.487-2.783 5.325-.412.947-1.114 1.668-1.01 2.917.073.87-.707 1.819-1.131 2.721-.152.325-.395.183-.58.01-.322-.299-.627-.617-.942-.924-.288-.281-.574-.609-1.032-.332-.473.287-.61.741-.48 1.248.214.839.776 1.396 1.578 1.673 1.01.349 1.32.823.495 1.718-.286.31-.541.754-.588 1.162-.159 1.377-.599 2.447-2.119 2.812-.518.124-.6.67-.614 1.187-.024.916.108 1.835-.101 2.747-.228.994-.805 1.205-1.683.804-.144-.066-.285-.147-.413-.241-.686-.498-1.453-.86-2.195-.272-.844.668-.819 1.636-.373 2.515.392.772.688 1.623 1.346 2.238.484.453.283.825-.07 1.231-1.083 1.243-2.552.78-3.885.874-.293.021-.426-.355-.472-.626-.06-.351-.032-.716-.067-1.073-.048-.496.216-1.118-.337-1.433-.555-.316-.951.197-1.384.453-1.539.909-2.417.435-2.611-1.353-.068-.629-.252-1.248-.421-1.861-.829-3.02-1.198-6.159-2.546-9.06-.485-1.044-.995-2.373-.212-3.649.196-.32-.148-.578-.355-.818-1.344-1.558-2.607-3.152-2.468-5.395.011-.183-.08-.39-.174-.559-.852-1.532-.521-3.457.781-4.513.604-.49 1.16-.142 1.462.278 1.401 1.947 3.321 3.409 4.838 5.27.955 1.172 1.306 2.4 1.85 3.66.422.978 1.025 1.889 1.629 2.775.421.618 1.381.409 1.752-.336.085-.171.016-.477.134-.566 1.368-1.026 1.579-3.041 3.192-3.812 1.038-.496 1.931-1.136 2.648-2.01.902-1.097.709-2.282.206-3.495-.383-.924-1.067-1.682-1.358-2.66-.265-.892-.032-1.341.918-1.279 1.252.082 2.067-.571 2.582-1.594.473-.94-.078-1.673-.707-2.338-.376-.397-.39-.893-.203-1.346.169-.41.608-.478 1.022-.487.359-.009.718-.002 1.079-.002"/><path d="m541.51 282.57c.029 2.738-.937 4.794-2.403 6.666-.244.311-.556.627-.647.989-.716 2.842-2.52 5.03-4.25 7.277-.754.978-1.416 2.028-2.096 3.061-.435.661-.502 1.417-.463 2.189.039.761-.101 1.51-.838 1.846-.653.297-1.089-.29-1.532-.683-.239-.212-.483-.496-.827-.262-.281.191-.313.496-.282.851.258 2.943-1.156 3.94-3.877 2.765-.375-.162-.506-.438-.603-.815-.434-1.68-.236-3.267.749-4.691 1.069-1.544 1.72-3.221 1.969-5.077.085-.632.272-1.238 1.051-1.437.353-.09.631-.455.574-.834-.157-1.042.515-1.606 1.147-2.224 1.283-1.253 2.676-2.434 2.953-4.372.061-.426.441-.651.688-.959.277-.345.567-.713.434-1.19-.394-1.413.259-2.493 1.135-3.46.57-.63.902-1.189.673-2.122-.394-1.604.182-3.229.142-4.871-.036-1.44 1.131-1.793 2.498-1.202 2.197.951 3.193 2.632 3.315 4.955.069 1.309.671 2.557.49 3.6"/><path d="m493.51 282.79c-.039-.814.067-1.515.186-2.228.187-1.116.694-.947 1.267-.386.652.639 1.197 1.387 1.837 2.039 1.676 1.709 3.373 3.395 4.965 5.186.635.714 1.037 1.393 1.137 2.395.212 2.136 1.192 4.03 2.298 5.843.565.927 1.073 1.832 1.05 2.992-.015.751.318 1.46.843 2.062.496.568.948 1.179 1.377 1.8 1.092 1.582 1.1 1.613-.434 2.676-.598.414-.614.719-.085 1.179.787.685 1.43 1.504 1.948 2.406.623 1.085.33 1.856-.877 2.158-.998.25-2.029.396-3.055.501-.806.082-1.184-.396-.794-1.114.586-1.076.271-2.193.298-3.286.019-.768-.54-.93-1.169-.603-.911.474-1.408.076-1.807-.721-1.753-3.499-2.897-7.262-4.688-10.744-.382-.743-.185-1.571-.233-2.363-.156-2.587-.968-4.871-3.01-6.609-1.01-.86-1.19-2.027-1.054-3.183"/><path d="m518.22 275.79c-.037-.787.084-1.539 1.073-1.51 1.213.035 1.095 1.136 1.199 1.887.096.689-.238 1.431-1.103 1.37-1.015-.072-1.218-.868-1.169-1.747"/></g><path d="m529.56 112.47c-.387.028-.72-.049-.871-.462-.15-.407.016-.78.351-.915 2.144-.865 3.215-2.921 4.872-4.32.97-.82 2.039-1.441 3.362-.981 1.215.423 1.396 1.234.363 1.97-1.479 1.054-2.796 2.356-4.586 2.971-.812.279-1.531.84-2.278 1.295-.379.231-.749.46-1.213.442" fill="#6a422c"/><path d="m462.48 77.85c.319-1.104.461-2.288 1.447-3.133.604-.517 1.116-1.142 1.708-1.675 1.647-1.484 4.602-.898 5.547 1.082.349.733-.331 1.987-1.186 2.102-.426.057-.88.024-1.304-.058-.677-.13-1.327-1.01-1.979-.484-1.099.883-2.716 1.09-3.364 2.553-.105.237-.117.649-.489.565-.499-.11-.229-.598-.38-.952" fill="#9a6341"/></svg>