<svg xmlns="http://www.w3.org/2000/svg" width="202.54" height="285.56" viewBox="695.868 20.804 202.537 285.556" enable-background="new 695.868 20.804 202.537 285.556"><path d="m831.71 20.804c3.52 0 7.04 0 10.56 0 .406.764 1.244.52 1.865.776 4.971 2.052 10.02 3.925 14.869 6.264.259.743.77.737 1.372.462.123.078.246.156.368.235.091 1.056.702 1.632 1.697 1.886.739.188 1.398.556 2.023.989 1.719 1.193 3.204 2.748 5.291 3.372.202.06.446.288.5.484.368 1.346 1.554 1.996 2.416 2.92.098.421.266.84.279 1.264.034 1.102.625 1.549 1.656 1.56.595.12 1.052.497 1.562.79 1.103.635 1.511 1.902 2.509 2.615.496 1.273.199 2.608.315 3.91.165 1.858-.351 3.838.913 5.514.462.612.721 1.324 1.024 2.02-.092 1.181-.093 2.316 1.382 2.693-.007.574.365.841.83 1.049.805.359 1.583.761 2.157 1.467.905 1.114 1.414 2.517 2.616 3.431.338.257.454 1.045-.219 1.131-1.316.167-1.281.995-1.282 1.968-.001 1.01-.515 1.346-1.486 1.053-.61-.184-1.196-.443-1.799-.649-1.168-.4-2.385-.993-3.592-.499-1.426.584-3.04.813-4.27 1.758-2.933 2.253-6.552 2.535-9.878 3.66-.622.211-1.107.028-1.302-.473-.662-1.699-2.01-1.726-3.527-1.765-1.304-.034-2.057.317-2.219 1.649-.543.116-1.087.231-1.63.346-2.298.011-4.579-.448-6.881-.265-.719.057-1.578-.033-1.785.979-.11.541-.179 1.09-.266 1.635l-.004.004c-.777.007-1.193.473-1.451 1.14-.315.101-.629.203-.944.304-2.275.444-3.397 1.536-3.777 3.677-.296.401-.496.846-.603 1.332-.886-.009-1.731.236-2.594.384-1.062.183-1.92.925-3.08.888-1.377-.044-1.537.272-1.256 1.671.094.468.139.953.288 1.403.64 1.924.586 3.639-1.092 5.107-.719.629-.488 1.72.351 1.933 1.016.258 2.064.638 3.145.139 3.299-1.521 6.581-3.066 9.511-5.261 1.168-.874 2.136-2.199 3.698-2.315 1.936-.143 3.744-.742 5.604-1.171 1.023-.236 2.104-.287 2.998.392.902.685 1.887 1.201 2.905 1.654.769.342.813.779.366 1.388-1.734 2.363-3.815 4.302-6.628 5.309-1.132.405-2.046 1.096-2.747 2.038-.363.487-.751.818-1.348.87-.804.071-1.424.421-1.909 1.079-.281.381-.614.793-1.094.906-2.649.621-5.287.871-7.756-.633-.881-.537-1.643-1.291-2.558-1.748-2.087-1.042-4.297-.563-6.459-.251-.615.089-.745.982-.243 1.453.22.207.552.297.838.43.391.182.934.268.913.814-.022.596-.578.73-1.042.813-.732.131-1.32.557-1.974.847-.31.137-.642.381-.486.719.619 1.342.897 2.969 2.457 3.623.773.324 1.257.811 1.57 1.532.634 1.462 1.176 2.96 2.288 4.175.51.558.289.976-.5.88-.956-.116-1.721.28-2.419.837-.621.496-1.212 1.014-1.888 1.455-.946.617-.848 1.39.144 1.916.915.484 1.459 1.09 1.028 2.211-.155.403-.27 1.065.043 1.256 1.411.862.651 1.369-.207 1.929-.126.082-.272.233-.29.368-.216 1.589-1.352 2.971-.871 4.746.237.874.446 1.509 1.414 1.608.458.047.922.177 1.169.534.862 1.244 2.194 2.198 2.408 3.852.071.55.171 1.101.311 1.637.67 2.564 2.503 4.32 4.324 6.05 1.285 1.223 1.955 2.693 2.174 4.408.271 2.113.517 2.353 2.659 2.47.439.024.88-.011 1.319.007.395.017.928-.081 1.16.132 1.193 1.099 2.637.683 3.874.492 2.362-.364 4.67-.142 6.852.524 3.723 1.136 6.732.276 9.347-2.47.854-.897 1.752-1.754 2.643-2.616 2.397-2.317 5.134-4.311 6.742-7.365.642-1.219 1.404-1.23 2.313-.142 1.165 1.395 1.602 3.093 1.978 4.821.756 3.477 1.763 6.804 5.119 8.788.533.315.954.854 1.362 1.343 2.042 2.45 4.02 4.944 5.711 7.661.34.548.609 1.242 1.407 1.34.337 2.216 1.196 4.299 1.709 6.456.974 4.097 1.038 8.28.175 12.43-.382 1.839-.452 3.835-2.304 5.04-.43.28-.485.906-.62 1.404-.135.496-.176 1.017-.287 1.52-.534 2.41-2.404 3.833-3.94 5.553-1.317 1.475-2.79 1.854-4.588 1.642-.315-.037-.62-.161-.934-.191-1.175-.115-1.866.729-1.353 1.734.3.589.123.837-.339 1.165-.937.666-2.161.649-3.075 1.297-1.879 1.333-2.341.938-3.615-.696-.81-1.039-2.11-1.581-2.927-.909-2.358 1.936-4.214 1.173-5.999-.759-.053-.057-.13-.092-.194-.14-1.795-1.353-2.502-1.116-3.089 1.037-.717 1.03-1.968 1.5-2.504 2.797-1.439 3.478-2.139 7.165-3.274 10.724-1.463 4.589-2.988 9.175-5.546 13.298-1.674 2.697-4.17 4.818-5.817 7.505-1.693 2.761-3.979 4.903-6.125 7.23-2.329 2.525-4.778 4.925-7.185 7.369-.923.937-1.933 1.771-3.153 2.31-.966.107-1.786-.226-2.572-.769-.715-.494-1.417-1.225-2.328-1.121-1.619.185-3.369-.129-4.831.548-1.344.622-2.723.488-4.062.808-.751.18-1.431-.178-1.74-.951-.976-2.438-1.49-2.738-4.129-2.158-1.615.355-3.126 1.15-4.859 1.01-1.845-.151-3.439.555-4.862 1.669-1.942 1.521-3.865 3.066-5.792 4.606-1.041.832-1.813 1.785-1.53 3.254.136.706-.203 1.228-.768 1.634-.633.455-.866 1.099-.897 1.862-.091 2.248-.292 2.519-2.43 3.238-.363.122-.671.18-.697.657-.062 1.151-.414 2.355-.183 3.438.365 1.719.683 3.589 2.513 4.571.916.491.884 1.373.718 2.213-.131.661-.41 1.293-.617 1.939-.42 1.308-.212 2.532.647 3.582.682.834.992 1.802 1.274 2.799.334 1.179.04 2.611 1.378 3.393.108.063.188.294.169.432-.205 1.529-.214 3.098-1.076 4.481-1.783 2.86-2.724 6.02-3.133 9.337-.357 2.894-1.605 5.05-4.545 5.96-.646.2-1.321.452-1.435 1.272-.108.779-.184 1.563-.274 2.344-.01.043-.008.085.005.127-1.285.007-2.57.014-3.856.021.009-.198.021-.396-.26-.41-.706-.159-1.413-.319-2.119-.478-.115-.228-.253-.331-.455-.083-.17-.029-.341-.057-.511-.085-.156-.364-.389-.399-.687-.161-.169-.045-.339-.09-.508-.135-.332-.332-.698-.539-1.178-.311-.167-.053-.335-.105-.502-.158-.347-.416-.804-.509-1.314-.444-.203-.083-.406-.166-.609-.249-.541-.568-1.2-.9-1.982-.981-.221-.14-.442-.28-.663-.42-.044-.267-.209-.369-.468-.342-.166-.115-.332-.23-.497-.344-.024-.279-.188-.392-.455-.382-.571-.571-1.142-1.143-1.714-1.714-.025-.433-.254-.661-.686-.686-.484-.427-.968-.855-1.452-1.282-.03-.283-.191-.407-.469-.393-.344-.244-.747-.416-.973-.803-.022-.279-.174-.411-.453-.4-.416-.416-.832-.832-1.248-1.249.013-.268-.107-.421-.381-.443-.184-.18-.369-.36-.553-.54-.046-.313-.061-.634-.142-.937-.753-2.811-2.212-5.361-3.035-8.147-.094-.318-.333-.582-.658-.644-1.423-.272-2.481-1.219-3.67-1.927-1.613-.961-3.246-1.882-5.233-1.713-.128-.019-.256-.037-.385-.056l-.059-.036c-.378-.756-1.278-.066-1.687-.571-1.11-1.368-2.505-.703-3.824-.615-.17-.045-.34-.09-.509-.135-.359-.394-.812-.497-1.32-.426-.201-.088-.401-.177-.602-.265-.239-.416-.607-.541-1.062-.468-.206-.084-.412-.168-.619-.252-.118-.286-.325-.333-.591-.221-.204-.08-.407-.161-.611-.241-.969-.688-2.043-1.094-3.229-1.199-.204-.074-.409-.149-.613-.223-.762-.608-1.631-.903-2.606-.882-.169-.049-.338-.098-.507-.147-.329-.332-.696-.528-1.174-.329-.169-.045-.338-.09-.506-.135-.362-.414-.82-.518-1.342-.413-1.197-.432-2.265-1.082-3.228-1.91-.033-.27-.194-.376-.454-.356-.244-.193-.488-.386-.732-.579-.036-.272-.192-.398-.465-.382-.331-.273-.662-.547-.993-.82-.026-.278-.187-.393-.456-.378-1.16-.784-2.117-1.772-2.918-2.915.014-.278-.112-.439-.392-.473-.112-.157-.223-.314-.335-.471.022-.276-.091-.444-.377-.475-.112-.168-.224-.336-.336-.505.032-.252-.068-.413-.322-.467-.143-.227-.285-.453-.428-.68.057-.274-.037-.453-.321-.514-.133-.228-.267-.457-.4-.685-.286-.945-.403-1.964-1.192-2.686-.083-.215-.165-.431-.248-.646.006-.922-.192-1.691-1.322-1.76-.137-.198-.273-.395-.41-.593.109-.267.062-.475-.221-.597-.179-.313-.161-.65-.119-.99.263-.26.244-.491-.069-.694-.045-.17-.09-.339-.136-.509.227-.295.053-.391-.217-.439-.045-.069-.09-.138-.135-.206-.002-.178-.003-.356-.005-.534.488-1.564.022-2.972-.703-4.341-.224-.424-.416-.865-.65-1.283-.442-.788-.338-1.414.418-1.971.401-.296 1.062-.672.888-1.175-.359-1.043-.383-2.249-1.164-3.103-1.065-1.163-1.85-2.468-2.35-3.955-.012-.553-.024-1.107-.037-1.66.865-.738 2.285-1.224 2.318-2.42.055-2.01.818-3.992.241-6.02-.143-.502-.319-1.118.347-1.322.604-.185.945.374 1.152.833.376.833.629 1.72.988 2.562.261.612.51 1.383 1.45.912.683-.342.993-1.486.5-2.082-1.01-1.224-1.14-2.639-1.229-4.14-.066-1.11.135-2.361-.671-3.296-.973-1.129-1.782-2.317-2.309-3.728-.375-1-.952-1.93-1.436-2.892-.544-1.081-1.354-1.238-2.373-.692-.176.094-.353.19-.538.261-.916.35-1.275.067-1.128-.879.208-1.342.036-1.528-1.452-1.577-.178-.88-.047-1.717.273-2.553.207-.542.476-1.108.168-1.713.89-.901 2.143-1.203 3.157-1.911.783-.547.962-1.25.742-2.082-.172-.652-.445-1.279-.696-1.908-.329-.821-1.026-.928-1.49-.34-.828 1.049-1.921 1.887-2.425 3.223-.33.875-.937 1.687-2.059 1.762-.607-1.636-1.316-3.26-.627-5.057.23-.352.59-.501.966-.636.774-.278 1.356-.82 1.864-1.436.302-.366.619-.801.37-1.296-.22-.438-.701-.467-1.149-.466-.873.001-1.747.005-2.62.008-.458-1.762-.555-3.615-1.01-5.345-.673-2.562-1.205-5.107-1.328-7.747-.017-.359.17-.811-.271-1.078 0-1.84 0-3.68 0-5.52.792-.584.655-1.554.911-2.342.563-1.736 1.718-3.369 1.591-5.23-.373-5.428 1.784-10.514 1.983-15.853.013-.355.1-.711.18-1.061 1.08-4.731 3.079-9.136 4.862-13.616.621-1.56 1.567-2.863 3.191-3.546.597-.251.785-.8.761-1.376-.063-1.501.478-2.633 1.852-3.314.907-.257 1.746-.324 2.619.265.775.523 1.507.34 1.927-.622.86-1.97 2.154-3.73 2.801-5.807.103-.331.365-.612.558-.914.112-.175.26-.327.483-.261.222.066.275.275.272.481-.009.635.064 1.267-.127 1.9-.827 2.743-1.644 5.487-2.155 8.314-.158.871.076 1.374.885 1.679 1.377.52 2.495-.264 2.329-1.995-.45-4.699 1.178-9.126 1.605-13.706.135-1.448-.793-2.439-1.095-3.685-.181-.745-1.332-.457-2.062-.574.707-1.338 1.338-2.721 2.279-3.923 2.378-3.035 4.914-5.963 7.091-9.136 1.999-2.913 4.209-5.598 6.762-8.01 3.386-3.199 6.842-6.326 10.198-9.557.94-.905 1.723-1.964 2.951-2.522.982.077 1.782-.434 2.554-.898 1.954-1.175 3.942-2.272 6.06-3.122 4.343-1.742 8.839-3 13.345-4.226 1.297-.352 2.438.471 2.401 1.78-.066 2.362.415 4.709.23 7.05-.136 1.717-.175 3.395.023 5.107.425 3.666.353 7.414 1.942 10.872.184.401.194.845.248 1.284.391 3.198.366 6.331 2.898 9.09 1.822 1.988 3.115 4.584 4.968 6.679 1.458 1.649 2.378 3.795 4.56 4.78.539.243.849.88 1.04 1.428.349 1 .94 1.078 1.839.801 1.777-.548 3.478-.194 5.094.633 1.349.69 1.636 1.37 1.471 2.876-.094.859-.239 1.778.377 2.541.651.806.904 1.739 1.062 2.743.196 1.248.781 1.527 2.299 1.304 1.228-.18.515-.995.541-1.567.013-.279-.015-.561.002-.84.094-1.515 1.371-2.213 2.709-1.521.727.375 1.127.986 1.451 1.689.193.419.482.819.991.677.473-.132.626-.581.602-1.062-.04-.814.025-1.688.476-2.312 1.828-2.535 1.756-5.458 1.942-8.356.124-1.94.309-3.878.611-5.806.262-1.675 1.013-3.238.769-5.05-.316-2.335-.101-4.711.964-6.858.388-.782.427-1.325-.131-1.877-.517-.512-.501-1.11-.57-1.753-.094-.873.545-1.737.043-2.581-.749-1.262-.389-2.545-.134-3.826.234-1.17.707-2.334.699-3.498-.007-.934.274-1.563.684-2.342.388-.737 1.255-1.233 1.153-2.282-.138-1.415 1.23-2.382 1.298-3.78.008-.156.346-.299.536-.443.261-.198.5-.42.53-.765.094-1.073.605-2.076.52-3.177.295-.272.59-.544.885-.815.821-.046 1.505-.41 1.749-1.184.401-1.272 1.359-2.026 2.32-2.79 1.183-.941 1.65-2.248 1.974-3.643.217-.466.426-.917.501-1.452.426-3.051-2.157-5.269-5.02-5.466-1.814-.125-3.188.774-4.57 1.719-1.262-1.266-1.863-2.939-2.738-4.443 2.061-3.089 2.041-3.432-.356-6.198-.182-.21-.378-.416-.514-.654-.148-.259-.305-.447-.621-.494-1.014-.15-1.946-.614-3.03-.563-1.079.051-1.983-.504-2.635-1.409-.453-.63-.609-1.382-.906-2.076-.62-1.449-1.557-2.764-3.17-2.933-1.519-.159-3.188-.065-4.592.559-2.638 1.173-3.843-.519-4.296-2.508.297-.755.782-1.367 1.351-1.945 1.34-1.363 2.834-2.548 4.287-3.779 1.996-1.691 3.961-3.426 6.05-4.996 2.01-1.51 4.361-2.424 6.635-3.474 6.74-3.114 13.829-4.896 21.18-5.723.304-.03.685.044.605-.475m-40.806 161.14c0 .213.015.374-.002.533-.223 2.098-1.426 2.864-3.323 2.156-.904-.338-1.826-.558-2.78-.087-.546.27-.807.589-.291 1.072 1.52 1.427 2.385 3.397 3.994 4.756.529.447 1.169.954.818 1.816-.365.895-1.102 1.23-2.026 1.165-.733-.052-1.434.099-2.122.299-.521.152-.751.56-.736 1.103.009.329.014.718.438.724 1.082.013 1.968.633 2.966.887 1.028.262 1.951.076 2.776-.66 1.053-.939 2.372-.919 3.306.118.468.519.746 1.219 1.064 1.86.465.935 1.124 1.588 2.141 1.957 1.887.685 2.098 2.175.498 3.391-.598.455-1.18.945-1.894 1.245-.957.402-1.395 1.439-1.082 2.144.378.851 1.384.266 2.119.051.074-.022.14-.075.206-.12 1.894-1.301 3.119-3.055 3.53-5.329.248-1.375.51-2.689 1.423-3.862.963-1.239 1.196-2.758.848-4.32-.16-.715-.234-1.462-.032-2.138.631-2.12.555-4.145-.376-6.176-.443-.965.332-1.798 1.377-1.567 1.053.232 1.971-.108 2.866-.581.67-.354 1.318-.749 1.991-1.097.801-.414 1.544-.485 2.294.22.605.569 1.387.54 1.911-.112 1.159-1.442 2.216-2.955 1.694-4.988-.101-.393-.152-.809.2-1.117 1.072-.938 2.513-.727 3.297.471.555.848 1.312 1 2.143.444 1.56-1.052 1.68-2.563.426-3.965-2.024-2.263-2.073-3.378-.336-5.271 1.08-1.176.937-2.481-.193-3.625-1.035-1.048-1.439-2.311-1.252-3.711.104-.778-.035-1.739.865-2.235 1.307-.72 2.217-1.775 2.85-3.126.302-.645.9-1.185.229-1.923-.715-.786-1.518-.599-2.281-.142-.992.594-1.935 1.267-2.911 1.89-.326.208-.667.49-1.076.119-.335-.304-.401-.684-.319-1.095.177-.886.822-1.16 1.63-1.335 1.403-.304 1.396-.469.581-1.653-1.254-1.82-3.132-2.16-5.111-2.361-1.467-.149-1.779.122-1.682 1.631.031.473.165.939.224 1.412.077.613-.212 1.017-.802 1.148-1.83.404-3.705-.712-4.181-2.592-.22-.87-.712-1.098-1.377-.778-1.347.647-2.642 1.482-3.01 3.046-.36 1.525-1.202 2.76-1.996 4.04-.735 1.186-1.713 2.25-2.156 3.583-.952 2.858-2.699 5.195-4.484 7.564-1.915 2.542-3.534 5.305-5.353 7.923-.919 1.324-2.323 2.319-2.581 4.074-.131.892-.662 1.988.14 2.575.884.647 1.783-.215 2.583-.716.508-.318.991-.746 1.634-.344.612.383.806.965.704 1.606m41.618-143.88c-.947.209-1.759.599-2.215 1.585-.367.795-.418 1.732-1.034 2.407-.872.957-.815 1.978-.398 3.117.442 1.209 1.505 2.105 1.712 3.403.147.921.471 1.352 1.523 1.305 1.081-.049 1.924.577 2.203 1.681.237.936.726 1.64 1.461 2.25.42.349.711.854 1.055 1.292.363.462.444.946.017 1.406-.466.503-.975.263-1.406-.036-.588-.408-1.118-.899-1.687-1.334-.514-.393-.846-.247-.829.399.027 1.054-.318 2.044-.452 3.066-.222 1.698.05 3.245 1.495 4.433 1.072.881 2.251 1.676 2.964 2.926.542.952 1.382 1.505 2.381 1.89 1.209.466 2.023 1.249 2.01 2.666-.002.35.124.703.212 1.05.278 1.105.941 1.541 2.01 1.279 1.142-.279 1.229-1.288 1.32-2.177.096-.938-.716-.631-1.208-.669-.713-.056-1.111-.382-1.149-1.11-.03-.578-.023-1.17.609-1.432.793-.329 1.438.32 1.515.8.211 1.321 1.269 1.35 2.119 1.658 1.531.556 3.095.671 4.634-.035.586-.269 1.582-.405 1.423-1.111-.105-.466-1.114-.171-1.737-.086-.686.094-1.533.001-1.72-.691-.163-.605.71-.57 1.139-.788.354-.18.746-.283 1.111-.444 1.848-.813 3.417-.28 4.848.977.509.447 1.03.879 1.56 1.301.244.195.531.483.846.317.366-.193.13-.554.077-.856-.15-.87-.238-1.737.132-2.586.77-1.767.617-2.487-.923-3.559-.828-.577-1.077-1.21-.674-2.131.126-.288.165-.615.24-.925.4-1.651-.346-2.822-2-2.952-.985-.077-1.98-.029-2.983.09-1.972.233-3.929.609-5.932.626-1.033.009-1.346-.468-1.395-1.339-.04-.714.074-1.441-.234-2.129-.098-.219-.147-.486-.431-.509-.305-.024-.404.258-.457.472-.181.733-.599 1.298-1.154 1.781-.26.226-.482.599-.907.284-.358-.266-.503-.628-.357-1.055.103-.301.271-.579.4-.871.493-1.118.313-1.633-.837-2-.683-.218-1.112-.573-1.241-1.273-.085-.459-.335-.827-.695-1.087-2.086-1.503-3.544-3.656-5.496-5.3-.268-.226-.967-.346-.623-.959.273-.487.799-.548 1.275-.373.619.226 1.15.115 1.485-.396.347-.529.117-1.103-.237-1.561-.511-.661-1.077-1.28-1.621-1.916-.452-.525-1.078-.651-1.748-.771m-83.61 146.82c-.101.791.202 1.509.899 2.02.703.514 1.425.948 1.871 1.781.335.625 1.512.418 1.467-.209-.13-1.789 1.147-2.228 2.346-2.891 1.199-.663 2.395-1.511 2.264-3.099-.136-1.653.692-2.588 1.95-3.396 1.743-1.119 3.21-2.479 3.711-4.624.085-.365.077-1.023.722-.893.478.097.597.573.614 1.052.011.327-.159.799.345.893.446.083.555-.374.762-.651.459-.616.684-1.478 1.722-1.44.91.033 1.358-.511 1.517-1.37.181-.981.512-1.904.951-2.812.603-1.248-.717-3.496-2.1-3.708-.596-.091-1.065.036-1.406.631-.414.723-.928 1.376-1.206 2.189-.287.84-.752 1.663-1.658 1.928-.994.291-1.796.827-2.555 1.482-1.298 1.118-3.155 1.317-4.254 2.867-.905 1.276-2.252 2.229-3.326 3.396-1.589 1.727-2.458 4.02-4.32 5.544-.386.318-.317.794-.316 1.312m-23.279 59.12c2.801-.01 7.525-1.306 9.787-2.711.43-.267.782-.418 1.304-.101.475.288 1.188.391 1.486-.205.317-.635.787-1.089 1.242-1.582.195-.211.373-.436.254-.745-.137-.358-.469-.484-.782-.407-1.333.33-2.792-.113-4.02.356-1.924.735-3.789 1.028-5.853.905-1.38-.082-2.8.493-4.201.78-3.209.659-4.525.007-5.943-2.378-.909-1.53-2.088-2.693-3.579-3.594-.411-.248-.838-.57-1.327-.29-.568.326-.371.919-.342 1.414.027.45.292.815.602 1.142 1.398 1.474 2.777 2.967 4.191 4.425 1.963 2.02 4.38 2.976 7.18 2.991m18.477-133.74c.034.446-.132 1.107.593 1.199 1.029.131 2.11.216 2.971-.533.87-.757 1.645-.719 2.576-.072 1.752 1.217 3.23 1.079 4.68-.47 1.113-1.188 2.162-2.449 3.118-3.766.61-.84 1.248-1.52 2.258-1.839.546-.172 1.142-.541.99-1.159-.16-.651-.688-1.155-1.462-1.221-.413-.035-.782.091-1.153.261-.62.285-1.259.496-1.961.457-2.441-.136-4.501.773-6.378 2.267-1.282 1.021-2.655 1.907-4.294 2.293-1.498.352-1.948.965-1.938 2.583m11.48 4.537c-.275-.609-.778-.414-1.25-.244-1.709.619-3.408 1.16-5.174.148-.206-.118-.584-.092-.814.015-1.186.554-2.313.449-3.446-.149-.557-.294-.988-.097-1.01.538-.051 1.508-.323 2.285 1.662 2.707 1.293.275 1.489.785.888 1.971-.178.351-.412.685-.676.976-.377.416-.742.968-.289 1.346.406.338.833-.217 1.15-.568.079-.087.109-.219.191-.303 2.323-2.39 4.381-5.161 8.04-5.647.435-.058.604-.333.73-.79m24.517 38.517c.001-1.302-.6-2.302-1.501-2.576-.359-.109-.694-.18-.869.308-.384 1.074.221 2.493 1.253 2.936.799.343 1.249.227 1.117-.668" fill="#1f1e1b"/><path d="m893.39 66.41c-.154 2.35-.965 4.561-1.46 6.839-1.135 5.225-3.108 10.123-6.137 14.545-2.357 3.44-4.101 7.175-5.662 11.02-.616 1.516-1.377 2.97-2.286 4.326-1.124 1.677-1.224 2.912-.006 4.468 1.921 2.455 3.044 5.212 3.469 8.289.386 2.796-.21 5.454-.93 8.124-.486 1.803-.805 3.652-1.167 5.487-.277 1.404.05 2.708.845 3.879 1.683 2.478 2.778 5.199 3.471 8.101.546 2.287 1.747 4.155 3.576 5.663 2.95 2.431 5.316 5.373 7.288 8.639-.038.294.017.537.349.624.159.219.329.434.291.732-.291.328-.246.568.184.709.025.161.051.321.076.482-.1.008-.199.017-.299.025-.798-.098-1.067-.792-1.407-1.34-1.688-2.716-3.669-5.211-5.711-7.661-.408-.489-.829-1.028-1.362-1.343-3.356-1.984-4.363-5.311-5.119-8.788-.376-1.728-.813-3.426-1.978-4.821-.909-1.088-1.671-1.078-2.313.142-1.608 3.054-4.345 5.05-6.742 7.365-.891.861-1.789 1.719-2.643 2.616-2.614 2.746-5.624 3.606-9.347 2.47-2.182-.666-4.49-.888-6.852-.524-1.237.191-2.681.607-3.874-.492-.232-.214-.765-.116-1.16-.132-.439-.019-.881.016-1.319-.007-2.142-.116-2.388-.356-2.659-2.47-.22-1.715-.889-3.184-2.174-4.408-1.821-1.733-3.654-3.49-4.324-6.05-.14-.536-.24-1.087-.311-1.637-.214-1.654-1.546-2.608-2.408-3.852-.248-.358-.712-.488-1.169-.534-.968-.099-1.177-.733-1.414-1.608-.481-1.775.655-3.157.871-4.746.018-.135.164-.286.29-.368.858-.56 1.617-1.068.207-1.929-.313-.191-.198-.853-.043-1.256.431-1.121-.113-1.727-1.028-2.211-.993-.526-1.09-1.299-.144-1.916.676-.441 1.267-.958 1.888-1.455.698-.558 1.463-.953 2.419-.837.789.096 1.01-.323.5-.88-1.111-1.215-1.654-2.713-2.288-4.175-.313-.721-.797-1.208-1.57-1.532-1.56-.654-1.838-2.282-2.457-3.623-.156-.338.177-.582.486-.719.654-.29 1.243-.716 1.974-.847.464-.083 1.02-.218 1.042-.813.02-.545-.523-.632-.913-.814-.286-.133-.618-.224-.838-.43-.501-.471-.372-1.364.243-1.453 2.163-.312 4.372-.79 6.459.251.915.457 1.677 1.211 2.558 1.748 2.469 1.504 5.107 1.254 7.756.633.48-.113.813-.525 1.094-.906.485-.658 1.105-1.01 1.909-1.079.597-.052.986-.383 1.348-.87.701-.941 1.615-1.632 2.747-2.038 2.813-1.01 4.895-2.945 6.628-5.309.447-.609.402-1.047-.366-1.388-1.018-.453-2-.97-2.905-1.654-.894-.679-1.975-.628-2.998-.392-1.86.429-3.668 1.028-5.604 1.171-1.562.115-2.53 1.44-3.698 2.315-2.931 2.195-6.212 3.739-9.511 5.261-1.081.498-2.129.119-3.145-.139-.839-.213-1.07-1.304-.351-1.933 1.678-1.467 1.733-3.183 1.092-5.107-.15-.45-.194-.935-.288-1.403-.281-1.398-.121-1.715 1.256-1.671 1.159.037 2.02-.706 3.08-.888.863-.149 1.708-.394 2.594-.384.596 1.116 1.322 1.353 2.258.552 1.287-1.1 2.696-1.539 4.387-1.512 1.433.023 2.807-.477 4.116-1.101.788-.376 1.611-.94 2.425-.952 2.457-.034 4.147-1.467 5.862-2.884.378-.312 1.087-.605.768-1.314-.295-.657-.733-1.26-1.529-1.373-.418-.059-.794-.107-.948-.57.162-1.333.915-1.684 2.219-1.649 1.518.04 2.866.066 3.527 1.765.195.501.679.684 1.302.473 3.326-1.125 6.945-1.407 9.878-3.66 1.23-.945 2.844-1.173 4.27-1.758 1.206-.494 2.424.099 3.592.499.603.206 1.189.465 1.799.649.97.292 1.485-.043 1.486-1.053.001-.973-.034-1.8 1.282-1.968.673-.086.557-.873.219-1.131-1.202-.915-1.71-2.317-2.616-3.431-.573-.706-1.351-1.107-2.157-1.467-.465-.207-.837-.475-.829-1.049 1.764-.328 3.157.359 4.417 1.532 1 .932 1.784 2.02 2.469 3.182.632 1.072 1.508 1.848 2.679 2.238.585.191 1.03.564 1.514.898m-22.912 26.871c1.51.005 5.864-1.755 7.356-2.787 1.329-.919 2.239-2.407 3.932-2.844.389-.1.595-.526.57-.97-.093-1.654.591-3.01 1.572-4.273.448-.578.469-1.197.015-1.875-1.415-2.117-4.876-2.587-6.622-.755-1.424 1.494-3.084 2.328-5.123 2.506-1.01.088-1.833.496-2.159 1.58-.128.427-.467.731-.765 1.058-1.22 1.333-2.648 2.411-4.119 3.443-.716.502-1.036 1-.034 1.593.697.412 1.219 1 1.421 1.846.164.685.73 1.074 1.352 1.196.932.182 1.894.211 2.604.282m-8.531 20.69c-.118.455.201.807.739 1.046 1.227.544 1.903 1.498 2.128 2.817.072.423.248.839.436 1.229.305.636.534 1.443 1.472 1.319.988-.131 1.7-.711 1.937-1.694.271-1.127.942-1.774 2.024-2.127 1.368-.446 2.762-.75 4.176-1 .681-.12 1.371-.341.431-1.134-.883-.745-.759-1.58-.209-2.454.169-.269.397-.536.454-.832.101-.524-.03-1.074-.481-1.379-.339-.23-.758.053-.926.339-1.022 1.747-2.654 1.856-4.446 1.968-1.219.076-2.613-.244-3.677.603-.775.617-1.397.442-2.034-.051-.404-.312-.745-.882-1.304-.514-.556.366-.723 1.022-.72 1.864m-13.163 4.275c1.318.038 2.303-.431 2.702-1.544.331-.925-.204-1.762-.858-2.453-.274-.289-.562-.566-.844-.847-.314-.312-.654-.619-.502-1.13.169-.563.651-.508 1.084-.504.978.009.739-.511.375-.956-.529-.645-1.139-1.224-1.71-1.834-.704-.751-1.529-.793-2.297-.113-.743.658-1.472 1.334-2.236 1.967-.844.699-.867 1.141.024 1.795.609.447 1.264.829 1.885 1.26.637.442.817 1.066.584 1.787-.623 1.923-.136 2.583 1.793 2.572m17.299-10.09c1.578-.019 2.071-.705 1.573-2.187-.33-.981-2.468-2.342-3.511-2.068-.59.155-1.575.14-1.568 1.094.01 1.544 1.897 3.18 3.506 3.161m-10.455-4.553c.476 0 .953-.011 1.429.003.566.016 1.06-.133 1.225-.718.17-.603-.149-1.098-.596-1.457-.64-.515-3.273-.267-3.838.343-.39.421-.691.932-.458 1.51.214.53.76.274 1.166.314.354.033.714.006 1.072.005" fill="#5f3c28"/><g fill="#653f2a"><path d="m748.52 82.16c1.02-1.658 2.752-2.333 4.391-3.087 3.463-1.593 6.985-3.056 10.647-4.133 2.54-.747 5.106-1.415 7.682-2.032 1.172-.281 1.846-.862 2.194-2.04 1.152-3.895 2.451-7.743 3.83-11.564.55-1.522 1.489-2.787 2.576-3.958.98.125 1.505.507 1.272 1.657-.212 1.048.38 1.474 1.431 1.189.492-.133.78-.484 1.081-.881.818-1.076 1.506-1.184 2.681-.523 2.269 1.278 2.771 3.192 1.409 5.423-.332.545-.685 1.08-1.064 1.593-.841 1.138-1.509 2.353-1.679 3.78-.188 1.582.068 3.184-.262 4.77-.135.648.481.969 1.024 1.154.646.219.991-.286 1.219-.724.641-1.234 1.225-2.488 1.595-3.85.469-1.73.99-3.458 1.647-5.124 1.262-3.199 3.933-5.28 6.297-7.586.409-.399 1.01-.649 1.65-.617 1.02.051 1.542-.471 1.698-1.452.184-1.152.931-1.732 2.044-1.838.786-.075 1.595.051 1.913.876.322.836-.261 1.374-.942 1.707-1.175.574-2 1.469-2.459 2.659-.5 1.31-1.346 2.327-2.337 3.277-1.226 1.174-1.235 1.78-.004 2.971.744.72 1.173 1.489.986 2.547-.402 2.278-1.281 2.863-3.695 2.431-1.178-.211-1.566.044-1.268 1.169.437 1.645-.148 2.61-1.603 3.237-.412.178-.755.433-.26.863.655.569.965 1.355 1.419 2.055.849 1.309 2.15 1.702 3.65 1.551 1.411-.142 1.754-1.189 1.981-2.339.069-.352.172-.696.254-1.046.561-2.396 1.522-4.537 3.703-5.927.411-.262.653-.689.835-1.147 1.082-2.723 2.523-5.254 4.223-7.629.826-1.154 1.861-2.109 3.442-2.091.875 1.504 1.476 3.177 2.738 4.443-.086.219-.264.449-.242.658.155 1.532-.487 2.545-1.803 3.333-.789.472-.395 1.193.155 1.681.289.256.703.369 1.048.567.467.269 1.173.458.965 1.16-.177.599-.826.702-1.402.679-1.109-.043-2.227.156-3.327-.177-.429-.13-.808.026-.898.527-.072.401.077.782.506.802 1.258.058 1.62.949 1.967 1.926.451 1.27 1.361 1.976 2.706 2.235.83.159 1.654.2 2.486.242.085 1.101-.426 2.105-.52 3.177-.03.345-.269.567-.53.765-.189.144-.528.287-.536.443-.068 1.399-1.436 2.365-1.298 3.78.102 1.049-.765 1.545-1.153 2.282-.41.78-.691 1.408-.684 2.342.008 1.164-.465 2.328-.699 3.498-.256 1.281-.615 2.564.134 3.826.501.845-.137 1.709-.043 2.581.069.643.054 1.241.57 1.753.558.553.519 1.095.131 1.877-1.065 2.147-1.28 4.522-.964 6.858.244 1.807-.506 3.37-.769 5.05-.302 1.929-.486 3.866-.611 5.806-.186 2.898-.113 5.821-1.942 8.356-.451.625-.517 1.498-.476 2.312.024.481-.129.93-.602 1.062-.509.142-.798-.258-.991-.677-.324-.703-.724-1.314-1.451-1.689-1.338-.691-2.615.007-2.709 1.521-.017.279.011.56-.002.84-.027.572.687 1.386-.541 1.567-1.517.223-2.103-.056-2.299-1.304-.158-1-.411-1.937-1.062-2.743-.615-.763-.471-1.682-.377-2.541.165-1.506-.122-2.186-1.471-2.876-1.616-.827-3.318-1.18-5.094-.633-.898.277-1.49.203-1.839-.801-.191-.548-.501-1.185-1.04-1.428-2.182-.985-3.101-3.131-4.56-4.78-1.853-2.095-3.145-4.691-4.968-6.679-2.532-2.762-2.507-5.896-2.898-9.09-.054-.438-.063-.882-.248-1.284-1.589-3.458-1.517-7.206-1.942-10.872-.198-1.712-.159-3.39-.023-5.107.185-2.341-.296-4.688-.23-7.05.037-1.309-1.104-2.132-2.401-1.78-4.506 1.222-9 2.484-13.345 4.226-2.118.85-4.107 1.947-6.06 3.122-.775.467-1.574.978-2.556.901"/><path d="m788.72 306.15c-1.593.02-3.186.04-4.779.06.09-.781.166-1.565.274-2.344.113-.82.789-1.072 1.435-1.272 2.94-.911 4.188-3.066 4.545-5.96.41-3.318 1.351-6.477 3.133-9.337.862-1.383.871-2.952 1.076-4.481.019-.138-.062-.37-.169-.432-1.338-.781-1.044-2.213-1.378-3.393-.282-.997-.591-1.965-1.274-2.799-.859-1.05-1.066-2.274-.647-3.582.207-.646.486-1.278.617-1.939.166-.84.198-1.722-.718-2.213-1.831-.982-2.148-2.852-2.513-4.571-.23-1.084.121-2.287.183-3.438.026-.477.334-.535.697-.657 2.138-.719 2.339-.99 2.43-3.238.031-.762.264-1.407.897-1.862.565-.405.904-.927.768-1.634-.283-1.469.489-2.423 1.53-3.254 1.927-1.54 3.851-3.084 5.792-4.606 1.422-1.114 3.02-1.82 4.862-1.669 1.733.142 3.244-.653 4.859-1.01 2.639-.581 3.153-.281 4.129 2.158.309.772.99 1.13 1.74.951 1.339-.32 2.718-.187 4.062-.808 1.462-.676 3.212-.363 4.831-.548.911-.104 1.613.627 2.328 1.121.786.543 1.606.875 2.572.769.568 1.873.389 3.845.76 5.744-.344.268-.478.747-.926.911-1.284.47-2.782.098-3.958 1-.049.038-.173.03-.233-.006-1.466-.865-2.839.061-4.252.211-.563.06-.951.318-1.24.812-.574.98-1.307 1.296-2.495.88-2.156-.754-4.382.259-5.437 2.299-.465.898-1.093 1.657-1.81 2.365-1.438 1.423-1.968 3.1-1.103 5.01.649 1.433.659 2.637-.657 3.732-.708.589-.71 1.278.165 1.855.91.6 1.176 1.557 1.292 2.584.124 1.092-.227 1.916-1.312 2.253-1.063.331-1.804-.253-2.271-1.111-.603-1.108-1.438-1.141-2.427-.702-2.205.979-2.917 3.224-1.725 5.401.562 1.026 1.356 1.85 2.206 2.648 1.806 1.694 1.95 2.717.738 4.843-.393.689-.814 1.312-.083 2.031.742.73 1.688.989 2.52.473 1.455-.904 2.911-1.404 4.623-1.017.378.086.829.044 1.013-.429.17-.438-.041-.776-.354-1.062-.655-.599-1.239-1.269-1.578-2.086-.231-.556-.671-1.162-.142-1.791.507-.604 1.02-.016 1.534.006.718.031 1.457.632 2.158-.023.745-.697.893-3.255.314-4.153-.666-1.032-1.697-1.526-2.73-2.052-1-.512-1.063-.81-.154-1.364.902-.55.943-1.176.508-2.01-.4-.764-.498-1.482.237-2.156.818-.75 1.484-1.727 2.858-1.106 1.373.621 2.795.61 4.183.014 1.129-.485 2.112-.219 3 .524.325.271.656.401 1.079.426 2.803.164 5.54-.187 8.01-1.546 2.319-1.278 5.144-.269 6.599 1.187.423.423.964.814.48 1.515-.434.629-.858 1.188-1.803 1.09-3.332-.348-6.601.032-9.801 1.015-2.47.759-4.674 2.278-7.321 2.547-.424.043-.69.398-.741.839-.074.642-.025 1.272.218 1.885.273.687.366 1.389.071 2.099-.212.509-.589 1.056-.067 1.541.498.462 1.079.202 1.687.088 1.873-.353 3.644-1.172 5.578-1.224 1.989-.053 3.999.287 5.744-1.26.589-.522.864-.732.717-1.543-.358-1.98.181-2.807 1.818-3.141.803-.164 1.498.169 2.157.544 1.093.621 1.937 1.551 2.738 2.488 1.762 2.062 1.982 4.484.277 6.402-.255.287-.409.694-.521 1.072-.376 1.266-.41 2.584-.543 3.889-.26 2.558 1.445 4.21 3.965 3.818.274-.043.558-.017.838-.023.306 2.605-1.634 3.665-3.343 4.905-.961.697-2.231.846-3.044 1.814-.384.457-.8.884-1.102 1.404-1.66.083-3.298-.485-4.991-.021-.88.241-1.178.621-1.198 1.469-.014.585.375 1.171.006 1.752-1.796-.58-3.521-1.303-5.02-2.485-.273-1.421-.845-2.727-1.536-3.987-.709-1.293-.839-2.618-.329-4.02.27-.743.472-1.515.419-2.33-.034-.521-.264-.672-.772-.618-2.937.313-3.565 1.01-4.07 3.973-.258 1.517-.326 3.176-1.641 4.322-.473.046-.965.023-1.414.151-1.408.4-2.795.451-4.251.195-1.713-.301-3.459-.412-5.193-.586-.778-.078-1.417.088-1.674.977-.136.472-.504.988-.975.946-1.874-.166-3.538 1.02-5.408.767-.428-.058-.788.069-1.062.413-.611.769-1.508 1-2.388 1.247-1.815.499-3.662.788-5.552.748-.527-.009-1.083-.041-1.147.71m41.783-7.241c.01.641-.066 1.094.448 1.345.483.237.876.023 1.213-.251.302-.245.724-.578.746-.896.14-2.032.761-3.871 1.571-5.747.427-.99.385-2.204 1.195-3.133.656-.752.217-1.609-.51-1.673-1.235-.108-2.408-.635-3.701-.44-.814.123-.941.983-1.592 1.154-.772.203-.82.735-.817 1.378.003.538.193 1.015.339 1.511.67 2.273 1.946 4.447 1.108 6.752"/></g><path d="m790.9 181.95c.102-.642-.092-1.223-.703-1.606-.643-.402-1.126.026-1.634.344-.8.5-1.699 1.363-2.583.716-.802-.587-.271-1.683-.14-2.575.258-1.755 1.662-2.75 2.581-4.074 1.818-2.618 3.438-5.38 5.353-7.923 1.784-2.369 3.532-4.706 4.484-7.564.444-1.333 1.422-2.397 2.156-3.583.794-1.283 1.636-2.518 1.996-4.04.369-1.563 1.664-2.399 3.01-3.046.665-.319 1.157-.092 1.377.778.476 1.88 2.351 2.995 4.181 2.592.59-.13.879-.535.802-1.148-.06-.473-.194-.938-.224-1.412-.098-1.509.215-1.781 1.682-1.631 1.979.201 3.857.541 5.111 2.361.815 1.184.822 1.349-.581 1.653-.808.175-1.453.449-1.63 1.335-.082.411-.016.792.319 1.095.409.371.75.089 1.076-.119.975-.622 1.919-1.296 2.911-1.89.763-.457 1.565-.644 2.281.142.671.738.073 1.278-.229 1.923-.633 1.352-1.543 2.407-2.85 3.126-.9.496-.761 1.457-.865 2.235-.188 1.4.217 2.663 1.252 3.711 1.13 1.144 1.273 2.448.193 3.625-1.737 1.893-1.688 3.01.336 5.271 1.254 1.402 1.133 2.913-.426 3.965-.831.561-1.588.404-2.143-.444-.784-1.198-2.225-1.409-3.297-.471-.352.308-.301.724-.2 1.117.522 2.033-.535 3.546-1.694 4.988-.524.652-1.306.681-1.911.112-.75-.705-1.493-.634-2.294-.22-.673.348-1.321.743-1.991 1.097-.895.473-1.813.814-2.866.581-1.045-.23-1.82.602-1.377 1.567.931 2.03 1.01 4.056.376 6.176-.201.676-.127 1.423.032 2.138.349 1.561.115 3.08-.848 4.32-.912 1.174-1.174 2.488-1.423 3.862-.411 2.275-1.635 4.03-3.53 5.329-.066.045-.132.099-.206.12-.735.215-1.741.799-2.119-.051-.313-.705.125-1.742 1.082-2.144.714-.3 1.296-.791 1.894-1.245 1.599-1.216 1.389-2.706-.498-3.391-1.016-.369-1.675-1.021-2.141-1.957-.319-.641-.597-1.341-1.064-1.86-.933-1.036-2.252-1.057-3.306-.118-.825.736-1.748.921-2.776.66-.999-.254-1.884-.874-2.966-.887-.425-.005-.429-.395-.438-.724-.015-.543.215-.951.736-1.103.688-.201 1.388-.351 2.122-.299.924.065 1.661-.269 2.026-1.165.351-.862-.289-1.369-.818-1.816-1.608-1.359-2.473-3.329-3.994-4.756-.515-.484-.255-.803.291-1.072.954-.471 1.876-.251 2.78.087 1.896.708 3.1-.058 3.323-2.156.016-.158.001-.32.001-.533" fill="#493221"/><path d="m811.72 57.48c-1.581-.019-2.615.937-3.442 2.091-1.7 2.375-3.142 4.906-4.223 7.629-.182.457-.424.885-.835 1.147-2.181 1.39-3.142 3.531-3.703 5.927-.082.349-.185.694-.254 1.046-.227 1.15-.57 2.197-1.981 2.339-1.5.151-2.801-.243-3.65-1.551-.454-.7-.764-1.486-1.419-2.055-.495-.43-.152-.686.26-.863 1.455-.627 2.04-1.591 1.603-3.237-.298-1.125.09-1.38 1.268-1.169 2.413.432 3.292-.153 3.695-2.431.187-1.058-.242-1.827-.986-2.547-1.231-1.191-1.222-1.797.004-2.971.991-.95 1.837-1.967 2.337-3.277.454-1.19 1.283-2.085 2.459-2.659.681-.333 1.264-.871.942-1.707-.318-.826-1.127-.951-1.913-.876-1.113.106-1.86.686-2.044 1.838-.156.98-.677 1.503-1.698 1.452-.641-.032-1.241.218-1.65.617-2.364 2.306-5.03 4.388-6.297 7.586-.657 1.666-1.178 3.393-1.647 5.124-.369 1.361-.954 2.616-1.595 3.85-.228.438-.572.944-1.219.724-.543-.184-1.159-.506-1.024-1.154.33-1.586.074-3.189.262-4.77.17-1.427.838-2.641 1.679-3.78.379-.513.731-1.048 1.064-1.593 1.362-2.232.861-4.145-1.409-5.423-1.175-.662-1.863-.554-2.681.523-.302.397-.59.748-1.081.881-1.052.284-1.644-.142-1.431-1.189.233-1.15-.292-1.532-1.272-1.657 1.09-2.53 2.785-4.688 4.273-6.974.497-.764.957-1.552 1.469-2.305.637-.938 1.739-1.305 2.571-2.02 1.132-.967 2.614-1.51 3.448-2.845.454 1.989 1.659 3.682 4.296 2.508 1.404-.625 3.073-.719 4.592-.559 1.613.169 2.551 1.484 3.17 2.933.297.694.452 1.446.906 2.076.652.905 1.556 1.46 2.635 1.409 1.084-.051 2.02.413 3.03.563.316.047.473.235.621.494.136.238.332.444.514.654 2.397 2.766 2.417 3.109.356 6.197" fill="#9b6442"/><g fill="#493221"><path d="m832.52 38.07c.669.121 1.295.246 1.745.771.544.636 1.11 1.255 1.621 1.916.354.458.584 1.032.237 1.561-.335.511-.867.622-1.485.396-.476-.174-1-.113-1.275.373-.344.613.355.733.623.959 1.952 1.644 3.41 3.797 5.496 5.3.361.26.611.628.695 1.087.129.7.558 1.055 1.241 1.273 1.15.366 1.33.882.837 2-.129.293-.297.57-.4.871-.146.427-.001.789.357 1.055.424.315.647-.057.907-.284.555-.483.972-1.049 1.154-1.781.053-.214.152-.496.457-.472.284.022.333.29.431.509.309.687.194 1.415.234 2.129.049.871.362 1.347 1.395 1.339 2-.017 3.96-.392 5.932-.626 1-.119 1.998-.167 2.983-.09 1.657.13 2.404 1.301 2 2.952-.075.31-.114.637-.24.925-.403.921-.154 1.555.674 2.131 1.54 1.072 1.694 1.791.923 3.559-.37.85-.282 1.716-.132 2.586.052.303.288.664-.077.856-.314.166-.601-.122-.846-.317-.529-.422-1.051-.854-1.56-1.301-1.431-1.257-3-1.79-4.848-.977-.365.161-.757.264-1.111.444-.429.218-1.302.183-1.139.788.187.692 1.034.784 1.72.691.624-.085 1.633-.38 1.737.086.159.707-.837.842-1.423 1.111-1.539.706-3.103.591-4.634.035-.85-.308-1.908-.337-2.119-1.658-.077-.48-.721-1.13-1.515-.8-.633.263-.639.854-.609 1.432.038.728.436 1.054 1.149 1.11.492.038 1.304-.268 1.208.669-.091.889-.177 1.898-1.32 2.177-1.073.262-1.737-.173-2.01-1.279-.087-.347-.214-.7-.212-1.05.01-1.417-.804-2.2-2.01-2.666-.999-.385-1.839-.938-2.381-1.89-.712-1.251-1.892-2.046-2.964-2.926-1.445-1.188-1.717-2.735-1.495-4.433.134-1.023.478-2.01.452-3.066-.016-.646.315-.793.829-.399.57.436 1.099.926 1.687 1.334.431.299.94.539 1.406.036.426-.46.345-.944-.017-1.406-.344-.439-.635-.944-1.055-1.292-.734-.61-1.224-1.313-1.461-2.25-.279-1.104-1.122-1.73-2.203-1.681-1.052.047-1.376-.384-1.523-1.305-.207-1.299-1.27-2.194-1.712-3.403-.417-1.139-.474-2.161.398-3.117.615-.675.666-1.612 1.034-2.407.459-.987 1.271-1.376 2.218-1.585"/><path d="m701.23 220.48c-.131-.958-.143-1.915.007-2.872.603-.316.457-.744.179-1.192-.04-.252-.065-.501.1-.725.41-.141.356-.469.319-.791.181-.736.191-1.356-.334-2.07-.526-.716.209-1.464.502-2.17 1.489.048 1.661.235 1.452 1.577-.147.946.212 1.229 1.128.879.186-.071.362-.167.538-.261 1.019-.546 1.829-.389 2.373.692.484.962 1.061 1.889 1.436 2.892.527 1.41 1.336 2.599 2.309 3.728.806.934.605 2.186.671 3.296.089 1.501.218 2.916 1.229 4.14.493.597.183 1.74-.5 2.082-.94.471-1.189-.3-1.45-.912-.358-.842-.612-1.729-.988-2.562-.207-.459-.548-1.018-1.152-.833-.666.204-.49.819-.347 1.322.577 2.027-.186 4.01-.241 6.02-.033 1.196-1.453 1.682-2.318 2.42-.144-.042-.287-.084-.431-.127-.1-.328-.336-.375-.629-.304-.394-.098-.707-.296-.859-.694-.104-.536-.037-1.128-.514-1.54-.186-.877-.13-1.765-.117-2.651.268-.386.331-.728-.2-.945-.013-.165-.027-.33-.04-.495.237-.446.417-.883-.2-1.185-.014-.245-.028-.49-.042-.735.211-1.115-.194-2.038-.897-2.868-.057-.11-.115-.219-.172-.329-.23-.94-.184-1.962-.812-2.787"/><path d="m748.91 184.89c-.001-.518-.07-.994.317-1.31 1.861-1.524 2.731-3.817 4.32-5.544 1.074-1.167 2.421-2.12 3.326-3.396 1.099-1.55 2.956-1.748 4.254-2.867.759-.655 1.561-1.191 2.555-1.482.907-.265 1.371-1.088 1.658-1.928.278-.813.792-1.466 1.206-2.189.341-.595.81-.722 1.406-.631 1.383.211 2.703 2.46 2.1 3.708-.439.908-.77 1.831-.951 2.812-.159.858-.607 1.403-1.517 1.37-1.038-.038-1.263.825-1.722 1.44-.206.277-.316.734-.762.651-.504-.094-.333-.566-.345-.893-.017-.479-.136-.955-.614-1.052-.645-.131-.637.528-.722.893-.502 2.144-1.969 3.505-3.711 4.624-1.259.808-2.087 1.743-1.95 3.396.131 1.588-1.065 2.436-2.264 3.099-1.2.663-2.476 1.102-2.346 2.891.045.627-1.132.834-1.467.209-.446-.833-1.168-1.267-1.871-1.781-.698-.512-1-1.229-.9-2.02"/></g><g fill="#9b6442"><path d="m816.61 75.55c-.832-.042-1.656-.082-2.486-.242-1.345-.259-2.255-.965-2.706-2.235-.347-.977-.708-1.867-1.967-1.926-.428-.02-.578-.401-.506-.802.09-.502.469-.657.898-.527 1.1.332 2.218.134 3.327.177.576.022 1.225-.081 1.402-.679.208-.702-.497-.891-.965-1.16-.345-.198-.759-.311-1.048-.567-.55-.488-.944-1.209-.155-1.681 1.316-.787 1.958-1.8 1.803-3.333-.021-.209.157-.438.242-.658 1.383-.944 2.756-1.843 4.57-1.718 2.862.197 5.445 2.414 5.02 5.466-.075.534-.284.986-.501 1.452-3.156 1.634-5 4.309-6.04 7.618-.292.272-.587.544-.882.815"/><path d="m860.74 28.54c2.329 1.187 4.964 1.297 7.404 2.106 2.472.82 4.819 1.912 7.07 3.181 2.837 1.599 4.743 4.111 6.132 7 .776 1.614 1.769 2.906 3.504 3.558.961.361 1.759 1.088 2.197 1.959 1.298 2.581 2.799 5.105 3.07 8.08-.646-.546-1.064-1.219-1.386-2.02-.428-1.06-.653-2.218-1.404-3.141-.368-.452-.794-.92-1.377-.78-1.898.456-3.044-.511-3.912-1.976-.772-1.304-1.901-1.946-3.365-2.093-.997-.713-1.406-1.979-2.509-2.615-.51-.294-.967-.671-1.561-.791.075-1.516-.612-2.518-1.935-2.824-.862-.924-2.048-1.574-2.416-2.92-.054-.197-.298-.424-.5-.484-2.087-.624-3.572-2.18-5.291-3.372-.625-.434-1.284-.801-2.023-.989-.997-.254-1.608-.83-1.698-1.886"/></g><path d="m894.99 158.35c.1-.008.199-.017.299-.025 2.127 3.745 2.994 7.814 3.115 12.08 0 1.547 0 3.093 0 4.639-.001 1.776-.467 3.481-.992 5.141-.836 2.647-1.279 5.502-3.03 7.751-3.9 5.01-8.276 9.375-14.936 10.566-4.272.764-8.168-.046-11.818-2.285-1.24-.761-2.482-1.471-4.02-1.28.587-2.153 1.294-2.39 3.089-1.037.064.048.141.083.194.14 1.785 1.932 3.641 2.695 5.999.759.817-.671 2.118-.129 2.927.909 1.273 1.634 1.736 2.029 3.615.696.913-.648 2.138-.632 3.075-1.297.463-.329.64-.577.339-1.165-.512-1 .178-1.848 1.353-1.734.315.031.62.154.934.191 1.797.212 3.271-.168 4.588-1.642 1.536-1.72 3.407-3.144 3.94-5.553.112-.503.152-1.024.287-1.52.135-.497.19-1.124.62-1.404 1.853-1.206 1.922-3.202 2.304-5.04.863-4.15.799-8.333-.175-12.43-.512-2.158-1.372-4.24-1.709-6.456" fill="#653f2a"/><g fill="#493221"><path d="m711.2 130.23c.274-1.237.695-2.352 2-2.9.427-.179.787-.526 1.162-.817.641-.497.892-1.088.472-1.875-.395-.739-.312-1.366.29-2.052 1.625-1.852 2.418-4.182 3.447-6.372.166-.353.188-.791.665-.908.73.117 1.882-.17 2.062.574.302 1.246 1.23 2.237 1.095 3.685-.427 4.58-2.055 9.01-1.605 13.706.166 1.731-.952 2.515-2.329 1.995-.808-.305-1.042-.809-.885-1.679.512-2.828 1.328-5.572 2.155-8.314.191-.633.118-1.265.127-1.9.003-.206-.05-.415-.272-.481-.223-.066-.371.085-.483.261-.192.302-.455.583-.558.914-.647 2.077-1.941 3.837-2.801 5.807-.42.962-1.152 1.144-1.927.622-.871-.59-1.71-.523-2.617-.266"/><path d="m725.63 244.01c-2.8-.015-5.218-.971-7.178-2.991-1.415-1.458-2.793-2.951-4.191-4.425-.31-.327-.576-.692-.602-1.142-.029-.495-.226-1.089.342-1.414.489-.28.916.042 1.327.29 1.491.901 2.67 2.064 3.579 3.594 1.418 2.385 2.734 3.037 5.943 2.378 1.401-.288 2.821-.863 4.201-.78 2.063.123 3.929-.17 5.853-.905 1.227-.469 2.686-.026 4.02-.356.313-.078.645.049.782.407.119.309-.059.534-.254.745-.455.493-.925.947-1.242 1.582-.298.596-1.01.493-1.486.205-.522-.317-.873-.166-1.304.101-2.263 1.406-6.988 2.702-9.789 2.711"/><path d="m744.11 110.27c-.011-1.618.439-2.23 1.937-2.583 1.638-.386 3.01-1.271 4.294-2.293 1.877-1.495 3.937-2.404 6.378-2.267.703.039 1.342-.172 1.961-.457.37-.17.74-.296 1.153-.261.774.066 1.302.57 1.462 1.221.152.618-.444.987-.99 1.159-1.01.318-1.648.999-2.258 1.839-.956 1.317-2 2.578-3.118 3.766-1.45 1.549-2.928 1.687-4.68.47-.931-.647-1.707-.685-2.576.072-.861.749-1.942.663-2.971.533-.724-.093-.558-.753-.592-1.199"/></g><path d="m858.34 72.33c.153.463.53.511.948.57.796.112 1.233.715 1.529 1.373.319.709-.391 1-.768 1.314-1.715 1.418-3.405 2.85-5.862 2.884-.814.011-1.636.576-2.425.952-1.309.624-2.684 1.125-4.116 1.101-1.691-.027-3.101.412-4.387 1.512-.936.801-1.663.564-2.258-.552.107-.486.306-.931.602-1.333 2.255-.669 3.674-2.05 3.778-3.677.315-.101.629-.203.944-.304.92.175 1.456-.138 1.451-1.141l.004-.004c2.284.267 4.351-.794 6.544-1.06 1-.122 1.842-.394 2.387-1.289.543-.115 1.086-.231 1.629-.346" fill="#9b6442"/><path d="m878.67 44.42c1.464.147 2.593.789 3.365 2.093.867 1.465 2.01 2.432 3.912 1.976.583-.14 1.01.329 1.377.78.751.923.976 2.081 1.404 3.141.322.797.74 1.47 1.386 2.02.426.832.427 1.719.343 2.618-.542.281-.375.813-.466 1.265-.165.823-.85 1.126-1.345.54-.681-.807-1.635-1.534-1.765-2.63-.197-1.663-1.259-2.203-2.65-2.614-.872-.258-1.361-.047-1.741.718-.341.686-.777 1.299-1.568 1.537-.303-.691-.563-1.403-1.024-2.02-1.264-1.676-.748-3.655-.913-5.514-.116-1.302.181-2.637-.315-3.91" fill="#653f2a"/><path d="m748.21 282.88c-.308-.097-.437-.349-.541-.624-.149-.584-.299-1.168-.448-1.753 1.986-.169 3.619.752 5.233 1.713 1.189.708 2.247 1.655 3.67 1.927.324.062.564.326.658.644.824 2.786 2.282 5.336 3.035 8.147.081.303.097.624.142.937-.321-.008-.642-.015-.963-.023-.106-.463.271-1.062-.386-1.371-.4-.397-.902-.265-1.366-.228-.78.062-1.42-.124-1.847-.823-.031-.318-.246-.396-.519-.399-.444-.301-.563-.691-.316-1.177.664-.712.383-1.248-.318-1.707l-.033-.033c-.182-.439-.435-.734-.962-.478-.275.01-.549.025-.824.028-1.379.016-1.599-.223-1.547-1.677.27-.481-.018-.732-.39-.949-.604-.582-1.209-1.164-1.813-1.746-.031-.276-.196-.402-.465-.408" fill="#493221"/><path d="m880.93 55.859c.791-.238 1.227-.851 1.568-1.537.381-.765.869-.976 1.741-.718 1.39.411 2.453.951 2.65 2.614.13 1.096 1.084 1.823 1.765 2.63.495.587 1.181.283 1.345-.54.09-.452-.077-.983.466-1.265.538.758.645 1.685.97 2.526.317.821.644 1.639 1.256 2.272 1.325 1.371 1.46 2.891.701 4.565-.484-.334-.929-.707-1.515-.902-1.171-.39-2.047-1.166-2.679-2.238-.686-1.163-1.469-2.25-2.469-3.182-1.259-1.173-2.653-1.86-4.417-1.532-1.475-.377-1.474-1.512-1.382-2.693" fill="#9b6442"/><path d="m755.59 114.81c-.126.457-.295.732-.73.79-3.657.487-5.716 3.257-8.04 5.647-.081.084-.112.216-.191.303-.317.351-.744.906-1.15.568-.453-.378-.088-.93.289-1.346.264-.291.499-.625.676-.976.601-1.186.406-1.696-.888-1.971-1.985-.422-1.713-1.199-1.662-2.707.022-.635.453-.832 1.01-.538 1.133.598 2.26.703 3.446.149.229-.107.608-.133.814-.015 1.766 1.012 3.465.471 5.174-.148.471-.17.975-.365 1.25.244" fill="#493221"/><path d="m706.12 244.96c-.525-.767.209-1.452.141-2.189.229-.474-.045-.724-.415-.931-.256-.205-.395-.475-.437-.797.049-.288.016-.537-.311-.642-.351-1.414-.119-2.654 1.08-3.603.499 1.487 1.285 2.792 2.35 3.955.782.854.806 2.061 1.164 3.103.173.503-.487.879-.888 1.175-.756.557-.86 1.183-.418 1.971.234.418.426.859.65 1.283.724 1.369 1.191 2.777.703 4.341-.177-.155-.355-.311-.533-.466-.062-.19-.125-.38-.187-.571.022-.465-.06-.881-.532-1.109-.064-.188-.128-.376-.192-.563.029-.469-.054-.885-.528-1.117-.064-.188-.128-.376-.192-.563.029-.469-.054-.885-.528-1.117-.064-.188-.127-.375-.191-.563.012-.651-.237-1.182-.736-1.597" fill="#5f3c28"/><g fill="#493221"><path d="m702.44 206.4c-.186.057-.369.121-.557.169-1.651.423-1.848.295-2.215-1.426 1.122-.074 1.729-.887 2.059-1.762.504-1.336 1.597-2.174 2.425-3.223.464-.588 1.161-.481 1.49.34.252.629.524 1.256.696 1.908.22.833.042 1.535-.742 2.082-1.012.709-2.265 1.012-3.156 1.912"/><path d="m856.71 72.68c-.546.895-1.383 1.167-2.387 1.289-2.193.266-4.26 1.327-6.544 1.06.087-.545.156-1.094.266-1.635.206-1.012 1.066-.922 1.785-.979 2.301-.183 4.582.276 6.88.265"/></g><path d="m817.5 74.74c1.044-3.31 2.888-5.984 6.04-7.618-.324 1.395-.791 2.703-1.974 3.643-.961.764-1.92 1.518-2.32 2.79-.244.776-.929 1.139-1.75 1.185" fill="#653f2a"/><g fill="#493221"><path d="m699.05 200.08c-.472-1.234-.829-2.485-.569-3.827.873-.003 1.747-.007 2.62-.008.447 0 .928.028 1.149.466.249.495-.068.93-.37 1.296-.508.617-1.09 1.159-1.864 1.436-.376.136-.736.285-.966.637"/><path d="m780.11 153.32c.131.895-.318 1.012-1.116.669-1.032-.443-1.637-1.862-1.253-2.936.174-.488.51-.418.869-.308.9.273 1.501 1.272 1.5 2.575"/><path d="m845.38 76.48c-.103 1.627-1.522 3.01-3.778 3.677.382-2.141 1.503-3.233 3.778-3.677"/></g><g fill="#653f2a"><path d="m746.77 280.41c-.664.031-1.329-.16-1.997.019-.175.047-.51.041-.555-.049-.645-1.29-1.929-.896-2.959-1.156 1.32-.087 2.714-.752 3.824.615.41.505 1.309-.185 1.687.571"/><path d="m872.67 38.19c1.323.305 2.01 1.308 1.935 2.824-1.031-.011-1.622-.458-1.657-1.56-.012-.424-.181-.843-.278-1.264"/><path d="m712.38 258.95c-1.033-.142-1.182-.948-1.322-1.76 1.13.068 1.327.838 1.322 1.76"/><path d="m713.82 262.28c-.588-.811-1.465-1.493-1.192-2.686.789.722.906 1.741 1.192 2.686"/><path d="m735.95 277.22c-1.125-.269-2.195-.687-3.229-1.199 1.186.104 2.26.511 3.229 1.199"/></g><path d="m847.77 75.03c.005 1-.531 1.316-1.451 1.141.258-.668.674-1.134 1.451-1.141" fill="#493221"/><g fill="#653f2a"><path d="m732.11 275.8c-.903-.194-1.776-.474-2.606-.882.975-.021 1.844.273 2.606.882"/><path d="m771.95 303.85c-.744-.159-1.407-.482-1.982-.981.782.081 1.44.413 1.982.981"/></g><path d="m859 27.844c.557-.143 1.025-.019 1.372.462-.601.275-1.112.281-1.372-.462" fill="#9b6442"/><g fill="#653f2a"><path d="m747.22 280.5c.149.584.299 1.168.448 1.753-.542-.481-.581-1.193-.833-1.808.128.018.256.037.385.055"/><path d="m727.31 274.3c-.498.028-.931-.157-1.342-.413.522-.105.98-.001 1.342.413"/><path d="m728.99 274.77c-.437.053-.815-.108-1.174-.329.478-.199.845-.003 1.174.329"/><path d="m740.75 279.09c-.499.04-.928-.136-1.321-.426.509-.07.962.033 1.321.426"/><path d="m773.87 304.54c-.492.011-.924-.154-1.314-.444.51-.065.967.027 1.314.444"/><path d="m775.55 305.01c-.426.022-.832-.032-1.178-.311.48-.228.846-.021 1.178.311"/><path d="m709.21 252.16c.178.155.356.311.533.466.001.178.003.356.004.534-.361-.236-.463-.61-.537-1"/><path d="m738.83 278.4c-.417-.013-.765-.182-1.062-.468.455-.073.823.052 1.062.468"/><path d="m766.17 299.67c-.324-.134-.553-.363-.686-.686.433.025.661.253.686.686"/><path d="m776.75 305.31c-.258.069-.478-.021-.687-.161.298-.238.531-.203.687.161"/><path d="m710.3 255.01c-.114-.222-.163-.451-.069-.694.313.203.331.434.069.694"/><path d="m777.71 305.48c-.172.083-.319.032-.455-.083.202-.248.34-.145.455.083"/><path d="m710.1 253.81c-.073-.147-.145-.293-.218-.439.271.049.445.145.218.439"/><path d="m710.64 256.6c-.195-.154-.268-.354-.221-.598.282.123.33.332.221.598"/><path d="m769.3 302.45c-.244.006-.403-.105-.469-.342.259-.026.424.076.469.342"/><path d="m768.34 301.76c-.244-.017-.402-.137-.455-.382.267-.01.43.103.455.382"/><path d="m714.54 263.48c-.22-.101-.327-.272-.321-.514.285.061.378.241.321.514"/><path d="m715.29 264.63c-.239-.065-.339-.226-.322-.467.254.054.354.215.322.467"/><path d="m764.03 297.7c-.232-.041-.413-.142-.47-.393.279-.015.441.11.47.393"/><path d="m762.59 296.5c-.233-.04-.402-.154-.453-.4.278-.011.43.121.453.4"/><path d="m716 265.61c-.225-.079-.367-.225-.377-.475.287.031.4.199.377.475"/><path d="m760.89 294.86c-.241-.05-.365-.2-.381-.443.274.022.394.176.381.443"/><path d="m716.72 266.55c-.25-.059-.365-.23-.392-.473.281.035.407.196.392.473"/><path d="m720.1 269.85c-.242-.018-.401-.135-.456-.378.269-.015.43.099.456.378"/><path d="m721.56 271.05c-.241-.023-.41-.134-.465-.382.273-.017.429.11.465.382"/><path d="m722.74 271.98c-.235-.012-.402-.112-.455-.356.261-.02.422.086.455.356"/><path d="m737.15 277.68c-.235.028-.439-.03-.592-.221.267-.112.474-.065.592.221"/></g><path d="m844.41 294.41c-.279.006-.564-.02-.838.023-2.52.392-4.225-1.261-3.965-3.818.133-1.304.167-2.622.543-3.889.112-.378.266-.785.521-1.072 1.704-1.918 1.484-4.34-.277-6.402-.801-.938-1.644-1.867-2.738-2.488-.659-.375-1.354-.707-2.157-.544-1.637.334-2.176 1.161-1.818 3.141.147.812-.128 1.021-.717 1.543-1.745 1.547-3.755 1.207-5.744 1.26-1.934.052-3.705.871-5.578 1.224-.608.114-1.189.375-1.687-.088-.522-.485-.145-1.032.067-1.541.295-.71.202-1.412-.071-2.099-.243-.612-.292-1.243-.218-1.885.051-.441.317-.796.741-.839 2.646-.268 4.85-1.788 7.321-2.547 3.2-.983 6.469-1.364 9.801-1.015.945.099 1.369-.461 1.803-1.09.484-.701-.057-1.092-.48-1.515-1.455-1.457-4.28-2.465-6.599-1.187-2.467 1.359-5.203 1.71-8.01 1.546-.423-.025-.754-.155-1.079-.426-.892-.743-1.874-1.01-3-.524-1.389.597-2.81.607-4.183-.014-1.374-.621-2.04.355-2.858 1.106-.735.674-.637 1.393-.237 2.156.435.829.394 1.456-.508 2.01-.909.554-.851.853.154 1.364 1.033.526 2.065 1.02 2.73 2.052.579.898.432 3.456-.314 4.153-.701.655-1.44.054-2.158.023-.514-.022-1.026-.61-1.534-.006-.529.63-.089 1.235.142 1.791.34.817.923 1.487 1.578 2.086.313.286.524.624.354 1.062-.184.473-.635.514-1.013.429-1.712-.387-3.168.113-4.623 1.017-.832.517-1.778.257-2.52-.473-.731-.719-.31-1.342.083-2.031 1.213-2.126 1.068-3.149-.738-4.843-.851-.798-1.644-1.622-2.206-2.648-1.193-2.177-.48-4.422 1.725-5.401.989-.439 1.824-.407 2.427.702.467.858 1.208 1.442 2.271 1.111 1.085-.337 1.436-1.161 1.312-2.253-.116-1.027-.382-1.984-1.292-2.584-.875-.577-.874-1.266-.165-1.855 1.316-1.095 1.306-2.299.657-3.732-.866-1.91-.335-3.587 1.103-5.01.716-.709 1.345-1.467 1.81-2.365 1.055-2.039 3.281-3.053 5.437-2.299 1.189.416 1.921.101 2.495-.88.289-.494.677-.752 1.24-.812 1.413-.15 2.786-1.077 4.252-.211.06.036.184.043.233.006 1.176-.906 2.674-.533 3.958-1 .449-.164.582-.644.926-.911.831-.114.957-.685.948-1.391-.014-1.119.095-2.217.624-3.244.289-.562.739-.892 1.32-.84.686.061.609.718.691 1.205.584 3.492.864 7.01.881 10.55-2.423.171-4.828-.474-7.296.404-2.951 1.049-6.176 1.164-9.171 2.174-.587.198-1.117.451-1.484.954-.651.894-.562 1.902-.273 2.865.201.671.852 1.035 1.512.945.769-.105 1.543-.217 2.273-.641 1.791-1.039 3.575-2.191 5.69-2.424 3-.331 6.01-.666 9.03-.708.772 1.723 1.454 2.031 3.642 1.642 1.351-.24 2.04.247 2.153 1.583.159 1.89.772 3.746.283 5.689-.194.773-.617 1.364-1 2.01-.623 1.046-.375 2.196.71 2.594 3.844 1.412 4.973 4.448 4.928 8.153-.042 3.434-.555 6.818-1.443 10.138-.079.288-.047.657-.379.844" fill="#9b6442"/><path d="m835.51 261.76c-3.03.042-6.03.377-9.03.708-2.115.233-3.899 1.386-5.69 2.424-.73.424-1.505.536-2.273.641-.66.09-1.31-.274-1.512-.945-.289-.963-.378-1.971.273-2.865.367-.503.897-.756 1.484-.954 2.995-1.01 6.22-1.125 9.171-2.174 2.468-.878 4.872-.233 7.296-.404.346 1.17.348 2.367.284 3.569" fill="#653f2a"/><path d="m830.74 305.74c.369-.581-.02-1.167-.006-1.752.02-.848.318-1.228 1.198-1.469 1.694-.464 3.331.105 4.991.021-.315 1.185-.674 2.34-1.822 3.03-.204.122-.353.32-.346.588-1.107-.012-2.214-.024-3.32-.036-.19-.203-.585-.031-.695-.381" fill="#9b6442"/><g fill="#653f2a"><path d="m702.22 223.6c.702.83 1.108 1.752.897 2.868-.3-.956-.598-1.912-.897-2.868"/><path d="m701.23 220.48c.628.825.582 1.847.813 2.789-.603-.833-.829-1.776-.813-2.789"/><path d="m754.24 288.14c.7.458.982.994.318 1.707.221-.63-.05-1.169-.318-1.707"/><path d="m706.12 244.96c.499.415.748.946.735 1.597-.371-.474-.631-1-.735-1.597"/><path d="m703.71 232.48c.477.411.41 1 .514 1.54-.473-.413-.554-.957-.514-1.54"/><path d="m758.61 292.48c.657.308.279.908.386 1.371-.507-.351-.353-.887-.386-1.371"/><path d="m703.15 227.2c.617.302.437.739.2 1.185-.159-.379-.267-.767-.2-1.185"/><path d="m701.42 216.42c.279.448.424.876-.179 1.192-.073-.417-.009-.814.179-1.192"/><path d="m708.49 250.48c.472.228.554.643.532 1.109-.307-.307-.464-.687-.532-1.109"/><path d="m707.77 248.8c.474.231.557.647.528 1.117-.303-.313-.459-.694-.528-1.117"/><path d="m707.05 247.12c.474.231.557.647.528 1.117-.303-.312-.459-.694-.528-1.117"/><path d="m753.25 287.63c.527-.256.78.039.962.478-.32-.16-.641-.319-.962-.478"/><path d="m705.85 241.84c.37.207.644.457.415.931-.138-.31-.277-.621-.415-.931"/><path d="m703.39 228.88c.531.217.468.559.2.945-.136-.3-.285-.598-.2-.945"/><path d="m750.48 285.04c.372.217.66.469.39.949-.129-.316-.259-.633-.39-.949"/><path d="m701.84 214.9c.037.321.092.65-.319.791.035-.293.031-.601.319-.791"/><path d="m754.87 291.03c.273.003.488.081.519.399-.249-.035-.463-.114-.519-.399"/><path d="m705.09 234.71c.293-.071.529-.024.629.304-.255-.008-.473-.093-.629-.304"/><path d="m705.1 240.4c.328.106.36.354.311.642-.217-.159-.283-.391-.311-.642"/><path d="m748.21 282.88c.27.006.434.132.466.409-.251-.028-.38-.195-.466-.409"/><path d="m895.22 157.85c-.43-.141-.474-.381-.184-.709.154.212.226.446.184.709"/><path d="m894.74 156.41c-.332-.087-.387-.33-.349-.624.235.142.369.34.349.624"/></g><path d="m870.48 93.28c-.71-.071-1.672-.1-2.603-.283-.622-.122-1.188-.511-1.352-1.196-.202-.842-.724-1.434-1.421-1.846-1-.593-.682-1.091.034-1.593 1.471-1.032 2.899-2.11 4.119-3.443.299-.327.637-.631.765-1.058.325-1.084 1.148-1.492 2.159-1.58 2.04-.178 3.7-1.012 5.123-2.506 1.746-1.832 5.207-1.362 6.622.755.454.679.433 1.297-.015 1.875-.982 1.267-1.665 2.62-1.572 4.273.025.444-.182.87-.57.97-1.693.437-2.603 1.925-3.932 2.844-1.493 1.032-5.847 2.792-7.357 2.788" fill="#1f1e1b"/><g fill="#9b6442"><path d="m861.95 113.97c-.003-.842.164-1.498.72-1.865.56-.368.9.201 1.304.514.638.493 1.26.668 2.034.051 1.063-.847 2.457-.527 3.677-.603 1.792-.112 3.423-.221 4.446-1.968.167-.286.587-.569.926-.339.45.306.581.856.481 1.379-.057.296-.285.563-.454.832-.55.874-.674 1.709.209 2.454.94.793.25 1.014-.431 1.134-1.414.249-2.808.554-4.176 1-1.082.353-1.753 1-2.024 2.127-.237.983-.949 1.564-1.937 1.694-.939.124-1.167-.683-1.472-1.319-.187-.391-.363-.806-.436-1.229-.225-1.319-.901-2.273-2.128-2.817-.538-.237-.857-.589-.739-1.045"/><path d="m848.78 118.24c-1.929.01-2.415-.65-1.794-2.57.233-.721.054-1.345-.584-1.787-.621-.431-1.276-.813-1.885-1.26-.891-.654-.869-1.096-.024-1.795.764-.633 1.492-1.31 2.236-1.967.769-.68 1.594-.638 2.297.113.572.61 1.182 1.189 1.71 1.834.364.445.603.965-.375.956-.433-.004-.916-.059-1.084.504-.153.511.188.818.502 1.13.283.281.57.558.844.847.654.691 1.19 1.528.858 2.453-.398 1.111-1.384 1.58-2.701 1.542"/></g><path d="m866.08 108.16c-1.609.02-3.496-1.616-3.506-3.16-.006-.954.978-.938 1.568-1.094 1.043-.274 3.182 1.087 3.511 2.068.498 1.48.005 2.166-1.573 2.186" fill="#1f1e1b"/><g fill="#9b6442"><path d="m855.63 103.6c-.357.001-.717.028-1.071-.007-.406-.04-.952.216-1.166-.314-.233-.577.067-1.089.458-1.51.565-.61 3.197-.858 3.838-.343.447.359.765.854.596 1.457-.165.585-.659.735-1.225.718-.478-.012-.954-.001-1.43-.001"/><path d="m830.51 298.91c.839-2.305-.438-4.479-1.109-6.75-.146-.496-.337-.973-.339-1.511-.003-.644.045-1.175.817-1.378.651-.171.778-1.031 1.592-1.154 1.293-.195 2.466.332 3.701.44.727.064 1.166.921.51 1.673-.81.929-.767 2.143-1.195 3.133-.81 1.876-1.43 3.715-1.571 5.747-.022.318-.444.65-.746.896-.337.274-.73.487-1.213.251-.513-.253-.437-.706-.447-1.347"/><path d="m825.72 303.25c-1.993-.262-3.777-1.122-5.564-1.963-.758-.357-1.519-.661-2.365-.701 1.315-1.145 1.383-2.804 1.641-4.322.504-2.967 1.133-3.66 4.07-3.973.508-.054.739.097.772.618.053.816-.15 1.587-.419 2.33-.51 1.404-.38 2.73.329 4.02.691 1.26 1.264 2.566 1.536 3.988"/></g></svg>