<svg xmlns="http://www.w3.org/2000/svg" width="353.78" viewBox="184.924 373.596 353.777 228.021" enable-background="new 184.924 373.596 353.777 228.021"><path onclick="notify(this, &quot;select&quot;);" d="m393.82 373.6c2.7.9 5.8.5 8.7.8 9.7.8 19.2 2.2 28.6 4.3 17.9 4 27.5 10.5 29.5 20.7.5 2.5 1 5.2 1.6 7.8.5 2.2 2 4.5 6.4 5.7 20.5 5.5 29 15.2 37.3 26.2 13 17.2 23.2 37 30.3 59.6 6 19.3.2 37.1-7.8 56.2-2 4.8-4.5 9.5-6.5 14.6-11.2 29.9-43.8 35.5-83.1 30.5-14-1.8-26.2-7.7-34.8-19.3-.7-.9-1.4-1.8-2.3-2.5-22.4-18.1-19.1-35.5-9.5-51.6 8.3-14.1 18.9-25.5 28.7-36.2 7.5-8.2 14.6-15.9 19.5-24 5.5-9.2 5.2-18.7.8-27.9-2.4-5.1-6.9-7-15.5-7.2-4-.1-8 0-12.1 0-9-.2-13.9-2.3-17-7-4.2-6.4-2.3-11.9 2-16.9 2-2.3 4.2-4.5 5.5-6.8 3.1-5.6-3.1-10.3-14.8-11.7-5.7-.7-11.5-1-17.2-1.5-2.8-.3-5.7-.5-8.3-1.1-5.6-1.2-8.9-3.2-9-6-.1-2.7 3.6-4.1 8.4-5 4.3-.9 8.9-1.1 13.5-1.3 1.4-.1 3.1.3 4-.4 4.5 0 8.8 0 13.1 0" fill="#88a815"/><path onclick="notify(this, &quot;select&quot;);" d="m294.32 405.3c.8-3.2 2.9-7.8 6.1-12.1 1.6-2.1 4.3-3.3 8.9-3.7 12-1 23.9-1.6 35.8-1 7.4.4 11.1 3.1 14 6 4.3 4.4 3.7 9.4 2.4 14.5-3.1 12-12.1 24.6-20 39.1-5.8 10.6-12 22.1-14 35.4-1.1 7.9 3 9.9 13.2 5.8 9-3.6 17.2-7.8 25.8-11.3 3.4-1.4 7.2-3.4 11.8-1.7 4.9 1.8 3.8 5.3 3.9 8.2.7 13.7-7.3 24.9-25.1 32.6-21.5 9.3-44.4 11.8-66.7 5.4-17.8-5.1-20.8-15-10-28 8.9-10.7 20-19.6 29.2-28.4 12.9-12.3 24.7-23.5 30.2-35.1 3.1-6.6 3.5-12.8.8-18.7-1.2-2.7-3.8-3-7.8-1.5-4.7 1.8-9.3 3.8-14 5.9-4.4 1.9-8.8 4-14 5.5-8.3 2.4-12.4 1.2-13.1-3.3-.4-4.1 1.2-8.1 2.6-13.6" fill="#3a92ba"/><path onclick="notify(this, &quot;select&quot;);" d="m189.82 455.2c6.1-3.9 8.7-8.3 13.4-12.1 5.3-4.3 10-8.5 14.9-12.5 11.1-9 25.8-13.6 41.9-16.1 10.2-1.6 15.8.2 17.4 5.4 2.3 7.2.1 15.2-4.4 23.8-6.6 12.6-17 26.2-29.7 41.1-4.2 4.9-9.6 9.6-16 14-8.1 5.6-16.8 7.7-22.9 5.2-6.4-2.6-4.7-7.7-1.5-12.9 9.9-15.7 18.7-29.8 24.4-42.5 1.3-3 4.5-7.3.6-8.1-4.2-.8-7.8 3.6-11.6 5.8-7.5 4.3-14.8 9-22.7 13.8-2.6 1.6-5.3 3.6-8.7 2.8 1.6-2.6 3.3-5.2 4.9-7.7" fill="#e35f1c"/></svg>