<svg xmlns="http://www.w3.org/2000/svg" width="116.66" height="89.6" viewBox="-89.364 1200.2 116.655 89.601" enable-background="new -89.364 1200.2 116.655 89.601"><path d="m-65.21 1243.95c-1.85-1.425-3.544-3.137-6.08-3.299-.344-.557-.688-1.114-1.032-1.672 2.478-.101 5.163.38 7.393-.416 5.524-1.973 10.396.016 14.843 2.411 4.776 2.573 8.245 6.836 10.02 12.207.968 2.92 4.255 3.037 5.981 2.863 1.559-.157.626-2.775-.439-4.459-.817-1.293-.885-3.176.229-4.691 1.437-.427 3.902-.131 3.319-2.488-1.183-4.78-.356-9.934-2.855-14.486-.401-.73 1.096-.874 1.832-1.092 1.57 1.487 1.554-.817 2.42-1.012 1.533.207 2.056 1.098 2.328 2.621.794 4.45.887 4.354 5.22 4.276.509-.009 1.044 1.436 1.567 2.207.06.355.121.711.181 1.066-.887 2.846.154 3.792 2.958 3 .003.994.006 1.988.009 2.982-3.112.768-7.352-.136-8.482 3.861-.551 1.951-2.071 3.357-2.318 4.816-.531 3.141-4.912 5.254-2.853 8.592 1.3 2.107 3.108 3.488 1.933 6.354-.406.991 1.152 1.336 2.127 1.53-.167.608-.334 1.216-.501 1.822-2.442.249-.187 2.208-1.097 3.02-2.764.374-4.692-2.235-7.397-2.072-3.178-6.34-8.443-10.536-14.397-14.03-1.541-3.432-3.133-5.939-7.984-5.452-2.773.279-6.253.069-9.445-.766.811-1.671 1.875-1.548 2.822-1.75 2.653-.565 6.04-1.552 5.689-4.404-.352-2.841-3.908-1.043-5.996-1.542m17.231 7.416c-1.151-.048-1.292 1.06-1.315 2.27-.033 1.774.105 3.369 2.532 3.324 1.639-.03 2.353-.756 2.449-2.394.136-2.333-1.594-2.577-3.666-3.2" fill="#6db142"/><path d="m-17.314 1243.97c-.003-.994-.006-1.988-.009-2.982 2.832-1.77 6.549-1.852 8.838-4.68.757-.936 1.689-1.232 2.062.295.876 3.587 1.937 1.353 2.943.126 1.151-1.405 2.642-1.793 4.391-1.758 3.622.071 7.245.044 10.868.058-3.554 2.894-8.161 3.65-12.03 5.923-2.243 1.318-4.921 1.973-6.776 4.845 12.441-1.833 24.366-2.586 34.32 5.629-.098.457-.195.915-.293 1.372-5.103 0-10.206 0-15.309 0 2.319-3.948 6.606-.883 9.684-3.063-4.207-.047-7.541-2.867-11.822-2.835-3.484.026-3.074 3.119-4.118 4.768-.896 1.417 1.41 1.01 2.331 1.352-.967 1.069-3.681 1.95-.198 3.395 1.578.655 3.419 1.366 3.264 3.684-1.936 2.199-.619 4.826-.947 7.237-4.409-1.495-8.818-2.989-13.227-4.484-.773-3.113-2.703-6.01-4.418-8.233-1.451-1.886.041-4.728-2.585-5.595-1.648-.037-3.297-.074-4.945-.111-.139-1.868-2.647-2.764-2.02-4.943" fill="#96c457"/><g fill="#81bb48"><path d="m-34.29 1246.89c-1.114 1.515-1.047 3.397-.229 4.691 1.064 1.684 1.998 4.301.439 4.459-1.726.174-5.01.058-5.981-2.863-1.78-5.371-5.249-9.634-10.02-12.207-4.447-2.396-9.319-4.384-14.843-2.411-2.229.796-4.915.316-7.393.416-2.268.232-4.603-.541-6.82.453-1.113 0-2.225-.001-3.337 0-2.692-1.025-.799-2.929-.854-4.459 0 0 .023-.017.023-.016 6.214.193 12.268-3.07 18.73-.357 1.637.687 4.234-.947 6.307 1 .854.804 1.855-.308 1.99-1.408.529-4.302 2.871-3.768 5.784-1.648.405-4.372-2.734-4.49-5.05-5.287-2.547-.878-5.178-1.512-7.773-2.252 1.222-.074 1.966-.643 2.01-1.938 4.125-.926 7.706.679 11.143 2.575 4.667 2.575 9.05 5.55 11.903 10.257-.298.99-1.554 2.497.108 2.85 5.088 1.078 3.651 4.935 3.864 8.141"/><path d="m-17.314 1243.97c-.626 2.179 1.882 3.075 2.02 4.941 1.558 4.089 3.272 1.189 4.945.111 2.626.867 1.134 3.709 2.585 5.595 1.715 2.229 3.645 5.12 4.418 8.233-1.985-.019-3.971-.038-5.956-.057.62-4.28-2.278-3.93-5.01-3.802-1.362-1.953-2.724-3.906-4.086-5.859.63-.428 1.467-.713 1.371-1.683-.014-.146-.49-.35-.752-.35-1.264 0-1.435.973-1.615 1.917-1.647 3.231-.648 6.141 1.085 8.963.451.875 1.313.97 2.141 1.128-4.165.964-7.591 3.249-10.746 6.02-.975-.195-2.533-.539-2.126-1.53 1.175-2.866-.633-4.247-1.933-6.354-2.06-3.339 2.322-5.451 2.853-8.592.247-1.459 1.767-2.866 2.318-4.816 1.13-3.999 5.371-3.095 8.482-3.863"/><path d="m-65.21 1243.95c2.088.499 5.644-1.299 5.997 1.542.355 2.852-3.036 3.84-5.689 4.404-.947.202-2.01.079-2.822 1.75 3.192.835 6.673 1.045 9.445.766 4.852-.488 6.443 2.02 7.984 5.452-1.021-.028-2.042-.056-3.063-.083-2.696-1.156-5.538-.866-8.35-1.133-4.59-.436-8.142 3.147-12.589 2.34-.327-1.538 2.14-3.329.149-4.432-1.469-.814-2.333 1.384-3.463 2.239-.916.693-1.781 1.453-2.668 2.184-1.714-1.98.742-3.968-.012-5.95l.029-.033c1.377-.083 1.958-.819 1.786-2.174 0 0 .014.029.014.03.336-.354.671-.709 1.01-1.064 0 0-.024.007-.024.008 4.169.978 6.63-1.045 8.189-4.656 1.702.774 2.936-.055 4.081-1.19"/></g><g fill="#96c457"><path d="m-34.29 1246.89c-.213-3.206 1.224-7.06-3.864-8.143-1.662-.353-.406-1.859-.108-2.85 2.222-2.532.784-5.32.404-7.941-1.334-9.215-2.849-18.404-3.706-27.76 5.72 8.711 7.274 18.795 9.569 28.628-.736.218-2.233.362-1.832 1.092 2.5 4.551 1.672 9.706 2.855 14.486.584 2.356-1.881 2.06-3.318 2.488"/><path d="m-63.32 1225.01c2.595.74 5.226 1.375 7.773 2.252 2.312.796 5.45.914 5.05 5.287-2.913-2.12-5.255-2.654-5.784 1.648-.135 1.1-1.136 2.211-1.99 1.408-2.072-1.952-4.67-.317-6.307-1-6.463-2.713-12.516.551-18.73.357 3.285-3.972 7.919-4.568 12.6-4.925.803-.061 1.683.301 2.1-.612.469-1.027-.444-1.28-1.107-1.764-1.027-.749-2.532-.882-3.059-2.29 3.105-1.426 6.353 1.018 9.458-.357"/><path d="m-20.462 1236.92c-.523-.771-1.058-2.216-1.567-2.207-4.332.078-4.425.174-5.22-4.276-.272-1.523-.795-2.414-2.328-2.621 1.169-4.767 3.869-8.699 6.945-12.378.644-.77 1.753-1.924 2.935-.972.896.721.183 1.769-.197 2.704-1.24 3.054-2.326 6.172-3.59 9.215-.383.922-1.057 1.662-.19 2.652 1.091 1.247 1.679-.241 2.505-.412 2.205-.456 3.432-4.784 5.298-2.998 1.808 1.731-1.662 4.128-2.343 6.434-.5 1.694-1.481 3.245-2.248 4.859"/><path d="m-74.3 1258.99c4.447.807 7.999-2.776 12.589-2.34 2.812.267 5.654-.023 8.35 1.133-10.634-.03-19.771 4.305-28.54 9.747-1.401.87-3.148 2.221-4.577 1.255-1.853-1.252.055-3.121.565-4.36 1.609-3.905 1.945-8.504 5.619-11.395.754 1.982-1.702 3.97.012 5.95.258 1.23-1.674 2.643-.255 3.477 1.122.659 2.784.222 3.851-1.099.7-.866 1.584-1.584 2.386-2.368"/></g><path d="m11.779 1235.03c-3.623-.013-7.246.013-10.868-.058-1.749-.034-3.24.354-4.391 1.758-1.01 1.227-2.066 3.462-2.943-.126-.373-1.527-1.304-1.231-2.062-.295-2.289 2.829-6.01 2.91-8.838 4.68-2.804.79-3.845-.157-2.958-3 6.377-1.797 11.966-6.394 19.03-5.668 4.491.462 9.328-1.738 13.451 1.648.103.085.186.347.131.44-.138.235-.36.419-.549.623" fill="#81bb48"/><path d="m-31.21 1283.09c-6.713 2.132-4.539-3.231-5.218-6.187.003-1.01.005-2.01.008-3.02.174-.666.349-1.333.523-1.999 2.705-.163 4.633 2.446 7.397 2.072.132 1 .264 2.01.395 3.01l-.455-.004c-6.167-.25-2.873 3.6-2.65 6.12" fill="#96c457"/><path d="m7.764 1253.02c-.921-.345-3.228.065-2.331-1.352 1.044-1.649.634-4.742 4.118-4.768 4.281-.031 7.615 2.789 11.822 2.835-3.078 2.18-7.365-.885-9.684 3.063-1.308.074-2.616.148-3.925.222" fill="#81bb48"/><path d="m9.883 1267.33c.329-2.411-.989-5.04.947-7.237 1.846 3.202 4.535 6.05 4.667 10.529-2.59-.545-4.243-1.664-5.614-3.292" fill="#96c457"/><path d="m-63.32 1225.01c-3.105 1.376-6.354-1.068-9.458.357-.713-.01-1.425-.022-2.137-.034-.532-.039-1.063-.078-1.594-.116-.343.043-.642-.053-.895-.288-2.585-.026-.558-.384.047-.668 5.219-2.156 10.567-2.556 16.05-1.189-.044 1.295-.788 1.864-2.01 1.938" fill="#6db142"/><path d="m-83.34 1234.97c.055 1.531-1.838 3.435.854 4.459-2.497.517-3.727 3.273-6.883 3.927 1.376-3.909 3.152-7.265 6.03-8.386" fill="#96c457"/><path d="m-14.306 1258.99c2.728-.128 5.626-.478 5.01 3.802-2.286.104-4.573.208-6.86.313-.829-.157-1.691-.252-2.142-1.128 2.111.047 3.817-.449 3.996-2.987" fill="#6db142"/><path d="m-36.424 1273.89c-.002 1.01-.005 2.01-.008 3.02-2.305-.325-4.858 1.032-6.905-1.027 1.456-3.616 4.677-1.089 6.913-1.988" fill="#faf8c2"/><path d="m-69.29 1245.14c-1.558 3.611-4.02 5.634-8.189 4.656 2.251-2.394 4.751-4.349 8.189-4.656" fill="#96c457"/><g fill="#faf8c2"><path d="m-28.11 1276.97c-.132-1-.263-2.01-.395-3.01.91-.807-1.346-2.766 1.096-3.02-.903 2.871 3.381 2.778 3.042 5.329-1.087 1.106-2.477.57-3.743.699"/><path d="m-46.32 1287.13c3.28.035 10.92 2.815 12.661 2.664 1.491-.129 10.37-3.642 13.335-1.967 2.269-.06 4.538-.118 6.808-.177.003-.121.028-.212.039-.322-.011.11-.035.202-.039.323 4.704-.824 9.504-1.264 13.87-3.436.956-.476 2.707.237 2.827-1.355.11-1.451-1.257-2.286-2.448-2.82-6.05-2.712-12.01-5.973-19.05-3.991-2.02.075-4.03.15-6.05.226-1.086 1.103-2.476.567-3.742.696l-.455-.004c.455 2.62 1.594 5.536-2.65 6.121-6.714 2.132-4.54-3.231-5.219-6.188-2.304-.324-4.857 1.033-6.904-1.026-.62.088-16.376 1.113-23.22 3.949-.846.351-2.304.018-2.287 1.374.017 1.376 1.213 2.026 2.246 2.924 2.986 2.595 6.917.877 9.901 2.567m38.506-9.743c-.037-.143-.045-.308-.068-.462.022.154.03.319.068.462z"/></g><g fill="#96c457"><path d="m-79.14 1239.43c2.217-.994 4.552-.222 6.82-.453.344.557.688 1.115 1.032 1.672-2.618-.407-5.235-.813-7.852-1.219"/><path d="m-78.48 1250.82c.172 1.355-.41 2.092-1.786 2.174.071-1.155.538-1.986 1.786-2.174"/><path d="m-77.46 1249.79c-.335.355-.67.709-1.01 1.064.335-.355.671-.71 1.01-1.064"/></g><path d="m-47.983 1251.37c2.072.623 3.802.867 3.666 3.2-.096 1.638-.809 2.363-2.449 2.394-2.427.045-2.565-1.55-2.532-3.324.023-1.21.164-2.318 1.315-2.27" fill="#81bb48"/><path d="m-10.347 1249.02c-1.673 1.078-3.387 3.979-4.945-.111 1.648.037 3.297.074 4.945.111" fill="#6db142"/><path d="m-31.21 1283.09c-.223-2.52-4.03-7.02 3.105-6.116.454 2.62 1.139 5.531-3.105 6.116" fill="#81bb48"/><path d="m-14.306 1258.99c-.179 2.538-1.885 3.034-3.996 2.988-1.733-2.822-2.733-5.732-1.084-8.963.332.039.663.078.995.117 1.361 1.951 2.723 3.904 4.085 5.858" fill="#96c457"/><g fill="#6db142"><path d="m-18.392 1253.13c-.331-.039-.662-.078-.995-.117.179-.943.35-1.916 1.614-1.917.262 0 .737.204.752.35.095.971-.742 1.256-1.371 1.684"/><path d="m-74.3 1258.99c-.802.784-1.686 1.501-2.386 2.368-1.067 1.321-2.729 1.759-3.851 1.099-1.419-.834.513-2.247.255-3.477.888-.731 1.753-1.491 2.668-2.184 1.13-.855 1.994-3.053 3.463-2.239 1.992 1.104-.475 2.895-.149 4.433"/></g></svg>