<svg xmlns="http://www.w3.org/2000/svg" height="180.69" viewBox="90.738 971.6 259.78 180.689" enable-background="new 90.738 971.6 259.78 180.689"><path d="m269.26 1063.27c-2.435-.472-3.02 1.701-4.249 2.964-1.18-.003-2.052.54-3.069 1.174-5.02 3.129-10.178 6.03-15.288 9.02-2.378 2.386-5.534 3.484-8.393 5.069-2.456.315-3.94 3.425-6.992 2.37-.422-.146.125 1.332.04 2.057-29.17 15.11-59.01 29.07-85.28 49.2-1.285 1.035-2.886 1.847-3.799 3.144-3.2 4.545-9.859 5.902-11.135 12.164-.58.084-1.16.167-1.741.251-.986-.099-1.971-.194-2.955-.296-3.738-.391-8.433.105-9.832-4.152-1.366-4.157 3.678-5.224 5.715-7.792 2.752-.326 4.815-1.734 6.886-3.587 10.38-9.285 22.17-16.541 34.02-23.791 14.518-8.878 30.07-15.7 44.959-23.827 7.207-3.935 14.732-7.288 22.11-10.904 1.053 1.405 1.993.05 3.01-.083 4.145-.542 6.606-4.774 10.911-4.913.143.063.287.126.43.189-.123-.083-.247-.166-.37-.249-.2-1.659 1.219-2.455 1.934-3.628 1.494-1.431 4.217-.95 5.123-3.294 1.045-.686 2.091-1.373 3.135-2.058 1.455-.428 3.897.708 3.705-2.335 1.634-1.241 3.268-2.482 4.902-3.724.913-.541 3.122 2.186 2.923-1.16.343-2.54 3.481-2.613 4.231-4.794 1.362.045 2.082.432 1.727 2.089-.644 3.01-.143 6.247-1.808 9.06-.811.402-1.457.881-.888 1.921l.037-.078" fill="#a37547"/><path d="m146.03 1135.12c-1.285 1.035-10.321 6.05-11.406 7.203-7.06 7.533-3.529 8.104-8.224 8.06-3.759-.036-8.434.105-9.832-4.152-1.366-4.157 3.678-5.224 5.715-7.792-1.72-1.776-3.608-1.127-5.495-.372-1.375.552-2.709 1.571-4.238 1.198-6.292-1.536-11.602 2.868-17.648 2.843-.892-.004-1.81.773-2.678 1.255-2.299 1.278-1.675 3.06.113 3.632 5.259 1.683 10.281 4.173 16.02 4.343 6.095.18 12.258-.908 18.294.838 1.107.321 7.129-.011 8.55-1.126 8.842 1.079 17.502.347 25.857-3.591 1.107-.522 2.863-.01 2.952-1.969.091-1.99-18.265-7.221-17.979-10.37" fill="#f8f7c4"/><g fill="#50a136"><path d="m331.11 1067.21c-.428-.076-.856-.151-1.284-.227.121-.215.242-.431.363-.646.046-.359.091-.719.137-1.078.15-2.132-.716-3.192-2.956-2.807-.225.101-.451.202-.677.303.101-.227.201-.454.301-.682.111-1.032.589-1.735 1.686-1.882 3.05-2.607.024-5.336.16-8-.27-.276-.54-.553-.81-.829-.327-.072-.654-.145-.981-.217-1.164.267-2.567 1.049-3.423.652-.817-.379.606-1.429.741-2.285 2.02-2.331 2.506-3.898-.651-6.293-3.556-2.698-5.395-7.168-7.548-11.151-2.468-1.021-5.323-1.311-7.05-3.735-2.996-.752-5.305 1.062-7.825 2.094.113.937-1.105 2.165-.014 2.755 5.549 3 2.423 8.05 2.551 12.03.094 2.932-1.748 6.206-6.286 4.207-1.234-.544-2.912-.082-4.89.442 4.302 1.38 7.92 3.101 6.575 8.343 4.93 8.06 5.416 16.996 5.162 26.08 2.505 1.262 4.884 3.527 7.87.999-.369-1.07-.78-2.129-1.094-3.215-.23-.795-1.5-1.812-.072-2.383 1.045-.418 1.593.822 2.124 1.626 1.711-1.735.742-3.923 1-5.904-.814-.864-1.798-1.628-1.757-2.994-.295-.829-3.686-.011-1.22-2.32 1.614-1.512-.054-2.402-.87-3.068-2.27-1.852-2.195-4.286-2.125-6.79.045-1.595-.358-3.247 2.376-1.732 1.964 1.088 2.662-.431 2.054-2.307-.541-1.67.497-2.59 1.618-3.227 1.84-1.046 2.188.965 2.895 1.832 4.683 5.738 7.327 12.434 8.911 19.598.536 5.331 1.541 10.629 1.067 16.03.707-.7 1.414-1.4 2.121-2.099.005-.953.01-1.906.015-2.859.271-.386.541-.771.811-1.157 1.567-5.626 1.439-11.351.993-17.09m-14.405-26.556c-.07-.131-.202-.267-.191-.391.01-.121.167-.23.259-.344.069.131.139.262.208.393-.093.114-.185.228-.276.342m4.04 3.918c-.1.205-.526.251-.81.366-.108-.284-.367-.641-.275-.829.098-.204.523-.25.806-.365.107.283.37.642.279.828"/><path d="m269.23 1063.35c.026-.004.04-.013.064-.018-.011-.02-.015-.041-.027-.061l-.037.079"/><path d="m286.87 1032.58c-5.435 3.085-7.58-.326-9.633-4.321-1.281-.959-2.562-1.917-3.843-2.876-.093.605-.185 1.209-.278 1.814-.079.753.022 1.751-1.134 1.536-.28-.052-.387-1.029-.573-1.58.012-.913.024-1.827.036-2.741-.507-.89-1.363-1.107-2.289-1.188-.441-.2-.882-.401-1.323-.601-1.121.516-1.154 1.434-.908 2.456.419 1.714.693 3.427-.284 5.967-.586-2.361-1.605-3.824-1.296-5.705-.76-3.983-3.077-3.832-5.937-2.236-.508.509-1.016 1.018-1.524 1.527.147.572.295 1.143.442 1.715.8.455 1 1.135.718 1.977-.033.098-.201.15-.307.223-.168-.39-.336-.78-.504-1.17-1.32-1.439-2.64-2.877-3.96-4.316-.731-.019-1.461-.038-2.19-.058-1.294.536-.698 1.483-.507 2.343 1.022 1.127 1.64 2.43 1.732 3.963.113.231.227.463.34.694-.817.241-1.133-.159-1.17-.915-.287-.353-.575-.707-.862-1.06-1.55.229-2.416-.254-2.077-1.994l-.016-.113c-2.079.388-3.853.552-1.972 3.565 1.169 1.872 1.145 4.489 1.656 6.772 5.845.799 11.316-1.408 16.974-2.115 3.657-1.457 7.331-1.251 10.917.136 1.037.401 2.864.48 2.417 2.436-.327 1.429-.68 2.88-2.381 3.442-3.104 1.025-6.184 2.122-9.274 3.188-1.236 1.29-2.471 2.58-3.706 3.87 1.069 2.886 4.333 1.443 6.04 3.063 1.362.045 2.082.432 1.727 2.089-.644 3.01-.143 6.247-1.808 9.06-.227.656.341 1.681-.824 1.903.866 1.567-.051 3.127-.046 4.691.009 2.818.014 5.637.02 8.455 1.012-.025 2.099-.446 2.99.528-.833 1.031-1.986.828-3.03.964-1.958 2.939-1.429 6.242-1.385 9.475.037.423.074.845.11 1.268.003.555.007 1.108.011 1.662 3.01-.787.682 3.309 3.352 3.274 3.309-11.137 6.349-22.431 10.05-33.503 2.976-8.895 5.245-18.16 10.972-25.926-1.804-.699-3.625-2.691-5.471-1.638m-10.595 14.447c.967-2.742 2.418-2.866 4.553-2.186-.936 1.743-2.474 1.747-4.553 2.186"/><path d="m260.18 1019.66c-4.526-1.399-8.08-4.083-11.11-7.739-1.811-2.185-4.444-1.467-6.827-.628-2.527 2.02-3.053 6.367-8.02 5.726-1.83-.235-3.046 3.73-5.642 4.456 1.485 2.469-1.041 4.256-1.92 5.297-2.664 3.154-3.263 6.711-3.854 10.432.422.047.843.094 1.264.142 5.52-11.01 14.865-16.187 26.732-17.512 3.105-1.182 6.25-.226 9.378-.174"/><path d="m312.86 1017.16c1.902-2.527 1.105-4.811 1.543-6.841-.926-.389-1.194-1.156-1.197-2.075-1.61 1.398-3.22 2.797-4.829 4.196-.014.277-.078.542-.193.795 3.432-1.708 4.077.925 4.676 3.925"/><path d="m286.88 1010.87c1.097-.563 1.525-2.88 3.314-1.503.091-.508.183-1.016.275-1.524-.114-.521-.228-1.042-.342-1.563-.951.018-1.901.035-2.852.052.197 1.467-1.755 2.699-.395 4.538"/><path d="m271.16 992.23c-1.131-3.121-3.01-2.246-4.974-.932 1.362 1.891 3.299.71 4.974.932"/><path d="m292.09 1021.16l.215.213c1.51-1.163.603-3.02 1.266-4.422-.016-.265-.118-.493-.305-.683-.539-.257-.813-.625-.515-1.233.064-.25-.027-.415-.269-.498-.418.239-.835.479-1.253.718.308 1.965 1.374 3.82.861 5.905"/><path d="m298.2 1018.21c-.768.475-.997 1.207-.978 2.057 1.356-.196 2.497-.494.978-2.057"/><path d="m297.21 1020.28c-.13.076-.382.193-.373.222.076.225.203.434.314.649.027-.289.047-.58.059-.871"/><path d="m291.73 1021.73c.19-.117.381-.233.571-.35 0 0-.215-.213-.213-.211-.118.188-.238.374-.358.561"/><path d="m303.2 1021.27l.03.032c.352-.344.705-.687 1.058-1.03-.004-.321.002-.642.019-.963-2.106-.327-.61 1.379-1.107 1.961"/><path d="m251.12 1045.02c2.01.479 3.561-.043 5.084-.742-.348-.356-.696-.712-1.044-1.068-1.49.119-3.05.096-4.04 1.81"/><path d="m259.18 1045.24c-.797.585-.979 1.378-.785 2.298 1.251.248 1.955-.705 2.825-1.293-.429-.844-1.203-.989-2.04-1.01"/><path d="m257.24 1048.47c.61-.151 1.355-.179 1.061-1.158-.354.386-.708.772-1.061 1.158"/></g><g fill="#6eb248"><path d="m292.88 1058.41c2.196-.723 4.317 1.15 6.346-.218 1.346-5.242-2.273-6.963-6.575-8.343 1.977-.525 3.655-.986 4.89-.442 4.538 2 6.381-1.275 6.286-4.207-.129-3.981 2.997-9.03-2.551-12.03-1.091-.59.127-1.817.014-2.755-2.614-3.728-.46-6.462 1.91-9.149.497-.582-.999-2.288 1.107-1.961.926-1.435 3.831-1.652 2.686-4.362-3.385-.717-.129-2.446-.55-3.614-3.435.168-5.629-.256-4.446-4.875.82-3.204.207-6.775.232-10.183.647.005 1.293.011 1.94.016.142-.297.196-.609.162-.936-.556-.723-1.113-1.446-1.669-2.168-.864.924-.247 2.061-.445 3.081-2.394.337-6.615 6.106-5.36 8.247 2.649 4.52-.001 9.246 1.339 13.691 1.519 1.564.378 1.862-.978 2.057l-.008.012c-.013.291-.032.582-.059.871.083 4.977.513 10.08-4.811 13.07-5.726 7.761-7.996 17.03-10.972 25.926-3.705 11.07-6.745 22.365-10.05 33.503-2.67.035-.341-4.061-3.352-3.274-.011 4.579-.98 9.218.906 14.333 1.308-2.487 2.359-4.483 3.409-6.479.275-.634.549-1.267.823-1.9 0 .001.049-.279.049-.279.095-.795.437-1.389 1.28-1.573 3.112-4.744 6.79-9.208 7.543-15.13-.616-.409-1.591-.611-1-1.721.389.219.778.439 1.166.659 4.34-1.286 5.627-3.92 3.875-7.939-.869-.285-2.174-.558-1.8-1.617.249-.707 1.392-.281 1.911.49 1.374-.279 2.828 1.656 4.242-.536 1.16-1.8.403-3.01-.295-4.448-1.132-.836-2.263-1.673-3.737-2.762 2.03-.783 2.871.437 3.867 1.189 1.107.049 1.874 1.81 3.045.916 2.256-1.724-1.184-3.409-.366-5.165"/><path d="m339.26 1036.38c-1 .646-2 1.291-3 1.937-.701.694-1.401 1.387-2.102 2.081-.321.632-.687 1.621-1.481 1.041-.586-.429.179-.958.723-1.211.598-1.059 1.291-2.01 2.58-2.287.122-1.316 1.021-2.063 1.999-2.749-.84-3.046-4.076-4.785-6.783-3.643-1.292 1.612-2.584 3.225-3.876 4.837-.337.32-.674.64-1.01.961-.166.424-.332.847-.499 1.27-.119-.099-.353-.261-.338-.289.209-.387.452-.756.687-1.129.313-.345.626-.689.938-1.034-.032-1.794.557-3.356 1.745-4.693-.123-3.133-1-3.527-4.713-2.107-.14.251-.281.502-.421.753-.091-.256-.182-.511-.273-.765-3.614-2.295-5.776-.689-7.273 2.706 2.153 3.983 3.993 8.453 7.548 11.151 3.156 2.395 2.667 3.962.651 6.293 1.37-.236 2.826-.615 2.682 1.633.327.072.654.144.983.216 2.553-2.556 6.575-2.973 8.775-6.04.798-.695 1.151-1.908 2.402-2.069.476-1.475 1.502-2.457 2.846-3.151 1.792-3.281.102-3.949-2.789-3.714m-16.562-3.888c-.048-.139-.142-.282-.131-.417.011-.134.126-.26.195-.39.048.139.095.279.143.418-.069.13-.138.26-.207.389"/><path d="m339.24 1043.24c-.011.001-.02.006-.031.007-.003.01-.009.018-.013.029l.044-.036"/><path d="m235.03 1010.38c2.429.134 5.02-1.019 7.223.909 2.383-.84 5.02-1.557 6.827.628 3.03 3.657 6.581 6.34 11.11 7.741 2.428 1.304 5.716.211 7.697 2.762.425.267.85.533 1.274.799.926.08 1.782.298 2.289 1.187.867-.116 1.528.184 1.948.971 1.282.96 2.563 1.918 3.844 2.877 2.097-4.708-.457-9.168-1.632-13.284-1.218-4.263-6.482-5.05-10.635-5.798-3.631-.65-.204 3.812-2.776 4.334-2.392-1.633-2.869-5.541-7.06-5.324-6.05.314-12.13-.053-18.2-.129-1.29.329-2.965.172-3.397 1.782-.172.641.901.545 1.494.545"/><path d="m312.26 1085.28c-2.987 2.528-5.365.263-7.87-.999-.385 2.064-.77 4.129-1.156 6.193.022.198-.018.384-.118.557-.979 2.752-1.96 5.506-2.94 8.259-.036 2.196-.173 4.336-2.849 5.04l-.064.088c-.028.829-.285 1.513-1.143 1.821-.001-.001-.006-.009-.006-.009.136.59.951 1.102.286 1.743-.099.096-.743-.374-1.135-.583-.426.623-.852 1.247-1.278 1.87 1.904.198 1.924 2.985 4.02 2.922 0-.001.116-.094.116-.094.409-3.269 1.367-5.937 5.517-5.544 1.679.159 1.622-2.519 3.436-2.317 0-.001.049-.114.049-.114-.076-2.118.546-4.641-.391-6.262-1.467-2.538 1.836-2.419 1.54-4.061-.607-3.372.962-2.402 2.772-1.457.243.127 1.284-1.274 1.955-1.968.035-.467.069-.934.104-1.401.058-1.305.571-2.715-.842-3.683"/><path d="m247.55 1029.49c-1.881-3.01-.106-3.177 1.972-3.565.006-.214.04-.423.102-.627-1.827-1.353-4.74-1.748-4.859.441-.227 4.19-3.698 2.933-4.703 2.707-2.376-.534-4.02.689-4.637 1.935-1.451 2.92-4.051 4.6-6.06 6.89 3.312-.786 2.493 3.377 4.695 3.92l.105-.047c.195-.881-.33-2.203 1.079-2.371.745-.089.846.817.945 1.458 4.351-1.082 8.703-2.164 13.05-3.246-.032-.24-.045-.482-.038-.725-.511-2.283-.487-4.901-1.657-6.77"/><path d="m314.41 1010.32c1.822.685 5.228-3.057 5.296 2.244 1.793-2.518.686-6.443 4.754-7.2 2.45-.455 2.609 1.461 3.218 3.11 1.732-2.948-1.095-4.118-1.579-6.05-1.276-.059-2.552-.118-3.827-.179-.779.693-1.145 2.217-2.308 1.994-.951-.182.099-1.307-.128-1.994-2.905 1.228-3.967 4.493-6.623 5.998.003.92.271 1.686 1.197 2.075"/><path d="m260.83 992.62c1.788-.443 3.575-.885 5.362-1.327 1.963-1.314 3.843-2.189 4.974.932 2.054-.613 5.063 1.696 6.109-1.999-.039-.326-.068-.653-.087-.98 0-.001.048.064.048.064-.25-.379-.501-.759-.751-1.138-.216-.123-.445-.216-.687-.277-.578.127-1.156.255-1.734.382-1.549 1.85-1.987-.355-2.907-.795-4.833-.273-8.796 2.276-13 4.02.015.486.03.971.044 1.458.877-.114 1.755-.229 2.634-.345"/><path d="m317.4 1079.19c-.291-1.91-1.119-3.37-3.184-3.794-.258 1.981.712 4.17-1 5.904 1.388 2.305 2.345 4.725 1.995 7.492 2.042-1.116 2.635-3.161 1.187-4.583-2.613-2.566-.171-3.539 1-5.02"/><path d="m290.13 1006.28c-1.077-3.297-2.153-6.593-3.229-9.89-2.422 3.411-.097 6.641.377 9.942.951-.017 1.902-.034 2.852-.052"/><path d="m326.99 1097.23c1.02-2.906 2.308-5.743 2.302-8.914-.707.699-1.414 1.399-2.12 2.097.46 2.285-2.204 4.488-.182 6.817"/><path d="m291.03 1012.21c.139-.308.277-.616.416-.925-.27-1.165.035-2.493-.974-3.448-.092.509-.183 1.016-.275 1.524.001 1.031-.155 2.107.833 2.849"/><path d="m267.84 1087.44c-.076.139-.236.295-.211.412.063.295.208.572.321.856-.036-.423-.073-.846-.11-1.268"/><path d="m270.2 1050.28c-1.71-1.62-4.973-.177-6.04-3.062l-.428.061c0 0-.432-.006-.431-.007-2.828 3.65-6.173 6.928-8.09 11.234.085.528.17 1.055.256 1.582.894-.043 1.787-.084 2.68-.129 1.634-1.244 3.268-2.485 4.902-3.726.725-1.021 1.864-.993 2.925-1.158.341-2.541 3.479-2.614 4.229-4.795"/><path d="m291.23 1015.26c.418-.239.835-.479 1.253-.718-.398-.271-.796-.541-1.194-.81-.019.51-.039 1.019-.059 1.528"/><path d="m314.29 1052.96c-1.121.637-2.16 1.557-1.618 3.227.609 1.876-.09 3.395-2.054 2.307-2.735-1.515-2.332.136-2.376 1.732-.069 2.504-.145 4.938 2.125 6.79.816.665 2.485 1.556.87 3.068-2.466 2.309.924 1.491 1.219 2.32 2.703 1.504 5.02.731 7.461-2.215-.525 2.86-2.627 4.16-1.892 6.297 2.335-2.065 5.67-.278 8.07-2.096-1.585-7.164-4.228-13.86-8.911-19.598-.708-.867-1.055-2.878-2.895-1.832m1.867 17.959c-.124-.326-.248-.653-.372-.979.261-.066.597-.261.764-.164.183.105.212.48.314.753-.235.13-.47.26-.706.39"/><path d="m320.45 1043.74c-.282.115-.708.161-.806.365-.091.189.168.546.274.83.285-.115.711-.161.811-.367.091-.186-.172-.545-.279-.828"/><path d="m316.77 1039.92c-.092.114-.248.223-.259.344-.011.124.122.26.191.391.092-.114.185-.228.277-.342-.07-.131-.139-.262-.209-.393"/><path d="m266.18 1034.14c1.874.314 1.472 1 .54 2.176-2.999 3.783-6.754 6.191-11.56 6.891.348.356.696.712 1.044 1.068 1.067.085 2.257-.213 2.97.963.837.016 1.611.161 2.04 1.01.343-.023.685-.047 1.028-.071.783-3.107 3.039-3.292 5.618-2.832 3.089-1.066 6.169-2.162 9.273-3.187 1.701-.561 2.054-2.01 2.381-3.442.448-1.955-1.38-2.035-2.417-2.436-3.585-1.387-7.26-1.593-10.917-.135"/><path d="m249.54 1026.03c-.339 1.74.527 2.224 2.077 1.994-.406-.963-.996-1.734-2.077-1.994"/><path d="m271.98 1028.73c1.156.215 1.056-.782 1.135-1.535-.569-.014-1.138-.029-1.707-.044.186.551.294 1.528.572 1.579"/><path d="m257.41 1022.58c-.738.717.008 1.426.472 2.05.508-.509 1.016-1.018 1.524-1.526-.533-.708-1.282-1.218-1.996-.524"/><path d="m303.23 1021.3c.119.953.398 2.562 1.299 2.105 1.345-.68.758-2.129-.241-3.135-.353.343-.705.687-1.058 1.03"/><path d="m308.18 1013.22c-.757.463-1.67.844-1.047 2.02.977-.349 1.109-1.135 1.047-2.02"/><path d="m252.28 1079.99c-.192.168-.315.781-.256.815 1.166.671 2.334.853 3.634-.296-1.078-1.171-2.098-1.639-3.378-.519"/><path d="m293.26 1016.27c-.17-.412-.34-.823-.515-1.233-.297.608-.023.976.515 1.233"/></g><g fill="#8fc24e"><path d="m292.34 1034.22c5.324-2.989 4.894-8.095 4.81-13.07-.111-.214-.237-.423-.313-.648-.009-.029.242-.146.373-.222l.008-.012c-.019-.849.21-1.581.978-2.056-1.34-4.444 1.31-9.171-1.339-13.691-1.255-2.141 2.967-7.911 5.361-8.247.197-1.02-.418-2.156.445-3.079.556.723 1.113 1.445 1.669 2.168.232-.04.464-.083.694-.127 1.042-6.323 2.084-12.648 3.126-18.973-.158-1.508 1.257-2.976.157-4.658-1.789.875-2.133 2.382-2.212 4.04h-.002c-2.227 2.096-2.065 5.384-3.836 7.711-1.127.106-2.255.21-3.381.312.186 2.541.371 5.083.63 8.624-.001.001-.001.002-.002.003-.258-3.543-.444-6.087-.63-8.628-1.442-1.99.112-4.962-2.568-7.094-.115 11.889-.754 23.348-2.207 34.745-.886-.007-1.771-.016-2.657-.023-.139.308-.277.616-.416.924.087.505.174 1.01.261 1.517.398.27.796.541 1.194.811.242.083.333.249.273.497.17.411.34.823.51 1.234.187.19.287.417.305.682-.663 1.405.243 3.259-1.267 4.422-.19.117-.381.233-.571.35.12-.186.24-.373.358-.561.511-2.087-.554-3.942-.862-5.907.02-.509.04-1.018.059-1.528-.088-.506-.175-1.012-.262-1.518-.988-.742-.832-1.818-.833-2.849-1.789-1.377-2.216.94-3.314 1.503-1.359-1.84.593-3.073.396-4.539-.474-3.301-2.799-6.531-.377-9.942-1.433-1.277-2.659-2.529-2.916-4.707-.138-1.174-.781-3.929-3.197-1.502 0 0-.273-.019-.275-.018-1.643.217-.718-4.298-3.534-1.92-.156-.083-.32-.105-.493-.066.237.359.474.719.711 1.077-.003-.001-.006-.002-.009-.003v.002c.019.327.048.653.087.978-1.046 3.696-4.056 1.388-6.11 2-1.675-.222-3.612.959-4.974-.932-1.787.442-3.574.884-5.362 1.327.855.459 1.676 1 2.572 1.361 6.746 2.698 11.584 7.466 15.08 13.731.482.864 1.298 1.756.449 2.66-.91.969-1.9.108-2.555-.491-3.133-2.861-7.39-2.232-11.04-3.483-9.504-3.258-19.07-1.434-28.402 1.655 6.068.076 12.151.443 18.199.13 4.193-.217 4.671 3.691 7.06 5.324 2.573-.522-.854-4.984 2.776-4.334 4.153.743 9.417 1.534 10.635 5.798 1.176 4.115 3.729 8.576 1.632 13.284 2.052 3.995 4.198 7.405 9.633 4.32 1.849-1.05 3.67.942 5.473 1.641m-10.39-19.452c-.297-.741-.76-1.438-1.433-2.143.674.706 1.137 1.402 1.433 2.143m-1.736.489c.062 1.354.595 2.566 2.033 3.828-1.438-1.261-1.971-2.473-2.033-3.828"/><path d="m302.23 996.26l-.01.01v.01z"/><path d="m247.21 1063.18c-1.299-.424-2.598-.849-3.897-1.274 1.299.424 2.598.849 3.898 1.274.191-1.192 2.462-.051 2.096-1.867.045-1.018.089-2.035.133-3.053-1.37-.459-2.739-.919-4.254-1.427.001 0 .002-.001.002-.001 1.514.509 2.882.967 4.251 1.427 1.442.124 2.694-.024 2.748-1.903.11-.372.22-.743.33-1.115.823-.459 1.469-1.054 1.573-2.062 1.051-1.571 2.102-3.142 3.153-4.713.354-.386.707-.772 1.061-1.158l.091.234c-.196-.923-.014-1.716.783-2.301-.713-1.176-1.903-.878-2.97-.963-1.523.699-3.075 1.221-5.083.742.989-1.713 2.549-1.691 4.04-1.809 4.806-.7 8.562-3.108 11.56-6.891.932-1.176 1.334-1.862-.54-2.176-5.658.706-11.128 2.913-16.974 2.114-.007.242.006.484.037.725 1.061.088 2.121.176 3.181.264.094-.021.189-.042.283-.061-.094.019-.188.04-.282.061-.002.729-.005 1.458-.009 2.189 0 0-.001 0-.001.001-1.506 1.597-3.332 2.391-5.484 3.03-7.269 2.144-12.175 6.986-14.763 14.14h.002c.036.526.071 1.051.105 1.576.491-.044 1.148.231 1.516-.043-.368.277-1.026 0-1.518.044-3.99 5.681-2.84 11.932-2.01 18.15 1.054 1.405 1.994.05 3.01-.083 4.144-.542 6.606-4.774 10.911-4.913l.06-.06c-.2-1.659 1.219-2.455 1.934-3.626-.074-1.3.373-2.407 1.237-3.361-.07-.368-.14-.736-.209-1.103m4.097-9.464c.184.233.369.465.553.697-.185-.232-.369-.465-.553-.697"/><path d="m246.66 1076.42c.756.771 1.368 1.741 2.591 1.863-.055.31-.044.618.032.924.522-.459 1.753-.631.941-1.672-.064-.082-.15-.112-.246-.104.096-.009.183.022.247.104.812 1.041-.419 1.213-.941 1.672-.592 1.497-1.961 2.565-1.909 4.459.117 4.288.1 8.605.201 12.873.123 5.204.861 10.56 3.079 16.07.885-4.409 1.601-8.135 2.383-11.846 2.534-12.02 6.836-23.422 11.979-34.535-1.18-.003-2.052.54-3.069 1.174-5.02 3.129-10.178 6.03-15.288 9.01m5.362 4.386c-.06-.034.064-.647.256-.815 1.28-1.119 2.3-.651 3.378.52-1.3 1.149-2.468.967-3.634.295"/><path d="m314.26 987.8c-2.763 4.03-4.755 6.94-6.746 9.846.032 2.399-2.392 3.397-2.937 6.771-.756-1.562-.799-2.887-.665-4.07-.134 1.182-.091 2.507.665 4.069.545-3.374 2.969-4.372 2.937-6.771-1.349-.27-2.239-1.013-2.489-2.417-.23.044-.462.087-.694.127.035.327-.02.639-.162.936.37 1.212-.054 2.458-.238 3.917.184-1.459.607-2.704.237-3.916-.647-.006-1.294-.012-1.941-.017-.025 3.407.589 6.978-.232 10.181-1.183 4.619 1.01 5.04 4.447 4.875.232.014.464.005.694-.025 2.21-7.407 5.993-14.354 7.124-23.506"/><path d="m302.22 996.28h.01v-.01z"/><path d="m326.1 1074.39c-2.399 1.818-5.734.031-8.07 2.094.308.931.615 1.863.921 2.793 4.601 6.02 4.609 13.551 6.602 21.528.74-1.845 1.086-2.71 1.433-3.575-2.02-2.328.642-4.532.182-6.817.474-5.395-.532-10.693-1.069-16.02"/><path d="m311.04 1092.33c-1.81-.946-3.379-1.915-2.772 1.457.296 1.642-3.01 1.523-1.54 4.061.937 1.621.314 4.144.391 6.262 5.581-1.895 9.149-7.473 5.876-13.748-.671.694-1.712 2.095-1.955 1.968"/><path d="m226.66 1026.77c.879-1.041 3.404-2.829 1.925-5.298 2.592-.724 3.808-4.689 5.638-4.454 4.969.639 5.495-3.709 8.02-5.728-2.203-1.928-4.794-.775-7.222-.908.355 2.223-1.392 1.545-2.461 1.76-1.621.325-3.628-.143-4.239 2.157h-.001c-.042.6-.083 1.199-.127 1.799 1.33-.396 2.661-.792 3.991-1.188-.029-.204-.059-.406-.088-.61h.001c.029.204.059.407.088.611-1.331.396-2.661.792-3.991 1.188-2.083.635-4.35 1.097-3.896 4.126 0 0-.001 0-.002.001-2.828 5.377-3.873 11.02-2.546 17.02.351-.014.703-.028 1.053-.042.591-3.721 1.19-7.278 3.854-10.432m.491-7.449h.001c.001.91-1.464 1.507-.681 2.416h-.001c-.783-.91.681-1.506.681-2.416m.968-.216c-.27.037-.541.074-.813.111 0 0 .001-.001.001-.001.271-.037.541-.074.812-.11"/><path d="m260.18 1019.66c-3.128-.052-6.273-1.01-9.378.174 1.328.615 3.504.091 3.446 2.566-.797-.064-1.603-.166-2.17.602.729.02 1.458.039 2.19.059 1.319 1.438 2.639 2.876 3.959 4.315.168.39.336.78.504 1.17.105-.073.274-.125.307-.223.286-.843.082-1.522-.718-1.979-.147-.571-.295-1.142-.442-1.714-.464-.623-1.21-1.333-.472-2.05.713-.693 1.462-.183 1.996.524 2.861-1.596 5.177-1.748 5.937 2.235-.308 1.881.71 3.345 1.296 5.705.977-2.54.702-4.253.284-5.968-.246-1.02-.214-1.939.908-2.455.441.2.882.4 1.324.602-.424-.266-.849-.533-1.27-.801-1.985-2.549-5.273-1.457-7.701-2.762"/><path d="m293.99 1109.25c-2.408 2.501-5.562 4.292-7.884 8.02 5.158-.271 9.403-.569 11.901-5.095-2.094.063-2.114-2.724-4.02-2.922"/><path d="m342.39 1077.2c-.464 3.561-.03 6.992 1.777 10.395.862-3.826 4.922-6.681 2.96-11.294-1.62.08-2.997 1.445-4.737.899"/><path d="m231.27 1083.86c-.422-.146.125 1.331.04 2.057 1.736 1.255.999 4.143 3.536 5.194 1.201-3.242 3.01-6.158 3.416-9.621-2.456.315-3.94 3.425-6.992 2.37"/><path d="m229.37 1037.27c-1.262 2.675-3.638 4.989-2.808 8.716 2.645-1.691 5.074-3.243 7.503-4.796-2.203-.543-1.383-4.705-4.695-3.92"/><path d="m303.64 1106.54c-4.15-.393-5.108 2.276-5.517 5.544 4.221-1.213 8.273-2.616 8.953-7.861-1.814-.202-1.757 2.476-3.436 2.317"/><path d="m319.92 1070.19c-2.443 2.946-4.758 3.719-7.461 2.215-.04 1.367.944 2.131 1.758 2.995 2.065.424 2.894 1.884 3.184 3.794.516.028 1.031.057 1.548.087-.307-.93-.614-1.861-.921-2.793-.735-2.138 1.366-3.438 1.892-6.298"/><path d="m311.09 1079.68c-1.428.571-.158 1.588.072 2.383.314 1.086.725 2.144 1.094 3.215 1.414.969.901 2.378.843 3.684.704-.055 1.407-.11 2.111-.165.35-2.767-.607-5.187-1.995-7.492-.53-.804-1.079-2.044-2.125-1.625"/><path d="m331.2 1031.55c-.784-.026-1.569-.05-2.354-.076-1.188 1.337-1.777 2.899-1.746 4.692-.311.347-.624.691-.936 1.036-.235.373-.478.742-.687 1.129-.015.027.22.189.338.289.167-.423.333-.846.5-1.269.335-.322.672-.642 1.01-.961 0 0-.056-.056-.111-.111l.111.111c1.292-1.614 2.584-3.226 3.877-4.84"/><path d="m328.68 1060.19c-1.097.147-1.575.85-1.687 1.881-.099.228-.2.455-.3.681.225-.101.451-.202.677-.303 2.24-.385 3.106.675 2.956 2.807 2.741-2.758-.679-3.513-1.646-5.066"/><path d="m286.33 1061.47c1.474 1.089 2.606 1.926 3.737 2.762.043-.525.086-1.05.13-1.573-.997-.752-1.838-1.972-3.867-1.189"/><path d="m348.75 1071.68c.182-.11.379-.21.593-.302-.452-1.717-1.855-4.144-1.193-5.03 3.069-4.11 2.474-8.476 1.908-12.957-.001 0-.002 0-.003 0-.61-.668-1.219-1.336-1.831-2.01-.34-.04-.679-.079-1.019-.119.009-.015.018-.029.027-.044-.924-.89-1.962.052-2.927-.184 0 0-.002 0-.002 0-.085-.61-.171-1.219-.255-1.83.768-1.951 4.187-2.582 2.698-5.69-1.081-2.256-2.746-1.877-4.548-1.331-.659 1.072-1.588 1.396-2.722 1.153 1.134.242 2.063-.081 2.722-1.153-.05-.698-.101-1.395-.151-2.093-1.345.694-2.37 1.677-2.846 3.151-1.25.162-1.604 1.376-2.402 2.07-2.2 3.065-6.222 3.482-8.775 6.04.268.276.538.553.808.829 8.775 6.03 11.157 15.529 13.559 25.02 1.74.547 3.117-.818 4.737-.899.041-.354.082-.708.123-1.062 2.444-.337 3.23-1.574 2.09-3.858-.213.091-.41.191-.591.301m-11.511-26.465c1.022-.224 2.033-.461 1.991-1.931.043 1.47-.969 1.707-1.991 1.931m4.57 6.502c.102-.123.203-.245.305-.367-.084.025-.166.053-.233.102.067-.05.149-.078.233-.104-.102.124-.203.246-.305.369m4.26 1.386c-.397.225-.796.448-1.195.67.399-.223.798-.446 1.195-.67m.204.64c.062-.064.122-.134.183-.208-.061.074-.122.143-.183.208"/><path d="m306.99 1014.95c0 0 .009.019.022.047.026.055.07.145.096.199-.026-.054-.07-.144-.096-.199-.013-.028-.022-.046-.022-.047 1.144 2.707-1.761 2.924-2.687 4.359-.017.321-.023.642-.018.963.999 1 1.585 2.455.241 3.135-.902.456-1.181-1.153-1.3-2.106l-.03-.032c-2.368 2.69-4.522 5.424-1.908 9.152 2.518-1.033 4.827-2.847 7.823-2.096 11.09-9.914 23.68-17.17 37.983-21.373.522-.482 1.044-.963 1.569-1.44-3.662-3.03-6.111-8.548-12.461-6.081-.039-.377-.078-.755-.116-1.134-.53-1.5-1.614-.751-2.544-.625-1.02-.342-2.04-.782-3.087-.06 1.21.757-.495 2.087.695 3.045-1.191-.957.514-2.287-.696-3.044-.736.601-1.477 1.206-2.218 1.812-.327-.341-.653-.68-.981-1.02-.017.962-.033 1.923-.048 2.886-.001.002-.001.002-.001.002-.26.262-.521.523-.78.784.26-.262.52-.523.78-.785.016-.963.031-1.925.048-2.887-2.431-.28-3.279 2.087-4.999 2.995-.808.28-1.617.561-2.427.841.227.687-.823 1.812.128 1.994 1.162.223 1.528-1.301 2.307-1.993 1.276.059 2.552.118 3.828.177.483 1.931 3.309 3.101 1.578 6.05-.609-1.649-.768-3.566-3.218-3.11-4.068.757-2.961 4.681-4.754 7.2-.068-5.3-3.474-1.558-5.294-2.243-.439 2.029.358 4.313-1.544 6.84-.598-2.999-1.244-5.633-4.676-3.925.115-.253.179-.518.193-.795-.414-.375-.828-.751-1.241-1.127-.23.03-.462.039-.695.025.42 1.168-2.836 2.897.55 3.617m28.435-16.04c-.249.366-.321.806-.179 1.334-.143-.527-.071-.967.179-1.334m-27.25 14.313l.006.011-.006-.011c.062.887-.07 1.674-1.047 2.02-.623-1.178.29-1.56 1.047-2.02"/><path d="m300.18 1099.29c-1.339 1.46-2.338 3.111-2.849 5.04 2.675-.704 2.812-2.843 2.849-5.04"/><path d="m269.26 1076.48c-.012.497-.025.994-.039 1.492 1.043-.136 2.196.068 3.03-.964-.891-.973-1.977-.553-2.99-.528"/><path d="m249.62 1025.3c-.062.204-.095.413-.102.627l.015.111c1.081.26 1.671 1.031 2.077 1.994.287.353.575.707.862 1.06.304-.029.58.044.829.221-.092-1.533-.709-2.836-1.733-3.964-.65-.017-1.298-.032-1.948-.049"/><path d="m234.17 1041.14c.675-.304 1.35-.608 2.024-.913-.099-.641-.2-1.547-.945-1.458-1.41.169-.885 1.491-1.079 2.371"/><path d="m221.76 1037.25c.248 1.014.496 2.028.937 3.828.628-1.699 1-2.713 1.379-3.728-.421-.048-.842-.095-1.263-.142-.351.014-.702.028-1.053.042"/><path d="m284.21 1068.73c-.375 1.059.93 1.332 1.8 1.617.037-.376.073-.752.111-1.127-.518-.771-1.661-1.197-1.911-.49"/><path d="m337.98 1035.2c-.978.686-1.877 1.433-2 2.744l.004.005c-1.29.277-1.982 1.229-2.58 2.287.271-.021.524.036.76.169.7-.693 1.4-1.386 2.101-2.08 1-.646 2-1.291 3-1.937-.427-.396-.855-.791-1.283-1.188"/><path d="m274.06 988.28c.579-.127 1.157-.255 1.735-.382-.75-1.173-1.485-2.417-2.86-.598-.594.061-1.187.124-1.782.184.92.44 1.358 2.646 2.907.796"/><path d="m281.97 1079.35c.055-.354.11-.708.166-1.062-.388-.219-.777-.439-1.166-.659-.59 1.11.384 1.311 1 1.721"/><path d="m347.1 1006.96c1.208.27 2.252.361 1.569-1.44-.525.477-1.047.959-1.569 1.44"/><path d="m295.26 1107.38c.392.208 1.036.678 1.135.583.665-.641-.149-1.153-.286-1.743-.283.387-.566.773-.849 1.16"/><path d="m258.19 992.97c-.013-.487-.029-.972-.044-1.458-.519.436-1.038.872-1.557 1.307.485.557 1.034.446 1.601.151"/><path d="m273.15 1096.05c.427-.523.853-1.047 1.28-1.573-.843.185-1.184.779-1.28 1.573"/><path d="m272.28 1098.23c.709-.444.983-1.077.823-1.9-.275.633-.549 1.267-.823 1.9"/><path d="m297.26 1104.41c-.822.33-1.059 1.028-1.143 1.821.857-.308 1.114-.993 1.143-1.821"/><path d="m330.19 1066.33c-.121.215-.242.43-.363.646.428.076.856.151 1.284.227.056-.674-.315-.897-.921-.873"/><path d="m323.44 1029.36c.091.254.182.51.273.765.14-.251.281-.502.421-.753-.23-.084-.461-.087-.694-.012"/><path d="m303.23 1090.47l-.238.251c0 0 .121.305.12.306.1-.173.14-.359.118-.557"/><path d="m251.3 1064.35c-1.296-.021-2.591-.043-3.886-.064-.864.954-1.31 2.061-1.236 3.358 1.494-1.431 4.216-.949 5.122-3.294"/><path d="m254.44 1062.29c1.455-.427 3.897.708 3.705-2.332-.893.044-1.786.086-2.679.128l-.231.189h-.001c0 0 .231-.188.23-.188-.086-.527-.171-1.055-.256-1.583-.257.555-.515 1.11-.773 1.665h.001c-.039.406-.077.813-.116 1.219-.064.314-.024.615.12.902"/><path d="m263.04 1056.23c.913-.542 3.122 2.185 2.925-1.158-1.061.165-2.2.137-2.925 1.158"/><path d="m244.18 1071.33c.143.063.287.126.43.189-.123-.083-.247-.166-.37-.249l-.06.06"/><path d="m323.62 1051.79c.857.397 2.259-.386 3.423-.652.143-2.247-1.313-1.869-2.682-1.633-.135.856-1.559 1.906-.741 2.285"/><path d="m262.24 1046.18c.351.364.702.729 1.052 1.094-.001.001.431.007.431.007l.428-.061c1.236-1.29 2.471-2.58 3.707-3.87-2.579-.461-4.835-.277-5.618 2.83"/><path d="m276.27 1047.03c2.079-.439 3.618-.443 4.553-2.186-2.135-.68-3.586-.556-4.553 2.186"/><path d="m273.39 1025.38c-.419-.787-1.079-1.087-1.947-.971-.013.913-.025 1.827-.036 2.742.569.015 1.138.03 1.707.044.092-.605.184-1.21.276-1.815"/><path d="m253.65 1030c-.113-.231-.227-.462-.341-.694-.25-.177-.526-.251-.829-.221.037.756.353 1.156 1.17.915"/><path d="m332.68 1041.44c.793.58 1.16-.409 1.482-1.041-.236-.133-.489-.189-.76-.169-.544.253-1.309.781-.722 1.21"/><path d="m322.7 1032.5c.069-.129.138-.259.207-.389-.048-.139-.096-.279-.143-.418-.069.13-.184.256-.195.39-.011.135.083.278.131.417"/><path d="m315.79 1069.94c.124.326.248.653.372.979.236-.13.471-.26.706-.39-.102-.273-.131-.647-.314-.753-.168-.096-.503.098-.764.164"/></g></svg>