<svg xmlns="http://www.w3.org/2000/svg" width="212.77" height="143.22" viewBox="661.498 401.421 212.772 143.216" enable-background="new 661.498 401.421 212.772 143.216"><g fill="#a2d2dc"><path d="m705.7 494.04c-.113-.25-.254-.494-.318-.756-.016-.064.222-.189.343-.286 2.772.365 1.89-2.212 2.735-3.398.738-1.372 1.475-2.744 2.213-4.116 5.279-.173 8.271-4.375 12.11-7.01 7.02-4.819 13.479-10.341 19.08-16.809l-.13-.279c.717.118 1.434.236 2.15.353 2.02 1.479 3.931.803 5.824-.285.379.022.759.044 1.138.065-.091 2.424-2.495 3.294-3.41 5.103-.587 1.16-3.253 2.962.348 3.91-.162.203-.281.429-.356.678-1.281.193-2.661.044-3.705 1.063-2.46.171-4.517 1.347-6.539 2.614-.678.49-1.356.979-2.034 1.468-1.82.295-2.895 1.651-4.073 2.861-.437.388-.874.775-1.31 1.163-.518.501-1.036 1-1.554 1.502-.475.528-.949 1.057-1.424 1.585-1.29 1.362-2.581 2.724-3.871 4.086-1.764-1.118-2.47-.096-3.877 1.12-3.681 3.18-7.575 6.295-12.503 7.529-.305-.71 1.092-2.076-.832-2.163"/><path d="m835.35 441.59l.019-.013c-1.204-2.091-2.369.323-3.557.031 2.085-4.185 5.558-6.671 9.514-9.101 3.508-2.155 7.926-4.297 8.228-9.545.153-.142.314-.274.485-.393 2.618-.53 5.237-1.06 7.855-1.59.962-.177 1.923-.353 2.884-.529 1.223.216 2.348-.026 3.377-.719 1.222-.072 2.445-.143 3.667-.215-2.802 2.069-6.307 3.634-8.234 6.328-2.688 3.757-8.838 3.623-9.606 9.132-.073.178-.144.358-.213.538-3.071.772-6.523.464-8.923 3.142l.04-.02c-.666-.69-1.374-.353-2.08-.084-1.288.858-4.152-.077-3.456 3.038"/></g><path d="m778.77 426.97l.061-.401.397-.06c.961.29 1.513-.012 1.547-1.067l-.053.032c.636.281.96-.05 1.173-.598.328-.367.656-.734.984-1.1 1.402-1.343 3.709-1.889 3.841-4.353l.009-.006c.36.041.719.081 1.078.122 1.334-.995 2.667-1.99 4-2.985.868-.646 1.735-1.293 2.603-1.939 1.071.212 1.702-.516 2.392-1.119.662-.34 1.325-.679 1.987-1.019 2.343-.99 4.685-1.981 7.03-2.971 1.319-.28 2.639-.561 3.959-.841-7.626 6.392-15.14 12.929-22.939 19.1-2.878 2.276-5.6 5.49-10.02 4.77l-.049-.05c-.002-.662-.004-1.324-.005-1.986l-.018.04c.696-.025.976-.456 1.057-1.081l-.059.079c1.126-.541 1.602-1.343 1.031-2.566" fill="#b7d7de"/><path d="m663.14 516.51c-.037-1.781-.074-3.563-.111-5.34 0 0-.01.06-.01.064 1.036.375 1.494-.496 2.13-.988 1.92-.582 3.812-.588 5.662.275-3.685.553-5.953 2.919-7.671 5.989" fill="#c9dbe0"/><g fill="#8cccda"><path d="m693.97 507.74c.325-.192.65-.384.976-.576.943-.585 1.887-1.17 2.83-1.755 1.855-.809 3.216-2.182 4.355-3.809 1.238-.718 2.02-1.822 2.597-3.092.339-.332.679-.664 1.018-.996.311-.395.621-.789.932-1.184 0 0-.14-.125-.141-.124 4.927-1.234 8.821-4.348 12.502-7.528 1.407-1.216 2.114-2.238 3.877-1.12-.039.322-.07.645-.092.969-.236.16-.367.383-.392.668-.441.605-.882 1.21-1.322 1.815-.228.391-.457.782-.685 1.172-.39.616-.781 1.232-1.17 1.849-.305.453-.611.905-.917 1.357-.328.57-.656 1.14-.983 1.71-.494.813-.988 1.625-1.483 2.437-1.045 1.629-2.091 3.259-3.136 4.888-.785.929-1.57 1.857-2.355 2.786-.856.78-1.711 1.559-2.567 2.339-.362.272-.724.545-1.086.817-1.704 1.16-3.409 2.319-5.113 3.479-1.933.908-3.866 1.816-5.799 2.724-3.985 1.097-7.969 2.193-11.954 3.29-1.022.063-2.045.126-3.067.189-.146-1.903 1.15-2.113 2.594-2.745 2.952-1.292 5.642-3.143 5.181-7.094 0 0-.035.063-.033.065 1.223.253 2.453.537 3.25-.844l-.053.032c.881.04 1.676-.089 2.035-1.056.021-.234.088-.455.201-.663"/><path d="m757.95 457.17c.941-.593 1.881-1.185 2.822-1.778 1.292-.563 2.392-1.354 3.106-2.606 1.601-1.502 3.203-3 4.804-4.507.327 2.298 1.385 2.269 2.953.987 3.292-2.69 6.526-5.466 9.97-7.949 1.828-1.318 3.126-4.447 6.314-2.536.005.256 0 .512-.016.768-.68.989-1.36 1.979-2.04 2.968-2.044 2.335-2.987 5.266-4.324 7.984-1.507-.189-2.654-.487-4.434.47-4.652 2.501-8.574 5.881-12.291 9.377-2.962 2.785-7.551 4.503-7.945 9.517-3.03.222-6.06.445-9.09.667-3.601-.948-.935-2.75-.348-3.91.915-1.809 3.319-2.679 3.41-5.103.313-.363.627-.725.941-1.088 2.056-1.087 4.111-2.174 6.166-3.261"/></g><g fill="#b7d7de"><path d="m716.21 474.9c.282-.378.565-.755.847-1.133 2.02-1.965 4.04-3.93 6.06-5.895.291-.007.509-.137.654-.389 1.01-.65 2.023-1.3 3.035-1.951.875-.414 1.749-.828 2.623-1.242 1.795-.63 3.591-1.261 5.386-1.891 2.345-.245 4.69-.489 7.03-.734-5.596 6.468-12.05 11.991-19.08 16.809-3.839 2.634-6.831 6.835-12.11 7.01.144-.73.288-1.461.432-2.191.433-.762.865-1.525 1.298-2.288 1.127-1.829 2.253-3.659 3.38-5.488.277-.11.421-.316.432-.615"/><path d="m746.77 461.09c1.015-.21 2.031-.42 3.046-.63l-.231.193.125.273c.009.177.006.354-.009.53-1.893 1.088-3.806 1.764-5.824.285.964-.217 1.928-.434 2.893-.651"/></g><path d="m749.7 461.46c.015-.177.019-.353.009-.53.69-.164 1.379-.328 2.069-.492-.314.363-.627.725-.941 1.088-.378-.022-.758-.044-1.137-.066" fill="#98cfdb"/><path d="m830.29 442.96c-.274-.008-.453.118-.536.38-1.315.741-2.631 1.482-3.946 2.223-1.634.616-2.996 1.616-4.14 2.926-.251.011-.422.132-.515.365-.83.843-1.661 1.685-2.491 2.528-1.663.876-2.604 2.416-3.593 3.911-.326.26-.652.52-.978.78-.177-2.036-1.682-2.84-3.29-3.549.558-1.388 2.145-2.262 1.997-4 2.302.034 4.415-.524 5.332-2.836 1.416-3.567 4.565-4.797 7.667-6.168 1.827-.34 3.697-.623 4-2.996 4.514-2.109 6.954-7.187 12.146-8.452-.959-.801-2.393-1.201-2.228-2.816.707-.29 1.414-.58 2.121-.87l-.1.356c1.539 2.622 2.895 2.6 4.052-.281.333-.29.665-.58.998-.87.922-.209 1.844-.418 2.767-.627-.302 5.248-4.72 7.39-8.228 9.545-3.955 2.43-7.429 4.915-9.514 9.101-.507.449-1.014.9-1.521 1.352" fill="#95d0dd"/><path d="m852.84 434.65c-.703.158-1.406.316-2.108.473-.247-.054-.495-.103-.744-.148.769-5.508 6.919-5.375 9.606-9.132 1.927-2.694 5.433-4.259 8.234-6.328 1.326-.334 2.652-.668 3.978-1-.042.691-.084 1.383-.127 2.074-.89 2.849-2.521 4.565-5.425 6.04-2.768 1.404-6.195 2.997-7.428 6.555-1.995.492-3.991.982-5.986 1.472" fill="#b7d7de"/><path d="m772.19 440.6c.478-.69.956-1.381 1.432-2.07 1.936-1.532 2.683-3.699 3.194-5.992 4.425.72 7.147-2.494 10.02-4.77 7.801-6.17 15.313-12.708 22.939-19.1.506-.086 1.013-.172 1.522-.259 1.171.042 2.34.084 3.509.127.041 1.363.012 2.838-1.231 3.614-4.075 2.546-6.54 6.938-10.937 9.154-6.274 3.161-10.643 8.891-16.591 12.593-4.707 2.931-8.371 7.55-14.214 8.629.118-.642.235-1.285.352-1.927" fill="#a9d4dd"/><path d="m771.84 442.52c5.843-1.079 9.506-5.699 14.214-8.629 5.947-3.702 10.317-9.432 16.591-12.593 4.397-2.216 6.862-6.608 10.937-9.154 1.243-.777 1.272-2.252 1.231-3.615-.01-.349-.021-.699-.031-1.048 3.499-1.525 7.266-1.877 10.969-2.506-3.02 2.913-5.763 6.073-9.04 8.771-2.273 1.869-5.511 3.306-5.873 6.939-.783 1.175-3.137.747-2.961 2.901h-.006c-2-.37-3.56-.207-3.02 2.495l-.081.406-.418.075-.269-.244c-.697-1.605-1.306-.921-1.903.073-1.22-.156-1.845.691-2.501 1.485-.463.352-.926.704-1.389 1.056-4.153 2.549-7.02 6.453-10.367 9.849-3.188-1.911-4.486 1.219-6.314 2.536-3.444 2.482-6.678 5.259-9.97 7.949-1.569 1.282-2.626 1.311-2.953-.987.006-.252.026-.503.058-.753.616-.974 1.231-1.949 1.847-2.923.417-.694.836-1.388 1.254-2.082" fill="#98cfdb"/><path d="m810.83 420.69c.362-3.632 3.6-5.069 5.873-6.939 3.28-2.698 6.02-5.858 9.04-8.771.353-.153.707-.304 1.06-.456.994-.029 1.987-.058 2.981-.087.402.861 1.16 1.061 2.01 1.088-.206 2.443-2.735 2.527-4.067 3.818-2.034 1.972-4.414 3.482-3.939 6.812-.308.163-.617.326-.925.489-2.177.132-4.16.888-6.07 1.882-.985.685-3.041-.137-2.936 2.085h-.005c-.7-.826-1.383-.319-2.068.025-.316.049-.636.066-.958.053" fill="#8cccda"/><path d="m814.78 407.49c.01.349.021.698.031 1.048-1.169-.042-2.338-.085-3.509-.126 1.01-.886 2.241-.904 3.478-.922" fill="#b7d7de"/><path d="m858.83 433.18c1.233-3.558 4.66-5.151 7.428-6.555 2.904-1.473 4.534-3.188 5.425-6.04.129.28.226.571.292.873.143.446.286.891.429 1.337 0 1.843-.001 3.687-.002 5.528-.255.483-.509.969-.763 1.455-.277.217-.555.434-.832.651-1.018.355-2.035.711-3.053 1.066-2.975.56-5.95 1.121-8.924 1.682" fill="#c9dbe0"/><path d="m823.8 416.15c-.475-3.33 1.905-4.84 3.939-6.812 1.332-1.291 3.861-1.376 4.067-3.818-.001-.345-.002-.69-.004-1.034.011-.237.037-.473.077-.707.345-.017.691-.035 1.036-.052 1.055 1.193 2.456.674 3.736.756l.373.055.377-.015c.13.695.26 1.391.39 2.086-.019.955-.038 1.91-.056 2.866-2.03.362-4.103.569-6.078 1.123-2.587.725-2.04 1.966-.267 3.19-1.532.568-3.064 1.136-4.595 1.704-.337.107-.675.214-1.012.322-.663.112-1.323.224-1.983.336" fill="#86cbdb"/><path d="m847.71 421.24c-1.993.525-3.985 1.05-5.978 1.575l.068-.375c-1.455-1.026-2.869-2.119-4.378-3.061-1.539-.96-4.063-.89-3.657-3.737 1.021-.393 2.041-.786 3.062-1.179 2.779-1.06 4.113 1.277 5.913 2.518 1.156 1.723 2.983 2.573 4.676 3.595.116.213.214.435.294.664" fill="#6ab2cb"/><path d="m831.38 413.79c-1.772-1.224-2.319-2.465.267-3.19 1.976-.554 4.049-.761 6.078-1.123.865 1.505.503 2.639-1.033 3.42-1.771.298-3.542.595-5.312.893" fill="#76c3d4"/><path d="m837.4 404.52l-.377.015c0 0-.373-.055-.372-.055-.292-.934-1.128-.872-1.855-1.013.726-1.092 1.853-.953 2.933-.957-.104.32-.087.633.049.941-.126.358-.252.713-.378 1.069" fill="#2c383c"/><path d="m750.01 503.58c-.199.62-.398 1.24-.597 1.86-1.896 2.473-3.293 5.217-4.398 8.118-.495.726-.991 1.452-1.486 2.178-2.397-.519-4.485.258-6.682 1.208-9.604 4.149-16.641 11.879-25.03 17.705-1.205.836-2.296 1.847-3.39 2.832-1.244 1.119-2.109 2.301-.011 3.459-4.504.804-9 1.665-13.615 1.414.07-1.475 1.298-2.035 2.134-2.989 2.915-3.326 7.479-5.183 8.876-9.857 2.328-.676 4.656-1.352 6.984-2.029 3.223-.748 6.03-2.263 8.415-4.559.417-.365.835-.73 1.252-1.094.305-.256.61-.512.915-.768.245-.071.392-.232.442-.482 1.829-1.29 3.111-2.999 3.904-5.084.446-.652.893-1.304 1.339-1.955 1.376-.034 2.596 1.397 4.154.09 2.877-2.415 6.074-4.459 8.861-6.966 2.333-2.101 4.725-3.504 7.938-3.081" fill="#a9d4dd"/><path d="m708.41 540.94c-2.098-1.158-1.233-2.339.011-3.459 1.094-.985 2.185-1.995 3.39-2.832 8.394-5.826 15.431-13.556 25.03-17.705 2.197-.949 4.285-1.727 6.682-1.208-.72 1.56-1.441 3.119-2.161 4.679l-.324-.01-.309.098c-9.51 3.854-16.533 11.328-24.76 17.05-.188.131-.121.628-.173.955-.434.122-.869.245-1.303.367.378.134.757.268 1.135.402l.137.219c-.1.174-.104.35-.013.528-.973.185-1.946.371-2.919.556-.362.029-.723.059-1.085.088-1.115.091-2.229.182-3.343.273" fill="#badae1"/><path d="m705.81 529.5c-1.396 4.674-5.96 6.531-8.876 9.857-.836.954-2.064 1.514-2.134 2.989-.296.15-.607.254-.933.312-.723.08-1.445.159-2.168.239-1.56.116-3.12.231-4.679.347-1.856-1.269-.444-3.779-1.965-5.175.219-.127.432-.265.637-.414 5.098-.83 8.494-5.561 13.765-6.071.179-.017.244-1.213.362-1.859 1.326-.144 2.653-.289 3.979-.433.67.07 1.341.139 2.01.208" fill="#95d0dd"/><path d="m872.4 422.8c-.143-.446-.286-.891-.429-1.337.143.445.286.891.429 1.337" fill="#83a0a9"/><path d="m834.79 403.47c.726.14 1.563.079 1.855 1.013-1.281-.083-2.682.436-3.737-.756.296-.117.596-.22.902-.309.322.101.649.119.98.052" fill="#9cd8e5"/><path d="m831.8 404.49c.001.345.002.69.004 1.034-.852-.027-1.611-.227-2.01-1.088.178-.17.388-.232.632-.186.459.081.917.161 1.376.24" fill="#98cfdb"/><path d="m831.8 404.49c-.458-.079-.917-.159-1.377-.239.483-.157.969-.312 1.454-.468-.04.234-.066.47-.077.707" fill="#6ab2cb"/><path d="m750.01 503.58c-3.213-.423-5.604.98-7.939 3.08-2.787 2.506-5.984 4.551-8.861 6.966-1.558 1.308-2.778-.123-4.154-.09.129-.635.257-1.271.386-1.906.714-1.497 1.428-2.993 2.141-4.49.202.538.654 1.645.768 1.41 1.83-3.758 5.839-4.639 8.818-6.827 7.02-5.151 13.677-10.775 21.12-15.376 2.113-1.307 5.479-2.496 4.288-6.349l.272-.386c.647-.047 1.293-.094 1.94-.141 1.423-.118 2.846-.236 4.269-.355 3.393 2.853-.457 3.782-1.581 5.072-1.855 2.13-5.267 2.85-5.681 6.32.092.46.184.921.275 1.381 0 0-.04-.078-.041-.08-1.238-.272-2.485-.572-3.157.978-.355.276-.71.552-1.065.829-.417.193-.835.385-1.252.578l-.064-.01c-.658.332-1.317.665-1.975.997-3 1.303-5.13 3.533-6.718 6.335-.17.076-.348.119-.534.127-.516.072-1.293-.036-.59.866-.222.358-.441.715-.661 1.071" fill="#98cfdb"/><path d="m765.79 490.5c.414-3.471 3.826-4.191 5.681-6.32 1.124-1.29 4.974-2.219 1.582-5.072.242-.208.489-.41.74-.606 1.603-.173 3.043-.73 4.249-1.826 1.02-.54 2.039-1.081 3.059-1.621 1.871-.783 3.536-1.845 4.757-3.51.331-.336.662-.671.993-1.01.72-.689 1.441-1.379 2.161-2.068l.332-.251c.219-.289.438-.578.657-.867.894-1.037 1.788-2.075 2.682-3.112.241 1.629.898 2.753 2.521 1.263 2.144-1.969 4.983-2.672 7.266-4.213 3.342-2.255 7.07-4.423 8.33-8.771 1.607.709 3.112 1.513 3.289 3.549-.388.828-.777 1.655-1.166 2.483-.45.884-.9 1.769-1.35 2.653-.257.102-.511.211-.763.326-5.01.726-7.773 5.181-12.06 7.237-5.474 2.627-9.808 7.11-14.835 10.537-3.888 2.651-8.764 4.836-10.136 10.195-1.339.018-2.777-.128-2.961 1.795-.356.032-.711.063-1.067.095-1.089-1.328-2.611-.734-3.964-.889" fill="#a2d2dc"/><path d="m770.83 491.3c.184-1.923 1.622-1.777 2.961-1.795 2.555.235 5.05-.324 7.05-1.746 4.674-3.325 9.04-7.085 13.714-10.408 3.479-2.472 6.183-6.751 11.468-5.571-.272.753-.543 1.506-.815 2.258-.483.828-.966 1.656-1.449 2.484-.872 1.15-1.745 2.3-2.617 3.45-.325.413-.65.825-.975 1.238-.69.686-1.379 1.373-2.069 2.059-.477.402-.954.804-1.43 1.206-.238.041-.408.171-.51.39-.493.388-.986.775-1.479 1.163-.471.287-.943.575-1.414.862-2.468.931-4.936 1.862-7.404 2.793-2 .318-4.01.636-6.01.954-.763-.12-1.536-.272-2 .599-2 .136-4 .272-6 .409-.338-.115-.676-.23-1.014-.345" fill="#c2d9df"/><path d="m765.79 490.5c1.353.154 2.875-.44 3.965.889-1.231.163-2.462.325-3.691.49-.091-.458-.182-.918-.274-1.379" fill="#b5dfe8"/><path d="m762.87 492.79c.672-1.55 1.918-1.25 3.157-.978-.414.287-.829.572-1.244.857-.637.04-1.275.081-1.913.121" fill="#a2d2dc"/><path d="m666.82 520.63c-.519.005-1.038.01-1.559.015-.67-.039-1.338-.078-2.01-.117-.158-1-.317-2.01-.475-3.01.12-.336.24-.673.361-1.01 1.718-3.07 3.986-5.436 7.67-5.989.673-.043 1.345-.085 2.02-.128 2.65.16 5.301.319 7.951.479-2.376 3.083-7.716 3.944-7 9.343-2.319.14-4.638.28-6.957.42" fill="#b7d7de"/><path d="m673.78 520.22c-.713-5.398 4.626-6.26 7-9.343.996-.142 1.993-.283 2.989-.425.372.113.743.225 1.115.338.761.859 1.387.707 1.904-.255.593-.106 1.187-.211 1.778-.32.459 3.947-2.231 5.798-5.183 7.091-1.444.632-2.74.843-2.594 2.745-2.324.585-4.664.526-7.01.169" fill="#a2d2dc"/><path d="m715.8 538.5c.052-.327-.015-.824.173-.955 8.228-5.72 15.25-13.195 24.76-17.05-.089.522-.178 1.044-.268 1.566-.421.658-.841 1.316-1.262 1.974-.295.467-.589.933-.884 1.4-.376.542-.753 1.083-1.131 1.624-.127.49-.251.981-.376 1.472-.73-.172-.969.3-1.136.866-.68.687-1.36 1.374-2.04 2.061-1.493 1.254-2.986 2.509-4.48 3.763-.398.114-.795.227-1.193.343 0 .002.179-.091.179-.091-1.811.897-3.623 1.794-5.434 2.69-1.322.388-2.645.776-3.967 1.164-.991.053-1.982.106-2.973.16 0 0-.137-.219-.136-.217.106-.246.162-.503.168-.771" fill="#c9dbe0"/><g fill="#a2d2dc"><path d="m691.78 509.43c-.796 1.381-2.026 1.097-3.25.844-.03-.298.089-.513.354-.647.966-.066 1.931-.132 2.896-.197"/><path d="m693.76 508.4c-.359.967-1.153 1.095-2.035 1.056.678-.352 1.356-.704 2.035-1.056"/></g><g fill="#b7d7de"><path d="m686.79 510.53c-.517.962-1.143 1.114-1.904.255.635-.085 1.27-.17 1.904-.255"/><path d="m806.02 471.78c-5.285-1.179-7.99 3.1-11.468 5.571-4.676 3.322-9.04 7.082-13.714 10.408-1.999 1.423-4.499 1.981-7.05 1.746 1.372-5.359 6.248-7.544 10.136-10.195 5.03-3.427 9.361-7.91 14.835-10.537 4.284-2.056 7.05-6.511 12.06-7.237-.635 1.663-1.269 3.325-1.904 4.988-.431.677-.862 1.353-1.293 2.03-.205.415-.409.831-.614 1.246 0 0 .09-.158.089-.158-1.148.288-1.242 1.13-1.105 2.095l.035.043"/></g><g fill="#c2d9df"><path d="m805.99 471.74c-.138-.965-.043-1.807 1.105-2.095-.368.699-.737 1.397-1.105 2.095"/><path d="m807 469.8c.205-.415.409-.831.614-1.246.029.265.065.529.108.792-.199.217-.44.368-.722.454"/></g><path d="m706.67 496.33c-.311.395-.621.789-.932 1.184.311-.395.621-.79.932-1.184" fill="#a2d2dc"/><path d="m750.67 502.51c-.703-.902.075-.794.59-.866-.196.288-.393.577-.59.866" fill="#a9d4dd"/><path d="m673.17 533.26c-.391-.317-.781-.634-1.172-.951-2.441-2.245-4.882-4.489-7.322-6.733 4.01.057 6.999 2.397 10.152 4.441 2.847 1.845 5.02 4.775 8.617 5.422.119.694.238 1.389.357 2.083-.126 1.988-.179 4.092-2.944 1.826l-.318-.168c-1.914-1.551-3.829-3.103-5.743-4.654-.543-.422-1.085-.844-1.627-1.266" fill="#abaaba"/><path d="m683.92 531.53c-.175.335-.351.67-.526 1-.304.216-.608.432-.911.648.287.106.575.211.862.317.035.646.069 1.292.104 1.938-3.599-.648-5.77-3.577-8.617-5.422-3.153-2.044-6.143-4.384-10.152-4.441-.257-.067-.509-.147-.756-.242.031-.459.063-.917.094-1.376.931-.47 1.532-1.585 2.784-1.43 4.774 1.279 9.02 3.502 12.74 6.801 1.092.968 2.621 1.365 4.178 1.19.067.338.134.675.2 1.012" fill="#c2d9df"/><path d="m663.26 520.53c.669.039 1.337.078 2.01.117-.506.954-1.399.826-2.254.805.003-.328.086-.636.247-.922" fill="#c9dbe0"/><path d="m683.72 530.52c-1.557.175-3.086-.222-4.178-1.19-3.722-3.299-7.966-5.522-12.74-6.801.123-.196.158-.407.104-.632 5.607-.463 11.261.532 16.85-.535 3.837.2 7.296-1.456 10.935-2.226 2.699 2.765 5.398 5.53 8.098 8.294-2.331.038-4.661.076-6.992.114-.979-.187-1.958-.374-2.938-.562-2.171-.916-4.303-1.178-6.327.376-.539.164-.995.388-.774 1.092l-.025.026c-1.41-.045-1.28 1.424-2.01 2.044" fill="#d1e6ea"/><path d="m760.83 469.66c-1.323.068-2.646.136-3.968.206.394-5.01 4.983-6.73 7.945-9.515 3.717-3.496 7.639-6.876 12.291-9.377 1.781-.957 2.928-.66 4.434-.47-.455 1.527-.911 3.054-1.365 4.582-.224.387-.449.775-.674 1.162-.549.761-1.098 1.522-1.646 2.283-1.47 1.53-2.94 3.06-4.41 4.59-.279.035-.492.172-.638.413-1.039.776-2.078 1.552-3.117 2.328-.714.457-1.429.913-2.143 1.37-.751.238-1.837.063-1.711 1.385l.054-.042c-1.131-.496-2.01-.151-2.706.809-.782.093-1.564.184-2.346.276" fill="#76c3d4"/><path d="m743.8 473.55c1.994-.392 3.988-.785 5.982-1.177 3.694-.223 7.388-.445 11.08-.668 1.698 3.238 4.691 4.711 7.946 5.826-.173.189-.208.401-.106.636-2.629.123-5.259.246-7.888.369-.697.09-1.395.18-2.092.269-1.12.31-2.239.619-3.359.929-2.674.511-5.1 1.599-7.321 3.159-.403.241-.806.482-1.209.722-.283-.035-.567-.037-.851-.009-1.755-2.882-5.479-4.246-6.142-7.97 1.319-.694 2.639-1.39 3.958-2.086" fill="#d7eff4"/><path d="m768.81 477.53c-3.255-1.115-6.248-2.588-7.946-5.826l.097-.471c1.465-.364 3.02-.479 4.229-1.544.623-.126 1.241-.256.7-1.114l-.054.042c.576 1.091 1.367.265 2.068.231.762 4.489 4.502 5.433 7.973 6.697-.738.422-1.475.845-2.213 1.267-1.618.239-3.236.479-4.854.718" fill="#c7e7ef"/><path d="m723.46 490.09c.324-.447.648-.893.972-1.34.765-.75 1.531-1.5 2.296-2.249 2.336-.329 3.979.568 5.189 2.615 1.052 1.779 1.989 3.747 4.162 4.533-.105.611-.21 1.223-.315 1.834 0 0-.006.006-.005.006-1.273.085-1.235 1.54-2.119 2.031-2.25.421-3.664-1.262-5.276-2.255-2.419-1.49-4.777-2-7.388-.702.168-.494.336-.988.504-1.483.23-.401.459-.803.689-1.204.431-.595.861-1.191 1.291-1.786" fill="#a8dae7"/><path d="m736.08 493.64c-2.173-.785-3.11-2.754-4.162-4.533-1.21-2.047-2.854-2.944-5.189-2.615.35-.662.7-1.324 1.05-1.987.481-.544.962-1.088 1.443-1.632.306-.273.612-.547.918-.82.449-.22.899-.441 1.349-.661 1.811 1.13 3.608 2.163 5.82 2.499 1.993.303 3.853 1.167 3.684 3.781l-.002-.097c-.368.418-.735.836-1.103 1.253-.012.235-.021.47-.026.705-.274.106-.423.306-.446.6-.351.414-.703.827-1.054 1.241-.389.461-.778.923-1.168 1.384-.371.295-.743.589-1.114.882" fill="#b5dfe8"/><path d="m740.99 487.68c.168-2.614-1.691-3.478-3.684-3.781-2.212-.336-4.01-1.369-5.82-2.499.488-.605.976-1.21 1.464-1.816 1.359-.986 2.717-1.972 4.076-2.959.386-.224.772-.449 1.158-.673.552-.104 1.104-.209 1.656-.313.663 3.723 4.387 5.088 6.142 7.97-1.211 1.148-2.423 2.296-3.634 3.444-.283.031-.465.183-.546.456-.27.063-.541.12-.812.171" fill="#c7e7ef"/><path d="m825.8 439.52c-3.103 1.371-6.251 2.601-7.667 6.168-.918 2.312-3.03 2.87-5.332 2.836-3.083 2.226-7.151 3.184-9 6.997-2.152-.092-3.854.414-4 2.998-2.193-.151-2.943 3.787-5.709 2.01.465-2.556 1.552-4.849 2.967-7 1.386 1.01 2.685.312 3.598-.57 6.125-5.914 13.814-9.766 20.18-15.273 4.305-3.722 10.05-5.804 12.958-11.133.995-.385 1.99-.771 2.984-1.156.979-.048 1.957-.096 2.936-.143-.165 1.615 1.27 2.01 2.228 2.816-5.192 1.266-7.632 6.343-12.146 8.453-1.821.345-3.688.631-3.998 2.995" fill="#86cbdb"/><g fill="#8cccda"><path d="m803.8 455.52c1.849-3.813 5.917-4.772 9-6.997.147 1.74-1.439 2.614-1.997 4-2.671.214-4.216 3.059-7 2.995"/><path d="m825.8 439.52c.31-2.364 2.177-2.65 4-2.996-.304 2.374-2.174 2.656-4 2.996"/><path d="m841.74 424.74c.871-.225 1.741-.45 2.613-.673.481.132.96.262 1.439.392-1.157 2.881-2.513 2.903-4.052.281"/></g><path d="m845.79 424.46c-.479-.13-.959-.26-1.439-.392.812-.161 1.625-.32 2.438-.479-.333.291-.666.581-.999.871" fill="#83a0a9"/><path d="m804.34 426.57l.418-.075.081-.406c1.119-.696 2.751-.773 3.02-2.495h.006c1.805.669 2.854-.886 4.244-1.441.661-.424 2.08.014 1.745-1.539h.005c.972 1.224 1.99-.205 2.979.051.649.628 1.298 1.257 1.946 1.885.553 2.718 2.551 4.354 4.504 6.02-.029.304-.058.608-.087.912 0 0-.163.083-.168.087s-.064.066-.064.066c-2.173-1.151-3.543-.432-4.252 1.826l.048-.057c-2.125-.882-3.102.518-4.02 2.026l-.036.026c-1.719-.33-2.561.973-3.588 1.929-.398.066-.797.132-1.195.198-1.416-3.241-6.52-3.701-6.214-8.24.209-.26.419-.518.629-.777" fill="#d7eff4"/><path d="m827.75 417.39c.045-.266.157-.5.335-.703 1.895-.349 3.79-.698 5.684-1.047-.407 2.847 2.118 2.777 3.656 3.737 1.508.941 2.922 2.034 4.378 3.061-1.696.579-3.392 1.157-5.087 1.736-.657.02-1.315.039-1.972.058-2.863-1.736-5.947-3.248-6.994-6.842" fill="#86cbdb"/><path d="m715.8 538.5c-.006.268-.061.525-.167.771-.379-.136-.757-.27-1.136-.404.434-.123.868-.245 1.303-.367" fill="#d1e6ea"/><g fill="#86cbdb"><path d="m695.37 529.17c.817.005 1.634.009 2.45.014.667.18 1.333.361 2 .541-.118.646-.183 1.842-.362 1.859-5.271.51-8.666 5.241-13.765 6.071-.179-1.028-.357-2.056-.536-3.083.733-.931.619-1.995.48-3.064-.155-1.017 1.632-1.971.1-3.03l.025-.026c.654 1.323 1.365.169 2.053.047 1.671-.015 3.342-.03 5.01-.044.333.108.666.216.999.324.514.132 1.029.263 1.543.394"/><path d="m766.58 479.99c1.19 3.854-2.176 5.04-4.288 6.35-7.439 4.6-14.1 10.225-21.12 15.376-2.98 2.188-6.989 3.069-8.818 6.827-.114.235-.566-.872-.768-1.409-.139-.633.421-1.612-.836-1.693l.014.041c1.831.702 1.202-1.127 1.772-1.722.376-.764.752-1.528 1.128-2.292.596-2.03 3.343-3.308 2.091-5.984l.005-.006c.753 1.109 1.298.048 1.923-.185 3.166 3.436 4.317-1.01 5.849-1.926 5.699-3.414 12.902-5.247 15.34-12.659l-.048-.221c.718.126 1.42.189 1.941-.479.633-.103 1.267-.206 1.9-.309 1.304.097 2.607.194 3.911.291"/></g><path d="m803.8 455.52c2.789.064 4.334-2.781 7-2.995-1.259 4.348-4.988 6.516-8.33 8.771-2.284 1.541-5.123 2.245-7.266 4.213-1.623 1.491-2.279.366-2.521-1.262.075-.559.149-1.118.223-1.677.394-.679.788-1.358 1.182-2.038 2.765 1.772 3.516-2.165 5.709-2.01 1.827-.339 3.696-.623 3.999-2.997" fill="#95d0dd"/><path d="m683.35 533.5c-.287-.106-.575-.211-.862-.317.304-.216.608-.432.911-.648-.016.321-.033.643-.049.965" fill="#d1e6ea"/><path d="m717.81 523.11c-1.703.967-3.407 1.934-5.11 2.9-3.279.639-6.468 1.9-9.907 1.418-2.699-2.765-5.398-5.529-8.098-8.294.45-.284.9-.567 1.351-.85 1.92-.925 3.841-1.85 5.761-2.776 1.336-.661 2.672-1.323 4.01-1.984-.248 2.214 1.192 3.372 2.544 4.872 2.608 2.894 6.797 2.2 9.451 4.714" fill="#badae1"/><path d="m717.81 523.11c-2.654-2.514-6.842-1.82-9.451-4.713-1.353-1.5-2.793-2.658-2.544-4.872.424-.468.848-.937 1.272-1.405.599-.522 1.197-1.045 1.796-1.567.946-.693 1.891-1.386 2.837-2.079 2.67 4.948 8.266 5.952 12.268 9.104-.392.648-.784 1.295-1.176 1.943-.278.073-.429.252-.455.538-.421.186-.841.372-1.262.558-.57-.031-1.018.081-.939.806l.332.195-.389.229c-.764.422-1.527.842-2.289 1.263" fill="#b5dfe8"/><path d="m730.75 505.44c-1.195-.434-.889.9-1.441 1.224-5.297 1.374-10.147 1.418-13.03-4.383.386-.857.772-1.715 1.158-2.572.327-.537.654-1.074.98-1.611.48-.858.959-1.717 1.439-2.575.255-.13.368-.338.34-.622.27-.09.529-.205.777-.344 2.611-1.302 4.968-.789 7.388.702 1.612.993 3.03 2.676 5.276 2.255-.341.899-.682 1.797-1.023 2.696-.58 1.106-1.16 2.212-1.74 3.318-.28.637-.685 1.268-.109 1.953l-.014-.041" fill="#9cd8e5"/><path d="m716.28 502.28c2.884 5.801 7.733 5.757 13.03 4.383-.48 1.622-.96 3.244-1.441 4.867-.382.946-.763 1.893-1.145 2.839-.914 1.07-1.827 2.139-2.741 3.209-4-3.152-9.598-4.156-12.268-9.104.041-.324.141-.628.3-.913.591-.682 1.182-1.364 1.773-2.046.83-1.079 1.66-2.157 2.491-3.235" fill="#a8dae7"/><path d="m789.66 440.17c1.884-3.01 4.202-5.605 7.146-7.617 3.298 2.201 4.631 5.763 6.3 9.09-.082.297-.169.593-.26.887-.859.856-2.063 1.467-2.081 2.922l-.03.034c-1.232.118-1.516 1.134-1.925 2.032-.086.1-.25.205-.244.299.014.221.109.436.171.654l.008-.012c-.318-.093-.636-.187-.954-.28-.85-2.158-1.967-4.679-4.552-4.212-3.754.678-3.503-1.501-3.579-3.8" fill="#b5dfe8"/><path d="m803.1 441.65c-1.669-3.33-3-6.892-6.3-9.09.817-.872 1.634-1.745 2.451-2.617.279-.008.462-.145.549-.411 1.304-.728 2.607-1.456 3.911-2.185-.306 4.539 4.798 5 6.214 8.24-.661 1.608-3.092 1.762-3.167 3.852l-.039.033c-.303.032-.606.065-.909.097-.904.695-1.807 1.389-2.71 2.084" fill="#c7e7ef"/><path d="m789.66 440.17c.076 2.299-.175 4.477 3.58 3.799 2.585-.467 3.702 2.054 4.552 4.212-.33.779-.66 1.558-.99 2.337-.198.076-.399.143-.602.202-3.92-.24-7.301-3.285-11.475-2.203.885-1.915 1.769-3.831 2.654-5.746.478-.746.956-1.492 1.434-2.238.273-.14.556-.262.847-.363" fill="#a8dae7"/><path d="m784.72 448.52c4.174-1.082 7.555 1.963 11.475 2.203-.376.624-.752 1.247-1.129 1.871-1.394.412-1.187 1.636-1.356 2.67l-.085.222c-.245.531-.49 1.061-.735 1.592-.363 1.481-.727 2.962-1.09 4.442-.483.719-.966 1.437-1.449 2.156-3.793-1.407-7.07-4.673-11.657-3.205.031-.286.08-.569.147-.849.603-.799 1.206-1.598 1.809-2.397.188-.382.375-.764.563-1.145 1.168-2.52 2.337-5.04 3.507-7.56" fill="#9cd8e5"/><path d="m773.9 464.53c.263-.004.441-.129.531-.376.455-.224.91-.448 1.365-.672.393 4.153 4.981 5.239 6.346 8.681-.444.439-.888.877-1.331 1.316-1.328.719-2.656 1.439-3.983 2.158-.316-.041-.634-.072-.952-.093-3.471-1.265-7.211-2.208-7.973-6.697.19-.225.386-.444.589-.658.433-.256.866-.512 1.298-.768 1.628-.597 3.02-1.53 4.11-2.891" fill="#b5dfe8"/><path d="m740.99 487.58c-.368.418-.735.835-1.103 1.253.368-.417.735-.835 1.103-1.253" fill="#c7e7ef"/><path d="m823.04 429.56l.164-.083c3.207-1.029 6.414-2.058 9.621-3.087.331.001.654.053.968.158-2.906 5.329-8.654 7.411-12.958 11.133-6.368 5.506-14.06 9.358-20.18 15.273-.914.882-2.212 1.577-3.598.571.237-.671.473-1.342.71-2.01.544-.948 2.03-1.595.973-3.053l-.008.012c1.031.708 1.241-.275 1.669-.81.501-.666 1.778-1.214.329-2.174 0 0 .03-.034.029-.034 2.194 1.345 2.031-1.311 3.121-1.839 1.041-1.01 2.081-2.02 3.122-3.03.066-.149.222-.336.179-.439-.104-.247-.302-.455-.462-.679l.039-.033c3.06.361 4.287-2.326 6.264-3.767.74-.602 2.5-.426 1.687-2.212l.036-.026c2.03.692 3.209-.306 4.02-2.026l-.048.057c1.793.312 3.01-.684 4.16-1.832l.16-.064" fill="#76c3d4"/><path d="m803.8 455.52c-.303 2.374-2.172 2.657-3.999 2.997.146-2.583 1.849-3.089 3.999-2.997" fill="#8cccda"/><path d="m834.74 424.23c-.705.319-1.41.638-2.115.958-2.703-.155-5 1.317-7.527 1.872-.942-3.127-3.413-4.118-6.308-4.515-.649-.628-1.298-1.257-1.946-1.885.083-.187.195-.356.334-.507 2.31-.745 4.798-.979 6.872-2.4.57-.131 1.14-.262 1.709-.392.663.009 1.325.018 1.988.027 1.046 3.594 4.13 5.106 6.993 6.842" fill="#a8dae7"/><g fill="#c7e7ef"><path d="m818.79 422.55c2.895.398 5.366 1.389 6.308 4.515-.601.503-1.202 1.01-1.803 1.508-1.954-1.669-3.953-3.306-4.505-6.02"/><path d="m822.88 429.63c0 0 .076.022.084.014.008-.008.067-.071.072-.074.005-.004-.156.06-.156.06"/></g><path d="m693.82 528.78c.34-.093.68-.185 1.021-.278.203.202.376.427.522.673-.514-.132-1.029-.263-1.543-.395" fill="#6ab2cb"/><path d="m720.15 521.43c-.079-.726.369-.837.939-.806-.313.269-.626.537-.939.806" fill="#badae1"/><path d="m742.96 488.55c.208-.073.349-.212.423-.419 1.522-1.177 3.043-2.354 4.564-3.531.372-.26.744-.521 1.116-.781 2.346-.971 4.691-1.941 7.04-2.912.924-.066 1.848-.132 2.773-.198-2.438 7.412-9.64 9.245-15.34 12.659-1.532.918-2.683 5.362-5.849 1.926.161-.489.321-.978.482-1.466.591-.763 1.182-1.527 1.772-2.29.237-.064.388-.214.453-.451.226-.083.379-.239.456-.468.705-.69 1.409-1.379 2.113-2.069" fill="#76c3d4"/><path d="m782.14 472.17c-1.365-3.442-5.953-4.529-6.346-8.681.967-1 1.935-2.01 2.902-3.01 4.583-1.468 7.865 1.798 11.658 3.205-.222.54-.444 1.079-.667 1.619-.487.582-.973 1.164-1.46 1.745-.291.375-.581.749-.872 1.124-.717.707-1.433 1.414-2.15 2.121-.212-.041-.344.043-.397.252-.889.544-1.778 1.087-2.668 1.63" fill="#a8dae7"/><g fill="#2c383c"><path d="m702.79 527.43c-2.331.038-4.661.076-6.992.114-.318.318-.635.636-.954.956.203.202.377.427.522.673.818.003 1.635.007 2.452.012.668.18 1.334.361 2 .54 1.327-.144 2.652-.288 3.977-.433 0 0 .001 0 .002.001.671.07 1.342.139 2.01.208 2.328-.677 4.656-1.353 6.984-2.029-.032-.487-.065-.973-.097-1.46-3.278.639-6.468 1.9-9.907 1.418"/><path d="m719.25 494.03c-.305.453-.611.905-.917 1.357.508.047 1.015.093 1.523.14.255-.131.368-.338.34-.623 0 0 .001.001.002.002.27-.09.529-.205.777-.344.168-.495.336-.989.504-1.483-.353-.299-.705-.598-1.058-.897-.39.616-.781 1.232-1.171 1.848"/><path d="m721.21 522.92c-.371-.355-.743-.709-1.114-1.064-.763.42-1.525.841-2.288 1.262-1.703.966-3.407 1.933-5.11 2.9.032.487.065.973.097 1.46 3.223-.748 6.03-2.263 8.415-4.558"/><path d="m749.06 483.82c0 0 0 0 0 0 2.347-.97 4.692-1.941 7.04-2.911-.246-.391-.493-.782-.74-1.173-2.675.511-5.1 1.598-7.322 3.158-.403.24-.806.481-1.209.722.373.329.745.657 1.118.985.371-.262.743-.522 1.115-.781"/><path d="m778.05 476.68c-.407-.348-.815-.695-1.222-1.042-.316-.041-.634-.072-.952-.093-.738.422-1.475.844-2.213 1.267.046.564.092 1.129.138 1.693 1.604-.174 3.043-.73 4.249-1.825"/><path d="m773.44 463.12c.329.345.659.69.989 1.035.455-.224.91-.448 1.365-.672.967-1 1.934-2.01 2.902-3.01.031-.286.08-.569.147-.849.603-.799 1.205-1.598 1.809-2.396-.386-.325-.771-.651-1.156-.976-.548.761-1.097 1.522-1.646 2.283-1.47 1.53-2.94 3.06-4.41 4.59"/><path d="m826.81 404.52c.994-.029 1.988-.058 2.98-.089.178-.169.388-.231.63-.186.485-.155.971-.311 1.456-.467.345-.017.691-.035 1.036-.052.295-.117.596-.22.902-.309-.866-1.498-2.566-.447-3.673-1.2-2.586.439-5.176.878-7.77 1.317 1.446.468 3.267-.734 4.439.986"/><path d="m802.17 426.4c.634-.025 1.268-.049 1.902-.074-.697-1.605-1.306-.92-1.902.074"/><path d="m722.91 487.56c-.038.322-.069.645-.092.969-.236.161-.367.383-.391.668.343.299.686.596 1.029.894.324-.447.648-.893.972-1.34.764-.749 1.53-1.499 2.295-2.249.35-.663.7-1.325 1.05-1.987-.33-.347-.661-.694-.992-1.041-1.29 1.362-2.581 2.724-3.871 4.086"/><path d="m731.07 479.22c-.436.387-.873.775-1.31 1.163-.518.5-1.036 1-1.553 1.503-.475.527-.949 1.056-1.424 1.584.33.347.661.694.992 1.041.481-.544.962-1.088 1.443-1.631.306-.273.612-.547.918-.82.449-.22.899-.441 1.348-.661.488-.606.976-1.211 1.464-1.816 1.358-.986 2.716-1.973 4.075-2.959-.625-.088-1.251-.175-1.878-.264-1.822.294-2.898 1.65-4.075 2.86"/><path d="m835.35 441.53c-1.193-2.01-2.35.362-3.53.072-.507.452-1.014.903-1.521 1.354.291.317.582.634.873.952 1.395-.775 2.791-1.551 4.186-2.327 0 .001 0 .002.001.004 1.191-.459 2.382-.917 3.573-1.375-.039-.555-.078-1.109-.117-1.663-1.279.853-4.111-.061-3.465 2.983"/><path d="m825.76 417.36c.006-.515.012-1.03.018-1.545-.66.113-1.321.225-1.981.337-.308.163-.617.326-.925.489.393.371.786.741 1.179 1.112.57-.13 1.14-.261 1.709-.393"/><path d="m818.74 431.46c1.783.301 2.997-.689 4.143-1.834 0 0 .076.022.084.014-2.142-1.147-3.504-.449-4.219 1.753-2.108-.86-3.082.531-4 2.033 2 .684 3.178-.285 3.993-1.966"/><path d="m813.86 420.61c-.699-.826-1.382-.319-2.067.025.107.504.215 1.01.322 1.513.661-.424 2.08.013 1.745-1.538"/><path d="m806.72 439.47c-.303.032-.606.065-.909.097.397.34.795.681 1.192 1.021.065-.148.222-.335.179-.439-.104-.247-.302-.455-.462-.679"/><path d="m822.87 416.64c-2.177.132-4.16.888-6.07 1.882-.985.685-3.041-.137-2.936 2.085.972 1.224 1.99-.205 2.979.051.084-.188.195-.356.334-.507 2.31-.744 4.798-.978 6.872-2.399-.393-.371-.786-.741-1.179-1.112"/><path d="m799.67 427.88c-.463.352-.926.705-1.387 1.056.324.334.649.667.973 1 .279-.009.461-.146.548-.41 1.304-.729 2.608-1.457 3.911-2.185.21-.259.42-.517.63-.776l-.271-.243c-.633.025-1.267.05-1.902.074-1.221-.157-1.846.69-2.502 1.484"/><path d="m810.83 420.69c-.783 1.175-3.137.747-2.961 2.901 1.805.669 2.855-.886 4.244-1.441-.107-.504-.215-1.01-.323-1.513-.318.049-.638.066-.96.053"/><path d="m807 440.58c-.397-.34-.795-.68-1.192-1.02-.903.694-1.806 1.389-2.709 2.083-.082.297-.169.593-.26.887.346.361.692.722 1.039 1.083 1.041-1.01 2.081-2.02 3.122-3.03"/><path d="m813.02 435.67c-.633-.094-1.266-.188-1.9-.282-.4.065-.799.131-1.197.197-.661 1.608-3.092 1.761-3.167 3.852 3.06.361 4.288-2.326 6.264-3.767"/><path d="m807.87 423.59c-2-.371-3.56-.208-3.02 2.495 1.12-.696 2.751-.772 3.02-2.495"/><path d="m814.71 433.45c-1.719-.33-2.56.973-3.587 1.93.634.095 1.267.189 1.9.283.74-.602 2.501-.426 1.687-2.213"/><path d="m772.8 463.54c-1.039.776-2.078 1.552-3.117 2.328-.714.457-1.429.914-2.143 1.37.315.319.631.639.946.958.432-.256.865-.512 1.298-.768 1.629-.594 3.02-1.528 4.111-2.889.264-.004.441-.129.532-.376-.33-.346-.66-.691-.989-1.036-.28.035-.492.172-.638.413"/><path d="m740.85 490.62c.705-.69 1.409-1.379 2.113-2.069.208-.072.348-.212.423-.418 1.522-1.177 3.044-2.354 4.565-3.531-.373-.329-.745-.657-1.118-.985-.283-.035-.567-.038-.851-.009-1.211 1.148-2.423 2.296-3.634 3.444-.283.031-.465.183-.547.455-.269.062-.539.119-.81.171l-.002-.097c-.368.418-.735.835-1.103 1.253-.012.235-.021.47-.026.705-.274.106-.423.306-.446.599-.351.415-.702.828-1.053 1.242-.39.461-.779.923-1.168 1.384.325.355.651.71.977 1.065.59-.763 1.181-1.527 1.772-2.29.236-.064.387-.215.453-.451.226-.084.377-.24.455-.468"/><path d="m785.86 471.55c0 0 0 0 0 0 .331-.336.662-.671.993-1.01-.55-.087-1.1-.173-1.65-.26-.212-.041-.344.043-.398.253-.89.542-1.78 1.085-2.669 1.628-.443.439-.887.877-1.331 1.316-1.327.719-2.654 1.439-3.982 2.157.407.348.815.695 1.222 1.042 1.019-.541 2.039-1.081 3.059-1.622 1.871-.781 3.535-1.844 4.756-3.507"/><path d="m735.76 495.48c.753 1.108 1.298.048 1.923-.185.161-.489.321-.978.482-1.467-.325-.355-.651-.71-.976-1.065-.372.294-.743.588-1.114.882-.105.612-.21 1.223-.315 1.835"/><path d="m800.4 447.66c.502-.665 1.779-1.214.33-2.174-1.232.118-1.517 1.134-1.926 2.032-.086.1-.249.205-.243.298.014.216.104.426.166.639-.313-.093-.627-.184-.94-.276-.33.779-.66 1.558-.99 2.337.323.332.647.664.97.996.541-.943 2.01-1.588.99-3.03 1.01.673 1.22-.293 1.643-.823"/><path d="m760.77 480.01c0 0 0-.001 0-.001.633-.102 1.266-.205 1.899-.308 1.304.098 2.607.195 3.911.294 0 0 .271-.387.272-.387.646-.047 1.292-.094 1.939-.141 1.423-.118 2.846-.236 4.269-.354.242-.208.489-.41.74-.606-.046-.564-.092-1.128-.138-1.693-1.618.239-3.236.479-4.854.718-.173.189-.208.401-.106.636-2.629.123-5.259.246-7.888.369-.697.09-1.394.18-2.091.27-1.12.309-2.239.618-3.359.928.246.391.493.782.74 1.173.924-.066 1.848-.132 2.772-.198l-.048-.22c.719.126 1.42.189 1.942-.48m5.932-.431c-.651-.156-1.301-.242-1.948-.232.648-.01 1.297.076 1.948.232"/><path d="m789.69 465.29c-.487.581-.974 1.163-1.461 1.746-.29.374-.58.748-.87 1.122-.718.708-1.434 1.415-2.151 2.122.55.087 1.1.173 1.65.26.72-.689 1.441-1.379 2.161-2.068 0 0 .327-.247.331-.252.221-.288.439-.576.658-.866-.106-.689-.212-1.376-.318-2.064"/><path d="m833.81 403.42c.321.102.648.12.979.053.725-1.092 1.853-.953 2.933-.957-.104.32-.088.634.049.941-.126.356-.252.712-.378 1.068.13.696.26 1.391.389 2.086.455-.396.728-.792.831-1.186-.103.395-.376.791-.832 1.187-.018.956-.037 1.911-.056 2.866.865 1.505.504 2.639-1.033 3.419.043.521.086 1.042.13 1.563 2.78-1.059 4.114 1.277 5.914 2.518.002-.034.003-.067.005-.101-.002.034-.003.068-.005.102 1.156 1.722 2.983 2.572 4.676 3.593.549-.126 1.1-.251 1.651-.377 2.211.363 4.434.836 6.453-.668-2.192-.004-4.388-.008-6.585-.012-2.03-1.508-4.061-3.02-6.094-4.525-3.711-3.396-2.752-8.33-4.112-12.501-.001 0-.001 0-.002 0-2.808-1.802-5.7-.921-8.588-.269 1.109.753 2.808-.298 3.675 1.2"/><path d="m831.38 413.79c-1.532.568-3.064 1.136-4.595 1.704-.338.107-.675.215-1.013.322-.006.515-.012 1.03-.018 1.545.663.009 1.325.018 1.988.027.045-.266.157-.5.335-.703 1.894-.349 3.789-.698 5.684-1.047 1.02-.393 2.041-.786 3.061-1.179-.043-.521-.087-1.042-.13-1.562-1.771.298-3.541.596-5.312.893"/><path d="m857.92 419.71c-.338-.029-.598-.166-.776-.412-.537.076-1.079.153-1.62.23-2.02 1.504-4.24 1.031-6.451.668-.551.126-1.102.251-1.653.377.115.213.213.435.293.664-1.993.525-3.984 1.05-5.977 1.575l.068-.376c-1.696.579-3.391 1.157-5.087 1.736-.657.019-1.315.039-1.972.058-.705.32-1.41.639-2.115.958-2.703-.155-5 1.318-7.528 1.873-.601.503-1.202 1-1.803 1.508-.029.304-.058.608-.086.912 3.207-1.029 6.414-2.058 9.621-3.087.331.001.654.053.968.158.995-.385 1.99-.771 2.985-1.157.979-.047 1.957-.095 2.936-.143.707-.29 1.414-.58 2.121-.871l-.1.357c.871-.224 1.741-.449 2.612-.674.813-.159 1.626-.318 2.439-.477.922-.209 1.844-.418 2.766-.627.152-.143.314-.274.485-.393 2.618-.53 5.237-1.06 7.855-1.59.006-.423.012-.846.019-1.267"/><path d="m796.2 450.72c-.377.623-.753 1.247-1.129 1.871-.452.89-.904 1.78-1.356 2.67l-.085.222c-.244.529-.489 1.059-.734 1.59-.364 1.481-.728 2.962-1.091 4.442-.482.719-.965 1.437-1.448 2.156-.222.54-.445 1.079-.667 1.619.106.688.212 1.376.318 2.064.894-1.037 1.788-2.074 2.682-3.111.074-.559.149-1.117.223-1.676.394-.68.788-1.359 1.182-2.038.465-2.556 1.552-4.849 2.967-7 .237-.671.473-1.342.71-2.01-.323-.332-.647-.664-.97-.995-.198.076-.399.143-.602.202"/><path d="m732.53 503.76c-.555-.077-1.108-.154-1.661-.23-.274.623-.66 1.241-.139 1.908-1.173-.413-.876.905-1.426 1.227-.48 1.623-.961 3.245-1.441 4.867.526.031 1.052.062 1.577.093.714-1.497 1.428-2.994 2.142-4.49-.106-.484.19-1.168-.224-1.5 1.087.092.679-1.356 1.172-1.875"/><path d="m765.19 469.69c.52-.105 1.027-.219.869-.752.547.577 1.23-.061 1.845-.089.19-.226.386-.445.589-.658-.315-.319-.631-.639-.946-.958-.738.234-1.792.077-1.71 1.324-1.105-.461-1.968-.117-2.652.829-.783.091-1.566.182-2.348.274.041.525.083 1.05.124 1.574 1.465-.363 3.02-.478 4.229-1.544"/><path d="m735.76 495.49c-1.273.085-1.234 1.54-2.119 2.031-.341.899-.682 1.797-1.023 2.696-.58 1.106-1.16 2.212-1.74 3.318.553.076 1.106.153 1.661.23.378-.763.754-1.527 1.13-2.291.597-2.03 3.342-3.308 2.091-5.984"/><path d="m737.02 476.62c.386-.224.772-.449 1.158-.673-.334-.354-.669-.708-1-1.061-.677.49-1.356.979-2.032 1.47.627.089 1.252.177 1.878.264"/><path d="m713.79 505.52c.83-1.078 1.66-2.156 2.49-3.234.386-.857.772-1.715 1.158-2.572.326-.537.653-1.073.978-1.61.48-.858.959-1.717 1.439-2.575-.507-.047-1.015-.093-1.523-.14-.328.569-.656 1.139-.984 1.709-.493.814-.987 1.626-1.482 2.437-1.044 1.629-2.09 3.259-3.135 4.888.353.366.706.732 1.059 1.097"/><path d="m738.18 475.95c.552-.104 1.104-.209 1.656-.313 1.32-.696 2.639-1.391 3.959-2.087 1.994-.393 3.987-.785 5.981-1.178 3.694-.223 7.388-.445 11.08-.668l.097-.47c-.041-.525-.082-1.05-.124-1.575-1.323.068-2.645.136-3.968.206-3.03.224-6.06.447-9.09.669-.162.203-.281.428-.357.677-1.281.192-2.661.044-3.705 1.063-2.459.171-4.516 1.347-6.538 2.614.334.354.669.707 1.01 1.062"/><path d="m721.48 493.08c.23-.401.459-.803.689-1.203.429-.595.859-1.191 1.289-1.786-.343-.298-.686-.596-1.029-.894-.441.604-.882 1.209-1.323 1.814-.227.392-.455.782-.684 1.172.352.299.705.598 1.058.897"/><path d="m780.65 457.22c.188-.382.375-.764.563-1.146-.237-.225-.474-.45-.71-.674.237.225.474.45.711.673 1.169-2.519 2.338-5.04 3.507-7.559.885-1.916 1.769-3.831 2.654-5.746.478-.746.955-1.491 1.433-2.237.273-.142.556-.263.846-.364 1.885-3.01 4.203-5.604 7.146-7.617.817-.872 1.634-1.745 2.451-2.617-.324-.333-.648-.666-.973-1-4.154 2.548-7.02 6.453-10.367 9.848.006.257 0 .513-.017.768-.679.99-1.358 1.979-2.038 2.968-2.044 2.335-2.986 5.265-4.323 7.983-.455 1.528-.911 3.055-1.366 4.582-.223.389-.448.776-.673 1.162.385.326.77.651 1.156.976"/><path d="m723.82 520.57c1.829-1.29 3.111-2.999 3.904-5.084.447-.652.893-1.303 1.339-1.954.129-.635.257-1.271.386-1.906-.526-.031-1.051-.062-1.577-.093-.382.946-.763 1.893-1.145 2.839-.914 1.07-1.826 2.138-2.74 3.208-.392.648-.784 1.295-1.176 1.943-.278.073-.429.253-.456.539.168.163.337.326.505.489-.168-.163-.337-.325-.505-.488-.421.186-.841.372-1.262.558-.313.268-.626.537-.939.806l.331.195-.387.228c.371.355.743.709 1.114 1.064.417-.365.834-.729 1.25-1.094.307-.256.612-.512.917-.768.245-.071.391-.232.441-.482"/><path d="m707.81 509.55c-.362.272-.723.544-1.085.816.119.587.239 1.173.358 1.76.599-.522 1.197-1.045 1.796-1.567.946-.693 1.891-1.386 2.837-2.079.041-.324.141-.628.3-.913-.546-.119-1.093-.237-1.639-.356-.856.78-1.711 1.559-2.567 2.339"/><path d="m712.73 504.42c-.785.928-1.57 1.857-2.355 2.786.546.119 1.093.237 1.639.356.591-.682 1.182-1.364 1.773-2.045-.352-.366-.705-.731-1.057-1.097"/><path d="m803.88 443.62c-.346-.361-.693-.722-1.039-1.083-.859.856-2.063 1.467-2.082 2.922 2.194 1.345 2.031-1.311 3.121-1.839"/><path d="m738.32 525.44c-.376.542-.752 1.083-1.13 1.623.262.198.523.402.781.609.987-.396 1.67-1.054 1.852-2.145.237-.176.344-.412.322-.706.408-.655.815-1.309 1.223-1.964-.301-.263-.601-.527-.902-.791-.421.658-.841 1.316-1.262 1.974-.295.467-.589.933-.884 1.4"/><path d="m751.8 501.51c-.169.076-.347.118-.533.127-.197.289-.394.577-.591.866-.22.356-.44.713-.66 1.069-.199.62-.398 1.239-.597 1.859-1.896 2.473-3.292 5.217-4.398 8.118.493.043.985.086 1.477.129 1.461-2.713 2.921-5.427 4.382-8.141.847-1.281 1.695-2.561 2.541-3.841-.54-.062-1.081-.124-1.621-.186"/><path d="m743.53 515.73c-.721 1.56-1.441 3.12-2.162 4.679l-.324-.01-.309.098c-.09.522-.179 1.044-.268 1.566.301.264.602.527.903.791.47-.78.941-1.561 1.411-2.341 1.738-2 2.722-4.42 3.712-6.832-.493-.043-.985-.086-1.477-.129-.495.726-.991 1.452-1.486 2.178"/><path d="m871.93 417.43c-.893-1.443-2.24-.756-3.445-.734-.68.831-1.554 1.01-2.553.757-1.772.373-3.547.746-5.321 1.12-1.251-.217-2.438-.113-3.477.72.178.245.438.383.777.412.955-.074 1.908-.149 2.862-.223-.954.074-1.907.149-2.862.224-.006.422-.012.845-.018 1.267.961-.177 1.923-.353 2.884-.529 1.222.214 2.346-.028 3.374-.72.001 0 .001 0 .002 0 1.223-.072 2.446-.143 3.668-.215 1.326-.335 2.652-.669 3.978-1-.042.691-.084 1.382-.126 2.073.129.28.226.571.292.872.143.446.286.891.429 1.337-.001 1.844-.001 3.687-.002 5.528.045.147.09.294.134.441-.045-.148-.09-.296-.135-.444-.254.487-.508.973-.762 1.458.005.053.009.105.013.158-.004-.052-.009-.104-.013-.157-.277.217-.555.434-.832.651-.546.888-1.327 1.104-2.181 1.111.854-.007 1.634-.223 2.18-1.111-1.018.356-2.035.711-3.053 1.066-2.974.561-5.948 1.122-8.923 1.683-1.996.49-3.991.98-5.987 1.47.125.157.257.284.394.385-.138-.102-.269-.228-.394-.385-.703.157-1.406.315-2.109.473-.247-.054-.495-.103-.744-.148-.073.179-.144.358-.213.538-3.059.77-6.494.469-8.893 3.113-.664-.675-1.368-.342-2.069-.075.039.555.078 1.109.117 1.663.592-.594 2.303.201 1.967-1.549 3.57.842 6.709-.764 9.955-1.765-.001-.436 1.025-1.044-.213-1.273-.122.003-.243-.007-.363-.02.121.013.242.022.365.019 1.237.23.211.838.212 1.274 1.936-.454 3.871-.909 5.808-1.363 5.151-.806 10.42-1.13 15.16-3.658.779.109 1.139-.352 1.359-1 1.393-4.645 1.913-9.211-1.239-13.439"/><path d="m751.8 501.51c.54.062 1.081.124 1.621.186 2.094-1.863 4.188-3.725 6.282-5.588-.395-.311-.79-.622-1.185-.933-3 1.303-5.129 3.533-6.718 6.335"/><path d="m693.89 544.24c-.007-.527-.014-1.055-.021-1.583-.723.08-1.446.159-2.168.239-1.559.117-3.119.232-4.678.348-1.856-1.269-.444-3.779-1.965-5.175.218-.127.43-.265.635-.414-.179-1.028-.357-2.056-.536-3.084-.108-1.01-.216-2.02-.324-3.02.108 1.01.216 2.02.325 3.02.733-.931.619-1.996.48-3.065-.126-.835 1.053-1.628.628-2.473.507.223 1.034-.445 1.548-.537 1.671-.014 3.342-.029 5.01-.044.333.108.666.216.998.324.341-.092.681-.185 1.021-.278.318-.318.635-.636.953-.954-.979-.188-1.957-.375-2.936-.562-2.171-.916-4.303-1.179-6.327.375-.54.164-.996.388-.774 1.092.015.031.031.054.046.083-.025-.019-.044-.038-.071-.057-1.41-.046-1.28 1.423-2.01 2.044.067.337.134.674.2 1.01-.175.335-.351.67-.526 1-.016.322-.033.644-.049.966.035.646.069 1.292.104 1.938.119.694.238 1.389.357 2.083-.125 1.988-.178 4.091-2.943 1.826-.028.751-.057 1.502-.085 2.253 1.331.991 2.662 1.983 3.993 2.974.386-.074.772-.148 1.158-.222 1.974.093 3.948.187 5.922.281l-.085-.171c-.001-.024-.002-.048-.003-.072.001.024.002.047.003.071.707-.073 1.414-.147 2.121-.221"/><path d="m705.78 543.32c1.784.462 3.359-.385 5-.801-1.741-.191-3.494-.457-5 .801"/><path d="m702.77 543.5c-1.084.075-2.169.15-3.254.225 1.118.397 2.199.277 3.254-.225"/><path d="m733.64 531.46c0 0 0 0 0 0-1.495 1.254-2.988 2.509-4.481 3.763.593.112 1.186.224 1.779.336 1.729-1.01 3.377-2.11 4.404-3.911.332-.544.664-1.088.996-1.631-.228-.197-.448-.403-.659-.617-.679.687-1.359 1.374-2.039 2.06"/><path d="m727.97 535.57l.179-.089c-1.811.896-3.623 1.793-5.434 2.69-1.322.388-2.644.776-3.966 1.164-.991.054-1.982.107-2.973.16-.1.174-.104.35-.013.528-.973.186-1.946.371-2.919.556.014.009.028.019.042.029-.014-.01-.028-.019-.042-.029-.362.029-.722.059-1.084.088-1.114.09-2.228.181-3.342.272-4.504.804-9 1.665-13.615 1.414-.296.149-.607.254-.933.312.007.527.014 1.055.021 1.583.331-.014.637.066.918.241 1.568-.251 3.137-.503 4.708-.756 1.084-.075 2.169-.15 3.254-.225 1-.063 2.01-.127 3.01-.19 1.509-1.258 3.262-.991 5-.801.331-.028.66-.055.991-.083.703-.182 1.406-.364 2.109-.546.014-.19.028-.379.042-.569-.014.189-.027.379-.041.569 1.708-.197 3.506 0 4.996-1.146 1.306-.413 2.613-.826 3.92-1.239 2.943-.839 5.888-1.671 8.139-3.939-.593-.112-1.186-.224-1.779-.335-.398.114-.795.227-1.193.341"/><path d="m736.82 528.53c-.73-.171-.968.3-1.136.866.211.214.43.42.657.616.219-.44.439-.879.659-1.318.326-.342.651-.685.977-1.027-.257-.207-.518-.41-.783-.61-.125.491-.249.982-.374 1.473"/><path d="m777.84 491.24c-2 .136-4 .273-6 .409-.338-.115-.675-.23-1.013-.345-.356.032-.711.063-1.067.095-1.232.162-2.463.325-3.692.49.002.003-.038-.075-.038-.075-.415.285-.83.57-1.245.855-.637.04-1.275.081-1.913.12-.355.277-.71.553-1.065.829-.004.258-.006.517-.007.776.001-.258.003-.517.007-.775-.417.193-.833.385-1.251.578l-.066-.01c-.659.332-1.317.665-1.975.997.395.311.79.622 1.185.933.366-.195.731-.39 1.097-.585.496-.132.991-.264 1.486-.398-.141-.221-.302-.423-.484-.61 0 0 0-.001 0-.001.182.186.344.39.484.611.834-.266 1.668-.534 2.502-.801 2.358-.367 4.715-.734 7.07-1.102 1.95-.283 3.9-.565 5.851-.848.716-.021 1.432-.043 2.147-.065-.003-.558-.007-1.117-.01-1.676-.763-.121-1.536-.273-2 .598"/><path d="m779.85 490.64c.003.558.007 1.117.01 1.676 2.01-.352 4.01-.703 6.02-1.054-.005-.526-.01-1.051-.015-1.577-2 .318-4.01.636-6.01.955"/><path d="m808.57 406.6c-1.339-.181-2.634-.206-3.582 1.01 1.293.021 2.599.08 3.582-1.01"/><path d="m821.16 448.85c.336.351.672.701 1.01 1.052.304.016.518-.116.641-.395-.379-.341-.757-.681-1.135-1.022-.251.011-.422.132-.514.365"/><path d="m808.91 466.52c-.431.676-.862 1.353-1.293 2.03.029.265.065.529.108.792-.197.214-.435.364-.713.449-.342.647-.683 1.294-1.025 1.941l.034.044c-.272.752-.543 1.505-.815 2.258.373.32.745.639 1.117.959.809-1.491 1.618-2.982 2.427-4.473.641-1.332 1.282-2.664 1.923-3.996.653-1.349 1.305-2.697 1.958-4.046-.351-.424-.703-.848-1.054-1.272-.258.102-.512.21-.763.326-.635 1.663-1.269 3.326-1.904 4.988"/><path d="m830.29 442.96c-.274-.009-.453.118-.536.38-1.315.742-2.63 1.483-3.945 2.223-1.634.616-2.996 1.616-4.14 2.926.379.341.757.681 1.135 1.022 1.385-.968 2.77-1.937 4.155-2.905.964-.639 1.929-1.278 2.894-1.917.438-.259.874-.518 1.31-.777-.291-.317-.582-.635-.873-.952"/><path d="m818.67 451.38c.277.254.554.507.831.761.889-.746 1.779-1.491 2.668-2.237-.336-.351-.672-.701-1.01-1.052-.83.843-1.661 1.685-2.491 2.528"/><path d="m798.1 483.27c0 0 .001 0 0 0-.476.402-.953.804-1.429 1.206-.238.041-.408.171-.51.39.357.365.715.731 1.072 1.096.285-.007.478-.144.581-.409.692-.662 1.383-1.324 2.075-1.986.661-.68 1.322-1.36 1.983-2.04-.567-.105-1.135-.211-1.703-.316-.69.686-1.379 1.373-2.069 2.059"/><path d="m807 469.8c.003-.001.006-.003.009-.004.027-.051.054-.103.081-.154l-.09.158"/><path d="m794.68 486.03c0 0 0-.001 0 0-.471.287-.942.574-1.413.862-2.469.93-4.937 1.861-7.405 2.792.005.526.01 1.051.015 1.577 3.113-.266 5.809-1.603 8.384-3.254-.023-.026-.046-.052-.07-.078.023.026.047.052.07.078.281.001.469-.132.564-.397 1.094-.123 1.845-.746 2.407-1.647-.357-.366-.715-.731-1.073-1.096-.493.388-.986.776-1.479 1.163"/><path d="m803.76 476.52c-.872 1.15-1.745 2.3-2.617 3.45-.324.414-.649.826-.974 1.238.567.105 1.135.21 1.702.316.274-.032.428-.185.462-.458 1.01-1.442 2.02-2.882 3.02-4.321.323-.583.647-1.167.969-1.75-.373-.32-.745-.639-1.117-.959-.483.828-.966 1.656-1.449 2.484"/><path d="m815.07 455.29c-.326.261-.652.521-.978.781-.389.827-.777 1.655-1.166 2.482-.449.885-.899 1.769-1.349 2.653.352.424.703.848 1.055 1.272.439-.913.879-1.826 1.318-2.739.937-1.407 1.875-2.813 2.813-4.217.911-1.128 1.822-2.255 2.731-3.382-.277-.254-.554-.507-.831-.761-1.663.876-2.604 2.416-3.593 3.911"/><path d="m780.77 425.49c.603.242.917-.081 1.125-.615.328-.366.656-.733.984-1.101 1.402-1.343 3.709-1.888 3.841-4.352-2.337-.416-2.855 1.683-4.01 2.902-.329.344-.657.688-.986 1.032-.713.512-1.618.933-1.024 2.065-.959-.319-1.149.481-1.472 1.087.944.285 1.492-.006 1.542-1.018"/><path d="m776.76 430.54c.658-.032.936-.435 1.026-1.023 1.092-.542 1.549-1.337.986-2.542-.767.66-1.479 1.342-1.058 2.479-.812-.126-.887.467-.967 1.057-.964.333-.969 1.214-1.133 2 .385-.008.769-.016 1.152-.024-.002-.652-.004-1.302-.006-1.951"/><path d="m763.87 452.79c1.602-1.503 3.203-3 4.804-4.507.007-.252.026-.503.058-.753.615-.974 1.231-1.949 1.847-2.923.418-.694.836-1.388 1.255-2.082.117-.642.235-1.285.352-1.927.478-.69.956-1.381 1.433-2.07 1.936-1.533 2.683-3.699 3.193-5.992l-.049-.05c-.384.008-.767.016-1.152.024-1.044 1.053-1.752 2.266-1.805 3.791-1.027.581-1.924 1.267-2.117 2.541-1.652 1.547-2.171 3.662-2.857 5.694-.54.902-1.08 1.804-1.62 2.705-1.161 1.387-2.321 2.773-3.482 4.159-1.349 1.016-2.698 2.033-4.045 3.049.36.316.719.631 1.079.947 1.291-.563 2.392-1.354 3.106-2.606"/><path d="m760.77 455.4c-.36-.316-.719-.631-1.079-.947-.628.375-1.255.75-1.882 1.125.046.533.093 1.067.139 1.6.941-.593 1.881-1.185 2.822-1.778"/><path d="m734.82 462.4c0 0 0 .001 0 0 2.344-.244 4.689-.488 7.03-.733l-.13-.279c.717.117 1.434.235 2.151.353.964-.217 1.929-.434 2.893-.651 1.015-.21 2.031-.42 3.046-.63l-.231.193.125.273c.69-.164 1.379-.328 2.069-.492 2.055-1.087 4.111-2.174 6.166-3.261-.046-.533-.093-1.067-.139-1.6-2.691 1.218-5.381 2.436-8.07 3.654-.963.131-1.926.262-2.889.393-1.733-.244-3.456-.306-5.143.282-2.341.483-4.872-.051-7.05 1.318-2.269-.044-4.358.489-6.163 1.927.314.381.629.763.943 1.144 1.795-.63 3.591-1.261 5.386-1.891"/><path d="m723.12 467.87c.291-.007.509-.137.654-.389 1.012-.65 2.023-1.301 3.035-1.951.875-.414 1.749-.828 2.623-1.242-.314-.381-.629-.763-.943-1.144-.627.277-1.255.553-1.883.83-.987.617-1.973 1.234-2.96 1.851-.437.312-.874.624-1.312.937-2.501 1.736-4.71 3.765-6.383 6.335.368.223.737.445 1.106.667 2.02-1.965 4.04-3.929 6.06-5.894"/><path d="m805.82 409.51c0 0 0 0 0 0 1.32-.28 2.639-.561 3.958-.841.507-.086 1.014-.172 1.52-.257 1.01-.886 2.243-.904 3.479-.922 3.499-1.525 7.266-1.876 10.969-2.507.353-.152.706-.304 1.059-.456-1.173-1.719-2.993-.518-4.439-.986-4.598 1.019-9.2 2.039-13.803 3.059-.983 1.088-2.289 1.028-3.582 1.01-.263.221-.527.444-.792.666-1.943.681-4.243.645-5.481 2.738.028.489.056.979.084 1.469 2.343-.99 4.685-1.981 7.03-2.971"/><path d="m787.81 419.54c1.334-.995 2.667-1.99 4-2.985-.089-.491-.179-.982-.269-1.472-1.307.917-2.613 1.835-3.92 2.753-.511.407-1.539.522-.89 1.582.359.04.719.081 1.078.122"/><path d="m798.71 411.01c-.706.358-1.411.715-2.117 1.073.072.471.143.943.214 1.414.663-.34 1.325-.679 1.987-1.019-.028-.489-.056-.979-.084-1.468"/><path d="m791.81 416.56c.867-.646 1.735-1.293 2.601-1.94 1.072.212 1.703-.516 2.393-1.118-.071-.471-.142-.943-.215-1.414-1.529.435-2.929 1.089-3.97 2.349-.359.217-.719.434-1.078.65.09.491.179.982.269 1.473"/><path d="m691.78 509.43l-.053.032c.678-.352 1.357-.704 2.035-1.056.02-.235.087-.456.2-.664-.37-.365-.74-.73-1.11-1.095-1.379.507-2.758 1.013-4.137 1.52.057.487.114.973.17 1.459.965-.065 1.93-.131 2.895-.196"/><path d="m688.57 510.21c-.009.002-.018.003-.027.005 0 .02-.012.034-.01.055 0 0 .035-.063.037-.06"/><path d="m672.83 510.39c2.65.159 5.301.319 7.951.478.996-.142 1.993-.283 2.989-.425.372.113.743.225 1.115.338.635-.085 1.269-.17 1.904-.255.584-.104 1.169-.208 1.751-.315-.006-.264.1-.466.346-.59-.057-.487-.113-.973-.17-1.46-1.658.192-3.317.384-4.976.576-1.906.218-3.811.436-5.717.654-1.672.637-3.682-.476-5.193.999"/><path d="m717.06 473.77c-.369-.223-.738-.445-1.106-.668-.221.266-.441.531-.661.797.307.335.613.669.92 1 .282-.378.565-.755.847-1.133"/><path d="m663.92 525.34c.031-.458.063-.917.094-1.377-.094-.235-.212-.436-.35-.605.139.17.257.371.351.607.931-.47 1.532-1.585 2.784-1.43.123-.196.158-.407.104-.632 5.608-.463 11.261.532 16.849-.535 3.837.2 7.296-1.456 10.936-2.226.45-.283.899-.567 1.349-.849 1.92-.925 3.841-1.851 5.761-2.776 1.336-.661 2.672-1.323 4.01-1.984.423-.468.847-.937 1.271-1.405-.119-.587-.239-1.173-.358-1.76-1.704 1.16-3.409 2.319-5.113 3.479-1.932.908-3.864 1.816-5.798 2.724-3.985 1.097-7.969 2.193-11.954 3.29-1.023.064-2.045.127-3.067.19-2.324.585-4.664.526-7.01.169-2.32.14-4.638.28-6.957.42-.52.005-1.039.01-1.558.015-.507.954-1.4.826-2.255.805.003-.328.085-.635.247-.921-.158-1-.317-2.01-.475-3.01-.309-.036-.616-.025-.921.031-.075.337-.151.675-.225 1.014.092.978.184 1.956.275 2.934.007.353.014.707.022 1.06l-.368-.059c.145 1.29.29 2.579.435 3.869.559.267 1.118.533 1.677.799.083-.613.165-1.223.247-1.833"/><path d="m662.78 517.52c.121-.336.241-.673.361-1.01-.036-1.757-.073-3.515-.109-5.269 1.027.358 1.485-.506 2.118-.995 1.92-.581 3.812-.588 5.662.275.673-.043 1.345-.085 2.02-.128 1.511-1.475 3.52-.362 5.193-.999-4.37-.949-8.762-1.454-13.217-.627-.738.541-1.475 1.081-2.213 1.622.039.311.174.575.39.799-1.148.317-1.216 1.358-1.486 2.262.121 1.367.242 2.734.363 4.1.305-.056.612-.066.92-.031"/><path d="m680.54 539.18c-1.914-1.551-3.828-3.103-5.743-4.654-.542-.422-1.084-.844-1.626-1.266-.391-.317-.782-.634-1.172-.952-2.441-2.243-4.882-4.488-7.323-6.732-.256-.066-.508-.147-.756-.241-.082.61-.164 1.22-.247 1.831 2.584 2.092 5.168 4.182 7.753 6.272 0-.001.001-.002.001-.003.002-.001.085.039.085.039.725.701 1.451 1.402 2.176 2.103 1.256 1.779 3.02 2.953 4.837 4.07.749.652 1.499 1.303 2.248 1.954.028-.751.057-1.502.085-2.253l-.318-.168"/><path d="m715.78 475.52c.278-.112.422-.318.432-.617-.306-.334-.613-.669-.919-1-.33.472-.661.945-.991 1.417-.994 1.596-1.989 3.193-2.984 4.789.361.301.722.602 1.082.903 1.127-1.829 2.253-3.659 3.38-5.488"/><path d="m710.67 485.49c.144-.73.288-1.46.431-2.191-.103-.509-.207-1.019-.311-1.528.104.51.209 1.019.312 1.529.433-.763.866-1.525 1.298-2.287-.361-.301-.722-.602-1.082-.903-.202.423-.405.847-.608 1.27-2.069 2.344-2.954 5.23-3.731 8.166.492.02.984.039 1.477.059.739-1.371 1.476-2.743 2.214-4.115"/><path d="m694.94 507.17c.943-.585 1.887-1.17 2.83-1.755 1.855-.808 3.216-2.182 4.355-3.809 1.238-.718 2.02-1.822 2.597-3.092.339-.332.679-.664 1.018-.996.311-.395.621-.789.932-1.184 0 0-.14-.125-.141-.124-.308-.71 1.089-2.076-.835-2.163-1.536 1.016-1.598 2.873-2.445 4.282-.845 1.053-1.69 2.107-2.535 3.161-1.01.787-2.01 1.575-3.02 2.362-1.148.752-2.296 1.504-3.444 2.256-.465.181-.931.361-1.397.542.37.365.74.73 1.11 1.095.325-.192.65-.384.976-.575"/><path d="m708.46 489.6c-.493-.02-.985-.039-1.477-.059-.419 1.152-.839 2.304-1.257 3.458 2.772.365 1.89-2.212 2.734-3.399"/></g><g fill="#a8dae7"><path d="m795.07 452.59c-.452.89-.904 1.78-1.356 2.67.169-1.034-.038-2.259 1.356-2.67"/><path d="m793.63 455.49c-.244.53-.489 1.059-.734 1.59.244-.529.489-1.059.734-1.59"/></g></svg>