<svg xmlns="http://www.w3.org/2000/svg" width="1563.39" height="1895.85" viewBox="1113.975 47.008 1563.389 1895.854" enable-background="new 1113.975 47.008 1563.389 1895.854"><g stroke="#000" stroke-linejoin="round" stroke-linecap="round" stroke-width="5" stroke-miterlimit="10"><path d="m1902.91 1217.69c-14.589.162-26.3 1.807-37.856-.084-20.792-3.404-41.41-7.671-61.43-14.489-3.387-1.154-2.261-2.94-1.567-4.975 7.349-21.568 14.697-43.14 22.04-64.706 9.868-28.97 19.826-57.91 29.505-86.94 1.511-4.533 3.174-5.492 8.03-4.415 27.577 6.113 55.16 5.943 82.48-1.698 4.298-1.202 6.174-.549 8.04 3.803 17.267 40.37 34.818 80.62 52.29 120.9 4.172 9.616 8.326 19.241 12.599 28.812 1.097 2.456.93 3.625-1.947 4.618-22.09 7.621-44.649 12.833-67.921 15.487-15.72 1.79-31.466 2.697-44.27 3.693z" fill="#f33"/><path d="m1653.61 1092.22c-1.808 1.272-2.457 1.24-3.877-.25-5.436-5.701-9.561-12.428-13.466-19.08-7.318-12.459-16.831-23.278-24.741-35.25-7.414-11.219-14.499-22.662-21.475-34.16-9.56-15.757-26.543-43.734-26.543-50.974 0-4.5 113.54-65.09 140.5-80.25.011-.006.022-.012.033-.018 6.328-3.535 85.45 119.31 83.82 124.52-2.5 8-110.12 78.47-134.26 95.46z" fill="#cf9"/><path d="m1772.16 1809.65c.269 1.603-1.029 1.928-2.04 2.393-22.961 10.568-43.625 24.821-63.757 39.894-2.79 2.089-4.368 1.428-6.709-.618-43.615-38.11-87.28-76.16-131.04-114.12-2.89-2.506-2.083-3.533.406-5.425 25.448-19.339 51.38-37.963 78.5-54.919 8.983-5.617 17.243-12.642 27.07-16.597 14.426-5.805 28.23-13.1 43.07-17.898 3.122-1.01 3.231.884 3.823 2.811 5.767 18.758 11.565 37.506 17.34 56.26 10.766 34.963 21.524 69.929 32.29 104.89.344 1.111.695 2.219 1.042 3.323z" fill="#f93"/><path d="m2112.89 890.2c1.268 1.069 53.72 50.729 78.82 74.59 15.567 14.799 31.1 29.638 46.783 44.31 2.941 2.751 3.693 4.02-.387 6.625-27.74 17.696-51.11 40.43-73.13 64.62-2.477 2.72-4.04 3.082-7.279 1.06-21.749-13.57-43.685-26.839-65.52-40.27-24.08-14.819-48.11-29.725-72.19-44.549-2.328-1.433-4.235-2.326-1.355-5.363 14.216-14.992 26.549-31.624 40.36-46.954 16.366-18.16 32.974-36.12 51.51-52.15.737-.638 1.52-1.221 2.38-1.908z" fill="#6c3"/><g fill="#cf9"><path d="m2120.7 1126.01c-11.691 11.414-23.684 22.5-36.06 32.809-14.949 12.449-31.426 22.929-49.06 31.15-4.03 1.879-8.565 5.731-12.215 4.485-3.428-1.17-3.925-7.226-5.632-11.145-18.731-42.979-37.34-86.01-55.968-129.04-.258-.596-7.148-15.762-3.898-17.262 8.992-4.15 23.664-9.825 31.508-16.14 7.614-6.129 14.11-14.13 20.948-21.12 2.521-2.578 4.106-.742 5.984.409 20.383 12.496 40.764 24.995 61.13 37.528 25.88 15.93 51.741 31.889 77.6 47.85 1.59.981 3.881 1.575 1.348 4.211-11.63 12.1-23.491 24.36-35.68 36.26z"/><path d="m1786.71 1007.63c1.296-1.447 2.426-2.782 2.921-3.094 4.78-3.02 7.248-.659 10.991 3.036 13.55 13.378 29 23.865 46.963 30.371 2.985 1.081 3.268 2.112 2.291 4.958-17.532 51.1-34.967 102.24-52.32 153.4-.968 2.852-1.597 4.046-5.01 2.668-35.872-14.5-67.63-36.14-96.58-61.6-3.743-3.292-35.661-34.974-41.29-40.05 1.352 1.219 131.74-89.38 132.03-89.69z"/></g><path d="m1704.35 865.61c-.404 1.541-1.724 1.694-2.686 2.229-31.531 17.525-63.08 35.02-94.62 52.53-14.391 7.99-28.841 15.878-43.1 24.1-3.586 2.067-4.977 1.698-6.966-2.025-10.235-19.15-26.01-32.613-45.15-42.3-3.203-1.621-3.86-2.77-2.312-6.267 20.586-46.5 40.968-93.09 61.42-139.65 2.555-5.814 2.619-5.791 8.271-2.876 13.468 6.945 26.457 14.689 38.713 23.606 9.169 6.671 19.04 12.797 27.03 20.559 9.34 9.07 18.663 18.381 27.2 28.354 10.719 12.526 20.846 25.492 30.333 38.966.666.945 1.288 1.922 1.859 2.778z" fill="#9c3"/><path d="m2150.12 864.76c52.5-27.75 120.74-47.38 121.38-43.14 1.241 8.217 2.607 16.416 3.862 24.631 3.154 20.646 6.262 41.3 9.407 61.947 3.848 25.26 7.686 50.51 11.624 75.76.375 2.405-.114 3.539-2.529 4.381-15.577 5.428-30.52 12.277-44.781 20.582-1.414.824-2.417 1.289-3.864-.151-8.966-8.917-31.18-31.17-34-33.863-2.665-2.538-92.65-88.93-92.65-88.93s31.454-21.16 31.56-21.22z" fill="#cf9"/><path d="m1600.55 1940.36c-4.174-17.427-8.21-34.23-12.222-51.04-3.396-14.229-6.787-28.458-10.128-42.7-.59-2.515-1.834-3.722-4.514-4.475-33.14-9.313-66.23-18.808-99.32-28.309-1.194-.343-2.753-.138-3.706-2.046 10.459-8.753 20.899-17.682 31.547-26.358 18.19-14.821 36.602-29.37 54.694-44.31 3.56-2.939 5.6-2.978 9.09.079 42.933 37.62 85.986 75.1 129.11 112.51 3.317 2.878 3.139 4.126-.348 6.81-29.679 22.849-58.26 47.01-85.75 72.46-2.549 2.36-5.227 4.579-8.441 7.382z" fill="#6c3"/><g fill="#f93"><path d="m1653.97 1305.6c-11.15.071-99.76 6.645-116.26 10.446-46.07 10.612-88.76 28.26-132.14 46.552-2.801 1.181-2.361 2.427-1.104 4.861 4.504 8.722 9.04 17.547 13.407 26.338 18.883 37.978 37.927 75.934 56.672 113.98 1.678 3.405 3.181 3.737 6.427 2.227 8.438-3.927 17.12-7.387 25.609-11.205 20.17-9.07 40.39-18.1 61.739-24.11 22.291-6.271 45.1-8.395 68.2-7.282 3.23.156 4.728-.429 5.069-4.03.705-7.446 1.902-14.848 2.97-22.257 6.194-42.959 10.491-85.93 16.908-128.85.786-5.266-2.803-6.7-7.495-6.67z"/><path d="m2339.23 1372.16c42.11.927 78.72 16.229 110.89 42.858 2.421 2 3.779 2 6.233.052 42.755-33.995 85.57-67.916 128.48-101.71 3.248-2.558 3.658-3.925.629-7.03-19.724-20.244-41.25-38.27-65.2-53.3-10.117-6.349-20.05-13.493-31.01-17.898-28.608-11.489-58.3-19.795-88.42-26.447-9.909-2.188-19.892-4.04-30.815-6.236-.346-.122-.813.533-1.068 1.714-.421 1.952-1.053 3.86-1.448 5.817-10.604 52.672-21.15 105.36-31.859 158.01-.74 3.646.356 4.104 3.584 4.175z"/></g><path d="m2169.47 405.56c20.831 46.25 41.465 92.58 62.03 138.95 1.399 3.154 2.608 2.829 5.106 1.381 14.03-8.135 28.937-14.209 44.572-18.555 23.647-6.573 47.784-8.682 72.19-7.605 5.373.237 6.979-1.366 7.897-6.375 4.349-23.714 9.09-47.36 13.71-71.02 5.348-27.424 10.662-54.855 16.12-82.26.702-3.527-.143-4.592-3.792-4.764-10.645-.501-21.278-1.11-33.13-.748-11.973-.635-25.08.077-38.18 1.36-22.02 2.157-44.14 4.381-65.29 10.893-26.799 8.25-53.32 17.507-78.31 30.593-4.195 2.196-4.881 3.806-2.926 8.148z" fill="#6c3"/><path d="m1919.2 754.62c2.848-.372 3.839-1.195 3.173-3.978-.308-1.286-.304-2.645-.478-3.966-4.87-37.14-9.749-74.28-14.616-111.43-1.406-10.729-2.822-21.458-4.147-32.2-.392-3.175-.94-5.322-5.05-3.636-3.046 1.25-6.427 1.692-9.663 2.473-17.968 4.335-36.35 5.818-54.58 4.167-20.275-1.837-39.77-7.837-58.18-16.795-2.851-1.387-4.269-1.068-5.919 1.684-4.621 7.707-9.547 15.232-14.358 22.825-21.649 34.17-43.23 68.38-65.04 102.45-2.496 3.899-1.857 5.269 2.115 7.167 10.366 4.955 20.763 9.792 31.542 13.791 42.894 15.914 87.46 21.312 136.24 21.23 17.499-.23 38.28-1.087 58.961-3.79z" fill="#0cf"/><path d="m2413.59 1715.19c-3.743-6.116-3.584-6.258-10.01-3.783-38.98 15.01-79.52 21.585-121.12 22.09-4.775.058-5.292 1.503-4.951 5.679 1.465 17.925 2.594 35.877 3.826 53.821 2.235 32.561 4.481 65.12 6.634 97.69.179 2.71 1.051 3.744 3.864 3.661 6.16-.183 12.329-.057 18.498-.056 8.806-.607 17.617-1.121 26.411-1.839 52.34-4.271 102.18-17.365 148.86-41.859 4.227-2.218 4.158-3.797 1.957-7.578-24.774-42.539-48.26-85.82-73.966-127.82z" fill="#ffc"/><g fill="#f33"><path d="m1617.95 309.79c-2.33 2.784-1.492 3.443 1.076 5.48 35.591 28.24 154.08 87.24 195.35 98.04 2.542.665 4.422 1.625 5.339-2.758 7.924-37.889 16.249-75.69 24.451-113.53 1.515-6.989 3.01-13.981 4.518-20.972.383-3.398-2.463-3.159-4.301-3.697-19.2-5.629-37.617-13.229-55.707-21.709-27.575-12.926-54.15-27.771-80.88-42.3-2.93-1.593-4.563-1.433-6.616 1.206-4.594 5.908-9.478 11.59-14.262 17.349-22.965 27.649-45.896 55.33-68.968 82.88z"/><path d="m2158.17 1465.62c13.253-8.261 25.728-17.556 38.36-26.711 12.272-8.894 74.35-53.975 85.15-57.49 1.049-.341 2.335-.476 2.482-2.104-.453-.823-54.36-98.51-76.952-139.8-1.833-3.351-3.396-3.512-6.543-1.943-16.392 8.173-32.14 17.416-47.608 27.22-30.952 19.632-56.871 45.48-85.24 68.31-1.782 1.434-1.439 2.589-.355 4.171 3.1 4.523 6.107 9.11 9.14 13.679 25.01 37.686 50.05 75.36 74.996 113.09 1.875 2.838 3.192 3.684 6.563 1.582z"/></g><g fill="#f93"><path d="m2279.44 1839.44c-2.293-33.542-4.568-67.09-6.703-100.64-.247-3.887-1.319-5.407-5.539-5.242-19.17.75-38.32-1.323-57.13-4.01-21.796-3.117-42.927-10.26-63.815-17.502-2.696-.935-3.445-.342-4.263 2.01-3.925 11.281-7.922 22.537-11.987 33.769-13.294 36.733-26.527 73.49-40.08 110.13-1.648 4.454-.508 5.385 3.461 6.636 55.72 17.572 112.8 27.08 171.15 29.709 4.49 0 9.02-.356 13.459.097 4.782.487 5.453-1.449 5.096-5.659-1.393-16.417-2.527-32.856-3.65-49.29z"/><path d="m1303.07 1390.97c.213-1.837 1.472-4.484-.573-5.562-6.814-3.593-11.51-9.295-16.311-15.01-3.52-4.188-9.64-20.393-13.85-18.793-6.081 2.311-108.16 14.251-153.05 18.442-4.849.453-2.719 32.07 1.132 47.988 8.02 33.14 23.681 61.689 50.715 83.23 32.25 25.695 70.26 35.26 110.28 39.17 3.218.314 3.734-.898 4.072-3.778 3.782-32.22 7.735-64.43 11.651-96.63 1.989-16.349 4.04-32.691 5.936-49.05z"/></g><path d="m2038.03 235.34c8.5 4.91 16.912 9.972 25.356 14.981 33.49 19.868 66.972 39.748 100.49 59.57 1.415.836 2.98 3.072 4.734 1.375 2.22-2.149 17.642-26.353 23.16-36.23 13.195-23.629 22.72-48.802 31.32-74.37 8.02-23.834 14.196-48.06 16.08-73.23.179-2.392 1.243-4.74-3.062-4.997-48.855-2.918-97.7-6.03-146.54-9.1.001-.012-4.01-.126-5.974-.447-3.626-.595-5.17.299-5.565 4.461-.831 8.761-2.154 17.51-3.858 26.15-6.247 31.667-16.274 61.795-36.987 87.34-1.748 2.154-1.43 3.177.857 4.498z" fill="#99c"/><path d="m2300.03 973.92c.572 3.73-.334 9.233 2.297 10.648 2.443 1.314 7.08-1.426 10.743-2.408 47.4-12.703 96.35-14.617 144.7-20.607 4.25-.526 4.776-1.171 3.491-5.05-9.678-29.2-19.217-58.45-28.698-87.72-7.436-22.955-14.775-45.941-22.02-68.956-.958-3.041-1.954-3.955-5.164-2.596-4.119 1.744-8.503 2.883-12.806 4.17-20.281 6.068-41.33 6.825-62.18 8.878-17.08 1.681-34.03 4.286-50.926 7.225-1.646.286-3.499.441-2.816 3.712 1.795 11.727 3.708 24.22 5.621 36.72 5.917 38.661 11.831 77.32 17.759 115.98z" fill="#6c3"/><path d="m1382.31 1177.92c15.14-40.17 14.721-80.918 4.646-122.03-3.559-14.521-8.791-28.599-11.635-43.31-1.78-9.209-1.714-9.218-11.167-7.43-1.144.216-2.308.328-3.447.561-46.729 9.542-93.45 19.14-140.2 28.552-3.282.661-4.053 1.547-3.108 4.751 2.826 9.579 4.956 19.326 6.109 29.27.316 2.27.667 4.535.942 6.809 1.912 15.804.592 31.479-1.91 47.11-1.139 4.163-1.903 8.48-3.524 12.448-1.636 4.01-.1 4.902 3.445 5.96 48.817 14.568 97.59 29.29 146.37 43.986 9.948 2.997 9.849 2.981 13.485-6.669z" fill="#cf9"/><path d="m1502.17 577.02c16.02-44.928 30.55-90.39 48.1-134.77.718-1.816.959-2.81-1.356-3.499-20.06-5.967-39.3-14.524-59.66-19.452-35.04-8.479-70.66-10.721-106.61-9.199-5.059.214-6.924 1.192-7.53 6.648-2.387 21.497-5.476 42.916-8.272 64.37-3.226 24.754-6.314 49.53-9.719 74.25-.61 4.427.605 5.197 4.771 5.04 9.473-.353 103.92 5.816 133.87 19.548 3.979 1.824 5.05.862 6.407-2.937z" fill="#6cf"/><path d="m2668.22 688.63c-15.04-1.825-30.06-3.844-45.08-5.84-38.1-5.064-76.2-10.173-114.31-15.216-6.978-.923-6.866-.806-7.512 6.159-2.801 30.19-13.561 57.17-33.23 80.34-3.228 3.803-2.393 5.161 1.399 7.469 49.35 30.03 98.64 60.16 147.83 90.46 3.716 2.289 5.314 1.713 7.175-1.764 30.629-57.23 46.26-127.16 48.96-156.24 1.369-4.081-1.371-4.896-5.233-5.365z" fill="#6c3"/><path d="m1196.47 956.51c.939 15.385 3.887 30.376 8.818 44.977 1.96 8.792 6.113 16.849 8.531 25.477.824 2.941 2.089 3.277 5 2.679 49.11-10.1 98.25-20.03 147.38-30.01 6.74-1.369 6.53-1.369 5.84-8.18-2.124-20.981-.861-41.578 8.292-60.999 1.48-3.14 1.094-4.322-1.854-6.06-36.669-21.617-73.2-43.47-109.88-65.07-11.436-6.734-41.807-26.599-42.882-24.705-7.735 13.63-15.726 29.508-20.21 44.592-8.436 25.13-11.91 50.844-9.04 77.3z" fill="#cf9"/><path d="m1396.67 907.4c7.776-6.567 15.638-12.901 25.868-15.377 1.502-.364 4.01-.577 3.334-2.837-2.224-13.08-4.38-25.535-6.458-38.01-6.972-41.843-13.963-83.68-20.791-125.55-.582-3.569-1.291-4.536-5.242-3.791-24.04 4.531-46.935 12.273-68.778 23.23-37.962 19.04-69.19 45.821-93.35 80.83-2.389 3.463-1.441 4.728 1.792 6.61 20.995 12.223 41.876 24.641 62.778 37.02 28.345 16.794 56.703 33.567 84.97 50.49 2.89 1.73 4.208 1.565 6.269-1.215 2.948-3.973 5.739-8.148 9.607-11.415z" fill="#6c3"/><path d="m1495.42 257.31c11.958 4.02 24.07 7.779 35.596 12.845 26.17 11.505 51.935 23.936 76.63 38.432 2.701 1.586 4.073 1.379 6.074-1.085 10.28-12.664 20.778-25.15 31.2-37.701 18.07-21.76 36.13-43.521 54.761-65.966-22.26-11.829-43.904-23.556-65.752-34.889-33.22-17.234-66.57-34.22-102.16-46.28-3.931-1.332-5.439-1.168-6.624 3.347-10.933 41.648-22.07 83.24-33.406 124.78-1.147 4.203.025 5.283 3.687 6.513z" fill="#99c"/><path d="m2583.81 837.45c-13.454-7.452-25.88-16.433-38.958-24.486-26.808-16.507-53.906-32.56-80.74-49.04-2.555-1.569-3.726-1.323-5.789.663-12.09 11.643-25.787 21-41.19 27.735-2.414 1.055-3.191 1.978-2.237 4.787 3.795 11.182 7.212 22.492 10.844 33.73 13.54 41.899 27.15 83.78 40.577 125.71.818 2.554 1.603 3.131 4.065 2.443 13.254-3.705 73.99-23.989 97.74-45.49 4.833-4.375 48.797-46.08 47.907-53.753-1.182-10.197-24.81-18.2-32.22-22.302z" fill="#cf9"/><path d="m1400.51 1369.36c-1.5-3.037-2.771-3.103-5.59-1.955-10.929 4.454-21.843 9.01-33.01 12.813-16.706 5.698-33.572 11.159-51.673 7.578-2.382-.471-1.914 1.163-2.062 2.332-1.089 8.582-2.158 17.17-3.196 25.755-4.871 40.32-9.689 80.65-14.661 120.96-.456 3.7.744 4.553 4.168 4.492 9.49-.169 18.984-.059 28.477-.059 18.669-.008 37.24-1.484 55.773-3.789 30.852-3.836 60.707-11.498 89.75-22.493 2.769-1.048 3.463-1.927 1.976-4.9-23.428-46.856-46.754-93.77-69.96-140.73z" fill="#ffc"/><path d="m2366.35 513.1c-1.355 6.96-1.373 6.955 5.726 7.61 2.651.244 5.301.51 7.952.744 26.1 2.309 50.14 10.206 70.817 26.739 3.171 2.535 4.313 1.933 6.204-1.123 9.1-14.699 18.361-29.29 27.604-43.9 19.482-30.786 38.954-61.58 58.54-92.3 1.681-2.637 1.368-3.848-1.275-5.333-5.798-3.257-11.374-6.906-17.15-10.197-8.06-4.587-15.901-9.757-24.413-13.287-11.309-4.691-23.12-8.219-34.811-11.933-21.458-6.815-43.45-11.174-65.28-13.508-3.143-.823-3.586.86-3.969 2.848-1.977 10.271-4.03 20.527-6.03 30.794-7.975 40.946-15.936 81.896-23.91 122.84z" fill="#9c3"/><path d="m1196.45 485.97c2.39 3.222 4.01 3.097 6.942.949 7.645-5.605 15.509-10.911 23.274-16.355 35.707-25.03 71.41-50.07 107.11-75.1 1.6-1.122 3.472-1.743 1.113-4.369-17.1-19.04-23.409-41.738-21.874-66.873.211-3.449-3.165-4.143-6.424-4.127-25.311.125-126.22 2.02-151.37 1.906-3.225-.015-3.335.596-3.63 4.217-1.667 20.521-.327 40.921 3.097 61.21 6.079 36.02 19.902 69.07 41.758 98.54z" fill="#6cf"/><g fill="#f93"><path d="m2019.8 1665.37c-8.271-2.478-16.451-5.255-24.72-7.739-41.789-12.55-84.1-22.579-127.69-26.536-3.844-.349-5.116.107-5.077 4.43.235 25.801 2.292 135.15 2.627 155.8.039 2.382-.149 4.339 3.451 4.489 28.634 1.195 56.33 7.333 83.36 16.602 3.01 1.032 4.196.578 5.54-2.35 21.434-46.697 42.961-93.35 64.62-139.94 1.432-3.081.722-3.899-2.114-4.749z"/><path d="m2618.78 1710.92c-46.19-16.947-92.86-32.552-139.13-49.26-3.523-1.272-5.231-.682-7.34 2.119-14.506 19.276-33.675 32.364-55.88 41.17-3.907 1.549-1.207 3.03-.471 4.254 15.877 26.356 31.19 53.04 46.34 79.82 9.987 17.664 20.09 35.26 30.19 52.86.68 1.184.96 2.887 2.804 3.186.89-.514 1.755-1.01 2.613-1.511 52.624-30.939 93.16-73.67 123.5-126.4 2.251-3.911 1.256-4.812-2.626-6.237z"/></g><path d="m2132.66 1726.21c2.036-5.625 4.881-10.945 6.25-16.815.202-.88.095-1.515-.953-1.881-12.326-4.3-24.448-9.09-36.546-14.01-8.625-3.509-17.782-6.191-26.769-9.04-14.414-4.562-28.594-9.876-42.811-15.05-2.699-.981-3.975-.74-5.259 2.058-21.431 46.698-42.951 93.36-64.55 139.98-1.307 2.821-1.283 3.883 2.01 5.102 17.776 6.581 35.455 13.426 53.12 20.311 20.605 8.03 41.25 15.94 62.17 23.13 3 1.032 4.53.972 5.764-2.53 7.289-20.692 14.83-41.3 22.324-61.914 8.403-23.12 16.875-46.21 25.25-69.34z" fill="#ffc"/><path d="m2094.72 447.85c-18.11 16.838-36.418 33.473-53.847 51.03-5.474 5.515-5.536 5.514.475 10.147 13.266 10.223 114.3 88.84 121.53 94.62 1.281 1.023 2.062 1.743 3.581.145 6.368-6.703 44.08-40.742 46.648-42.726-.437-.068 7.564-5.437 11.579-7.752 3.345-1.928 3.884-3.709 2.21-7.39-12.292-27.03-24.312-54.18-36.417-81.29-9.199-20.603-18.396-41.21-27.787-62.24-9.06 5.324-17.891 10.513-26.721 15.702-9.167 4.889-38.15 26.87-41.25 29.756z" fill="#cf9"/><path d="m1980.85 346.04c5.898 21.13 11.757 42.28 17.728 63.39.38 1.342.018 3.516 2.194 3.718.858-.273 1.484-.497 2.124-.674 61.34-16.914 114.45-47.795 158.93-93.43 2.682-2.752 1.668-3.562-.938-5.103-42.08-24.881-84.14-49.81-126.12-74.854-2.576-1.537-3.907-1.206-5.773.859-3.801 4.205-8.219 7.764-12.717 11.216-15.12 11.602-32.773 17.422-50.863 22.13-3.818.994-4.384 2.289-3.308 6.01 6.415 22.2 12.54 44.48 18.751 66.733z" fill="#ccf"/><path d="m1164.98 1234.08c39.44 26.628 78.8 53.38 118.18 80.1.681.462 1.367.915 1.875 1.255 1.611.185 1.796-1 2.301-1.782 1.539-2.373 2.987-4.807 4.577-7.145 11.18-16.432 24.87-30.81 37.645-45.937 16.781-19.87 32.645-40.36 44.44-63.729 1.93-3.824 1.383-5.279-2.747-6.437-13.446-3.772-26.811-7.833-40.19-11.851-36.787-11.05-73.58-22.08-110.32-33.3-3.678-1.123-5.229-.563-6.47 3.137-2.811 8.38-7 16.16-11.343 23.848-11.168 19.777-25.07 37.656-38.764 55.674-2.027 2.67-2.244 4.097.818 6.165z" fill="#6c3"/><path d="m1828.5 416.48c35.02 7.85 76.42 9.39 86.62 8.778 25-1.5 81-7.25 79.75-12.11-11.19-43.47-25.511-89.51-37.481-132.77-.983-3.552-2.258-4.644-6.04-3.796-30.345 6.794-60.725 6.717-91.08-.065-6.484-1.449-6.41-1.425-7.886 5.454-9.212 42.921-18.411 85.85-27.782 128.73-.852 3.901.237 4.952 3.907 5.775z" fill="#99c"/><path d="m2460.22 1425.15c5.475 4.125 9.491 9.67 14.652 14.13 5.524 4.769 9.838 10.813 13.14 17.438 4.349 8.721 8.685 17.448 13.01 26.18.495 1 .588 2.387 2.268 1.902.975-.213 1.955-.405 2.925-.642 51.03-12.481 102.04-25.03 153.1-37.34 4.522-1.09 5.605-2.157 4.452-7.081-11.226-47.959-37.898-87.14-69.39-123.69-2.086-2.421-3.318-1.471-5.191.024-12.1 9.659-24.23 19.284-36.427 28.82-30.811 24.09-60.859 49.15-92.33 72.4-3.461 2.557-3.733 5.214-.219 7.86z" fill="#ffc"/><path d="m1757.09 1482.73c12.425-45.911 24.777-91.84 37.29-137.73.949-3.478.354-4.878-3.162-5.997-6.325-2.01-84.11-28.28-119.15-32.06-3.102-1.017-3.494 1.256-3.887 4.081-3.072 22.09-6.246 44.16-9.403 66.24-4.123 28.83-8.214 57.664-12.448 86.48-.508 3.46.392 4.557 3.907 4.734 11.644.59 23.16 2.632 34.502 5.04 19.971 4.232 39.679 9.661 59.09 16.06 10.424 3.436 10.464 3.498 13.262-6.842z" fill="#f96"/><path d="m2651.2 534.33c-1.555-3.749-3.086-4.505-6.875-2.9-29.381 12.439-58.868 24.628-88.27 37.01-18.963 7.986-38.07 15.635-56.826 24.12-4.181 1.891-5.421 3.217-4.296 7.761 4.693 18.952 6.358 38.34 7.04 57.785.132 3.784 2.029 3.838 4.593 4.176 26.704 3.515 53.4 7.07 80.11 10.605 28.02 3.708 56.05 7.393 84.07 11.123 2.264.301 3.549.334 3.692-2.771 2.989-64.73-9.79-114.53-23.23-146.91z" fill="#9c3"/><path d="m1762.41 1495.99c19.771 6.717 40.07 11.623 60.06 17.567 7.263 2.159 55.749 9.167 67.51 9.989 9.752.681 9.743.806 9.374-7.949-1.402-24.19-2.743-47.3-4.079-70.4-1.403-24.268-2.874-48.533-4.125-72.809-.196-3.811-1.478-5.4-5.315-6.094-27.22-4.919-53.662-12.777-79.75-21.866-6.06-2.111-6.06-2.187-7.693 3.87-12.801 47.542-25.561 95.1-38.455 142.61-.775 2.855-.452 4.089 2.473 5.082z" fill="#f93"/><path d="m1857.19 1639.45c.604-9.366.628-9.367-8.594-9.918-.831-.05-1.653-.061-2.485-.097-23.813-1.013-47.592-.698-71.3 1.948-15.368 1.716-30.679 3.762-45.723 7.59-3.783.962-3.818 2.361-2.755 5.406 1.859 5.328 3.377 10.774 5.04 16.17 14.799 48.12 29.627 96.23 44.33 144.38 1.026 3.359 2.177 3.802 5.559 2.745 24.272-7.586 49.15-11.76 74.6-12.02 3.66-.037 4.196-1.184 4.121-4.54-.639-28.63-2.846-151.55-2.799-151.66z" fill="#ffc"/><path d="m1507.63 585.71c24.15 12.403 45.499 28.822 65.733 46.737 2.992 2.649 4.408 2.3 7.04-.373 31.425-31.903 62.99-63.67 94.5-95.49 2.92-2.948 7.885-5.912 8.03-9.04.171-3.762-5.642-5.696-8.875-8.372-35.09-29.05-72.24-55.03-113.29-75.12-1.494-.731-2.992-1.454-4.538-2.205-1.778-.036-1.315 1.577-1.692 2.461-7.185 16.838-12.656 34.3-18.754 51.54-9.926 28.05-19.713 56.15-29.576 84.23-.781 2.225-1.803 3.977 1.422 5.633z" fill="#0cf"/><path d="m2663.99 1584.17c-18.607-2.667-37.18-5.552-55.77-8.359-30.11-4.548-60.23-9.03-90.31-13.721-3.33-.519-3.964.249-4.56 3.48-2.863 15.532-5.637 31.13-11.268 45.972-3.062 8.07-5.973 16.394-10.478 23.657-4.257 6.862-8.244 13.944-13.436 20.647 1.443.591 2.458 1.071 3.515 1.431 26.892 9.167 53.49 19.17 80.45 28.14 20.03 6.665 39.781 14.15 59.56 21.534 3.662 1.367 5.01.415 6.659-2.779 18.869-36.667 31.377-75.43 38.728-115.94.516-2.84-.254-3.658-3.089-4.065z" fill="#f96"/><path d="m1685.34 715.28c26.572-42.25 53.32-84.4 80.02-126.57.534-.843 1.051-1.697 1.623-2.624.199-1.573-1.285-1.698-2.178-2.177-26.391-14.162-49.932-32.425-73.24-51-2.578-2.055-3.911-2.322-6.38.259-9.899 10.346-20.09 20.411-30.18 30.579-23.81 24.01-47.585 48.05-71.49 71.966-2.365 2.366-2.376 3.554.193 5.668 5.267 4.336 10.246 9.02 15.342 13.568 25.25 22.518 51.04 44.33 80.5 61.34 2.422 1.399 3.803 2.149 5.784-1z" fill="#cff"/><g fill="#ccf"><path d="m1384.26 185.22c.746 18.64 1.694 37.27 2.38 55.914.114 3.089.828 4.046 4.04 3.388 3.735-.766 7.59-1 11.407-1.301 26.942-2.105 53.11 2.407 78.871 9.711 4.267 1.21 5.278.025 6.274-3.742 10.969-41.493 22.02-82.964 33.28-124.38 1.107-4.074.615-5.618-3.63-6.842-32.3-9.316-65.11-15.265-98.81-15.753-10.668-.121-21.313.265-31.962.989-3.734.254-5.03 1.175-4.849 5.202 1.156 25.597 1.984 51.21 3.01 76.81z"/><path d="m1217.59 194.06c6.951 4.206 85.84 52.39 118.16 72.56 2.239 1.398 3.539 1.333 5.484-.378 10.44-9.178 22.581-15.315 35.983-18.691 4.25-1.07 4.808-2.92 4.617-6.8-1.408-28.589-5.115-117.36-5.393-133.15-.048-2.715-.928-3.473-3.486-2.979-3.59.694-7.221 1.169-10.822 1.809-57.641 10.247-106.51 36.39-145.89 80.03-3.727 4.131-1.805 5.691 1.349 7.6z"/></g><path d="m2474.24 571.6c4.642 6.08 10.595 13.692 12.563 17.31 1.346 2.475 2.589 2.404 4.703 1.467 8-3.546 16-7.096 24.07-10.476 27.23-11.403 54.5-22.726 81.75-34.1 15.319-6.392 30.621-12.822 45.941-19.211 2-.834 4.335-1.151 2.385-4.351-2.496-4.097-60.961-86.988-92.62-109.3-3.109-2.191-4.246-1.996-6.275 1.23-28.02 44.539-56.2 88.978-84.33 133.44-4.663 7.369-1.414 6.663 11.811 23.984z" fill="#cf9"/><path d="m2293.35 1377.66c10.08-2.901 20.389-5.05 30.896-5.204 4.585-.069 6.099-1.604 6.944-5.943 7.5-38.508 15.2-76.978 22.926-115.44 3.076-15.318 6.312-30.604 9.608-45.876.581-2.694.366-3.427-2.734-3.171-5.12.423-10.301.115-15.456.115-46.22.909-90.27 11.23-132.5 29.829-3.26 1.436-3.14 2.634-1.628 5.368 25.438 45.981 50.808 92 76.08 138.07 1.539 2.803 2.928 3.097 5.869 2.251z" fill="#ffc"/><path d="m2009.78 1519.09c.03 2.329.909 2.647 3.108 2.044 17.389-4.771 34.938-8.996 52.2-14.177 28.457-8.54 55.649-20.19 81.58-34.775 3.25-1.828 2.597-3.187.938-5.658-11.228-16.723-22.31-33.545-33.459-50.32-16.682-25.1-33.379-50.19-50.08-75.28-1.154-1.734-1.839-3.917-4.814-1.792-14.455 10.327-30.823 17.01-46.969 24.05-3.213 1.403-4.434 2.197-4.375 6.673.624 47.25-.131 94.51 1.55 141.75.112 2.494.287 4.988.319 7.484z" fill="#f93"/><path d="m1230.35 520.29c32.23 25.02 121.01 45.972 122 34.665.769-8.783 13.228-103.18 18.31-141.63.334-2.526-.002-3.495-2.696-3.908-9.05-1.388-17.225-5.01-24.476-10.576-1.978-1.518-3.37-1.853-5.607-.28-44.12 31.03-88.29 61.987-132.52 92.86-2.574 1.797-2.261 2.841-.426 4.889 7.804 8.709 16.17 16.802 25.409 23.974z" fill="#cff"/><g fill="#ffc"><path d="m2667.18 1455.27c-.625-3.627-1.401-5.382-5.862-4.08-9.562 2.79-19.332 4.869-29.02 7.234-41 10.01-81.997 20.06-123.03 29.962-4.082.985-5.575 1.961-3.867 6.691 6.68 18.497 9.494 37.713 8.785 57.37-.126 3.5 1 4.391 4.244 4.853 16.793 2.392 33.545 5.077 50.32 7.611 31.75 4.798 63.51 9.516 95.25 14.409 3.401.524 4.579-.198 5.03-3.735 2.34-18.352 3.725-36.76 3.839-55.26 0-1.83.022-3.659-.003-5.489-.277-20.01-2.288-39.853-5.689-59.57z"/><path d="m1909.17 1525.28c10.983-.148 73.03.433 92.99-1.912 2.414-.284 2.764-.794 2.805-3.141.378-21.804-.915-43.56-1.446-65.34-.693-28.406-.187-56.842-.235-85.27-.002-1.06.681-2.489-.652-3.133-1.369-.661-91.55 5.111-103.03 2.963-3.16-.591-3.913.28-3.704 3.502 1.272 19.603 2.306 39.22 3.448 58.833 1.723 29.587 3.502 59.17 5.157 88.76.181 3.233 1.141 4.779 4.665 4.731z"/></g><path d="m1156.26 317.14c25.13-.151 47.897-.078 72.897-.078 0-.639 52.44-1.962 77.41-1.865 3.505.014 6.486-.895 7.241-4.701 2.639-13.304 9.16-25.18 18.04-35.421 2.475-2.852 1.895-3.748-.752-5.374-20.413-12.541-40.583-25.22-60.949-37.843-19.305-11.961-38.566-23.868-57.835-35.887-2.24-1.397-3.362-.84-4.83 1.066-26.496 34.395-46.808 72.16-54.17 115.35-.674 3.951-.846 4.774 2.949 4.751z" fill="#99c"/><path d="m1117.94 1365.2c21.798-2.592 43.581-5.312 65.39-7.769 30.23-3.405 60.38-7.581 90.71-10.09 1.448-.12 2.19-.191 2.48-2.077 1.134-7.372 3.216-14.55 5.985-21.457 1.062-2.648.487-3.772-1.665-5.18-6.678-4.368-13.234-8.924-19.836-13.409-33.02-22.429-66.01-44.911-99.02-67.37-7.121-4.844-20.693 29.777-32.12 60.66-11.749 31.749-13.07 66.829-11.926 66.69z" fill="#ffc"/><g fill="#6c3"><path d="m2087.85 108.08c25.74 1.725 51.49 3.348 77.24 4.97 23.588 1.486 47.18 2.887 70.77 4.414 2.907.188 4.277-.1 4.656-3.689 2.086-19.716 3.02-39.489 3.831-59.28.156-3.822-.744-4.992-4.827-4.99-21.869.012-139.04 2.036-154.53 1.798-4.081-.063-4.943 1.239-4.779 5.083.605 14.15.624 28.313-.334 42.45-.659 9.708-2.285 8.554 7.98 9.242z"/><path d="m1989.87 738.26c22.5-7.25 60.14-28.28 57.961-32.13-8.095-14.311-15.617-28.945-23.387-43.44-17.11-31.915-34.25-63.81-51.32-95.75-1.295-2.423-1.96-3.64-4.93-1.411-17.659 13.255-36.784 23.82-58 30.3-2.319.708-3.044 1.767-2.688 4.288 2.085 14.778 17.243 129.7 19.879 150.98.38 3.066 2.34 2.119 4.04 1.834 10.99-1.842 37.539-8.282 58.44-14.664z"/></g><path d="m1977.29 558.5c-1.817 1.465-1.798 2.536-.724 4.533 25.354 47.17 50.631 94.38 75.867 141.61 1.266 2.37 2.208 2.95 4.771 1.316 11.09-7.07 21.346-15.29 31.706-23.281 9.666-7.457 18.418-16.211 26.955-24.994 13.891-14.291 27.29-29.06 40.873-43.651 4.902-5.266 4.869-5.297-1.433-9.492-1.92-1.442-112.53-87.54-121.81-95.25-1.486-1.233-52.57 46.28-56.2 49.21z" fill="#9c3"/><path d="m1565.92 744.78c-12.788-6.085-26.01-11.08-39.564-15.07-14.491-4.269-29.08-8.333-44.28-9.397-6.608-1.753-13.42-1.766-20.16-2.345-18.591-1.597-37.1-.47-55.58 1.682-2.336.272-3.558 1.059-3.02 3.779 1.434 7.269 2.666 14.579 3.978 21.873 2.462 18.456 22.917 138.96 23.373 141.89.242 1.553.926 2.112 2.728 1.678 15.234-3.665 30.524-2.916 45.814-.316 4.288 1.221 8.519 2.73 12.879 3.576 3.897.756 8.06 5.03 11.255 2.48 2.822-2.249 58.77-133.96 64.64-145.87 1.205-2.445-.187-3.068-2.054-3.956z" fill="#cf9"/></g></svg>