<svg xmlns="http://www.w3.org/2000/svg" width="164.07" height="227.09" viewBox="-107.446 370.618 164.074 227.089" enable-background="new -107.446 370.618 164.074 227.089"><path d="m5.554 597.71c-4.04-6.514-8.363-12.867-12.05-19.571-14.07-25.566-27.909-51.26-41.898-76.879-18.998-34.787-38.06-69.54-57.08-104.31-.396-.723-.689-1.502-1.03-2.253-.024-1-.048-2-.071-3.01 4.416-6.45 7.482-6.464 11.11.056 3.84 6.91 7.599 13.865 11.346 20.826 1.305 2.425 2.593 3.695 5.756 2.311 8.619-3.773 17.378-7.24 26.16-10.625 2.806-1.081 2.972-2.418 1.608-4.749-3.509-5.999-6.716-12.183-10.426-18.05-2.812-4.448-.407-7.358 2.506-9.864 2.58-2.219 4.645-.242 5.96 2.089 4.495 7.963 8.891 15.982 13.314 23.985 30.547 55.27 61.1 110.53 91.61 165.82 1.984 3.595 3.779 7.282 4.217 11.511.3 2.897-.788 4.771-3.208 6.152-2.862 1.634-3.86-.916-5.213-2.353-5.649-6-8.706-13.62-12.56-20.72-1.455-2.681-2.668-3.393-5.622-2.094-7.753 3.409-15.65 6.498-23.531 9.61-2.858 1.128-3.95 2.262-2.407 5.648 2.046 4.489 4.373 8.822 6.495 13.262 3.301 6.908 2.849 8.891-2.98 13.207-.666.001-1.332.001-1.999.001m34.574-51.52c-5.849-10.666-11.697-21.332-17.546-31.998-.54.07-1.08.14-1.62.209 2.292 3.666 3.242 6.982-.817 9.578-.881.564.276 1.814.705 2.623 2.563 4.837 5.179 9.648 7.836 14.435.597 1.075.978 2.815 2.782 2.17 3.978-1.423 5.725 1.419 7.745 3.821.759 2.369.976 4.599-1.582 6.107-1.244.733-1.414 1.71-.708 2.92 4.085 7.01 7.117 14.655 12.621 20.797.842.939 1.512 2.459 3.165 1.787 1.857-.755 2.02-2.439 1.886-4.187-.157-2.047-1.064-3.832-2.02-5.577-4.126-7.575-8.296-15.13-12.452-22.685m-63.61-114.44c-.085-.274-.171-.548-.256-.821-.127.147-.254.293-.381.44.24.099.48.198.719.297-.069 1.472.45 3.717-.303 4.291-4.494 3.422-1.182 6.27.349 9.242 1.6 3.106 3.392 6.115 4.942 9.244 1.02 2.059 2.055 3.238 4.776 3.395 4.942.287 7.532 5.943 4.502 9.623-1.374 1.669-.939 2.726-.035 3.856 3.572 4.467 3.642 11.33 9.659 14.1.123.056.32-.065.485-.084 3.199-.366 4.897 1.596 6.202 4.076 1.233 2.344 1.145 4.489-1.239 6.122-.725.497-1.381 1.028-.862 2 2.041 3.815 4.558 7.447 6.06 11.461 2.033 5.431 6.972 3.199 10.618 5.406-.421-3.422-2.132-5.542-3.386-7.83-8.398-15.323-16.756-30.67-25.348-45.885-5.459-9.666-10.173-19.761-16.502-28.931m33.73 158.73c-.533-3.161-2.114-6.096-3.72-9.01-25.392-46.09-50.799-92.17-76.19-138.26-9.159-16.628-18.252-33.29-27.451-49.899-1.025-1.851-1.731-4.92-5.02-3.189-3.389 1.783-2.246 4.236-.743 6.723 1.55 2.564 2.998 5.191 4.431 7.823 30.968 56.892 61.91 113.8 92.91 170.67 3.259 5.978 6.02 12.297 10.793 17.337.847.894 1.555 2.428 3.235 1.393 1.237-.762 1.728-1.972 1.752-3.589m17.17-47.795c.046.149-.017-.369-.255-.787-2.869-5.01-5.793-9.998-8.636-15.03-.821-1.453-1.476-2.198-3.462-1.473-9.372 3.423-18.697 6.931-27.596 11.48-1.395.713-2.517 1.212-1.247 3.304 3.02 4.968 5.699 10.14 8.444 15.269.914 1.709 1.718 2.194 3.871 1.494 9.357-3.046 18.18-7.339 27.21-11.154 1.132-.478 2.174-.937 1.674-3.106m-77.07-70.832c.325-.069.659-.111.974-.212 9.969-3.193 19.435-7.605 28.929-11.95 1.627-.745 1.071-1.566.423-2.714-2.922-5.172-5.78-10.381-8.576-15.622-.735-1.378-1.371-1.916-3.052-1.262-9.417 3.665-19.01 6.904-27.952 11.701-1.445.775-3.02 1.222-1.617 3.58 2.884 4.841 5.447 9.872 8.171 14.809.565 1.031 1.226 2.043 2.7 1.67m15.402 27.797c10.05-3.453 19.877-7.476 29.467-12.08 1.676-.806.932-1.836.398-2.83-2.433-4.525-4.922-9.02-7.345-13.55-.768-1.436-1.653-1.692-3.23-1.116-9.673 3.533-19.309 7.133-28.598 11.621-2.029.981-1.573 2.056-.806 3.406 2.375 4.178 4.776 8.34 7.165 12.51.654 1.139 1.135 2.526 2.949 2.044m45.37 13.491c-2.755-5.062-5.628-10.447-8.627-15.759-.584-1.034-1.456.072-2.101.302-9.505 3.381-18.853 7.14-27.979 11.464-2.137 1.012-2.176 1.93-1.138 3.743 2.31 4.03 4.525 8.125 6.655 12.257 1.06 2.057 2.429 2.249 4.462 1.56 9.287-3.149 18.18-7.225 27.1-11.265.762-.346 2.086-.491 1.631-2.302m-77.69-70.84c.313-.113.621-.244.94-.335 10.262-2.942 19.802-7.661 29.512-11.963 2.095-.928.876-2.173.34-3.178-2.103-3.946-4.47-7.757-6.446-11.762-1.041-2.11-2.314-1.905-3.986-1.247-9.546 3.757-19.218 7.207-28.388 11.877-1.581.805-1.734 1.449-.881 2.911 2.398 4.109 4.663 8.295 6.972 12.456.43.771.97 1.325 1.937 1.241m4.66 8.454c.591-.25.907-.358 1.2-.511 10.476-5.464 21.567-9.434 32.629-13.479 1.607-.588 3.313-1.405 2.147-3.581-.92-1.718-1.905-3.768-4.458-3.1-1.591.416-3.117 1.128-4.624 1.813-9.361 4.255-18.705 8.545-28.482 11.794-1.121.373-3.138.354-1.98 2.33.999 1.705 1.223 4.22 3.568 4.734m31.514 57.52c.508-.228.664-.288.811-.366 10.615-5.604 21.942-9.483 33.13-13.715 1.384-.524 2.892-1.384 1.891-3.338-.917-1.792-1.941-3.723-4.455-3.137-1.599.373-3.149 1.038-4.65 1.728-9.209 4.232-18.443 8.397-28.04 11.707-1 .345-3.251.159-2.074 2.31.947 1.73 1.331 4.054 3.39 4.811m20.576-44.11c.017-3.141-3.536-4.913-7.07-3.327-9.978 4.484-19.896 9.108-30.26 12.664-1.643.564-3.108 1.057-1.552 2.894 1.153 1.361.71 5.186 4.057 3.542 10.589-5.201 21.635-9.24 32.667-13.332 1.094-.406 2.08-1.059 2.15-2.441m-30.668-55.43c-.26-4.35-3.492-5.801-7.317-4.122-10.05 4.41-19.942 9.183-30.381 12.641-1.622.537-3.078 1.133-1.534 2.959 1.214 1.436.734 5.389 4.53 3.442 10.236-5.252 20.989-9.239 31.804-13.09 1.354-.481 2.924-.983 2.898-1.832m41.739 157.05c.718-.234 1.055-.293 1.345-.445 10.491-5.492 21.628-9.415 32.701-13.498 1.477-.545 2.773-1.441 1.874-3.36-.799-1.706-1.832-3.407-4.02-3.104-1.613.223-3.213.846-4.712 1.526-9.384 4.259-18.712 8.644-28.525 11.871-1.028.338-2.752.411-1.984 2.07.844 1.827 1.375 4.076 3.323 4.94m14.397-50.5c-.82.322-2.073.759-3.28 1.297-9.567 4.258-19.01 8.821-28.993 12.07-1.705.554-2.972 1.257-1.621 3.02 1.161 1.515.946 5.257 4.685 3.329 9.927-5.118 20.362-8.999 30.883-12.682 1.583-.554 3.953-1.015 3.112-3.614-.63-1.947-1.863-3.57-4.786-3.418m-54.13-111.58c-5.286-9.71-9.824-18.14-14.473-26.511-.971-1.748-1.758-4.355-4.78-2.533-2.688 1.621-2.274 3.688-1 5.971 3.478 6.236 6.926 12.49 10.39 18.734.639 1.152 1.155 2.498 2.929 2.027 2.184-.579 3.746.943 6.934 2.312m.057-.023c-.472.039-.945.078-1.417.118 1.872 2.998 2.578 5.785-.499 8.11-.823.622-.261 1.572.113 2.271 2.196 4.106 4.452 8.179 6.656 12.281.53.986 1.275 1.641 2.374 1.355 2.429-.632 4.332.673 6.786 1.3-4.672-8.479-9.342-16.957-14.01-25.435" fill="#1d2026"/><g fill="#7e97c0"><path d="m-106.58 391.68c.024 1 .048 2 .071 3.01l-.471-.094-.466.113c0-1 0-2 0-3 .288-.018.577-.027.866-.026"/><path d="m10.249 590.48c-.024 1.617-.516 2.827-1.752 3.589-1.68 1.035-2.388-.499-3.235-1.393-4.772-5.04-7.534-11.359-10.793-17.337-31-56.873-61.944-113.78-92.91-170.67-1.433-2.632-2.881-5.259-4.431-7.823-1.503-2.487-2.646-4.94.743-6.723 3.29-1.731 3.995 1.339 5.02 3.189 9.198 16.607 18.291 33.27 27.45 49.899 25.389 46.09 50.796 92.17 76.19 138.26 1.606 2.915 3.187 5.85 3.72 9.01"/><path d="m-23.481 431.75c6.329 9.17 11.04 19.265 16.502 28.931 8.592 15.214 16.95 30.561 25.348 45.885 1.254 2.288 2.964 4.408 3.386 7.83-3.646-2.207-8.586.025-10.618-5.406-1.502-4.01-4.02-7.646-6.06-11.461-.52-.971.137-1.503.862-2 2.385-1.634 2.473-3.778 1.239-6.122-1.305-2.48-3-4.442-6.202-4.076-.165.019-.363.14-.485.084-6.02-2.768-6.087-9.631-9.659-14.1-.904-1.13-1.339-2.187.035-3.856 3.03-3.68.44-9.336-4.502-9.623-2.72-.158-3.756-1.336-4.776-3.395-1.55-3.129-3.342-6.138-4.942-9.244-1.531-2.972-4.843-5.82-.349-9.242.753-.574.234-2.818.303-4.291l-.082.084"/><path d="m-61.908 450.75c-2.344-.514-2.569-3.03-3.567-4.732-1.158-1.976.859-1.958 1.98-2.33 9.777-3.25 19.12-7.54 28.482-11.794 1.507-.685 3.03-1.397 4.624-1.813 2.553-.668 3.538 1.382 4.458 3.1 1.166 2.176-.54 2.993-2.147 3.581-11.06 4.045-22.15 8.01-32.629 13.479-.294.151-.61.259-1.201.509"/><path d="m-30.394 508.27c-2.058-.757-2.442-3.08-3.39-4.812-1.178-2.151 1.073-1.965 2.074-2.31 9.597-3.31 18.83-7.475 28.04-11.707 1.501-.69 3.052-1.355 4.65-1.728 2.515-.586 3.538 1.345 4.455 3.137 1 1.954-.508 2.815-1.891 3.338-11.184 4.232-22.511 8.111-33.13 13.715-.147.078-.303.138-.811.367"/><path d="m-9.814 464.16c-.074 1.379-1.06 2.032-2.154 2.438-11.03 4.092-22.08 8.131-32.667 13.332-3.347 1.644-2.904-2.181-4.057-3.542-1.556-1.837-.091-2.33 1.552-2.894 10.361-3.555 20.279-8.18 30.26-12.664 3.531-1.587 7.083.186 7.07 3.33"/><path d="m-40.486 408.73c.026.849-1.545 1.351-2.898 1.832-10.814 3.849-21.567 7.836-31.804 13.09-3.796 1.948-3.316-2.01-4.53-3.442-1.545-1.826-.089-2.422 1.534-2.959 10.44-3.458 20.334-8.231 30.381-12.641 3.826-1.679 7.06-.228 7.317 4.122"/><path d="m1.253 565.78c-1.948-.864-2.478-3.113-3.324-4.94-.768-1.66.956-1.732 1.984-2.07 9.813-3.227 19.14-7.612 28.525-11.871 1.499-.68 3.1-1.303 4.712-1.526 2.19-.303 3.222 1.398 4.02 3.104.9 1.92-.396 2.816-1.874 3.36-11.07 4.083-22.21 8.01-32.701 13.498-.289.151-.626.211-1.344.445"/><path d="m15.65 515.27c2.923-.152 4.156 1.471 4.786 3.418.841 2.599-1.53 3.06-3.112 3.614-10.521 3.683-20.956 7.564-30.883 12.682-3.739 1.928-3.523-1.814-4.685-3.329-1.352-1.763-.084-2.466 1.621-3.02 9.983-3.247 19.426-7.81 28.993-12.07 1.207-.538 2.46-.975 3.28-1.297"/><path d="m40.13 546.18c4.154 7.561 8.324 15.11 12.45 22.689.95 1.745 1.858 3.53 2.02 5.577.134 1.747-.03 3.432-1.886 4.187-1.652.672-2.323-.848-3.165-1.787-5.504-6.142-8.536-13.79-12.621-20.797-.706-1.211-.536-2.187.708-2.92 2.559-1.507 2.341-3.738 1.582-6.107.306-.28.612-.561.917-.842"/><path d="m39.21 547.03c-2.02-2.403-3.767-5.244-7.745-3.821-1.804.645-2.185-1.095-2.782-2.17-2.657-4.787-5.272-9.597-7.836-14.435-.429-.809-1.587-2.059-.705-2.623 4.058-2.596 3.108-5.912.817-9.578.54-.07 1.08-.14 1.62-.209 5.849 10.666 11.697 21.332 17.547 31.996-.304.279-.61.56-.916.84"/><path d="m-38.483 403.69c-3.188-1.369-4.751-2.891-6.934-2.312-1.774.471-2.289-.875-2.929-2.027-3.465-6.244-6.912-12.497-10.39-18.734-1.274-2.283-1.688-4.351 1-5.971 3.02-1.822 3.809.785 4.78 2.533 4.649 8.37 9.187 16.801 14.473 26.511"/><path d="m-38.426 403.67c4.671 8.478 9.341 16.956 14.01 25.434-2.453-.627-4.356-1.932-6.786-1.3-1.099.286-1.844-.369-2.374-1.355-2.204-4.102-4.46-8.175-6.656-12.281-.374-.699-.936-1.649-.113-2.271 3.077-2.325 2.37-5.112.499-8.11.473-.039.946-.078 1.418-.117"/><path d="m-23.399 431.66c-.24-.099-.48-.198-.719-.297.127-.147.254-.293.381-.44.085.274.171.548.256.821l.082-.084"/></g></svg>