<svg xmlns="http://www.w3.org/2000/svg" width="93.25" height="302.36" viewBox="-104.132 4.008 93.249 302.356" enable-background="new -104.132 4.008 93.249 302.356"><g fill="#7d97c1"><path d="m-65.885 297.02c-.089.677-.155 2.525-.611 4.271-.531 2.03-2.266 2.79-4.206 2.953-2.082.175-2.2-1.688-2.8-2.961-1.522-3.231-1.756-6.781-2.085-10.23-2.859-30-5.582-60.02-8.379-90.03-3.832-41.12-7.667-82.24-11.553-123.35-2.052-21.714-4.144-43.42-6.394-65.12-.387-3.737.559-5.834 4.429-6.08 4.355-.278 3.918 3.371 4.157 5.783 5.899 59.48 11.287 118.73 17.15 178.22 3.365 34.13 6.719 68.26 10.07 102.4.098.993.109 1.995.22 4.147"/><path d="m-26.01 254.72c-.356-1.636-1.04-3.372 1.648-3.709 2.681-.336 4.355-1.72 4.06-4.636-.259-2.556-1.537-4.65-4.205-4.877-2.921-.249-3.386-1.79-3.451-4.236-.075-2.825-.473-5.644-.797-8.458-.244-2.12-.44-3.897 2.639-4.111 2.198-.153 3.478-1.654 3.342-4.151-.13-2.397-.943-4.771-3.298-4.969-3.924-.329-4.21-2.73-4.388-5.632-.163-2.66-.349-5.325-.705-7.964-.264-1.951.136-3.201 2.263-3.643 2.299-.479 3.307-1.968 3.138-4.357-.17-2.402-1.125-4.151-3.511-4.907-1.337-.424-3.167-.059-3.358-2.225-.425-4.814-.852-9.627-1.304-14.438-.195-2.073 1.481-1.898 2.658-2.182 2.5-.602 3.69-2.056 3.468-4.658-.204-2.388-1.203-4.614-3.654-4.674-3.655-.088-3.869-2.394-4.109-4.932-.235-2.487-.307-4.991-.582-7.474-.202-1.823-.236-3.253 2.175-3.568 2.32-.303 3.422-1.85 3.294-4.229-.138-2.572-1.103-4.819-3.813-5.129-3.03-.346-3.291-2.137-3.378-4.476-.093-2.496-.21-5.01-.622-7.468-.539-3.221-.961-5.913 3.742-6.06 2.027-.062 3.02-2.037 2.768-4.098-.271-2.243-1.202-4.832-3.586-4.821-5.147.024-4.653-3.564-5.02-6.709-.292-2.481-.259-5.01-.661-7.466-.403-2.465.233-3.664 2.877-3.985 2.158-.262 3.605-1.621 3.541-4.088-.068-2.617-1.248-5.146-3.722-5.192-4.571-.084-4.359-2.872-4.466-5.919-.064-1.825-.295-3.655-.591-5.46-.393-2.393-.334-4.164 2.872-4.376 2.427-.16 4.096-1.792 3.763-4.378-.303-2.356-1.288-4.966-4.066-4.972-3.865-.008-4.138-2.249-4.286-5.11-.163-3.159-.48-6.316-.871-9.456-.351-2.814-.651-5.239 3.269-5.886 2.169-.358 2.328-2.577 2.083-4.503-.275-2.154-1.291-4.229-3.564-4.14-3.422.134-3.698-1.728-3.849-4.288-.235-3.98-.611-7.956-1.055-11.919-.399-3.559 2.106-4.135 4.612-4.63 3.353-.662 3.385 1.933 3.591 4.046 1.743 17.903 3.373 35.816 5.144 53.716 3.212 32.482 6.533 64.954 9.742 97.44 3.8 38.458 7.53 76.924 11.29 115.39.551 5.634 1.107 11.268 1.646 16.903.206 2.156.383 4.3-.166 6.457-.55 2.163-1.738 3.551-4.01 3.88-2.625.381-2.891-1.761-3.504-3.395-2.202-5.872-1.731-12.16-2.749-18.218-.436-2.597 1.474-2.44 3.057-2.808 1.969-.458 3.422-1.627 3.338-3.766-.078-1.981-.327-4.756-2.52-4.961-5.166-.484-5.393-4.088-5.888-7.77-.09-2.781-.181-5.566-.272-8.351"/><path d="m-85.87 36.17c-2.31.213-3.706.113-3.948-2.809-.255-3.082 1.257-3.148 3.533-3.103 12.458.244 24.859-.621 37.22-2.144 1.346-.166 2.593-.034 3.886.481 1.636.652 2.341 1.78 2.311 3.434-.039 2.13-1.729 2.286-3.186 2.302-6.974.074-33.532 1.26-39.814 1.839"/><path d="m-74.66 144.9c-2.253.28-4.175.605-4.358-2.843-.203-3.831 2.238-2.864 4.209-2.869 11.95-.029 23.864-.737 35.76-1.811.824-.074 1.657-.235 2.472-.175 1.954.144 3.586.748 3.79 3.102.242 2.801-1.861 2.802-3.626 2.891-4.636.232-9.28.348-13.922.42-8.13.125-16.254.303-24.325 1.285"/><path d="m-52.13 168.53c-8.167.636-14.304.983-20.407 1.648-2.782.303-3.991-.431-4.095-3.316-.113-3.146 1.995-2.32 3.705-2.401 11.607-.55 23.21-1.113 34.818-1.676 1.326-.064 2.651-.218 3.977-.225 2.155-.011 4.06.448 4.214 3.124.162 2.822-2.215 2.734-3.82 2.774-6.804.169-13.615.072-18.392.072"/><path d="m-38.24 110.15c2.255.028 4 .865 4.088 3.377.097 2.834-2.271 2.472-3.951 2.54-7.311.295-32.899 1.302-38.36 1.828-2.884.278-5.361.622-5.291-3.521.068-4.04 3-2.078 4.678-2.234 2.968-.276 37.839-2 38.835-1.99"/><path d="m-82.77 65.63c-2.689.275-3.953-.202-4.16-3.179-.241-3.464 1.957-2.694 3.847-2.677 10.957.099 21.87-.665 32.777-1.599 2.146-.184 4.306-.214 6.46-.299 2.345-.093 4.556.315 4.649 3.189.097 3.01-2.47 2.669-4.335 2.702-5.802.104-31.983 1.121-39.24 1.863"/><path d="m-60.933 84.19c6.305-.447 12.607-.931 18.916-1.323 2.415-.15 5.04-.076 5.01 3.267-.031 3.378-2.936 2.652-4.876 2.656-12.983.025-25.951.296-38.849 1.908-2.746.343-3.407-.864-3.613-3.281-.253-2.973 1.584-2.747 3.468-2.665 6.665.294 13.299-.275 19.948-.562"/><path d="m-54.37 273.88c8.692-.575 18.495-1.242 28.3-1.851 1.481-.092 3.01-.069 4.463.18 1.572.269 2 1.645 2.076 3.038.093 1.693-1.039 2.405-2.5 2.489-2.493.143-4.994.135-7.493.173-10.661.162-21.318.424-31.915 1.738-2.403.298-4.129.212-4.369-3.01-.259-3.486 1.936-2.726 3.817-2.75 2.166-.025 4.332-.005 7.619-.005"/><path d="m-57.23 219.02c8.173-.587 17.14-1.25 26.12-1.857 1.315-.089 2.679-.07 3.966.18 1.759.341 2.302 1.739 2.297 3.385-.005 1.853-1.385 2.083-2.745 2.179-1.826.13-3.661.166-5.492.193-11.162.165-22.32.345-33.432 1.606-1.974.224-4.292 1.164-4.545-2.554-.246-3.609 1.816-3.177 4.03-3.143 2.997.045 5.997.011 9.807.011"/><path d="m-63.803 250.76c-1.603-.121-4.445 1.501-4.607-2.585-.082-2.058.311-3.094 2.626-3.072 12.827.12 25.611-.718 38.38-1.875 2.538-.23 4.999.427 5.01 3.457.013 2.929-2.715 2.453-4.557 2.488-12.15.235-24.3.415-36.855 1.587"/><path d="m-33.364 190.89c2.461-.14 5.483-.509 5.44 3.263-.038 3.366-3 2.59-4.921 2.604-12.647.097-25.292.281-37.869 1.698-3.03.341-2.736-1.443-3.03-3.224-.436-2.622 1.227-2.543 3.01-2.528 4.821.04 29.733-1.378 37.37-1.813"/></g><path d="m-104.13 10.825c.055-.909.11-1.817.164-2.723 1.22-2.813 3.81-3.639 6.438-3.944 2.939-.34 5.211.877 5.626 4.157.74 5.86 1.576 11.717 1.992 17.603.146 2.062.832 2.559 2.584 2.582 11.967.161 23.879-.993 35.82-1.449 2.083-.079 2.181-1.389 1.751-2.665-1.5-4.453-.421-9.163-1.535-13.63-.047-.878-.098-1.76-.149-2.642 1.396-3.237 4.235-4.077 7.337-4.106 2.526-.024 4.067.909 4.372 4.03 2.43 24.873 5.126 49.72 7.643 74.59 2.463 24.331 4.8 48.674 7.21 73.01 2.655 26.807 5.33 53.612 7.996 80.42l-.215.331.267.301c1.057 11.1 1.193 22.385 3.458 33.23 1.852 8.869.889 17.754 2.371 26.52.267 1.581.068 3.378-.413 4.92-.93 2.981-3.159 4.269-6.327 4.654-3.491.424-4.241-1.855-5.085-4.212-2.26-6.309-1.652-13.05-2.824-19.538-.353-1.954-.947-2.534-2.758-2.382-11.229.943-22.538.329-33.75 1.844-2.656.359-2.793 1.496-2.549 3.591.461 3.961.877 7.936 1.067 11.917.196 4.107-.885 7.619-5.456 8.898-1.231.08-2.458.158-3.684.239-4.504-3.243-4.659-14.803-5.05-18.981-.766-8.274-1.917-18.389-2.562-26.688-.91-11.703-1.178-15.305-2.403-26.985-.805-7.678-1.338-15.384-2.083-23.07-1.254-12.935-2.624-25.858-3.865-38.794-1.41-14.707-2.725-29.423-4.091-44.13-2.538-27.323-5.079-54.645-7.636-81.967-.342-3.642-2.871-27.521-3.665-34.922m19.2 70.2l.114.622c1.139 1.813 2.996 1.039 4.469 1.017 7.209-.108 22.11-.696 22.352-.708.663-.019 1.326-.02 1.988-.061 14.452-.888 11.244.884 10.604-12.869-.115-2.479-1.172-3.353-3.744-3.213-7.937.434-15.898.458-23.832.937-13.481.814-13.476.909-11.951 14.275m5.04 50.71c.379 5.452 1.301 5.778 5.604 5.498 10.111-.659 20.241-1.137 30.37-1.347 3.914-.081 4.833-1.513 4.168-5.11-.601-3.254-.873-6.595-.974-9.907-.069-2.291-1.091-2.747-3.087-2.664-9.129.378-18.294.298-27.383 1.096-10.375.911-11.01-.542-8.745 11.716l.047.718m53.96 122.99c-.91-2.796-2.836-3.74-5.728-3.572-11.284.653-22.573 1.269-33.868 1.679-2.691.097-2.473 1.527-2.277 3.217.434 3.736 1.131 7.453 1.344 11.199.204 3.594 1.794 4.989 5.327 4.682 9.535-.831 19.11-1.019 28.66-1.764 5.615-.439 7.635-1.698 6.815-7.084.495 3.681.722 7.286 5.888 7.769 2.193.205 2.442 2.981 2.52 4.961.084 2.138-1.369 3.308-3.338 3.766-1.583.368-3.494.211-3.057 2.808 1.018 6.06.546 12.346 2.749 18.218.613 1.635.879 3.777 3.504 3.395 2.268-.33 3.456-1.718 4.01-3.88.548-2.157.372-4.301.166-6.457-.538-5.635-1.095-11.269-1.646-16.903-3.76-38.462-7.49-76.928-11.29-115.39-3.209-32.483-6.53-64.954-9.742-97.44-1.77-17.9-3.401-35.813-5.144-53.716-.206-2.112-.238-4.707-3.591-4.046-2.506.495-5.01 1.071-4.612 4.63.445 3.963.821 7.939 1.055 11.919.151 2.56.427 4.422 3.849 4.288 2.273-.089 3.289 1.985 3.564 4.14.245 1.926.087 4.145-2.083 4.503-3.921.646-3.62 3.072-3.269 5.886.391 3.14.708 6.297.871 9.456.148 2.861.421 5.102 4.286 5.11 2.778.006 3.762 2.616 4.066 4.972.333 2.586-1.336 4.217-3.763 4.378-3.206.212-3.265 1.983-2.872 4.376.297 1.805.527 3.634.591 5.46.107 3.047-.105 5.835 4.466 5.919 2.474.046 3.655 2.575 3.722 5.192.064 2.467-1.383 3.825-3.541 4.088-2.644.321-3.281 1.52-2.877 3.985.402 2.458.369 4.985.661 7.466.37 3.145-.124 6.734 5.02 6.709 2.384-.011 3.315 2.578 3.586 4.821.249 2.061-.741 4.04-2.768 4.098-4.703.144-4.281 2.836-3.742 6.06.411 2.456.529 4.973.622 7.468.087 2.339.349 4.13 3.378 4.476 2.71.31 3.675 2.557 3.813 5.129.128 2.379-.974 3.926-3.294 4.229-2.411.315-2.377 1.744-2.175 3.568.275 2.482.347 4.986.582 7.474.24 2.537.454 4.843 4.109 4.932 2.451.059 3.45 2.285 3.654 4.674.222 2.601-.968 4.056-3.468 4.658-1.177.283-2.853.109-2.658 2.182.452 4.811.879 9.625 1.304 14.438.191 2.166 2.02 1.801 3.358 2.225 2.385.756 3.341 2.505 3.511 4.907.169 2.389-.839 3.879-3.138 4.357-2.127.443-2.526 1.693-2.263 3.643.357 2.638.542 5.304.705 7.964.178 2.902.464 5.302 4.388 5.632 2.355.198 3.168 2.572 3.298 4.969.136 2.497-1.145 3.998-3.342 4.151-3.079.215-2.883 1.991-2.639 4.111.324 2.814.722 5.633.797 8.458.065 2.445.529 3.987 3.451 4.236 2.668.227 3.946 2.322 4.205 4.877.296 2.916-1.379 4.299-4.06 4.636-2.689.332-2.01 2.068-1.649 3.704m-39.871 42.3c-.111-2.152-.123-3.154-.22-4.148-3.352-34.13-6.706-68.26-10.07-102.4-5.864-59.49-11.729-118.97-17.628-178.45-.239-2.411.675-5.825-3.68-5.548-3.87.247-4.816 2.344-4.429 6.081 2.25 21.694 4.342 43.41 6.394 65.12 3.886 41.12 7.721 82.23 11.553 123.35 2.797 30.01 5.52 60.02 8.379 90.03.329 3.449.562 6.999 2.085 10.23.6 1.273.717 3.136 2.8 2.961 1.94-.163 3.675-.923 4.206-2.953.457-1.746.522-3.594.611-4.271m8.519-240.26c10.424-.585 10.409-.595 9.571-10.757-.15-1.824-.12-3.662-.19-5.492-.105-2.744-1.148-4.162-4.287-4-7.484.387-14.989.367-22.477.692-4.626.2-10.897-.95-13.426 1.547-3.02 2.984.346 9.05.329 13.811-.002.664.141 1.33.132 1.994-.033 2.322 1.075 3.192 3.389 3.147 5.489-.105 23.467-.746 26.959-.942m19.986 132.28c1.505-.108 2.965.141 2.757-2.3-.309-3.633-.087-7.31-.386-10.944-.29-3.526-1.424-6.01-6.02-5.611-7.264.634-14.618.273-21.872.972-4.22.406-9.693-.885-12.358 2.02-2.393 2.606.627 7.563.471 11.542-.039.985.27 1.979.283 2.971.033 2.595 1.384 3.306 3.823 3.21 4.142-.162 26.352-1.356 33.31-1.857m-33.31-97.29c-4.203.599-7.612.039-11.142 1.27-3.125 2.125-2.039 6.071-.815 13.11.428 3.376.91 4.01 4.114 3.963 8.321-.131 16.637-.214 24.936-.895 3.635-.298 8.314.665 10.623-1.242 2.544-2.1-.113-13.02.026-14.337.235-2.213-.646-2.866-2.812-2.817-5.65.128-22.304.573-24.93.947m1.5 108.11c-3.15.023-4.155 1.241-3.752 4.229.444 3.296.893 6.616.946 9.931.041 2.52 1.111 3.053 3.336 2.96 8.151-.342 16.311-.499 24.46-.87 3.814-.174 8.515.566 11.176-1.365 2.928-2.125.509-7.113 1.102-10.803.105-.654-.021-1.349.114-1.992.517-2.474-.598-3.196-2.93-3.156-5.66.092-28.628 1.023-34.452 1.066m10.84 26.08c-12.766.597-13.12 1.109-11.225 13.746.406 2.708 1.521 3.6 4.145 3.477 7.948-.372 15.92-.369 23.848-.974 3.869-.295 9.239 1.436 11.24-1.598 1.822-2.763.216-7.684.44-11.637.178-3.152-1.161-4.097-4.083-4-4.307.134-20.554.813-24.365.991m9.714-64.44c3.773-.407 8.603.883 11.02-1.618 2.131-2.203-.393-6.638-.455-10.116-.006-.333-.106-.672-.064-.996.397-3.01-.791-3.976-3.899-3.905-11.469.263-22.906 1.697-34.403 1-.755-.046-1.746.108-2.259.575-.925.841 1.057 14.788 2.209 15.329.996.468 2.242.534 3.38.545 5.162.053 21.492-.497 24.469-.818m2.578-127.18c1.457-.016 3.148-.172 3.186-2.302.03-1.654-.675-2.782-2.311-3.434-1.292-.515-2.539-.647-3.886-.481-12.359 1.523-24.76 2.388-37.22 2.144-2.276-.045-3.788.021-3.533 3.103.242 2.922 1.638 3.02 3.948 2.809 6.283-.579 32.839-1.765 39.814-1.839m-28.597 110.57c8.07-.983 16.195-1.161 24.324-1.286 4.642-.071 9.286-.187 13.922-.42 1.765-.088 3.868-.089 3.626-2.891-.204-2.354-1.836-2.959-3.79-3.102-.815-.06-1.648.101-2.472.175-11.896 1.074-23.81 1.782-35.76 1.811-1.971.005-4.411-.962-4.209 2.869.183 3.45 2.106 3.125 4.359 2.844m22.53 23.633c4.776 0 11.587.097 18.392-.072 1.605-.04 3.982.048 3.82-2.774-.154-2.676-2.059-3.135-4.214-3.124-1.326.007-2.65.16-3.977.225-11.606.563-23.21 1.125-34.818 1.676-1.71.081-3.819-.744-3.705 2.401.104 2.885 1.314 3.619 4.095 3.316 6.103-.666 12.241-1.012 20.407-1.648m-24.947-56.39c-1.678.156-4.61-1.809-4.678 2.234-.07 4.142 2.407 3.798 5.291 3.521 5.459-.526 31.05-1.534 38.36-1.828 1.679-.068 4.048.294 3.951-2.54-.086-2.512-1.833-3.349-4.088-3.377-.996-.012-35.866 1.714-38.835 1.99m16.928-48.33c5 0 10.809.066 16.611-.038 1.865-.034 4.432.311 4.335-2.702-.093-2.875-2.304-3.282-4.649-3.189-2.154.085-4.314.115-6.46.299-10.907.935-21.82 1.698-32.777 1.599-1.89-.017-4.088-.787-3.847 2.677.207 2.977 1.471 3.454 4.16 3.179 7.255-.742 14.54-1.194 22.627-1.825m-.788 20.391c-6.649.287-13.283.856-19.948.563-1.884-.083-3.721-.309-3.468 2.665.205 2.416.866 3.624 3.613 3.281 12.898-1.612 25.866-1.883 38.849-1.908 1.94-.004 4.845.723 4.876-2.656.031-3.344-2.591-3.417-5.01-3.267-6.309.391-12.611.875-18.916 1.322m6.561 189.68c-3.287 0-5.453-.02-7.619.006-1.881.023-4.076-.737-3.817 2.75.24 3.224 1.966 3.31 4.369 3.01 10.597-1.314 21.254-1.576 31.915-1.738 2.498-.038 5-.031 7.493-.173 1.461-.084 2.592-.796 2.5-2.489-.076-1.393-.504-2.769-2.076-3.038-1.457-.249-2.981-.272-4.463-.18-9.807.609-19.61 1.276-28.3 1.85m-2.855-54.858c-3.81 0-6.809.035-9.808-.011-2.212-.034-4.274-.466-4.03 3.143.254 3.719 2.572 2.778 4.545 2.554 11.11-1.261 22.271-1.442 33.432-1.606 1.832-.027 3.666-.063 5.492-.193 1.36-.097 2.74-.326 2.745-2.179.004-1.645-.538-3.044-2.297-3.385-1.287-.249-2.651-.269-3.966-.18-8.973.606-17.942 1.269-26.11 1.857m-6.576 31.745c12.555-1.172 24.704-1.352 36.854-1.587 1.843-.036 4.57.441 4.557-2.488-.014-3.03-2.474-3.687-5.01-3.457-12.769 1.157-25.552 1.995-38.38 1.875-2.315-.022-2.707 1.014-2.626 3.072.163 4.085 3.01 2.464 4.608 2.585m-6.93-58.06c-1.786-.015-3.448-.094-3.01 2.528.296 1.782.007 3.565 3.03 3.224 12.576-1.417 25.22-1.601 37.869-1.698 1.915-.015 4.883.762 4.921-2.604.042-3.772-2.979-3.404-5.44-3.263-7.638.435-32.549 1.854-37.37 1.813" fill="#16181d"/></svg>