<svg xmlns="http://www.w3.org/2000/svg" viewBox="0 0 1804.3 463.3" enable-background="new 0 0 1804.3 463.3"><path d="m1802 201c0 0-42.9 5.9-107.6-32.9-25.3-15.2-24.9-40.8-29.1-39.2-2.7 1-6.3-54.4-87.9-53.9-9.8.1-19.5 1.9-29.1 3.8-9.3 1.8-18.3 4.6-26.9 8.8-4.3 2.1-8.3 2.3-12.6-.9-5.2-3.9-11.6-6-17.8-7.4-22-4.8-44.2-6.5-66.7-4.3-18 1.8-35.4 5.4-51.6 13.8-3.1 1.6-6.3 3.2-9.9 2.2-5.1-1.4-10.3-2.4-15.4-4.2-8.6-3-17-6.6-25.9-8.8-17.1-4.1-34.6-4.6-52-3.8-9.9.4-19.4 2.8-27.3 9.4-1.6 1.3-3.3 2.9-5.3 2.4-6.5-1.7-13.9-2.3-17.6-9-6.8-12.5-15.4-23.6-25.1-33.9-8.3-6.3-15.9-13.5-25.2-18.5-7.9-4.2-15.8-8.3-23.8-12.4-.5-.1-1-.1-1.5-.3-16.6-6.1-33.5-10.8-51.2-11.7-18.8-.9-37.5.5-56 4.4-7.1 1.5-14.2 4.7-22 2.5-10.2-2.9-20.5-5.5-31.2-6.3-15-1.2-29.9-1.3-44.7 1.1-11 1.8-22.9 11.5-34.2 11 0-.3 0-.5 0-.8-.7.2-1.5.4-2.2.6-.8-.1-1.5-.3-2.2-.6 0 .3 0 .5 0 .8-11.3.5-23.2-9.3-34.2-11-14.8-2.4-29.7-2.3-44.7-1.1-10.7.8-21 3.4-31.2 6.3-7.8 2.2-14.9-1-22-2.5-18.5-3.9-37.2-5.4-56-4.4-17.7.9-34.7 5.6-51.2 11.7-.5.2-1 .2-1.5.3-7.9 4.1-15.9 8.2-23.8 12.4-9.3 5-16.9 12.2-25.2 18.5-9.7 10.3-18.3 21.4-25.1 33.9-3.7 6.7-11.1 7.3-17.6 9-2 .5-3.7-1-5.3-2.4-7.9-6.6-17.4-9-27.3-9.4-17.4-.8-34.9-.3-52 3.8-8.9 2.1-17.3 5.8-25.9 8.8-5 1.7-10.2 2.8-15.4 4.2-3.6 1-6.9-.6-9.9-2.2-16.2-8.4-33.5-12.1-51.6-13.8-22.5-2.2-44.7-.5-66.7 4.3-6.3 1.4-12.6 3.4-17.8 7.4-4.2 3.2-8.3 3-12.6.9-8.6-4.2-17.6-7-26.9-8.8-9.6-1.8-19.2-3.2-29.1-3.8-8.8-.5-17.6-.3-26.4-.7-136.6-6.2-144.1 121.5-198.4 125.5l.1 263.6h136 25 447 105 186.1 1.7 186.1 105 447 25 136l-.2-262.4" fill="#ebf6fb"/></svg>