<?xml version="1.0" encoding="UTF-8" standalone="no"?>
<svg
   xmlns:dc="http://purl.org/dc/elements/1.1/"
   xmlns:cc="http://creativecommons.org/ns#"
   xmlns:rdf="http://www.w3.org/1999/02/22-rdf-syntax-ns#"
   xmlns:svg="http://www.w3.org/2000/svg"
   xmlns="http://www.w3.org/2000/svg"
   xmlns:sodipodi="http://sodipodi.sourceforge.net/DTD/sodipodi-0.dtd"
   xmlns:inkscape="http://www.inkscape.org/namespaces/inkscape"
   viewBox="0 0 1804.3 376.5"
   enable-background="new 0 0 1804.3 376.5"
   id="svg12"
   version="1.1"
   inkscape:version="0.91pre3 r13670"
   sodipodi:docname="background-02_cleaned.svg">
  <metadata
     id="metadata20">
    <rdf:RDF>
      <cc:Work
         rdf:about="">
        <dc:format>image/svg+xml</dc:format>
        <dc:type
           rdf:resource="http://purl.org/dc/dcmitype/StillImage" />
      </cc:Work>
    </rdf:RDF>
  </metadata>
  <defs
     id="defs18" />
  <sodipodi:namedview
     pagecolor="#ffffff"
     bordercolor="#666666"
     borderopacity="1"
     objecttolerance="10"
     gridtolerance="10"
     guidetolerance="10"
     inkscape:pageopacity="0"
     inkscape:pageshadow="2"
     inkscape:window-width="640"
     inkscape:window-height="480"
     id="namedview16"
     showgrid="false" />
  <path
     style="fill:#fdfdfb"
     d="M 1805.5263,208.67075 C 1766.3338,258.28424 1649.1818,105.22064 1591.1942,87.328425 1533.2066,69.436212 1492.4894,178.36018 1430.6959,163.51317 1368.9024,148.66616 1355.3897,42.089717 1294.9,25.9 1234.4103,9.7102826 1195.0158,49.828193 1136.25,57.6125 1077.4842,65.396807 1030.1905,34.067889 969.45469,10.422632 908.71889,-13.222625 841.03979,53.50795 790.38384,84.020215 739.72789,114.53248 671.49941,74.113387 621.525,42.8875 571.55059,11.661613 502.62733,114.63888 440.4,116.87175 378.17267,119.10462 289.85366,69.330272 234.6674,94.677003 179.48114,120.02373 198.93993,175.44965 150.52534,199.71825 102.11075,223.98685 -4.6194577,198.9599 0.24700382,263.41526 L 2.8,376.5 l 1801.5,0 c -0.3333,-97.5 1.5596,-70.32925 1.2263,-167.82925 z"
     id="path14"
     inkscape:connector-curvature="0"
     sodipodi:nodetypes="czzzzzzzzzzcccc" />
</svg>
