<svg xmlns="http://www.w3.org/2000/svg" viewBox="0 0 1804.3 376.5" enable-background="new 0 0 1804.3 376.5"><path d="m1803.3 84c-18.8 7.6-36.7 34.3-47.7 39.2-4.5 2-9 4.3-14.2 4.2-26.7 6.9-114.3-25.8-111.7-23.9-.1.1-.1.1-.2.2-.3-.3-.6-.7-1-1-6.9-6.9-40.1-7.3-48.2-15.4-58.4-44.1-89.7-30.7-98.4-35.1-7.2-3.7-27.1-16.1-35-17.7-9.4-1.8-19.1-2-28.5-.3-5.6 1-11.1 1.9-16.7.3-11.6-3.3-23.4-2.9-34.9.1-6 1.5-10.4-2-14.9-4.1-15.2-7.4-31.2-7.4-47.4-6.8-3.3.1-6.6 1.2-9.6 2.2-8.8 2.8-16.9.2-25.4-1.4-11.2-2-22.5-1.5-33.7.5-12.8 2.3-25.2 5.8-37.1 10.8-9.2 3.9-17.2 9.9-25 16.1-4.2 3.3-8.6 6.1-13.6 8.1-4.8 2-9.4 2-14 .2-6.5-2.6-13.1-3.7-20-1.8-2 .6-3.9-.6-5.9-.7-12.9-.9-25.5.7-37.5 5.6-2.2.9-3.4.9-5.3-.3-3.9-2.2-19.3-21.9-45-14.5-36-42.5-115.2-50.8-128.8-48-13.7-2.8-92.9 5.5-128.8 47.9-25.7-7.3-41.1 12.3-45 14.5-2 1.1-3.2 1.1-5.3.3-12-4.9-24.6-6.5-37.5-5.6-1.9.1-3.9 1.2-5.9.7-6.9-1.9-13.5-.8-20 1.8-4.6 1.8-9.2 1.8-14-.2-5-2.1-9.5-4.8-13.6-8.1-7.8-6.2-15.8-12.2-25-16.1-11.9-5-24.4-8.5-37.1-10.8-11.2-2-22.5-2.5-33.7-.5-8.5 1.5-16.6 4.2-25.4 1.4-3.1-1-6.4-2.1-9.6-2.2-16.2-.6-32.2-.6-47.4 6.8-4.5 2.2-8.8 5.7-14.9 4.1-11.6-2.9-23.3-3.4-34.9-.1-5.7 1.6-11.1.7-16.7-.3-9.5-1.7-19.1-1.5-28.5.3-7.9 1.6-27.8 14-35 17.7-8.6 4.4-40-9-98.4 35.1-8.1 8.1-41.3 8.5-48.2 15.4-.3.3-.6.7-1 1-.1-.1-.1-.1-.2-.2 2.5-1.9-85 30.9-111.7 23.9-5.2.1-9.7-2.2-14.2-4.2-11.1-4.8-32.8-31.5-51.6-39.1l2.8 292.5h898.5 4.5 898.5l-1-292.5" fill="#fdfdfb"/></svg>