<?xml version="1.0" encoding="iso-8859-1"?>
<!-- Generator: Adobe Illustrator 17.0.0, SVG Export Plug-In . SVG Version: 6.00 Build 0)  -->
<!DOCTYPE svg PUBLIC "-//W3C//DTD SVG 1.1//EN" "http://www.w3.org/Graphics/SVG/1.1/DTD/svg11.dtd">
<svg version="1.1" xmlns="http://www.w3.org/2000/svg" xmlns:xlink="http://www.w3.org/1999/xlink" x="0px" y="0px"
	 width="1801.5px" height="463.336px" viewBox="0 0 1801.5 463.336" style="enable-background:new 0 0 1801.5 463.336;"
	 xml:space="preserve">
<style type="text/css">
	.st0{fill:#44AFCF;}
	.st1{fill:#71BCD8;}
	.st2{fill:#8CC5DD;}
	.st3{fill:#B2D6E6;}
	.st4{fill:#9FCEE2;}
	.st5{fill:#EBF6FB;}
	.st6{fill:#FDFDFB;}
	.st7{fill:#1F9042;}
	.st8{fill:#3B803A;}
	.st9{fill:#BED643;}
	.st10{fill:#A9CD48;}
	.st11{fill:#80BD42;}
	.st12{fill:#68B445;}
	.st13{fill:#CF2757;}
	.st14{fill:#D9E37C;}
	.st15{fill:#51B85D;}
</style>
<g id="Layer_3">
</g>
<g id="Layer_2">
	<path id="blueClouds" class="st5" d="M1800.523,201.05c0,0-42.854,5.913-107.561-32.911c-25.316-15.19-24.931-40.802-29.114-39.241
		c-2.678,1-6.329-54.406-87.927-53.888c-9.823,0.062-19.476,1.914-29.051,3.759c-9.276,1.787-18.345,4.572-26.907,8.767
		c-4.308,2.111-8.348,2.299-12.577-0.896c-5.224-3.946-11.567-5.993-17.836-7.36c-21.994-4.796-44.206-6.473-66.731-4.264
		c-18.01,1.766-35.374,5.436-51.552,13.821c-3.098,1.606-6.328,3.151-9.948,2.184c-5.12-1.367-10.307-2.418-15.354-4.154
		c-8.628-2.968-17.01-6.635-25.942-8.771c-17.142-4.101-34.551-4.579-51.993-3.813c-9.868,0.433-19.389,2.822-27.266,9.445
		c-1.561,1.313-3.333,2.867-5.3,2.36c-6.504-1.679-13.935-2.284-17.598-8.976c-6.834-12.483-15.415-23.581-25.132-33.88
		c-8.296-6.315-15.939-13.536-25.198-18.517c-7.871-4.233-15.848-8.271-23.778-12.395c-0.489-0.102-0.999-0.144-1.463-0.314
		c-16.582-6.093-33.523-10.847-51.239-11.73c-18.817-0.938-37.469,0.531-56,4.419c-7.129,1.496-14.203,4.675-21.989,2.457
		c-10.208-2.907-20.483-5.466-31.191-6.311c-14.982-1.183-29.889-1.268-44.717,1.13c-10.967,1.774-22.857,11.543-34.162,11.028
		c0-0.269,0.003-0.523,0.003-0.794c-0.747,0.241-1.497,0.421-2.25,0.552c-0.753-0.132-1.503-0.311-2.25-0.552
		c0,0.271,0.002,0.525,0.003,0.794c-11.306,0.515-23.195-9.254-34.162-11.028c-14.828-2.398-29.735-2.313-44.717-1.13
		c-10.708,0.846-20.983,3.404-31.191,6.311c-7.786,2.218-14.86-0.961-21.989-2.457c-18.532-3.888-37.183-5.357-56-4.419
		c-17.716,0.883-34.657,5.638-51.239,11.73c-0.463,0.17-0.974,0.212-1.463,0.314c-7.93,4.124-15.907,8.162-23.778,12.395
		c-9.259,4.98-16.903,12.201-25.198,18.517c-9.717,10.299-18.297,21.397-25.132,33.88c-3.664,6.692-11.094,7.297-17.598,8.976
		c-1.967,0.508-3.739-1.047-5.3-2.36c-7.877-6.624-17.398-9.012-27.266-9.445c-17.442-0.765-34.851-0.288-51.993,3.813
		c-8.932,2.137-17.314,5.804-25.942,8.771c-5.047,1.736-10.234,2.787-15.354,4.154c-3.62,0.966-6.85-0.579-9.948-2.184
		c-16.178-8.385-33.542-12.055-51.552-13.821c-22.525-2.209-44.737-0.532-66.731,4.264c-6.268,1.367-12.612,3.414-17.836,7.36
		c-4.229,3.195-8.269,3.006-12.577,0.896c-8.562-4.194-17.631-6.98-26.907-8.767c-9.575-1.845-19.245-3.181-29.051-3.759
		c-8.8-0.518-17.601-0.312-26.375-0.708C62.582,68.139,54.987,195.834,0.732,199.785L0.86,463.336h136.006h25h447h105h186.057h1.653
		h186.057h105h447h25h136.006L1800.523,201.05z"/>
</g>
<g id="Layer_1">
</g>
<g id="Layer_4">
</g>
</svg>
