<?xml version="1.0" encoding="iso-8859-1"?>
<!-- Generator: Adobe Illustrator 17.0.0, SVG Export Plug-In . SVG Version: 6.00 Build 0)  -->
<!DOCTYPE svg PUBLIC "-//W3C//DTD SVG 1.1//EN" "http://www.w3.org/Graphics/SVG/1.1/DTD/svg11.dtd">
<svg version="1.1" xmlns="http://www.w3.org/2000/svg" xmlns:xlink="http://www.w3.org/1999/xlink" x="0px" y="0px"
	 width="1804.306px" height="376.527px" viewBox="0 0 1804.306 376.527" style="enable-background:new 0 0 1804.306 376.527;"
	 xml:space="preserve">
<style type="text/css">
	.st0{fill:#44AFCF;}
	.st1{fill:#71BCD8;}
	.st2{fill:#8CC5DD;}
	.st3{fill:#B2D6E6;}
	.st4{fill:#9FCEE2;}
	.st5{fill:#EBF6FB;}
	.st6{fill:#FDFDFB;}
	.st7{fill:#1F9042;}
	.st8{fill:#3B803A;}
	.st9{fill:#BED643;}
	.st10{fill:#A9CD48;}
	.st11{fill:#80BD42;}
	.st12{fill:#68B445;}
	.st13{fill:#CF2757;}
	.st14{fill:#D9E37C;}
	.st15{fill:#51B85D;}
</style>
<g id="Layer_3">
</g>
<g id="Layer_2">
</g>
<g id="Layer_1">
	<path id="whiteClouds" class="st6" d="M1803.306,84.018c-18.75,7.625-36.737,34.306-47.744,39.162
		c-4.488,1.98-9.004,4.349-14.182,4.222c-26.742,6.925-114.267-25.817-111.749-23.931c-0.055,0.059-0.106,0.115-0.161,0.173
		c-0.329-0.34-0.639-0.681-0.978-1.021c-6.876-6.876-40.078-7.34-48.161-15.423c-58.359-44.141-89.734-30.71-98.359-35.141
		c-7.207-3.703-27.086-16.121-35.035-17.678c-9.443-1.849-19.053-2.005-28.544-0.327c-5.609,0.991-11.06,1.94-16.711,0.341
		c-11.631-3.291-23.378-2.864-34.937,0.068c-6.035,1.53-10.37-1.957-14.861-4.143c-15.159-7.377-31.185-7.443-47.358-6.803
		c-3.258,0.129-6.59,1.225-9.641,2.201c-8.8,2.815-16.932,0.179-25.395-1.363c-11.169-2.035-22.477-1.511-33.67,0.473
		c-12.755,2.26-25.187,5.782-37.107,10.796c-9.227,3.881-17.194,9.941-25.029,16.131c-4.165,3.29-8.626,6.06-13.644,8.115
		c-4.845,1.984-9.372,1.99-14.016,0.16c-6.507-2.564-13.064-3.695-19.965-1.762c-1.981,0.555-3.926-0.562-5.873-0.695
		c-12.909-0.879-25.527,0.719-37.547,5.594c-2.181,0.884-3.391,0.866-5.35-0.252c-3.868-2.208-19.318-21.856-44.984-14.523
		c-35.875-42.441-115.12-50.68-128.75-47.91c-13.63-2.77-92.875,5.468-128.75,47.91c-25.667-7.333-41.117,12.315-44.984,14.523
		c-1.958,1.118-3.169,1.137-5.35,0.252c-12.02-4.875-24.639-6.473-37.547-5.594c-1.947,0.133-3.892,1.25-5.873,0.695
		c-6.901-1.933-13.458-0.802-19.966,1.762c-4.643,1.829-9.171,1.824-14.015-0.16c-5.018-2.055-9.479-4.825-13.644-8.115
		c-7.835-6.189-15.801-12.249-25.029-16.131c-11.92-5.014-24.352-8.536-37.107-10.796c-11.193-1.983-22.501-2.508-33.67-0.473
		c-8.463,1.542-16.595,4.178-25.395,1.363c-3.051-0.976-6.383-2.072-9.641-2.201c-16.173-0.641-32.199-0.574-47.358,6.803
		c-4.491,2.186-8.826,5.673-14.861,4.143c-11.559-2.931-23.306-3.359-34.937-0.068c-5.651,1.599-11.103,0.65-16.711-0.341
		c-9.491-1.678-19.101-1.522-28.544,0.327c-7.949,1.556-27.828,13.975-35.035,17.678c-8.625,4.431-40-9-98.359,35.141
		c-8.083,8.083-41.285,8.547-48.161,15.423c-0.339,0.339-0.649,0.68-0.978,1.021c-0.055-0.058-0.106-0.115-0.161-0.173
		c2.518-1.886-85.008,30.856-111.749,23.931c-5.178,0.127-9.693-2.242-14.181-4.222C40.543,118.325,18.75,91.644,0,84.018
		l2.806,292.509h898.5h4.5h898.5L1803.306,84.018z"/>
</g>
<g id="Layer_4">
</g>
</svg>
